<?xml version="1.0" encoding="UTF-8"?><svg xmlns="http://www.w3.org/2000/svg" viewBox="0 0 1368.96 808.96"><defs><style>.f{fill:#ba9e61;}.f,.g,.h,.i,.j,.k{stroke:#000;stroke-miterlimit:10;}.g{fill:#f5d8a3;}.h,.j{fill:none;}.j{stroke-width:2px;}.k{fill:#fff;}.l{fill:#c71e18;opacity:.5;}</style></defs><g id="a"><path class="g" d="M633.34,507.25c-43.53-3.33-77.54,21.87-81,47-5.58,40.58,69.24,75.62,82,65,5.16-4.29,2.87-18.3-1-27-6.26-14.08-18.19-17.7-17-22,2.06-7.46,39.76-3.34,51-2,55.48,6.63,63.66,16.95,89,12,29.07-5.68,48.45-25.16,50-23,2.09,2.91-39.76,29.11-35,41,3.54,8.86,33.74,11.81,50-2,13.08-11.11,8.71-25.91,26-39,9.03-6.83,16.54-7.59,17-13,.39-4.62-4.86-6.74-20-20-12.75-11.17-12.92-13.09-20-17-9.72-5.38-18.25-6.65-21-7-5.72-.72-10.57-.43-14,0"/></g><g id="b"><path class="g" d="M648.05,516.17c-8.12-3.86-20.99-10.12-32.72-23.45-6.35-7.22-15.47-17.58-19.62-33.52-2.66-10.21-1.76-16.86-7.48-21.69-5.62-4.75-11.43-2.49-16.82-7.89-4.29-4.29-5.35-10.44-5.61-14.79-3.44-10.72-2.08-19.69,1.87-21.69,3.84-1.95,10.53,2.49,11.21,2.96,4.49,3.04,4.65,5.79,6.54,5.91,5,.34,7.46-18.67,15.89-33.52,7.1-12.52,16.4-18.57,30.43-27.56,10.4-6.67,34.76-21.88,69.78-23.81,35.96-1.98,75.03,10.5,94.25,32.38,7.42,8.45,12.85,14.62,16.73,24.91,4.48,11.87,4.99,24.14,9.34,24.64,1.78,.2,2.35-1.76,7.48-4.93,4.31-2.66,8.02-4.95,10.28-3.94,6.17,2.76,5.48,32.12-6.54,38.45-4.37,2.3-6.77-.27-11.21,1.97-9,4.54-8.8,19.97-11.21,31.55-5.16,24.7-24.11,40.29-30.27,45.44-19.31,16.13-41.41,17.95-62.03,19.65-12.99,1.07-40.63,3.01-70.28-11.08Z"/></g><g id="c"><path class="f" d="M685.34,337.25c-3.3,2.8-11.88,10.08-13,22-1.37,14.67,9.45,27.07,20,32,9.9,4.63,21.29,3.5,22,1,.74-2.62-10.69-5.22-12-13-1.04-6.2,4.96-12.02,7-14,11.51-11.17,24.56-6.66,28-14,2.87-6.13-3.02-16.17-10-21-12.82-8.87-31.66-1.77-42,7Z"/></g><g id="d"><path class="k" d="M683.79,424.35c-.97-11.27-15.88-15.8-17.07-16.14-13.87-4.01-33.78,2.23-36.74,14.23-2,8.1,4.43,15.96,9.7,19.76,9.61,6.93,23.5,6.2,32.86,.06,1.39-.91,12.12-7.95,11.26-17.9Z"/><path class="k" d="M727.09,423.46c.97-11.27,15.88-15.8,17.07-16.14,13.87-4.01,33.78,2.23,36.74,14.23,2,8.1-4.43,15.96-9.7,19.76-9.61,6.93-23.5,6.2-32.86,.06-1.39-.91-12.12-7.95-11.26-17.9Z"/><path class="i" d="M761.76,412.38c-4.62-5.04-10.43-5.46-12.06-5.51-2.07-.06-9.25,.11-14.07,6.61-5.19,7-3.29,15.44-3.02,16.54,1.77,7.13,7.53,13.36,15.08,14.33,7.34,.94,15.02-3.27,18.09-11.02,3.05-7.69,.47-16.05-4.02-20.94Zm-10.12,19.01c-6.45,0-6.43-10,0-10s6.43,10,0,10Zm3.91-10.69c-4.51,0-4.5-7,0-7s4.5,7,0,7Z"/><path class="j" d="M664.84,388.75c-3.72-1.04-8.7-1.92-14.5-1.5-16.22,1.17-26.81,11.6-30,15"/><path class="j" d="M741.41,388.3c3.72-1.04,8.7-1.92,14.5-1.5,16.22,1.17,26.81,11.6,30,15"/><ellipse class="l" cx="620.34" cy="456.75" rx="14.5" ry="10"/><ellipse class="l" cx="785.34" cy="456.75" rx="14.5" ry="10"/><path class="h" d="M705.34,449.25c-1.41,1.92-3.38,4.95-5,9-1.63,4.07-2.53,6.42-1.5,8.5,1.95,3.92,9.12,3.52,9.5,3.5"/><path class="h" d="M674.34,490.25c18.51,7.34,32.97,6.37,41,5,12.96-2.21,28.56-8.79,28-13-.35-2.62-6.95-4.11-7-4-.05,.11,5.73,2.68,11,5"/><path class="h" d="M705.34,504.25c3.18,.29,7.75,.32,13-1,3.21-.81,5.9-1.93,8-3"/></g><g id="e"><path class="i" d="M673.49,413.27c-4.62-5.04-10.43-5.46-12.06-5.51-2.07-.06-9.25,.11-14.07,6.61-5.19,7-3.29,15.44-3.02,16.54,1.77,7.13,7.53,13.36,15.08,14.33,7.34,.94,15.02-3.27,18.09-11.02,3.05-7.69,.47-16.05-4.02-20.94Zm-10.12,19.01c-6.45,0-6.43-10,0-10s6.43,10,0,10Zm3.91-10.69c-4.51,0-4.5-7,0-7s4.5,7,0,7Z"/></g></svg>