<?xml version="1.0" encoding="UTF-8"?><svg xmlns="http://www.w3.org/2000/svg" viewBox="0 0 1368.96 808.96"><defs><style>.i,.j,.k,.l,.m,.n,.o,.p,.q,.r,.s,.t,.u{stroke-miterlimit:10;}.i,.j,.k,.l,.m,.n,.p,.q,.r,.s,.t,.u{stroke:#000;}.i,.l,.p{fill:none;}.i,.m,.q,.r,.u{stroke-width:4px;}.j{fill:#ba9e61;}.k{fill:#f5d8a3;}.m,.o{fill:#d9d9d9;}.o{stroke:#bebebe;}.p{stroke-width:2px;}.q,.s,.t,.u{fill:#fff;}.r{fill:#a5abd6;}.v{fill:#c71e18;}.v,.u{opacity:.5;}.t{stroke-width:3px;}</style></defs><g id="a"><path class="r" d="M269.65,332.15c.33-71.91,.67-143.82,1-215.73,55.5,.03,110.99,.05,166.49,.08,1,73.83,2.01,147.67,3.01,221.5-56.83-1.95-113.67-3.9-170.5-5.85Z"/><path class="q" d="M811.19,44.9l-.55,91.2"/><path class="m" d="M738.51,194.66c1.48,12.35,45.58,16.99,72.25,17.23,22.95,.21,69.87-2.51,72.13-16.08,.95-5.71-8.8-12.66-28.3-26.55-21.92-15.62-32.89-23.42-44.06-23.16-4.81,.11-9.17,1.23-43.89,25.14-26.63,18.34-28.45,20.7-28.13,23.42Z"/><polyline class="q" points="1.15 560.29 161.65 447.5 986.32 447.5 986.32 86.33 1167.57 86.33 1167.57 447.79 1309.65 448.5 1367.15 506.12"/><polygon class="u" points="278.65 116.42 278.65 307.17 430.19 307.17 424.98 116.5 278.65 116.42"/><line class="i" x1="161.65" y1="447.5" x2="161.65"/></g><g id="b"><path class="i" d="M1.84,577.75c22.03-1.44,57.24-3.98,100.39-8.28,157.66-15.7,207.98-33.53,304.75-34.16,67.15-.44,57.19,8.06,163.73,15.53,68.31,4.79,208.97,13.97,371.68-8.28,153.57-21,193.25-51.74,288.02-32.09,61.11,12.67,107.25,38.43,137.44,59"/></g><g id="c"><path class="k" d="M633.34,507.25c-43.53-3.33-77.54,21.87-81,47-5.58,40.58,69.24,75.62,82,65,5.16-4.29,2.87-18.3-1-27-6.26-14.08-18.19-17.7-17-22,2.06-7.46,39.76-3.34,51-2,55.48,6.63,63.66,16.95,89,12,29.07-5.68,48.45-25.16,50-23,2.09,2.91-39.76,29.11-35,41,3.54,8.86,33.74,11.81,50-2,13.08-11.11,8.71-25.91,26-39,9.03-6.83,16.54-7.59,17-13,.39-4.62-4.86-6.74-20-20-12.75-11.17-12.92-13.09-20-17-9.72-5.38-18.25-6.65-21-7-5.72-.72-10.57-.43-14,0"/></g><g id="d"><path class="k" d="M648.05,516.17c-8.12-3.86-20.99-10.12-32.72-23.45-6.35-7.22-15.47-17.58-19.62-33.52-2.66-10.21-1.76-16.86-7.48-21.69-5.62-4.75-11.43-2.49-16.82-7.89-4.29-4.29-5.35-10.44-5.61-14.79-3.44-10.72-2.08-19.69,1.87-21.69,3.84-1.95,10.53,2.49,11.21,2.96,4.49,3.04,4.65,5.79,6.54,5.91,5,.34,7.46-18.67,15.89-33.52,7.1-12.52,16.4-18.57,30.43-27.56,10.4-6.67,34.76-21.88,69.78-23.81,35.96-1.98,75.03,10.5,94.25,32.38,7.42,8.45,12.85,14.62,16.73,24.91,4.48,11.87,4.99,24.14,9.34,24.64,1.78,.2,2.35-1.76,7.48-4.93,4.31-2.66,8.02-4.95,10.28-3.94,6.17,2.76,5.48,32.12-6.54,38.45-4.37,2.3-6.77-.27-11.21,1.97-9,4.54-8.8,19.97-11.21,31.55-5.16,24.7-24.11,40.29-30.27,45.44-19.31,16.13-41.41,17.95-62.03,19.65-12.99,1.07-40.63,3.01-70.28-11.08Z"/></g><g id="e"><path class="j" d="M685.34,337.25c-3.3,2.8-11.88,10.08-13,22-1.37,14.67,9.45,27.07,20,32,9.9,4.63,21.29,3.5,22,1,.74-2.62-10.69-5.22-12-13-1.04-6.2,4.96-12.02,7-14,11.51-11.17,24.56-6.66,28-14,2.87-6.13-3.02-16.17-10-21-12.82-8.87-31.66-1.77-42,7Z"/></g><g id="f"><path class="s" d="M683.79,424.35c-.97-11.27-15.88-15.8-17.07-16.14-13.87-4.01-33.78,2.23-36.74,14.23-2,8.1,4.43,15.96,9.7,19.76,9.61,6.93,23.5,6.2,32.86,.06,1.39-.91,12.12-7.95,11.26-17.9Z"/><path class="s" d="M727.09,423.46c.97-11.27,15.88-15.8,17.07-16.14,13.87-4.01,33.78,2.23,36.74,14.23,2,8.1-4.43,15.96-9.7,19.76-9.61,6.93-23.5,6.2-32.86,.06-1.39-.91-12.12-7.95-11.26-17.9Z"/><path class="n" d="M761.76,412.38c-4.62-5.04-10.43-5.46-12.06-5.51-2.07-.06-9.25,.11-14.07,6.61-5.19,7-3.29,15.44-3.02,16.54,1.77,7.13,7.53,13.36,15.08,14.33,7.34,.94,15.02-3.27,18.09-11.02,3.05-7.69,.47-16.05-4.02-20.94Zm-10.12,19.01c-6.45,0-6.43-10,0-10s6.43,10,0,10Zm3.91-10.69c-4.51,0-4.5-7,0-7s4.5,7,0,7Z"/><path class="p" d="M664.84,388.75c-3.72-1.04-8.7-1.92-14.5-1.5-16.22,1.17-26.81,11.6-30,15"/><path class="p" d="M741.41,388.3c3.72-1.04,8.7-1.92,14.5-1.5,16.22,1.17,26.81,11.6,30,15"/><ellipse class="v" cx="620.34" cy="456.75" rx="14.5" ry="10"/><ellipse class="v" cx="785.34" cy="456.75" rx="14.5" ry="10"/><path class="l" d="M705.34,449.25c-1.41,1.92-3.38,4.95-5,9-1.63,4.07-2.53,6.42-1.5,8.5,1.95,3.92,9.12,3.52,9.5,3.5"/><path class="l" d="M674.34,490.25c18.51,7.34,32.97,6.37,41,5,12.96-2.21,28.56-8.79,28-13-.35-2.62-6.95-4.11-7-4-.05,.11,5.73,2.68,11,5"/><path class="l" d="M705.34,504.25c3.18,.29,7.75,.32,13-1,3.21-.81,5.9-1.93,8-3"/></g><g id="g"><path class="n" d="M673.49,413.27c-4.62-5.04-10.43-5.46-12.06-5.51-2.07-.06-9.25,.11-14.07,6.61-5.19,7-3.29,15.44-3.02,16.54,1.77,7.13,7.53,13.36,15.08,14.33,7.34,.94,15.02-3.27,18.09-11.02,3.05-7.69,.47-16.05-4.02-20.94Zm-10.12,19.01c-6.45,0-6.43-10,0-10s6.43,10,0,10Zm3.91-10.69c-4.51,0-4.5-7,0-7s4.5,7,0,7Z"/></g><g id="h"><path class="q" d="M403.57,692.95l77.65,21.06,102.09,25.53-175.28,55.77-223.74-60.74-28.43-193.83,232.35,23.2c7.52,66.67,15.03,133.33,22.55,200"/><polyline class="o" points="399.38 782.12 188.13 726.67 169.97 555.71 284.67 573.74"/><path class="t" d="M1144.56,635.33c1.54-19.68-32.02-38.65-50.05-45.87-31.23-12.5-70.27-11.51-70.26-11.61,0,0,.11-.02,.11,0,.01,.04-.46,.21-.62,.29-.57,.27-1.06,.53-1.7,.87-25.85,13.64-58.73,32.4-64.38,35.63-.39,.22-.6,.34-.65,.37-20.92,11.98-36.72,22.64-54.12,34.84-36.32,25.47-39,28.13-38.32,29.61,1.85,4.03,24.79-8.52,55.16-3.48,12.82,2.12,22.94,6.71,29.73,10.45,0,0,21.67,11,32.52,22.07,10.21,10.42,9.05,14.05,14.52,16.84,16.12,8.22,37.89-17.32,82.45-45.87,45.22-28.97,64.46-29.31,65.61-44.13Z"/><path class="t" d="M1144.97,628.84c10.91-3.89,26.71-2.66,65.63,10.78,39.96,13.8,66.26,37.3,79.8,51.37l-169.97,115.76c-6.19-12.54-16.86-29.74-35.25-43.64-37.02-27.98-87.36-29-86.67-37.09,.08-.94,2.48-2.5,7.29-5.58,7.88-5.05,11.81-7.58,18.66-10.78,9.73-4.55,15.77-10.89,48.94-33.76,13.35-9.2,28.32-19.55,48.97-33.18,18.74-12.36,20.53-13.15,22.58-13.88Z"/><path class="t" d="M865.64,692.57c10.32-3.28,31.1-8.37,56.94-4.13,25.73,4.23,43.74,15.64,52.47,22.03"/></g></svg>