<?xml version="1.0" encoding="UTF-8"?><svg xmlns="http://www.w3.org/2000/svg" viewBox="0 0 746.22 406.6"><defs><style>.d{fill:#e6e6e6;}.e{stroke-width:10px;}.e,.f{fill:#fff;stroke:#000;stroke-miterlimit:10;}.g{fill:#ed1c24;}</style></defs><g id="a"><path class="e" d="M487.34,104.02c2.64-33.9-55.14-66.57-86.2-79C347.37,3.49,280.12,5.19,280.14,5.02c0,0,.19-.03,.2,0,.02,.07-.79,.36-1.07,.5-.97,.47-1.83,.92-2.93,1.5-44.52,23.49-101.14,55.79-110.87,61.36-.67,.39-1.03,.59-1.13,.64-36.03,20.63-63.24,38.99-93.2,60C8.6,172.88,3.97,177.46,5.14,180.02c3.18,6.94,42.68-14.67,95-6,22.07,3.66,39.5,11.55,51.2,18,0,0,37.33,18.95,56,38,17.59,17.95,15.58,24.19,25,29,27.76,14.16,65.25-29.83,142-79,77.87-49.89,111.01-50.48,113-76Z"/></g><g id="b"><path class="e" d="M488.05,92.83c18.78-6.71,46-4.59,113.03,18.57,68.81,23.77,114.12,64.23,137.43,88.47l-292.72,199.36c-10.65-21.59-29.04-51.22-60.7-75.16-63.75-48.2-150.44-49.95-149.26-63.87,.14-1.62,4.28-4.31,12.55-9.62,13.56-8.7,20.35-13.05,32.14-18.57,16.75-7.84,27.16-18.76,84.29-58.14,22.99-15.84,48.77-33.68,84.34-57.14,32.27-21.29,35.35-22.64,38.89-23.91Z"/><path class="e" d="M7,202.59c17.77-5.65,53.56-14.42,98.05-7.1,44.32,7.29,75.33,26.93,90.36,37.94"/></g><g id="c"><path class="f" d="M657.14,202.02c-8.76-7.23-16.96-12.77-24-17-14.69-8.83-18.53-8.51-28-16-14.07-11.14-11.92-16.88-21-20-13.79-4.73-24.17,6.65-33,0-4.55-3.42-3.03-7.37-9-14-5.16-5.73-11.46-8.53-16-10-5.8-.49-14.25-2-23.24-6.66-3.88-2.01-7.12-4.23-9.76-6.34"/><path class="f" d="M482.14,124.02c3.04,2.4,7.83,6.02,14,10,5.03,3.25,8.45,5.11,25,14,18.38,9.88,18.61,9.98,20,11,9.77,7.18,11.14,11.53,19,14,6.76,2.12,8.16-.34,16,1,6.39,1.09,10.7,3.62,25,14,7.41,5.38,15.45,11.38,24,18"/><path class="f" d="M456.14,139.02c11.8,2.55,21.31,5.6,28,8,15.06,5.42,28.33,10.33,41,22,4.67,4.3,7.98,8.34,10,11"/><path class="f" d="M556.14,189.02c6.26,1.48,14.36,4.12,23,9,5.2,2.94,9.51,6.09,13,9"/><path class="f" d="M184.14,94.02c27.87-3.16,42.62,3.23,51,10,4.02,3.25,5.96,6.09,13,11,6.34,4.42,11.31,6.68,30,15,8.32,3.71,14.82,6.59,18,8"/><path class="f" d="M167.14,108.02c4.24-2.36,10.69-5.02,18-4,8.06,1.13,12.36,6.06,21,12,5.6,3.85,14.12,8.88,26,13"/><path class="f" d="M246.14,139.02c10.67,3.33,21.33,6.67,32,10"/><path class="f" d="M153.14,118.02c6.27-.19,16.54,.34,28,5,7.39,3.01,13.05,6.83,17,10"/><path class="f" d="M216.14,142.02c8.7,1.24,15.44,3.32,20,5,10.38,3.83,12.14,6.55,24,11,10.1,3.79,11.74,2.9,18,6,8.79,4.36,14.56,10.57,18,15"/><path class="g" d="M430.14,180.02c-10.25,1.3-30.43,3.85-46,20-4.73,4.9-16.28,16.89-15,32,1.31,15.38,15.13,24.84,30,35,13.16,9,33.06,22.6,61,21,7.53-.43,28.52-1.94,46-18,5.1-4.69,22.8-20.94,20-41-2.5-17.88-19.76-27.81-34-36-6.6-3.8-30.36-17.01-62-13Z"/><path class="d" d="M258.14,48.02c-22.68,16.06-34.01,24.18-33.5,28.5,1.11,9.39,24.57,5.84,55.5,23.5,24.68,14.09,26.04,25.65,40.5,25.5,4.69-.05,8.28-1.3,44-27,19.32-13.9,21.99-16.21,22-20,0-5.89-6.43-9.89-52-30-32.47-14.33-42.38-18.11-54.5-14.5-3.77,1.12-9.9,5.43-22,14Z"/></g></svg>