<?xml version="1.0" encoding="UTF-8"?><svg xmlns="http://www.w3.org/2000/svg" viewBox="0 0 702.92 334.66"><defs><style>.f{fill:#fff;}.f,.g{stroke:#000;stroke-miterlimit:10;stroke-width:4px;}</style></defs><g id="a"><path class="g" d="M634.52,106.07c.47-1.12,1.46-4.36-4.4-13.83-11.75-18.99-23.77-18.97-32.08-32.92-.49-.82-10.28-17.76-4.4-32.26,5.97-14.71,24.55-18.19,43.4-21.73,16.55-3.1,43.49-8.15,54.72,7.24,5.13,7.04,5.06,15.73,5.03,19.09-.08,9.44-3.69,16.58-15.72,34.89-15.03,22.87-24.04,34.03-21.38,37.53,2.53,3.32,12.81-3.96,18.24,1.32,3.68,3.58,2.63,10.49,2.52,11.19-.93,5.63-4.78,9.15-6.29,10.53-10.2,9.32-46.02,22.61-84.28,6.58-2.83-1.18-18.41-7.71-17.61-12.51,.66-4.01,12.53-5.56,31.45-7.9,19.89-2.47,28.58-1.97,30.82-7.24Z"/><polygon class="g" points="642.7 143.6 642.7 208.12 690.5 223.92 584.21 223.92 626.98 208.12 627.61 143.6 642.7 143.6"/></g><g id="b"><polygon class="f" points="263.22 322.34 269.16 118.38 305.8 123.33 289.74 322.34 263.22 322.34"/><polygon class="f" points="193.6 240.08 183.25 33.77 213.23 36.59 215.03 238.5 193.6 240.08"/><polygon class="f" points="441.6 232.72 431.25 26.42 461.23 29.24 463.03 231.15 441.6 232.72"/><polygon class="f" points="551.3 322.34 557.19 132.44 593.52 137.05 577.6 322.34 551.3 322.34"/><polygon class="f" points="168.27 32.34 300.73 146.21 611.85 135.32 463.33 24.42 168.27 32.34"/></g><g id="c"><path class="g" d="M189.06,176.19c-.5-1.12-1.53-4.37,4.62-13.86,12.34-19.04,24.94-19.02,33.66-33,.52-.83,10.79-17.81,4.62-32.34-6.26-14.75-25.76-18.24-45.55-21.78-17.37-3.11-45.65-8.17-57.43,7.26-5.39,7.06-5.31,15.77-5.28,19.14,.08,9.47,3.87,16.62,16.5,34.98,15.77,22.93,25.23,34.12,22.44,37.63-2.65,3.33-13.44-3.97-19.14,1.32-3.87,3.59-2.76,10.52-2.64,11.22,.97,5.65,5.01,9.17,6.6,10.56,10.7,9.34,48.3,22.67,88.45,6.6,2.97-1.19,19.32-7.73,18.48-12.54-.7-4.02-13.15-5.57-33-7.92-20.88-2.47-29.99-1.98-32.34-7.26Z"/><polygon class="g" points="180.48 213.81 180.48 278.5 130.31 294.34 241.87 294.34 196.98 278.5 196.32 213.81 180.48 213.81"/></g><g id="d"><path class="g" d="M67.95,137.78c-.47-1.16-1.45-4.52,4.4-14.34,11.75-19.7,23.76-19.67,32.07-34.14,.49-.86,10.28-18.42,4.4-33.46-5.97-15.26-24.54-18.87-43.38-22.53-16.55-3.22-43.48-8.45-54.7,7.51-5.13,7.3-5.06,16.31-5.03,19.8,.08,9.79,3.69,17.19,15.72,36.19,15.02,23.72,24.03,35.3,21.38,38.92-2.53,3.44-12.8-4.11-18.23,1.37-3.68,3.71-2.63,10.88-2.51,11.61,.93,5.84,4.77,9.49,6.29,10.92,10.19,9.66,46,23.45,84.25,6.83,2.83-1.23,18.4-8,17.6-12.97-.66-4.15-12.52-5.76-31.44-8.19-19.89-2.56-28.57-2.05-30.81-7.51Z"/><polygon class="g" points="59.78 176.7 59.78 243.61 12 260 118.25 260 75.5 243.61 74.87 176.7 59.78 176.7"/></g><g id="e"><path class="g" d="M472.6,204.29c-3.55-4.38,4.54-16.17,10.12-24.17,12.73-18.25,18.42-18.58,23.6-28.57,6.59-12.69,6.49-29.67,0-42.85-11.19-22.75-39.23-29.81-58.45-28.57-17.67,1.14-41.66,10.18-47.21,27.47-1.58,4.91-.99,9.49,0,18.68,1.02,9.48,3.65,21.27,11.24,37.36,12.11,25.67,23.47,33.97,20.23,38.46-5.1,7.06-35.25-10.65-44.83,.02-2.78,3.1-3.67,8.35-2.97,12.33,1.09,6.21,5.63,10.08,7.42,11.6,11.51,9.83,60.58,30.99,99.42,7.25,10.89-6.66,21.86-17.39,19.64-22.41-2.25-5.09-18.48-5.38-24.73-5.49-8.62-.16-11.77,1.01-13.49-1.1Z"/><polygon class="g" points="441.22 244.18 441.22 315.25 384.84 332.66 510.22 332.66 459.77 315.25 459.03 244.18 441.22 244.18"/></g></svg>