<?xml version="1.0" encoding="utf-8"?>
<!-- Generator: Adobe Adobe Illustrator 24.2.0, SVG Export Plug-In . SVG Version: 6.00 Build 0)  -->
<svg version="1.1" xmlns="http://www.w3.org/2000/svg" xmlns:xlink="http://www.w3.org/1999/xlink" x="0px" y="0px"
	 viewBox="0 0 612 806" style="enable-background:new 0 0 612 806;" xml:space="preserve">
<style type="text/css">
	.st0{stroke:#000000;stroke-width:0.3463;stroke-miterlimit:10;}
	.st1{stroke:#000000;stroke-width:0.2517;stroke-miterlimit:10;}
	.st2{stroke:#000000;stroke-width:0.4427;stroke-miterlimit:10;}
	.st3{fill:none;stroke:#000000;stroke-width:3;stroke-miterlimit:10;}
	.st4{fill:none;stroke:#000000;stroke-width:0.5684;stroke-miterlimit:10;}
	.st5{fill:none;stroke:#000000;stroke-width:0.8309;stroke-miterlimit:10;}
	.st6{fill:none;stroke:#000000;stroke-width:0.5;stroke-miterlimit:10;}
	.st7{fill:#3384BE;}
	.st8{fill:#7FCD31;}
	.st9{fill:#F5D8A3;}
	.st10{fill:#BC1C43;}
	.st11{fill:#F7DD31;}
	.st12{fill:#E2D827;}
	.st13{fill:#F1D8A3;}
	.st14{fill:#3784B7;}
	.st15{fill:#81C934;}
	.st16{fill:#E2D82C;}
	.st17{fill:#BD2042;}
	.st18{stroke:#000000;stroke-width:0.5;stroke-miterlimit:10;}
	.st19{fill:#242424;stroke:#000000;stroke-width:0.5;stroke-miterlimit:10;}
	.st20{fill:#FFFFFF;stroke:#FFFFFF;stroke-width:0.5;stroke-miterlimit:10;}
	.st21{fill:none;stroke:#355DAD;stroke-width:0.5;stroke-miterlimit:10;}
	.st22{opacity:0.2902;fill:#C71E18;}
	.st23{fill:#FFFFFF;stroke:#000000;stroke-miterlimit:10;}
	.st24{fill:#FFFFFF;stroke:#000000;stroke-width:0.3123;stroke-miterlimit:10;}
	.st25{fill:none;stroke:#000000;stroke-width:0.3123;stroke-miterlimit:10;}
	.st26{fill:#FFFFFF;stroke:#000000;stroke-width:0.3057;stroke-miterlimit:10;}
	.st27{fill:#E35F15;}
	.st28{fill:#FFFFFF;stroke:#000000;stroke-width:1.1718;stroke-miterlimit:10;}
	.st29{fill:#FFFFFF;stroke:#000000;stroke-width:1.0319;stroke-miterlimit:10;}
	.st30{fill:none;stroke:#000000;stroke-width:1.0319;stroke-miterlimit:10;}
	.st31{fill:#E22B31;}
	.st32{fill:#367AB9;}
	.st33{fill:#FFFFFF;stroke:#000000;stroke-width:0.9847;stroke-miterlimit:10;}
	.st34{fill:#FFFFFF;stroke:#000000;stroke-width:1.1538;stroke-miterlimit:10;}
	.st35{fill:#FFFFFF;stroke:#000000;stroke-width:1.0161;stroke-miterlimit:10;}
	.st36{fill:none;stroke:#000000;stroke-width:1.0161;stroke-miterlimit:10;}
	.st37{fill:#F3DD31;}
	.st38{fill:#81CA34;}
	.st39{fill:#BD2342;}
	.st40{fill:none;stroke:#000000;stroke-width:0.5068;stroke-miterlimit:10;}
	.st41{fill:#FFFFFF;stroke:#000000;stroke-width:0.5;stroke-miterlimit:10;}
	.st42{fill:none;stroke:#000000;stroke-width:0.499;stroke-miterlimit:10;}
	.st43{fill:#BD2242;}
	.st44{fill:none;stroke:#000000;stroke-width:0.496;stroke-miterlimit:10;}
	.st45{fill:none;stroke:#F3DD31;stroke-miterlimit:10;}
</style>
<g id="Skyggepersoner">
	<g>
		<path class="st0" d="M177.92,349.99c0.89-0.3-10.55,2.96-12.65,4.54c-0.19,0.14-0.35,0.89-0.6,1.13
			c-1.19,1.17-2.13,2.41-3.08,3.69c-1.89,2.56-3.39,4.98-4.18,7.88c-1.33,4.86-1.16,9.8-0.13,14.73c1.12,5.35,2.48,11.75,7.46,15.86
			c2.15,1.78,5.39,2.72,8.32,3.37c3.35,0.75,5.97,2.16,9.53,2.33c7.54,0.38,13.46-0.29,19.54-3.81c7.01-4.06,8.25-8.72,9.35-15.03
			c0.94-5.38,0.94-12.08-2.49-16.96c-2.49-3.54-4.23-7.22-8.08-10.09c-1.96-1.45-4.46-2.02-6.58-3.22
			c-2.23-1.27-3.91-2.32-6.46-3.13c-3.38-1.07-6.84-0.99-10.43-1.36c-0.07-0.32,0.09-0.56,0.48-0.74"/>
		<path class="st0" d="M168,400.29c-1.25,8.6-3.76,16.2-6.54,24.53c-0.97,2.89-2.78,5.54-3.77,8.46c-1.44,4.25-3.49,8.37-4.85,12.63
			c-2.57,8.1-4.67,16.19-7.16,24.31c-2.66,8.69-3.96,17.42-5.47,26.22c-0.62,3.63-2.1,7.09-2.51,10.72
			c-0.28,2.5,0.18,5.29,0.62,7.76c1.65,0.19,3.46,0.06,5.14,0.06c1.51,0,3.86,0.66,5.14,0.34c0.31-1.96-0.22-4.01,0.05-5.98
			c0.17-1.2,0.79-2.49,0.96-3.73c0.21-1.52-0.25-3.2,0.22-4.68c1.64-5.13,3.29-10.72,3.96-16.08c1.42-11.36,8.31-21.98,8.99-33.46"
			/>
		<path class="st0" d="M201.94,400.29c5.36,8.22,9.28,16.46,13.59,25.08c2.52,5.04,4.29,9.95,5.72,15.24
			c1.97,7.27,2.52,14.52,3.61,21.86c0.88,5.93,1.39,11.83,2.41,17.74c0.99,5.69,1.32,11.24,1.31,16.99
			c-0.01,2.84,0.12,5.89,0.57,8.71c0.25,1.58,0.5,3,0.48,4.63c-0.01,1.26,0.84,2.83,0.44,3.98c-1.3,0.3-2.57-0.24-3.84-0.34
			c-1.27-0.11-2.58,0.06-3.84-0.05c-0.63-3.38-0.02-6.94-0.57-10.34c-0.44-2.71-1.23-5.46-1.61-8.18c-0.22-1.63-0.26-3.3-0.47-4.94
			c-0.23-1.86-0.69-3.25-1.24-5.06c-0.88-2.86-0.88-5.98-1.38-8.88c-0.2-1.13-0.91-2.08-1.09-3.18c-0.21-1.3-0.15-2.43-0.5-3.7
			c-0.75-2.68-1.7-5.32-2.47-7.94c-0.78-2.67-1.32-5.3-2.23-7.94c-0.66-1.9-1.77-3.71-2.36-5.59c-0.59-1.89-0.89-3.32-1.95-5.03
			c-1.16-1.86-2.34-3.63-3-5.64"/>
		<path class="st0" d="M162.25,456.63c0.59-2.37,1.65-7.12,2.65-9.82c0.87-1.67,2.12-3.29,2.45-5.07c0.29-1.57,0.36-3.38,1.71-4.69
			c-0.16,3.09-0.41,6.18-0.55,9.18c-0.19,3.99-1.72,8.05-2.35,12.02c-1.67,10.59-2.58,21.25-4.57,31.92
			c-1.21,6.5-0.75,13.29-1.46,19.83c-0.66,6.02,0.95,11.93,0,17.92c-0.54,3.4-1.73,6.77-2.7,10.16c-1.74,6.09-4.32,12.14-7.78,17.78
			c-2.15,3.49-3.93,6.7-4.91,10.51c-0.88,3.41-1.43,6.79-2.21,10.16c-0.6,2.6-1.78,5.19-2.26,7.74c-0.49,2.65,0.13,5.56,0.04,8.25
			c-0.18,5.22-1.85,10.53-0.98,15.77c2.69,0.22,4.09-0.46,6.59-1.07c1.8-0.44,4.1-0.64,5.98-0.79c1.54-0.12,2.77-0.06,4.21-0.56
			c1.24-0.43,2.03-1.22,3.36-1.59c4.79-1.34,9.98-1.56,15.01-2.38c3.93-0.64,9.36-0.88,13.36-0.31c7.84,1.11,14.8,3.56,22.9,3.54
			c2.92-0.01,6.05,0.3,8.94-0.08c1.92-0.25,3.21-0.7,5.19-0.72c2.89-0.04,5.9-0.58,8.71-0.38c-1.61-0.98-1.94-2.19-2.54-3.63
			c-1.33-3.14-2.88-6.43-3.99-9.6c-1.77-5.1-2.65-10.4-4.49-15.6c-1.76-4.95-2.69-10.24-3.94-15.28c-1.05-4.21-1.39-8.87-3.11-12.92
			c-0.96-2.24-1.12-4.17-1.57-6.53c-0.29-1.57-1.09-2.94-1.45-4.5c-0.67-2.86-1.74-5.45-2.64-8.27c-0.7-2.19-0.41-4.28-0.6-6.49
			c-0.55-6.41-1.58-12.71-1.58-19.19c0-6.05,0.33-12.08,0.52-18.1c0.17-5.34-0.94-11.18,0.52-16.38c0.59-2.11,0.31-3.25-0.03-5.29
			c-0.45-2.79,0.83-5.61,0.57-8.35c-0.34-3.58-0.88-7.16-1.64-10.67c-0.44-2.05-4.68-6.44-2.57-8.25"/>
		<path d="M205.53,415.77c-0.14-0.3-0.22-0.67-0.56-0.87c-0.46-0.31-1.26-0.1-1.41,0.36c-0.15,0.4-0.28,0.79-0.42,1.19
			c0.15-1.05,0.31-2.11,0.49-3.16c0.01-0.48,0.27-0.99,0.09-1.45c-0.04-0.1-0.12-0.17-0.21-0.24c0.05-0.5,0.08-1,0.07-1.51
			c-0.01-0.5,0.06-1.25-0.79-1.32c-0.14,0-0.26,0.02-0.37,0.05c0.01-0.16,0.01-0.33,0.01-0.49c0.22,0.07,0.48,0.06,0.81-0.1
			c0.91-0.64-0.31-1.61-0.35-2.37c-0.1-0.31-0.19-0.63-0.28-0.94c0.11-0.18,0.13-0.4-0.01-0.59c0.41-0.7-0.08-1.59-0.1-2.33
			c0.03,0.35-0.1-0.89-0.17-1.19c-0.1-0.64-0.18-0.99-0.23-1.37c-0.01-0.75,0.05-1.66-0.98-1.64c-0.09-0.02-0.19-0.03-0.28-0.03
			c-0.02-0.01-0.05-0.01-0.07-0.02c-0.06-0.07-0.13-0.14-0.2-0.19c0-0.03,0-0.05-0.01-0.08c-0.08-0.33-0.03-0.69-0.22-1
			c-0.28-0.38-1-0.43-1.39-0.12c-0.05,0.04-0.1,0.09-0.13,0.14c-0.05,0-0.11-0.01-0.16,0c-0.5-0.1-0.83,0.2-1.06,0.69
			c-0.07-0.06-0.13-0.12-0.22-0.18c-0.09-0.04-0.2-0.07-0.31-0.08c0.01-0.14,0.02-0.28,0.03-0.42c0-0.18-0.09-0.35-0.25-0.47
			c-0.27-0.21-0.72-0.26-1.05-0.1c-0.3,0.14-0.41,0.37-0.47,0.62c-0.1-0.04-0.21-0.06-0.32-0.07c-0.01-0.29-0.03-0.58-0.06-0.87
			c-0.17-0.37-0.82-0.53-1.25-0.32c-0.31,0.14-0.41,0.41-0.53,0.65c-0.34,0.78-0.63,1.57-0.94,2.35c-0.61,1.61-1.17,3.22-1.65,4.85
			c0.02-0.28,0.04-0.56,0.06-0.83c0.06-2.3,0.82-4.61,0.52-6.9c-0.16-0.52-0.93-0.96-1.54-0.61c-0.03-0.04-0.06-0.08-0.11-0.11
			c-1.77-0.9-1.69,1.49-2.02,2.28c-0.09,0.37-0.16,0.74-0.24,1.11c-0.26-0.08-0.57-0.07-0.78,0.09c-0.04,0.04-0.06,0.08-0.08,0.12
			c0.04-0.65,0.08-1.29,0.11-1.94c0-0.34,0.1-0.71-0.2-0.98c-0.14-0.16-0.36-0.26-0.59-0.32c-0.01-0.28-0.02-0.56-0.02-0.84
			c-0.01-0.3-0.27-0.59-0.66-0.67c-0.89-0.19-1.24,0.57-1.43,1.43c-0.16-0.2-0.44-0.33-0.77-0.33c-0.38,0-0.59,0.24-0.72,0.48
			c-0.42,0.56-0.75,1.15-1.04,1.76c-0.01,0.01-0.02,0.01-0.02,0.01c-0.34,0.33-0.39,0.78-0.48,1.21c-0.17,0.47-0.33,0.95-0.47,1.42
			c-0.52,1.17-0.95,2.36-1.31,3.57c0.19-1.66,0.41-3.32,0.65-4.97c0.11-0.79,0.24-1.57,0.32-2.36c0.04-0.35,0.17-0.82-0.36-0.98
			c-1.01-0.38-1.93,1.85-2.71,4.77c-0.01,0-0.02,0-0.03,0c0.29-1.26,0.57-2.53,0.81-3.81c0.02-0.05,0.04-0.1,0.06-0.16
			c-0.01,0-0.02,0-0.03-0.01c0.01-0.07,0.03-0.14,0.04-0.2c-0.03-0.36-0.63-0.58-1.02-0.38c-0.07,0.05-0.14,0.1-0.19,0.16
			c-0.09-0.07-0.19-0.13-0.32-0.16c-0.25-0.04-0.44,0-0.58,0.08c0.01-0.02,0.01-0.04,0.02-0.07c0.06-0.13,0.08-0.24,0.08-0.32
			c0.02-0.08,0.04-0.16,0.06-0.23c0.05-0.15,0.03-0.31-0.08-0.45c-0.2-0.27-0.69-0.37-1.03-0.21c-0.14,0.09-0.24,0.22-0.32,0.35
			c-0.01,0-0.02,0-0.02-0.01c-0.01,0.02-0.01,0.05-0.02,0.07c-0.11,0.21-0.16,0.46-0.21,0.71c-0.1,0.36-0.21,0.71-0.32,1.07
			c-0.56,0.18-0.49,0.94-0.69,1.35c-0.09,0.32-0.19,0.64-0.28,0.96c-0.07-0.07-0.15-0.13-0.27-0.17c-0.17-0.04-0.3-0.04-0.42-0.03
			c0-1.06,0-2.12,0-3.18c0-0.14-0.08-0.28-0.21-0.39c-0.41-0.33-1.23-0.09-1.21,0.39c-0.04,0.39-0.09,0.78-0.13,1.16
			c-0.06,0.01-0.13,0.02-0.18,0.05c-0.44,0.22-0.43,0.67-0.51,1.03c-0.01,0.05-0.01,0.1-0.02,0.15c-0.15-0.02-0.33-0.01-0.57,0.05
			c-0.14,0.07-0.23,0.16-0.29,0.27c-0.49,0.35-0.66,0.99-0.67,1.73c-0.04,0.03-0.08,0.05-0.11,0.08c-0.23,0.21-0.16,0.5-0.17,0.76
			c0,0.21,0,0.42,0,0.62c-0.01,0.03-0.01,0.06-0.02,0.1c-0.16,1.37-0.25,2.75-0.39,4.13c0.01,0.18-0.02,0.46-0.04,0.74
			c-0.18,0.59-0.29,1.2-0.47,1.79c-0.68,2.75-1.45,5.5-1.7,8.29c-0.07,0.65-0.23,3.27,0.59,3.8c-0.62,3.57-1.09,7.16-1.37,10.75
			c-0.06,1.11-0.13,2.22-0.2,3.33c-0.03,0.46-0.06,0.93-0.09,1.39c-0.01,0.1-0.02,0.21-0.02,0.32c0,0.03,0,0.06-0.01,0.09
			c0,0,0.01,0,0.01,0c0,0.03,0.01,0.07,0.02,0.1c-0.23,0.12-0.4,0.33-0.5,0.55c-1.45,3.29-1.1,6.9-1.18,10.33
			c0.11,1.63-0.27,3.45,0.44,5c-0.19,0.27-0.38,0.55-0.55,0.83c-0.05,0.05-0.11,0.11-0.16,0.16c-0.32,0.42-1.06,0.74-0.99,1.27
			c0,0.05,0.02,0.09,0.04,0.13c-0.29,0.35-0.57,0.7-0.84,1.05c-0.52,0.76-0.66,1.17-0.98,1.7c-0.1,0.14-0.14,0.31-0.09,0.46
			c-0.25,0.26-0.41,0.54-0.28,0.8c-0.69,1.08-1.34,2.17-1.85,3.31c-0.34,1.14-1.01,2.4-0.61,3.56c-0.03,0.28,0.08,0.54,0.49,0.72
			c0.25,0.09,0.48,0.1,0.68,0.07c0.25,0,0.51-0.06,0.72-0.18c0.72-0.44,1.26-1.03,1.76-1.63c0.03-0.01,0.06-0.02,0.09-0.03
			c0.38-0.05,1-1.24,0.8-0.9c0.06-0.1,0.11-0.19,0.16-0.28c0.05-0.05,0.1-0.11,0.15-0.16c0.36-0.51,1.51-1.6,1.17-2.2
			c0.07-0.1,0.14-0.21,0.22-0.32c0.5-0.61,0.95-1.25,1.48-1.85c0.12-0.1,0.19-0.23,0.22-0.36c0.15-0.14,0.31-0.28,0.46-0.41
			c0.68-0.6,1.39-1.17,2.13-1.74c0.08,0.21,0.2,0.41,0.38,0.58c0.06,0.2,0.18,0.43,0.38,0.46c0.54,0.14,0.85,0.06,1.02-0.13
			c0.01,0,0.03-0.01,0.04-0.01l0,0c0.1,0.14,0.27,0.23,0.46,0.27c0.21,0.09,0.45,0.11,0.68,0.04c0.11,1.32,0.27,3.16,1.79,2.4
			c0.15-0.12,0.24-0.28,0.24-0.44c-0.02-0.67-0.03-1.35-0.06-2.02c0.12-0.01,0.24-0.03,0.35-0.08c0.06-0.05,0.11-0.11,0.16-0.16
			c0.04,0.51,0.09,1.02,0.16,1.53c0.16,0.42,0.74,0.65,1.29,0.54c0.51-0.1,0.65-0.5,0.69-0.86c0.18-1.14,0.18-2.29,0.27-3.43
			c0.07-1.3,0.18-2.62,0.3-3.96c0,0.09,0,0.18-0.01,0.27c-0.01,0.17-0.01,0.34-0.01,0.52c-0.04,1.04-0.03,2.08-0.02,3.11
			c0,0.05,0,0.11,0,0.16c-0.05,0.18-0.05,0.39,0.01,0.61c0,0.23,0,0.46,0.01,0.69c0,0.18,0.09,0.35,0.26,0.48
			c0.4,0.3,0.95,0.22,1.27-0.05c0.17,0.73,0.46,1.43,1.01,2.02c0.35,0.24,0.97,0.17,1.23-0.12c0.26-0.26,0.24-0.64,0.35-0.96
			c0.03-0.17,0.04-0.34,0.07-0.52c0.14,0.42,0.32,0.84,0.56,1.24c0.21,0.23,0.56,0.29,0.87,0.23c0.56,0.58,1.73,0.16,1.57-0.64
			c0-0.02,0-0.04,0-0.06c0,0,0,0,0-0.01c0-2.87-0.09-5.74-0.17-8.61c0.01-0.74,0.03-1.47,0.05-2.21c0.01,0.01,0.02,0.02,0.03,0.04
			c0.12,2.32,0.32,4.65,0.59,6.96c0.11,0.46-0.07,1.01,0.35,1.37c0.38,0.31,1.1,0.24,1.37-0.14c0.05-0.08,0.08-0.16,0.1-0.24
			c0.04-0.05,0.09-0.08,0.12-0.14c0.01-0.12,0.02-0.24,0.03-0.35c0.01,0.03,0.02,0.02,0-0.05c0.04-0.37,0.07-0.74,0.11-1.12
			c0.56-0.12,0.88-0.69,0.86-1.19c0.27-1.89,0.47-3.93,0.63-6.06c0.13,0.02,0.26,0.02,0.39-0.02c0.24-0.09,0.35-0.26,0.41-0.46
			c0.12,0.87,0.07,1.83,0.67,2.57c0.09,0.07,0.19,0.11,0.29,0.15c0,0.44,0.03,0.87,0.06,1.31c-0.01,0.13-0.02,0.26-0.03,0.4h0.06
			c0.01,0.09,0.01,0.18,0.02,0.27c0.23,0.52,1.26,0.57,1.6,0.08c0.04-0.12,0.06-0.23,0.09-0.35h0.04c0-0.05,0-0.09,0-0.14
			c0.28-1.37,0.08-2.82,0.23-4.21c0.02-1.95,0.08-3.9,0.17-5.85c-0.01,0.92-0.02,1.85,0,2.78c-0.02,2.3,0.07,4.6,0.2,6.89
			c0.21,0.76-0.3,2.33,1.18,2.28c0.3-0.01,0.51-0.17,0.67-0.43c0.19,0.01,0.41-0.02,0.65-0.13c0.42-0.26,0.44-0.75,0.65-1.12
			c0.07-0.2,0.11-0.4,0.17-0.6c0.02,0.53,0.11,1.06,0.63,1.39c0.56,0.26,1.35-0.07,1.33-0.59c0.07-1.23,0.12-2.46,0.17-3.69
			c0.85-0.13,1-1.08,1.13-1.83c0.15,1.42,0.61,2.62,2.03,1.96c0.26-0.33,0.38-0.7,0.44-1.09c0.09,0.53,0.19,1.06,0.31,1.58
			c0.54,0.7,1.83,0.16,1.88-0.53c0.04-2.33,0-4.66,0.01-6.99c0-1.77,0.02-3.53,0.05-5.3c0.16,2.38,0.31,4.76,0.39,7.15
			c-0.07,0.27-0.06,0.44,0,0.56c0,0.07,0,0.14,0,0.2c-0.03,0.64,1.12,0.91,1.58,0.41c0.28,0.21,0.73,0.29,1.08,0.12
			c0.73-0.28,0.57-0.97,0.57-1.49c0.01-3.04,0.01-6.09,0.01-9.13C205.51,426.35,205.7,421.05,205.53,415.77z M198.63,413.83
			c0.08-0.51,0.14-1.03,0.18-1.55c0.01,0.38,0.02,0.77,0.04,1.15C198.78,413.56,198.7,413.69,198.63,413.83z M165.94,446.44
			c0.03-0.34,0.06-0.68,0.1-1.03c0.06-0.75,0.13-1.47,0.2-2.19c0.12,0.64,0.25,1.32,0.38,1.97
			C166.39,445.61,166.17,446.02,165.94,446.44z M169.84,420.34c0.02-0.02,0.03-0.04,0.05-0.06c-0.07,0.48-0.13,0.97-0.19,1.45
			c-0.07,0.29-0.14,0.58-0.2,0.87c-0.02-0.02-0.04-0.04-0.05-0.07c0.09-0.7,0.19-1.41,0.28-2.11
			C169.76,420.4,169.8,420.37,169.84,420.34z M193.79,431.92c0.07-0.43,0.13-0.85,0.19-1.27c-0.41,4.4-1.02,8.79-1.05,13.2
			c0,0.23,0.01,0.47,0.01,0.7c-0.03,0.27-0.07,0.54-0.11,0.81C192.93,440.87,193.31,436.39,193.79,431.92z M177.08,406.05
			c-0.03-0.02-0.06-0.04-0.1-0.06c0.04-0.45,0.07-0.9,0.11-1.35c-0.01-0.68,0.11-1.37,0.21-2.07c0.11-0.48,0.23-0.96,0.36-1.45
			c-0.07,0.57-0.15,1.14-0.22,1.71C177.32,403.9,177.2,404.97,177.08,406.05z M158.91,461.43c0.2-0.44,0.45-0.91,0.74-1.4
			c0.14-0.05,0.27-0.13,0.41-0.22c0.07,0.02,0.16,0.02,0.25,0.03c-0.05,0.06-0.11,0.12-0.16,0.17c-0.42,0.47-0.83,0.95-1.24,1.43
			C158.91,461.45,158.91,461.44,158.91,461.43z"/>
	</g>
	<g>
		<path class="st1" d="M317.84,191.66c0.67-0.21-7.91,2.09-9.49,3.2c-0.14,0.1-0.26,0.63-0.45,0.8c-0.89,0.82-1.6,1.7-2.31,2.6
			c-1.42,1.81-2.54,3.51-3.13,5.55c-1,3.43-0.87,6.91-0.1,10.37c0.84,3.77,1.86,8.28,5.6,11.17c1.62,1.25,4.04,1.91,6.24,2.37
			c2.51,0.53,4.48,1.52,7.15,1.64c5.65,0.27,10.09-0.2,14.65-2.68c5.25-2.86,6.19-6.15,7.01-10.59c0.71-3.79,0.71-8.51-1.87-11.95
			c-1.86-2.49-3.17-5.09-6.06-7.11c-1.47-1.02-3.34-1.42-4.93-2.27c-1.67-0.89-2.93-1.63-4.85-2.2c-2.53-0.75-5.13-0.7-7.82-0.96
			c-0.06-0.22,0.07-0.4,0.36-0.52"/>
		<path class="st1" d="M310.4,227.1c-0.94,6.06-2.82,11.42-4.91,17.28c-0.72,2.04-2.09,3.91-2.83,5.96c-1.08,3-2.62,5.9-3.64,8.9
			c-1.93,5.71-3.5,11.41-5.37,17.13c-2,6.12-2.97,12.28-4.1,18.47c-0.47,2.56-1.58,4.99-1.89,7.55c-0.21,1.76,0.13,3.73,0.47,5.46
			c1.24,0.13,2.59,0.05,3.86,0.04c1.13,0,2.89,0.47,3.86,0.24c0.23-1.38-0.16-2.83,0.04-4.21c0.12-0.85,0.59-1.76,0.72-2.63
			c0.16-1.07-0.19-2.25,0.17-3.3c1.23-3.61,2.47-7.55,2.97-11.33c1.06-8,6.23-15.49,6.74-23.58"/>
		<path class="st1" d="M335.85,227.1c4.02,5.79,6.96,11.6,10.19,17.67c1.89,3.55,3.21,7.01,4.29,10.74
			c1.48,5.12,1.89,10.23,2.7,15.4c0.66,4.18,1.04,8.34,1.81,12.5c0.74,4.01,0.99,7.92,0.98,11.97c-0.01,2,0.09,4.15,0.43,6.14
			c0.19,1.11,0.37,2.12,0.36,3.26c-0.01,0.89,0.63,1.99,0.33,2.8c-0.97,0.21-1.92-0.17-2.88-0.24c-0.95-0.08-1.93,0.04-2.88-0.03
			c-0.47-2.38-0.02-4.89-0.43-7.28c-0.33-1.91-0.93-3.85-1.2-5.76c-0.17-1.15-0.2-2.33-0.35-3.48c-0.17-1.31-0.52-2.29-0.93-3.56
			c-0.66-2.01-0.66-4.21-1.04-6.26c-0.15-0.8-0.68-1.47-0.82-2.24c-0.16-0.92-0.11-1.71-0.38-2.61c-0.56-1.89-1.28-3.75-1.85-5.59
			c-0.59-1.88-0.99-3.74-1.67-5.59c-0.49-1.34-1.33-2.61-1.77-3.94c-0.44-1.33-0.67-2.34-1.46-3.54c-0.87-1.31-1.75-2.56-2.25-3.98"
			/>
		<path class="st1" d="M306.09,266.8c0.45-1.67,1.24-5.01,1.99-6.92c0.65-1.18,1.59-2.32,1.84-3.57c0.22-1.11,0.27-2.38,1.28-3.3
			c-0.12,2.18-0.3,4.35-0.41,6.47c-0.14,2.81-1.29,5.67-1.76,8.47c-1.25,7.46-1.94,14.97-3.42,22.49
			c-0.91,4.58-0.56,9.36-1.09,13.97c-0.49,4.24,0.71,8.4,0,12.63c-0.4,2.39-1.3,4.77-2.02,7.15c-1.31,4.29-3.24,8.55-5.84,12.53
			c-1.61,2.46-2.95,4.72-3.68,7.4c-0.66,2.4-1.07,4.78-1.66,7.16c-0.45,1.83-1.34,3.65-1.69,5.45c-0.37,1.87,0.1,3.92,0.03,5.81
			c-0.14,3.68-1.39,7.42-0.73,11.11c2.02,0.16,3.07-0.33,4.94-0.75c1.35-0.31,3.08-0.45,4.48-0.55c1.15-0.08,2.08-0.04,3.16-0.39
			c0.93-0.31,1.52-0.86,2.52-1.12c3.6-0.95,7.48-1.1,11.26-1.68c2.95-0.45,7.02-0.62,10.02-0.22c5.88,0.78,11.1,2.51,17.18,2.5
			c2.19,0,4.54,0.21,6.71-0.06c1.44-0.18,2.41-0.49,3.89-0.51c2.17-0.03,4.43-0.41,6.53-0.27c-1.2-0.69-1.45-1.54-1.91-2.55
			c-1-2.22-2.16-4.53-2.99-6.77c-1.33-3.59-1.99-7.32-3.37-10.99c-1.32-3.48-2.01-7.22-2.96-10.76c-0.79-2.97-1.04-6.25-2.34-9.1
			c-0.72-1.58-0.84-2.93-1.18-4.6c-0.22-1.1-0.81-2.07-1.09-3.17c-0.51-2.02-1.3-3.84-1.98-5.83c-0.53-1.54-0.31-3.02-0.45-4.57
			c-0.42-4.52-1.19-8.95-1.19-13.52c0-4.27,0.25-8.51,0.39-12.75c0.13-3.76-0.7-7.87,0.39-11.54c0.44-1.48,0.23-2.29-0.02-3.73
			c-0.34-1.96,0.62-3.95,0.43-5.88c-0.25-2.52-0.66-5.05-1.23-7.52c-0.33-1.45-3.51-4.54-1.92-5.82"/>
		<path d="M338.55,238.01c-0.11-0.21-0.17-0.47-0.42-0.62c-0.35-0.22-0.95-0.07-1.06,0.25c-0.11,0.28-0.21,0.56-0.32,0.84
			c0.11-0.74,0.23-1.48,0.37-2.22c0.01-0.34,0.2-0.7,0.06-1.02c-0.03-0.07-0.09-0.12-0.16-0.17c0.04-0.35,0.06-0.71,0.06-1.06
			c-0.01-0.35,0.04-0.88-0.59-0.93c-0.1,0-0.19,0.01-0.28,0.03c0.01-0.12,0.01-0.23,0.01-0.35c0.16,0.05,0.36,0.04,0.61-0.07
			c0.68-0.45-0.24-1.13-0.26-1.67c-0.07-0.22-0.14-0.44-0.21-0.66c0.09-0.13,0.1-0.28,0-0.41c0.31-0.49-0.06-1.12-0.08-1.64
			c0.02,0.24-0.08-0.63-0.13-0.84c-0.07-0.45-0.13-0.7-0.17-0.97c-0.01-0.53,0.04-1.17-0.74-1.16c-0.07-0.02-0.14-0.02-0.21-0.02
			c-0.02,0-0.03-0.01-0.05-0.01c-0.04-0.05-0.1-0.1-0.15-0.13c0-0.02,0-0.04,0-0.06c-0.06-0.23-0.02-0.49-0.16-0.7
			c-0.21-0.27-0.75-0.3-1.04-0.08c-0.04,0.03-0.07,0.06-0.1,0.1c-0.04,0-0.08-0.01-0.12,0c-0.37-0.07-0.62,0.14-0.8,0.49
			c-0.05-0.04-0.1-0.09-0.17-0.13c-0.07-0.03-0.15-0.05-0.23-0.06c0.01-0.1,0.02-0.2,0.02-0.3c0-0.13-0.07-0.24-0.19-0.33
			c-0.21-0.15-0.54-0.18-0.79-0.07c-0.22,0.1-0.31,0.26-0.35,0.44c-0.07-0.03-0.15-0.04-0.24-0.05c-0.01-0.2-0.02-0.41-0.05-0.61
			c-0.13-0.26-0.61-0.37-0.93-0.23c-0.24,0.1-0.31,0.29-0.4,0.46c-0.25,0.55-0.47,1.1-0.7,1.66c-0.46,1.13-0.88,2.27-1.24,3.42
			c0.02-0.2,0.03-0.39,0.05-0.59c0.04-1.62,0.62-3.25,0.39-4.86c-0.12-0.36-0.7-0.67-1.16-0.43c-0.02-0.03-0.05-0.05-0.08-0.08
			c-1.33-0.63-1.26,1.05-1.51,1.61c-0.07,0.26-0.12,0.52-0.18,0.78c-0.2-0.06-0.43-0.05-0.58,0.06c-0.03,0.03-0.04,0.06-0.06,0.09
			c0.03-0.46,0.06-0.91,0.08-1.37c0-0.24,0.08-0.5-0.15-0.69c-0.11-0.11-0.27-0.19-0.45-0.22c-0.01-0.2-0.01-0.39-0.02-0.59
			c0-0.21-0.2-0.41-0.49-0.47c-0.66-0.13-0.93,0.4-1.07,1c-0.12-0.14-0.33-0.23-0.58-0.24c-0.28,0-0.45,0.17-0.54,0.34
			c-0.31,0.4-0.57,0.81-0.78,1.24c-0.01,0-0.01,0.01-0.02,0.01c-0.25,0.24-0.29,0.55-0.36,0.85c-0.13,0.33-0.24,0.67-0.35,1
			c-0.39,0.82-0.71,1.67-0.99,2.52c0.15-1.17,0.31-2.34,0.49-3.5c0.08-0.55,0.18-1.11,0.24-1.66c0.03-0.25,0.13-0.58-0.27-0.69
			c-0.76-0.27-1.45,1.3-2.03,3.36c-0.01,0-0.01,0-0.02,0c0.22-0.88,0.43-1.78,0.6-2.69c0.01-0.04,0.03-0.07,0.04-0.11
			c-0.01,0-0.01,0-0.02,0c0.01-0.05,0.02-0.1,0.03-0.14c-0.02-0.25-0.47-0.41-0.76-0.27c-0.05,0.04-0.1,0.07-0.14,0.12
			c-0.07-0.05-0.14-0.09-0.24-0.11c-0.19-0.03-0.33,0-0.44,0.05c0-0.02,0.01-0.03,0.01-0.05c0.04-0.09,0.06-0.17,0.06-0.23
			c0.01-0.06,0.03-0.11,0.05-0.16c0.04-0.11,0.02-0.22-0.06-0.31c-0.15-0.19-0.51-0.26-0.77-0.15c-0.11,0.07-0.18,0.15-0.24,0.25
			c-0.01,0-0.01,0-0.02,0c0,0.02-0.01,0.03-0.02,0.05c-0.08,0.15-0.12,0.32-0.16,0.5c-0.08,0.25-0.15,0.5-0.24,0.75
			c-0.42,0.13-0.37,0.66-0.52,0.95c-0.07,0.23-0.14,0.45-0.21,0.68c-0.05-0.05-0.11-0.09-0.21-0.12c-0.13-0.03-0.23-0.03-0.31-0.02
			c0-0.75,0-1.5,0-2.24c0-0.1-0.06-0.2-0.16-0.27c-0.31-0.23-0.92-0.06-0.91,0.27c-0.03,0.27-0.06,0.55-0.1,0.82
			c-0.05,0.01-0.09,0.01-0.13,0.03c-0.33,0.16-0.32,0.47-0.39,0.73c-0.01,0.04-0.01,0.07-0.02,0.11c-0.11-0.01-0.25-0.01-0.43,0.04
			c-0.11,0.05-0.17,0.11-0.22,0.19c-0.37,0.24-0.5,0.7-0.5,1.22c-0.03,0.02-0.06,0.03-0.08,0.05c-0.17,0.15-0.12,0.35-0.13,0.53
			c0,0.15,0,0.29,0,0.44c0,0.02-0.01,0.05-0.01,0.07c-0.12,0.97-0.19,1.94-0.29,2.91c0,0.13-0.02,0.32-0.03,0.52
			c-0.13,0.42-0.22,0.85-0.35,1.26c-0.51,1.94-1.08,3.87-1.28,5.84c-0.05,0.46-0.17,2.3,0.44,2.68c-0.46,2.52-0.81,5.04-1.03,7.58
			c-0.05,0.78-0.1,1.57-0.15,2.35c-0.02,0.33-0.04,0.65-0.07,0.98c-0.01,0.07-0.02,0.15-0.02,0.22c0,0.02,0,0.04,0,0.07
			c0,0,0,0,0.01,0c0,0.02,0.01,0.05,0.01,0.07c-0.17,0.09-0.3,0.24-0.37,0.39c-1.09,2.32-0.82,4.86-0.88,7.28
			c0.09,1.15-0.2,2.43,0.33,3.53c-0.15,0.19-0.28,0.39-0.41,0.59c-0.04,0.04-0.08,0.08-0.12,0.11c-0.24,0.29-0.79,0.52-0.74,0.89
			c0,0.03,0.01,0.06,0.03,0.09c-0.21,0.25-0.43,0.49-0.63,0.74c-0.39,0.53-0.5,0.82-0.74,1.2c-0.07,0.1-0.1,0.22-0.07,0.33
			c-0.19,0.18-0.31,0.38-0.21,0.57c-0.52,0.76-1.01,1.53-1.39,2.34c-0.25,0.81-0.76,1.69-0.46,2.51c-0.02,0.2,0.06,0.38,0.36,0.51
			c0.19,0.06,0.36,0.07,0.51,0.05c0.19,0,0.38-0.04,0.54-0.13c0.54-0.31,0.94-0.72,1.32-1.15c0.02-0.01,0.04-0.01,0.06-0.02
			c0.28-0.04,0.75-0.88,0.6-0.63c0.04-0.07,0.08-0.13,0.12-0.2c0.04-0.04,0.07-0.08,0.11-0.11c0.27-0.36,1.13-1.13,0.88-1.55
			c0.05-0.07,0.1-0.15,0.16-0.23c0.37-0.43,0.72-0.88,1.11-1.3c0.09-0.07,0.14-0.16,0.17-0.25c0.12-0.1,0.23-0.2,0.35-0.29
			c0.51-0.42,1.05-0.83,1.59-1.22c0.06,0.15,0.15,0.29,0.28,0.41c0.05,0.14,0.14,0.3,0.28,0.32c0.4,0.1,0.63,0.05,0.76-0.09
			c0.01,0,0.02-0.01,0.03-0.01l0,0c0.08,0.1,0.2,0.16,0.34,0.19c0.15,0.06,0.34,0.08,0.51,0.03c0.08,0.93,0.2,2.23,1.34,1.69
			c0.11-0.08,0.18-0.2,0.18-0.31c-0.02-0.48-0.03-0.95-0.04-1.43c0.09-0.01,0.18-0.02,0.26-0.06c0.05-0.03,0.08-0.08,0.12-0.12
			c0.03,0.36,0.06,0.72,0.12,1.08c0.12,0.29,0.56,0.46,0.97,0.38c0.38-0.07,0.49-0.35,0.52-0.61c0.14-0.8,0.14-1.61,0.2-2.42
			c0.05-0.91,0.13-1.85,0.23-2.79c0,0.06,0,0.13,0,0.19c0,0.12-0.01,0.24-0.01,0.36c-0.03,0.73-0.02,1.46-0.02,2.19
			c0,0.04,0,0.08,0,0.11c-0.04,0.13-0.03,0.28,0.01,0.43c0,0.16,0,0.33,0,0.49c0,0.13,0.07,0.25,0.19,0.33
			c0.3,0.21,0.71,0.15,0.95-0.04c0.13,0.51,0.34,1,0.75,1.43c0.26,0.17,0.73,0.12,0.92-0.09c0.2-0.19,0.18-0.45,0.26-0.67
			c0.02-0.12,0.03-0.24,0.05-0.36c0.11,0.3,0.24,0.59,0.42,0.87c0.16,0.16,0.42,0.2,0.66,0.16c0.42,0.41,1.3,0.12,1.18-0.45
			c0-0.02,0-0.03,0-0.05c0,0,0,0,0-0.01c0-2.02-0.06-4.04-0.13-6.06c0.01-0.52,0.02-1.04,0.03-1.56c0.01,0.01,0.02,0.02,0.02,0.02
			c0.09,1.64,0.24,3.27,0.44,4.91c0.08,0.32-0.05,0.71,0.26,0.97c0.29,0.22,0.82,0.17,1.03-0.1c0.04-0.05,0.06-0.11,0.08-0.17
			c0.03-0.03,0.07-0.06,0.09-0.1c0.01-0.08,0.02-0.17,0.03-0.25c0.01,0.02,0.01,0.01,0-0.03c0.03-0.26,0.05-0.52,0.08-0.79
			c0.42-0.09,0.66-0.49,0.64-0.84c0.2-1.33,0.35-2.77,0.48-4.27c0.1,0.01,0.2,0.02,0.29-0.02c0.18-0.07,0.27-0.19,0.31-0.33
			c0.09,0.61,0.06,1.29,0.5,1.81c0.07,0.05,0.14,0.08,0.22,0.1c0,0.31,0.02,0.61,0.04,0.92c-0.01,0.09-0.01,0.19-0.02,0.28h0.04
			c0.01,0.06,0.01,0.13,0.01,0.19c0.18,0.37,0.95,0.4,1.2,0.06c0.03-0.08,0.04-0.16,0.06-0.25h0.03c0-0.03,0-0.07,0-0.1
			c0.21-0.97,0.06-1.99,0.17-2.96c0.02-1.37,0.06-2.75,0.12-4.12c-0.01,0.65-0.01,1.3,0,1.96c-0.01,1.62,0.05,3.24,0.15,4.86
			c0.16,0.53-0.23,1.64,0.89,1.61c0.22-0.01,0.39-0.12,0.5-0.3c0.14,0.01,0.31-0.01,0.49-0.09c0.32-0.18,0.33-0.53,0.48-0.79
			c0.05-0.14,0.09-0.28,0.13-0.42c0.01,0.37,0.08,0.74,0.47,0.98c0.42,0.18,1.01-0.05,1-0.41c0.05-0.87,0.09-1.73,0.13-2.6
			c0.64-0.09,0.75-0.76,0.85-1.29c0.12,1,0.46,1.85,1.53,1.38c0.2-0.23,0.29-0.49,0.33-0.77c0.07,0.37,0.14,0.74,0.23,1.11
			c0.41,0.49,1.37,0.11,1.41-0.38c0.03-1.64,0-3.28,0.01-4.93c0-1.24,0.02-2.49,0.04-3.73c0.12,1.68,0.23,3.36,0.29,5.03
			c-0.05,0.19-0.04,0.31,0,0.4c0,0.05,0,0.1,0,0.14c-0.03,0.45,0.84,0.64,1.19,0.29c0.21,0.15,0.55,0.2,0.81,0.08
			c0.55-0.2,0.42-0.68,0.43-1.05c0.01-2.14,0.01-4.29,0.01-6.43C338.54,245.46,338.68,241.72,338.55,238.01z M333.37,236.64
			c0.06-0.36,0.1-0.73,0.14-1.09c0.01,0.27,0.02,0.54,0.03,0.81C333.48,236.45,333.43,236.54,333.37,236.64z M308.85,259.62
			c0.02-0.24,0.05-0.48,0.07-0.72c0.04-0.53,0.1-1.04,0.15-1.54c0.09,0.45,0.19,0.93,0.28,1.39
			C309.19,259.03,309.03,259.32,308.85,259.62z M311.78,241.23c0.01-0.01,0.02-0.03,0.04-0.04c-0.05,0.34-0.1,0.68-0.15,1.02
			c-0.05,0.2-0.1,0.41-0.15,0.61c-0.01-0.02-0.03-0.03-0.04-0.05c0.07-0.5,0.14-0.99,0.21-1.49
			C311.72,241.27,311.75,241.25,311.78,241.23z M329.74,249.38c0.05-0.3,0.1-0.6,0.14-0.89c-0.31,3.1-0.77,6.19-0.79,9.3
			c0,0.16,0.01,0.33,0.01,0.49c-0.03,0.19-0.05,0.38-0.08,0.57C329.1,255.69,329.38,252.53,329.74,249.38z M317.21,231.15
			c-0.02-0.02-0.05-0.03-0.07-0.04c0.03-0.32,0.05-0.63,0.08-0.95c-0.01-0.48,0.08-0.97,0.16-1.46c0.08-0.34,0.18-0.68,0.27-1.02
			c-0.06,0.4-0.12,0.8-0.16,1.21C317.39,229.65,317.3,230.4,317.21,231.15z M303.59,270.18c0.15-0.31,0.34-0.64,0.55-0.99
			c0.1-0.04,0.21-0.09,0.31-0.15c0.06,0.01,0.12,0.02,0.18,0.02c-0.04,0.04-0.08,0.08-0.12,0.12c-0.32,0.33-0.62,0.67-0.93,1.01
			C303.58,270.19,303.58,270.18,303.59,270.18z"/>
	</g>
	<g>
		<path class="st2" d="M427.14,407.74c1.15-0.38-13.62,3.75-16.34,5.75c-0.25,0.18-0.46,1.12-0.77,1.43
			c-1.54,1.48-2.75,3.05-3.98,4.67c-2.44,3.24-4.37,6.3-5.4,9.98c-1.72,6.16-1.5,12.41-0.17,18.64c1.44,6.77,3.21,14.87,9.64,20.07
			c2.78,2.25,6.96,3.44,10.75,4.27c4.33,0.95,7.71,2.73,12.31,2.95c9.74,0.48,17.38-0.37,25.24-4.82
			c9.05-5.13,10.66-11.04,12.08-19.02c1.21-6.81,1.22-15.29-3.22-21.47c-3.21-4.47-5.46-9.14-10.44-12.77
			c-2.53-1.84-5.76-2.56-8.5-4.08c-2.88-1.6-5.05-2.93-8.35-3.96c-4.36-1.35-8.84-1.26-13.47-1.72c-0.1-0.4,0.11-0.71,0.62-0.94"/>
		<path class="st2" d="M414.32,471.41c-1.61,10.88-4.86,20.51-8.45,31.05c-1.25,3.66-3.59,7.02-4.87,10.71
			c-1.86,5.38-4.51,10.59-6.26,15.99c-3.32,10.25-6.03,20.49-9.25,30.77c-3.44,10.99-5.11,22.05-7.07,33.19
			c-0.81,4.6-2.71,8.97-3.25,13.56c-0.37,3.16,0.23,6.7,0.8,9.82c2.13,0.24,4.46,0.08,6.64,0.08c1.95,0,4.99,0.84,6.64,0.43
			c0.4-2.48-0.28-5.08,0.07-7.56c0.21-1.52,1.02-3.16,1.23-4.72c0.27-1.92-0.33-4.05,0.28-5.92c2.12-6.49,4.25-13.57,5.11-20.35
			c1.83-14.38,10.73-27.82,11.62-42.35"/>
		<path class="st2" d="M458.16,471.41c6.92,10.4,11.98,20.83,17.55,31.74c3.25,6.37,5.54,12.6,7.38,19.29
			c2.54,9.2,3.26,18.38,4.66,27.67c1.13,7.5,1.79,14.98,3.12,22.45c1.27,7.2,1.71,14.23,1.69,21.5c-0.01,3.6,0.16,7.45,0.73,11.03
			c0.32,2,0.64,3.8,0.62,5.86c-0.02,1.59,1.08,3.58,0.57,5.03c-1.68,0.38-3.31-0.3-4.95-0.44c-1.64-0.14-3.33,0.08-4.96-0.06
			c-0.82-4.28-0.03-8.79-0.74-13.08c-0.57-3.43-1.59-6.91-2.07-10.35c-0.29-2.06-0.34-4.18-0.6-6.25c-0.3-2.35-0.89-4.11-1.61-6.4
			c-1.13-3.62-1.13-7.56-1.79-11.24c-0.25-1.43-1.18-2.63-1.41-4.03c-0.28-1.65-0.19-3.07-0.65-4.68c-0.97-3.4-2.2-6.73-3.19-10.05
			c-1.01-3.38-1.7-6.71-2.88-10.05c-0.85-2.41-2.29-4.69-3.05-7.08c-0.76-2.39-1.15-4.21-2.52-6.36c-1.5-2.35-3.02-4.6-3.88-7.14"/>
		<path class="st2" d="M406.9,542.72c0.77-2.99,2.13-9.01,3.43-12.43c1.12-2.12,2.74-4.17,3.17-6.41c0.38-1.99,0.46-4.28,2.21-5.93
			c-0.21,3.92-0.52,7.82-0.71,11.62c-0.25,5.05-2.22,10.18-3.03,15.21c-2.16,13.4-3.33,26.89-5.9,40.4
			c-1.56,8.23-0.96,16.82-1.88,25.1c-0.85,7.62,1.23,15.09,0,22.68c-0.7,4.3-2.23,8.57-3.48,12.85c-2.25,7.71-5.58,15.37-10.05,22.5
			c-2.77,4.42-5.08,8.48-6.34,13.3c-1.13,4.32-1.84,8.59-2.85,12.86c-0.78,3.29-2.3,6.56-2.92,9.79c-0.64,3.35,0.17,7.04,0.05,10.44
			c-0.24,6.61-2.39,13.33-1.26,19.97c3.48,0.28,5.29-0.58,8.52-1.35c2.33-0.55,5.3-0.81,7.72-1c1.98-0.15,3.58-0.07,5.44-0.71
			c1.6-0.55,2.62-1.54,4.34-2.01c6.19-1.7,12.89-1.98,19.39-3.02c5.07-0.81,12.09-1.11,17.25-0.4c10.12,1.4,19.11,4.5,29.58,4.48
			c3.77-0.01,7.82,0.38,11.55-0.1c2.48-0.32,4.14-0.88,6.7-0.92c3.74-0.05,7.62-0.73,11.25-0.48c-2.07-1.25-2.5-2.77-3.29-4.59
			c-1.72-3.98-3.73-8.13-5.15-12.15c-2.28-6.45-3.42-13.16-5.81-19.74c-2.27-6.26-3.47-12.96-5.09-19.34
			c-1.36-5.33-1.79-11.23-4.02-16.35c-1.24-2.84-1.45-5.27-2.02-8.27c-0.38-1.98-1.4-3.72-1.88-5.69c-0.87-3.63-2.25-6.9-3.41-10.47
			c-0.91-2.77-0.53-5.42-0.78-8.21c-0.72-8.11-2.04-16.08-2.04-24.28c0-7.66,0.42-15.29,0.67-22.9c0.22-6.75-1.21-14.15,0.68-20.73
			c0.76-2.67,0.39-4.11-0.03-6.7c-0.58-3.53,1.08-7.09,0.74-10.57c-0.44-4.53-1.14-9.07-2.11-13.51c-0.57-2.6-6.05-8.15-3.31-10.45"
			/>
		<path d="M462.81,491c-0.18-0.38-0.29-0.85-0.73-1.11c-0.6-0.39-1.63-0.12-1.82,0.45c-0.19,0.5-0.36,1.01-0.55,1.51
			c0.19-1.33,0.4-2.66,0.63-3.99c0.01-0.61,0.35-1.26,0.11-1.84c-0.06-0.12-0.16-0.22-0.28-0.3c0.06-0.63,0.1-1.27,0.1-1.91
			c-0.01-0.63,0.08-1.58-1.02-1.67c-0.18,0-0.33,0.02-0.48,0.06c0.01-0.21,0.01-0.42,0.02-0.63c0.28,0.09,0.62,0.07,1.05-0.13
			c1.17-0.81-0.41-2.03-0.45-3c-0.13-0.4-0.25-0.79-0.36-1.19c0.15-0.23,0.17-0.5-0.01-0.74c0.53-0.88-0.1-2.01-0.14-2.95
			c0.04,0.44-0.13-1.13-0.22-1.5c-0.12-0.81-0.23-1.26-0.3-1.73c-0.02-0.94,0.07-2.1-1.27-2.08c-0.12-0.03-0.24-0.04-0.37-0.04
			c-0.03-0.01-0.06-0.02-0.09-0.02c-0.08-0.09-0.17-0.17-0.26-0.24c0-0.04,0-0.07-0.01-0.1c-0.1-0.42-0.04-0.87-0.28-1.26
			c-0.36-0.48-1.29-0.54-1.79-0.15c-0.07,0.06-0.13,0.12-0.17,0.18c-0.07-0.01-0.14-0.01-0.21-0.01c-0.65-0.12-1.08,0.26-1.37,0.88
			c-0.09-0.08-0.17-0.16-0.29-0.23c-0.12-0.05-0.26-0.09-0.39-0.1c0.01-0.18,0.03-0.36,0.04-0.53c0-0.22-0.12-0.44-0.33-0.6
			c-0.36-0.26-0.92-0.33-1.35-0.13c-0.38,0.18-0.53,0.47-0.6,0.79c-0.13-0.05-0.27-0.07-0.41-0.08c-0.01-0.37-0.03-0.73-0.08-1.1
			c-0.22-0.47-1.06-0.67-1.61-0.41c-0.41,0.18-0.53,0.52-0.69,0.82c-0.44,0.98-0.81,1.98-1.21,2.97c-0.79,2.03-1.51,4.08-2.13,6.14
			c0.03-0.35,0.05-0.7,0.08-1.05c0.07-2.91,1.06-5.84,0.67-8.74c-0.2-0.65-1.21-1.21-1.99-0.78c-0.04-0.05-0.08-0.1-0.14-0.14
			c-2.29-1.14-2.18,1.89-2.61,2.89c-0.11,0.47-0.21,0.94-0.31,1.4c-0.34-0.1-0.74-0.09-1,0.11c-0.05,0.05-0.07,0.1-0.11,0.16
			c0.05-0.82,0.1-1.64,0.14-2.46c0.01-0.43,0.13-0.89-0.26-1.25c-0.18-0.2-0.46-0.33-0.77-0.4c-0.01-0.35-0.02-0.71-0.03-1.06
			c-0.01-0.39-0.35-0.75-0.85-0.84c-1.14-0.24-1.6,0.72-1.85,1.81c-0.21-0.25-0.57-0.42-1-0.42c-0.49,0-0.77,0.3-0.94,0.61
			c-0.54,0.71-0.97,1.46-1.34,2.23c-0.01,0.01-0.02,0.01-0.03,0.02c-0.44,0.42-0.5,0.99-0.62,1.53c-0.22,0.6-0.42,1.2-0.61,1.8
			c-0.68,1.48-1.23,2.99-1.7,4.52c0.25-2.1,0.53-4.2,0.84-6.29c0.14-1,0.3-1.99,0.41-2.99c0.05-0.45,0.22-1.04-0.47-1.24
			c-1.3-0.48-2.5,2.34-3.49,6.04c-0.01,0-0.03,0-0.04-0.01c0.38-1.59,0.74-3.2,1.04-4.83c0.03-0.07,0.05-0.13,0.07-0.2
			c-0.01,0-0.02,0-0.03-0.01c0.02-0.09,0.03-0.17,0.05-0.26c-0.04-0.45-0.81-0.73-1.31-0.49c-0.09,0.06-0.17,0.13-0.25,0.21
			c-0.12-0.09-0.25-0.17-0.42-0.2c-0.33-0.05-0.57,0-0.75,0.1c0.01-0.03,0.01-0.06,0.02-0.08c0.08-0.17,0.11-0.3,0.11-0.41
			c0.02-0.1,0.06-0.2,0.08-0.3c0.07-0.19,0.03-0.39-0.1-0.57c-0.25-0.34-0.89-0.47-1.33-0.26c-0.18,0.12-0.31,0.27-0.42,0.45
			c-0.01,0-0.02,0-0.03-0.01c-0.01,0.03-0.02,0.06-0.03,0.09c-0.14,0.27-0.21,0.58-0.27,0.9c-0.13,0.45-0.27,0.9-0.41,1.35
			c-0.72,0.23-0.64,1.19-0.89,1.71c-0.12,0.4-0.24,0.81-0.36,1.21c-0.09-0.09-0.19-0.16-0.35-0.22c-0.22-0.05-0.39-0.05-0.54-0.03
			c0-1.34,0-2.69,0-4.03c0-0.18-0.1-0.36-0.27-0.49c-0.53-0.42-1.59-0.11-1.56,0.49c-0.06,0.49-0.11,0.98-0.17,1.47
			c-0.08,0.02-0.16,0.02-0.23,0.06c-0.57,0.28-0.56,0.85-0.66,1.31c-0.01,0.07-0.02,0.13-0.03,0.2c-0.19-0.03-0.43-0.01-0.74,0.07
			c-0.19,0.08-0.3,0.2-0.37,0.34c-0.63,0.44-0.85,1.26-0.87,2.19c-0.05,0.03-0.11,0.06-0.14,0.1c-0.3,0.26-0.21,0.64-0.22,0.96
			c0,0.26,0,0.53,0,0.79c-0.01,0.04-0.01,0.08-0.02,0.12c-0.21,1.74-0.32,3.48-0.5,5.22c0.01,0.23-0.03,0.58-0.05,0.94
			c-0.23,0.75-0.38,1.52-0.6,2.27c-0.88,3.48-1.87,6.96-2.2,10.49c-0.09,0.83-0.3,4.14,0.76,4.81c-0.8,4.52-1.4,9.06-1.77,13.61
			c-0.08,1.41-0.17,2.81-0.26,4.22c-0.04,0.59-0.07,1.18-0.11,1.76c-0.02,0.13-0.03,0.27-0.03,0.4c0,0.04,0,0.08-0.01,0.12
			c0,0,0.01,0,0.01,0c0,0.04,0.01,0.09,0.02,0.13c-0.29,0.16-0.52,0.42-0.64,0.7c-1.87,4.17-1.42,8.73-1.52,13.08
			c0.15,2.07-0.35,4.36,0.56,6.33c-0.25,0.35-0.49,0.7-0.71,1.05c-0.07,0.07-0.14,0.14-0.21,0.2c-0.42,0.53-1.37,0.93-1.28,1.6
			c0.01,0.06,0.03,0.11,0.05,0.16c-0.37,0.44-0.74,0.88-1.09,1.33c-0.68,0.96-0.86,1.48-1.27,2.15c-0.13,0.18-0.18,0.39-0.11,0.59
			c-0.32,0.33-0.53,0.69-0.36,1.02c-0.9,1.37-1.74,2.75-2.39,4.2c-0.43,1.45-1.31,3.03-0.79,4.5c-0.04,0.36,0.1,0.68,0.63,0.92
			c0.32,0.11,0.61,0.13,0.88,0.09c0.33,0,0.66-0.08,0.93-0.23c0.93-0.56,1.63-1.3,2.28-2.06c0.04-0.01,0.08-0.02,0.11-0.04
			c0.49-0.07,1.29-1.57,1.03-1.14c0.07-0.13,0.14-0.24,0.2-0.35c0.07-0.07,0.13-0.14,0.19-0.21c0.47-0.64,1.95-2.03,1.52-2.78
			c0.09-0.13,0.18-0.26,0.28-0.41c0.65-0.78,1.23-1.58,1.91-2.34c0.15-0.13,0.25-0.29,0.29-0.45c0.2-0.17,0.4-0.35,0.6-0.52
			c0.88-0.76,1.8-1.49,2.75-2.2c0.1,0.27,0.26,0.52,0.49,0.73c0.08,0.25,0.24,0.54,0.49,0.58c0.69,0.18,1.09,0.08,1.32-0.17
			c0.02-0.01,0.03-0.01,0.05-0.02l0,0c0.13,0.18,0.35,0.29,0.59,0.34c0.27,0.11,0.59,0.14,0.87,0.05c0.14,1.67,0.34,4,2.31,3.04
			c0.19-0.15,0.31-0.35,0.31-0.56c-0.03-0.85-0.05-1.71-0.08-2.56c0.16-0.01,0.31-0.04,0.45-0.11c0.08-0.06,0.14-0.14,0.21-0.21
			c0.05,0.65,0.11,1.29,0.2,1.94c0.21,0.53,0.96,0.82,1.66,0.68c0.66-0.13,0.85-0.63,0.89-1.09c0.24-1.44,0.24-2.9,0.35-4.35
			c0.09-1.64,0.23-3.32,0.39-5.01c0,0.11-0.01,0.23-0.01,0.34c-0.01,0.22-0.01,0.44-0.02,0.65c-0.05,1.31-0.04,2.63-0.03,3.94
			c0,0.07,0,0.14,0,0.2c-0.07,0.23-0.06,0.5,0.01,0.77c0,0.29,0.01,0.59,0.01,0.88c0,0.23,0.12,0.44,0.33,0.6
			c0.51,0.38,1.23,0.27,1.64-0.07c0.22,0.92,0.59,1.8,1.3,2.56c0.45,0.3,1.25,0.22,1.59-0.15c0.34-0.33,0.31-0.81,0.45-1.21
			c0.04-0.22,0.05-0.44,0.09-0.65c0.18,0.54,0.42,1.06,0.73,1.57c0.27,0.29,0.72,0.37,1.13,0.3c0.72,0.74,2.24,0.21,2.03-0.81
			c0-0.03,0-0.05,0-0.08c0,0,0-0.01,0-0.01c0-3.63-0.11-7.26-0.22-10.89c0.01-0.93,0.04-1.86,0.06-2.8
			c0.01,0.01,0.03,0.03,0.04,0.04c0.16,2.94,0.41,5.88,0.76,8.81c0.14,0.58-0.09,1.27,0.45,1.74c0.5,0.39,1.42,0.3,1.77-0.17
			c0.07-0.1,0.11-0.2,0.14-0.31c0.05-0.06,0.11-0.11,0.15-0.18c0.02-0.15,0.03-0.3,0.04-0.45c0.02,0.03,0.02,0.02,0.01-0.06
			c0.05-0.47,0.09-0.94,0.14-1.41c0.72-0.16,1.13-0.88,1.11-1.51c0.34-2.39,0.6-4.98,0.82-7.67c0.17,0.03,0.34,0.03,0.5-0.03
			c0.31-0.12,0.46-0.33,0.53-0.59c0.16,1.1,0.1,2.31,0.86,3.26c0.11,0.09,0.24,0.14,0.38,0.18c0,0.55,0.03,1.1,0.08,1.65
			c-0.01,0.17-0.02,0.33-0.04,0.5h0.07c0.01,0.11,0.01,0.23,0.03,0.34c0.3,0.66,1.63,0.72,2.07,0.1c0.05-0.15,0.08-0.29,0.11-0.44
			h0.05c0-0.06,0-0.12,0-0.18c0.37-1.74,0.11-3.57,0.29-5.32c0.03-2.47,0.11-4.94,0.21-7.41c-0.01,1.17-0.02,2.34,0,3.51
			c-0.02,2.91,0.09,5.82,0.26,8.72c0.28,0.96-0.39,2.95,1.53,2.89c0.39-0.02,0.66-0.22,0.86-0.55c0.25,0.02,0.53-0.02,0.85-0.16
			c0.55-0.33,0.56-0.95,0.83-1.42c0.09-0.25,0.15-0.5,0.22-0.76c0.03,0.67,0.14,1.34,0.81,1.76c0.72,0.33,1.74-0.09,1.72-0.74
			c0.09-1.55,0.16-3.11,0.22-4.66c1.1-0.17,1.29-1.37,1.46-2.32c0.2,1.8,0.78,3.32,2.63,2.49c0.34-0.41,0.49-0.89,0.57-1.38
			c0.12,0.67,0.25,1.34,0.4,2c0.7,0.88,2.36,0.2,2.43-0.67c0.05-2.94,0-5.9,0.02-8.85c0.01-2.23,0.03-4.47,0.07-6.7
			c0.2,3.01,0.4,6.03,0.5,9.04c-0.08,0.34-0.07,0.56,0.01,0.71c0,0.09,0,0.17,0,0.26c-0.05,0.81,1.44,1.15,2.04,0.51
			c0.36,0.27,0.94,0.37,1.4,0.15c0.94-0.36,0.73-1.23,0.73-1.89c0.02-3.85,0.02-7.7,0.02-11.56
			C462.78,504.4,463.03,497.68,462.81,491z M453.88,488.54c0.1-0.65,0.18-1.31,0.24-1.96c0.02,0.49,0.03,0.97,0.05,1.45
			C454.08,488.2,453.98,488.37,453.88,488.54z M411.66,529.82c0.04-0.43,0.08-0.87,0.12-1.3c0.07-0.95,0.17-1.86,0.26-2.77
			c0.15,0.82,0.32,1.66,0.49,2.49C412.24,528.77,411.96,529.29,411.66,529.82z M416.7,496.79c0.02-0.03,0.04-0.05,0.06-0.08
			c-0.09,0.61-0.17,1.23-0.25,1.84c-0.09,0.37-0.18,0.73-0.26,1.1c-0.02-0.03-0.05-0.06-0.07-0.08c0.11-0.89,0.24-1.78,0.36-2.67
			C416.6,496.86,416.65,496.82,416.7,496.79z M447.63,511.44c0.09-0.54,0.16-1.07,0.24-1.6c-0.53,5.56-1.32,11.12-1.36,16.7
			c-0.01,0.3,0.01,0.59,0.01,0.88c-0.04,0.34-0.09,0.69-0.14,1.02C446.53,522.77,447.01,517.1,447.63,511.44z M426.06,478.69
			c-0.04-0.03-0.08-0.05-0.13-0.07c0.05-0.57,0.09-1.14,0.14-1.71c-0.01-0.86,0.14-1.74,0.27-2.61c0.14-0.61,0.3-1.22,0.47-1.83
			c-0.1,0.72-0.2,1.44-0.28,2.17C426.36,475.98,426.21,477.34,426.06,478.69z M402.59,548.8c0.26-0.55,0.58-1.15,0.95-1.77
			c0.18-0.07,0.35-0.16,0.53-0.27c0.1,0.02,0.21,0.03,0.32,0.03c-0.07,0.07-0.14,0.15-0.21,0.22c-0.54,0.6-1.07,1.21-1.6,1.81
			C402.58,548.81,402.59,548.8,402.59,548.8z"/>
	</g>
</g>
<g id="Ur">
</g>
<g id="Sut">
</g>
<g id="Baby">
</g>
<g id="Papir">
	<rect x="411.07" y="799.97" class="st23" width="8.94" height="8.94"/>
</g>
<g id="Blyant">
</g>
<g id="Hovedperson_ked_af_det_gravid">
</g>
<g id="Hovedperson">
</g>
<g id="Hovedperson_ked_af_det_gravid_copy_2">
</g>
<g id="Hovedperson_bagfra">
	<g id="Layer_6">
	</g>
</g>
<g id="Hovedperson_glad_gravid">
</g>
<g id="Hovedperson_glad_ikke_gravid">
</g>
</svg>
