<?xml version="1.0" encoding="utf-8"?>
<!-- Generator: Adobe Adobe Illustrator 24.2.0, SVG Export Plug-In . SVG Version: 6.00 Build 0)  -->
<svg version="1.1" xmlns="http://www.w3.org/2000/svg" xmlns:xlink="http://www.w3.org/1999/xlink" x="0px" y="0px"
	 viewBox="0 0 612 806" style="enable-background:new 0 0 612 806;" xml:space="preserve">
<style type="text/css">
	.st0{stroke:#000000;stroke-width:0.3463;stroke-miterlimit:10;}
	.st1{stroke:#000000;stroke-width:0.2517;stroke-miterlimit:10;}
	.st2{stroke:#000000;stroke-width:0.4427;stroke-miterlimit:10;}
	.st3{fill:none;stroke:#000000;stroke-width:3;stroke-miterlimit:10;}
	.st4{fill:none;stroke:#000000;stroke-width:0.5684;stroke-miterlimit:10;}
	.st5{fill:none;stroke:#000000;stroke-width:0.8309;stroke-miterlimit:10;}
	.st6{fill:none;stroke:#000000;stroke-width:0.5;stroke-miterlimit:10;}
	.st7{fill:#3384BE;}
	.st8{fill:#7FCD31;}
	.st9{fill:#F5D8A3;}
	.st10{fill:#BC1C43;}
	.st11{fill:#F7DD31;}
	.st12{fill:#E2D827;}
	.st13{fill:#F1D8A3;}
	.st14{fill:#3784B7;}
	.st15{fill:#81C934;}
	.st16{fill:#E2D82C;}
	.st17{fill:#BD2042;}
	.st18{stroke:#000000;stroke-width:0.5;stroke-miterlimit:10;}
	.st19{fill:#242424;stroke:#000000;stroke-width:0.5;stroke-miterlimit:10;}
	.st20{fill:#FFFFFF;stroke:#FFFFFF;stroke-width:0.5;stroke-miterlimit:10;}
	.st21{fill:none;stroke:#355DAD;stroke-width:0.5;stroke-miterlimit:10;}
	.st22{opacity:0.2902;fill:#C71E18;}
	.st23{fill:#FFFFFF;stroke:#000000;stroke-miterlimit:10;}
	.st24{fill:#FFFFFF;stroke:#000000;stroke-width:0.3123;stroke-miterlimit:10;}
	.st25{fill:none;stroke:#000000;stroke-width:0.3123;stroke-miterlimit:10;}
	.st26{fill:#FFFFFF;stroke:#000000;stroke-width:0.3057;stroke-miterlimit:10;}
	.st27{fill:#E35F15;}
	.st28{fill:#FFFFFF;stroke:#000000;stroke-width:1.1718;stroke-miterlimit:10;}
	.st29{fill:#FFFFFF;stroke:#000000;stroke-width:1.0319;stroke-miterlimit:10;}
	.st30{fill:none;stroke:#000000;stroke-width:1.0319;stroke-miterlimit:10;}
	.st31{fill:#E22B31;}
	.st32{fill:#367AB9;}
	.st33{fill:#FFFFFF;stroke:#000000;stroke-width:0.9847;stroke-miterlimit:10;}
	.st34{fill:#FFFFFF;stroke:#000000;stroke-width:1.1538;stroke-miterlimit:10;}
	.st35{fill:#FFFFFF;stroke:#000000;stroke-width:1.0161;stroke-miterlimit:10;}
	.st36{fill:none;stroke:#000000;stroke-width:1.0161;stroke-miterlimit:10;}
	.st37{fill:#F3DD31;}
	.st38{fill:#81CA34;}
	.st39{fill:#BD2342;}
	.st40{fill:none;stroke:#000000;stroke-width:0.5068;stroke-miterlimit:10;}
	.st41{fill:#FFFFFF;stroke:#000000;stroke-width:0.5;stroke-miterlimit:10;}
	.st42{fill:none;stroke:#000000;stroke-width:0.499;stroke-miterlimit:10;}
	.st43{fill:#BD2242;}
	.st44{fill:none;stroke:#000000;stroke-width:0.496;stroke-miterlimit:10;}
	.st45{fill:none;stroke:#F3DD31;stroke-miterlimit:10;}
</style>
<g id="Skyggepersoner">
</g>
<g id="Ur">
</g>
<g id="Sut">
</g>
<g id="Baby">
</g>
<g id="Papir">
	<g>
		<path class="st24" d="M214.17,225.01c0.89,12.95,2.29,25.74,2.29,38.76c0,6.34,0.13,12.68-0.26,19
			c-0.41,6.54-0.27,13.42,0.24,19.94c0.54,6.9,0.63,13.85,1.23,20.73c0.58,6.7,0.4,13.4,1.01,20.1c0.6,6.63,1.22,13.15,2.44,19.71
			c0.73,3.93,1.34,8.01,1.86,11.96c0.29,2.23-0.04,4.48,0.35,6.71c0.36,2.1,0.59,4.25,0.79,6.38c0.3,3.2,0.92,6.29,0.92,9.49"/>
		<path class="st24" d="M215.03,225.84c10.36-0.85,20.8-0.99,31.21-1.4c3.69-0.15,7.06-1.2,10.7-1.59c2.62-0.28,5.41-0.05,8.05-0.05
			c5.21,0,10.4-0.2,15.61-0.29c2.61-0.05,5.23-0.03,7.82,0.23c1.88,0.19,3.64-0.22,5.52-0.21c2.4,0.01,4.74-0.14,7.11-0.28
			c2.26-0.13,4.52,0.01,6.71-0.25c3.2-0.38,6.02-2.03,9.18-2.52c3.28-0.51,6.52-0.54,9.84-0.54c2.23,0,5.02-0.85,7.14,0"/>
		<path class="st24" d="M333.91,219.21c0,2.56,0,5.11,0,7.67c0.18,0.57-0.29,2.64-0.29,3.65c0.01,1.9-0.17,3.9-0.43,5.78
			c-0.33,2.46-0.59,4.88-0.86,7.33c-0.32,2.95-0.25,5.73-0.13,8.68c0.12,2.97-0.05,5.96-0.02,8.93c0.04,3.82,1.22,7.58,1.94,11.32
			c1.45,7.5,3.35,14.85,3.5,22.52c0.03,1.53,0.21,2.92,0.43,4.44c0.34,2.41-0.03,4.85,0.28,7.27c0.48,3.8,0.4,7.67,0.42,11.5
			c0.01,1.78,0.39,3.49,0.27,5.27c-0.11,1.77-0.47,3.45-0.53,5.22c-0.13,3.42-0.78,6.99-1.15,10.39c-0.73,6.7-0.53,13.51-0.88,20.24
			c-0.27,5.21-0.1,10.61,0.28,15.78c0.34,4.6,0.83,9.19,1.46,13.69c0.23,1.67,0.23,3.2,0.57,4.78c0.24,1.11,0.55,3.04,0.56,3.6"/>
		<path class="st24" d="M226.46,398.35c2.97,0.38,6.39,1.12,9.43,1.11c1.19-0.01,2.28,0.01,3.42,0.27c2.6,0.59,5.18,0.56,7.89,0.56
			c4.55,0,9.14-0.65,13.65-1.22c5.53-0.7,11.07-0.92,16.65-0.98c2.08-0.03,4.34-0.11,6.4-0.34c3.35-0.38,6.75-0.23,10.14-0.57
			c5.25-0.53,10.59-0.44,15.85-0.77c6.54-0.4,13.12,0.95,19.58,1.12c1.85,0.05,3.64,0.16,5.45,0.28c1.76,0.11,3.84-0.06,5.28-1.11"
			/>
		<g>
			<path class="st24" d="M334.19,219.35c1.55-1.58,3.17-3.08,4.87-4.51c0.6,0.22,1.9-0.79,2.61-1.01c1.6-0.48,3.24-0.75,4.87-1.17
				c3.76-0.96,7.42-2.01,11.23-2.7c3.78-0.68,7.56-0.95,11.29-2c1.42-0.4,2.74-0.71,4.09-1.25c0.67-0.27,2.28-0.47,2.48-1.17"/>
			<path class="st24" d="M217.97,224.44C217.98,224.44,217.98,224.44,217.97,224.44c0.4-0.38,0.87-0.65,1.34-0.92
				c0.05-0.04,0.1-0.08,0.16-0.12c-1.48,0.65-2.97,1.39-4.73,2.3l2.94-1.13C217.78,224.52,217.88,224.48,217.97,224.44z"/>
			<path class="st24" d="M264.87,206.49l2.45-0.94C266.5,205.5,265.66,205.93,264.87,206.49z"/>
			<path class="st24" d="M266.47,206.38c2.22-0.66,4.46-1.25,6.71-1.78c1.01,0.75,5.33,0.12,6.79,0.12c3.69,0,7.37,0,11.06,0
				c8.01,0,15.94-0.28,23.95-0.28c4.13,0,8.06-1.01,12.14-1.11c3.99-0.1,8.1-0.52,12.08-0.84c8.68-0.7,17.23-1.56,25.89-0.59
				c3.19,0.36,6.12,1.66,9.18,2.05c1.7,0.22,3.56,0.35,5.08,1.04"/>
			<path class="st24" d="M378.34,205.55c-0.07,1.47-0.27,4.91-0.29,6.74c-0.04,1.8,0.18,3.38,0,5.19c-0.22,2.14-0.3,4.31-0.54,6.46
				c-0.37,3.22,0.27,6.49,0.26,9.7c-0.01,3.84-0.06,7.68,0,11.52c0.05,3.2,0.57,6.46,0.84,9.66c0.31,3.61,1.37,7.14,1.46,10.8
				c0.2,7.99,1.24,15.89,0.41,23.87c-0.27,2.66-0.14,5.41-0.14,8.1c0,2.27-0.42,4.54-0.3,6.79c0.16,2.94,0.62,5.82,1.1,8.71
				c0.58,3.47,0.6,7.19,1.56,10.58c0.85,2.99,0.39,5.83,0.76,8.85c0.33,2.74,0.54,5.51,0.89,8.27c0.58,4.59,0.96,9.69,0.41,14.34
				c-0.41,3.47-0.69,6.98-1.6,10.35c-0.51,1.89-1.19,3.75-1.4,5.66c-0.08,0.74-0.22,1.55-0.3,2.19c-0.08,0.65-0.38,1.66-0.27,2.26
				c0,0.2,0,0.19,0-0.04"/>
			<path class="st24" d="M340.05,396.28c2.46-1.91,4.16-3.53,6.84-4.43c0.78-0.26,1.56-0.36,2.36-0.6c1.83-0.56,3.59-0.99,5.46-1.39
				c1.93-0.41,3.71-1.25,5.39-2.24c0.94-0.56,1.73-1.11,2.77-1.56c0.7-0.3,1.71-0.51,2.34-0.87c1.31-0.75,2.26-2.1,3.43-2.99
				c0.95-0.72,2.16-1.1,3.13-1.83c0.78-0.59,1.37-1.12,2.24-1.55c2.13-1.06,4.18-2.39,6.64-2.42"/>
			<path class="st25" d="M217.17,232.32c5.74-0.39,11.37-1.11,17.13-1.1c10.59,0.01,21.29,0.41,31.84-0.25
				c9.77-0.62,19.52-1.86,29.29-2.24c2.63-0.1,5.35-0.05,7.95-0.46c1.78-0.28,3.33-1.3,5.11-1.48c2.63-0.28,5.13-0.55,7.83-0.53
				c2.52,0.02,4.96-0.84,7.51-0.83c3.4,0.02,6.78-0.28,13.64,0c4.54-2.22,8.44-4.7,13.1-6.4c1.76-0.64,3.56-1.15,5.32-1.75
				c1.15-0.4,2.26-0.94,3.45-1.21c1.13-0.26,2.38-0.28,3.49-0.57c2.09-0.55,4.27-1.26,6.23-2.1c1.16-0.5,2.4-0.7,3.52-1.2
				c0.63-0.28,2.04-0.76,2.33-1.11"/>
			<path class="st25" d="M216.32,240.6c3.75-0.48,7.53-0.36,11.23-1.03c3.37-0.6,6.93-0.77,10.36-0.91
				c7.94-0.33,15.99-0.54,23.95-0.54c10.6,0,21.16,0.28,31.76,0.28c1.88,0,3.82,0.12,5.69-0.06c1.83-0.18,3.53-0.49,5.38-0.49
				c1.88,0.01,3.61-0.02,5.42-0.31c1.39-0.22,2.77-0.5,4.17-0.52c3.53-0.05,6.9-1.03,10.35-1.63c1.1-0.19,2.18-0.18,3.28-0.29
				c0.68-0.07,2.54-0.12,7.57-1.11c2.88-1.41,5.92-2.66,8.59-4.43c0.69-0.46,1.29-0.82,2.08-1.1c2.39-0.84,4.64-1.9,7.04-2.77
				c3.27-1.2,6.65-1.64,10.03-2.46c2.42-0.59,4.83-1.31,7.26-1.78c1.45-0.28,2.68-0.9,3.99-1.52c1.55-0.73,3.13-0.87,4.74-1.39"/>
			<path class="st25" d="M216.89,248.33c5.32-0.59,10.1-1.37,15.36-0.89c4.86,0.44,9.88,0.04,14.77,0.07
				c3.76,0.02,7.51-0.29,11.27-0.28c2.98,0,5.92,0.23,8.9,0.3c3.69,0.09,7.41-0.3,11.12-0.3c2.75,0,5.5,0,8.25,0
				c9.36,0,18.71-0.48,28.07-0.28c1.73,0.04,3.32,0.44,5.04,0.08c1.04-0.22,1.92-0.3,2.97-0.41c1-0.11,2.1-0.17,3.15-0.28
				c1.36-0.14,3.81,0.04,8.26,0.06c2.3-1.51,4.67-2.92,6.96-4.41c0.68-0.44,0.95-1.01,1.48-1.49c0.76-0.68,1.86-1.05,2.67-1.7
				c0.87-0.7,1.63-1.45,2.6-2.04c1.98-1.22,4.45-1.65,6.63-2.51c2.3-0.9,4.96-1.94,7.39-2.43c3.09-0.62,6.11-0.68,9.09-1.72
				c0.98-0.34,1.81-0.63,2.89-0.88c1.14-0.27,2.23-1.17,3.44-1.04"/>
			<path class="st25" d="M216.89,257.72c9.66-2,18.83-3.33,28.75-3.31c3.67,0.01,7.44-0.23,11.1,0.13c2.88,0.28,5.72,0.68,8.63,0.71
				c6.22,0.07,12.32,1.08,18.54,1.36c10.53,0.49,21.16,0.46,31.7,0.28c1.45-0.02,2.72-0.45,4.13-0.57c1.06-0.09,2.15,0.1,3.21,0.03
				c1.7-0.12,3.68-0.71,5.38-0.57"/>
			<path class="st25" d="M334.91,255.23c4.13-2.96,8.73-5.33,13.41-7.39c1.77-0.78,3.74-1.55,5.58-2.14
				c0.77-0.25,1.48-0.52,2.22-0.82c1.58-0.65,3.6-1.05,5.04-1.95c1.91-1.2,3.62-2.24,5.86-3.05c1.65-0.6,7.98-1.85,8.18-3.69"/>
			<path class="st25" d="M219.46,264.06c2.14-0.88,5.99-2.75,8.54-3.08c0.69-0.09,1.39-0.15,2.09-0.23c1.61-0.19,3.2-0.52,4.81-0.56
				c2.43-0.05,4.78-0.06,7.21-0.34c1.62-0.19,2.9,0.04,4.51,0.09c4.46,0.13,8.93,0.14,13.36,0.81c5.72,0.86,11.6,0.65,17.37,1.05
				c5.3,0.37,10.71,0.41,16.03,0.59c4.6,0.15,9.15-0.14,13.73,0.38c4,0.45,7.75-0.03,11.71-0.42c1.4-0.14,2.77-0.33,4.15-0.55
				c1.46-0.22,3.33-0.83,4.79-0.77"/>
			<path class="st25" d="M334.34,261.58c8.36-4.09,16.45-8.63,25.37-11.24c1.8-0.53,3.68-0.68,5.42-1.44
				c1.28-0.56,2.52-1.3,3.76-1.88c0.99-0.46,1.72-0.85,2.57-1.45c0.78-0.55,2.46-1.55,3.46-1.38"/>
			<path class="st25" d="M218.32,268.48c9.72-2.13,19.13-3.31,29.07-3.31c4.61,0,9.11,0.56,13.7,0.55c2.23-0.01,4.67-0.25,6.86,0.19
				c2.85,0.57,5.55,0.5,8.43,0.84c9.1,1.09,18.46,0.06,27.61,0.62c3.5,0.21,6.9,0.38,10.41,0.07c1.37-0.12,2.74-0.04,4.12-0.06
				c2.17-0.03,4.24-0.76,6.39-0.83"/>
			<path class="st25" d="M332.62,266.27c3.34-0.91,6.65-1.94,9.92-3.08c0.32-0.69,2.77-0.9,3.54-1.34c1.62-0.93,3.15-1.51,4.9-2.21
				c1.58-0.63,2.74-1.54,4.42-2.05c1.75-0.54,3.08-1.65,4.71-2.43c2.76-1.31,5.48-2.62,8.4-3.57c2.01-0.66,4.28-1.7,6.4-1.88"/>
			<path class="st25" d="M218.89,275.66c5.02-1.49,9.78-2.88,14.93-3.65c3.99-0.6,7.54-0.2,11.51-0.2
				c4.82-0.01,9.43-0.58,14.23,0.27c5.21,0.93,10.54-0.45,15.79,0.26c5.2,0.7,10.55,1.27,15.8,1.39c2.98,0.07,5.92,0.21,8.87,0.62
				c1.91,0.26,3.8,0.07,5.72,0.26c3.81,0.39,7.63,0.21,11.45-0.2c3.88-0.42,7.93-0.54,11.72-1.51"/>
			<path class="st25" d="M337.48,272.34c4.39-2.22,8.5-5.04,13.07-6.98c1.65-0.7,3.17-1.45,4.88-1.93c1.87-0.53,3.98-0.98,5.76-1.72
				c2.49-1.04,4.94-2.18,7.57-2.89c1.46-0.4,2.12-1.01,3.34-1.66c0.74-0.39,2.58-1.15,3.39-1.11"/>
			<path class="st25" d="M220.03,283.94c3.29-1.39,6.31-2.5,9.82-2.99c1.35-0.19,2.75-0.11,4.11-0.26
				c3.81-0.42,7.59-0.34,11.43-0.34c5.24,0,10.43-0.56,15.66-0.55c4.15,0.01,8.26,0.4,12.39,0.57c2.33,0.1,4.01,0.29,6.1,1.08
				c2.45,0.93,5.28,1.02,7.87,1.39c6.72,0.95,13.48,0.27,20.23,0.27c4.72,0,9.46,0.14,14.12-0.48c2.98-0.4,5.91-0.75,14.58-1.45
				c3.91-2.22,7.86-4.21,11.72-6.43c1.55-0.89,3.42-1.47,4.83-2.55c2.12-1.63,4.87-2.99,7.54-3.72c1.27-0.35,2.4-0.82,3.59-1.35
				c1.97-0.88,4.06-1.45,6.02-2.24c1.15-0.46,2.46-0.56,3.67-0.88c1.15-0.3,3.05-0.33,4.05-1.04"/>
			<path class="st25" d="M218.03,291.67c5.17-1.69,9.44-3.08,14.75-3.61c5.33-0.53,10.51-1.66,15.9-1.63
				c2.6,0.01,5.16-0.25,7.74-0.3c3.36-0.07,6.42,1.45,9.84,1.42c5.97-0.06,11.94-0.01,17.91-0.01c6.41-0.01,13.06,0.03,19.44,0.61
				c5.43,0.49,10.99,0.21,16.45,0.21c3.08,0,6.1-0.06,9.15-0.28c1.66-0.12,3.5-0.98,10.28,1.39c2.34-1.67,4.61-3.58,7.22-4.76
				c0.78-0.35,1.57-0.59,2.33-1.02c0.91-0.51,1.69-1.17,2.57-1.74c2.77-1.79,6.39-2.14,9.36-3.6c1.47-0.72,2.62-1.47,4.25-1.88
				c1.36-0.34,2.72-0.62,4.04-1.08c0.96-0.33,1.84-0.57,2.84-0.75c1.97-0.36,4-1.34,5.98-1.46"/>
			<path class="st25" d="M219.17,296.91c5.43-0.87,10.53-2.05,15.91-2.48c6.21-0.49,12.38-1.4,18.61-1.68
				c10.25-0.45,20.67-0.4,30.86,0.91c3.39,0.44,6.7,0.48,10.12,0.48c4.08,0,8.13,0.2,12.19,0.29c4.46,0.09,8.78,0.35,13.23,0.88
				c3.28,0.39,6.44,0,9.69-0.06c2.07-0.04,3.91-0.81,9.69-0.28c3.58-1.87,6.76-4.04,10.42-5.52c1.54-0.63,3.15-1.06,4.71-1.65
				c1.54-0.58,2.99-1.38,4.53-1.86c1.87-0.59,3.78-1.4,5.61-1.88c2.29-0.6,4.47-1.05,6.73-1.85c1.41-0.5,3.41-2.46,4.87-2.14"/>
			<path class="st25" d="M218.6,303.53c5.53-1.32,10.23-2.19,15.71-2.73c2.3-0.23,4.57-0.18,6.88-0.33
				c4.83-0.33,9.77-0.13,14.59-0.59c5.11-0.49,10.52-0.43,15.67-0.5c4.53-0.06,9.04-0.27,13.58-0.27c3.28,0,6.53-0.05,9.8,0.21
				c2.52,0.2,4.95,0.64,7.49,0.62c5.35-0.04,10.71,0,16.07,0c3.11,0,6.23,0,9.34,0c3.3,0,6.46-0.58,12.05,0.83
				c4.06-1.63,8.47-3.01,12.38-5.04c1.63-0.85,3.22-1.4,5.02-1.87c1.44-0.38,2.78-0.99,4.11-1.63c1.36-0.66,2.72-1.17,4.05-1.81
				c2.08-1,3.84-1.63,6.02-2.33c1.05-0.34,2.24-0.6,3.26-1c0.83-0.33,1.28-0.9,2.37-0.61c-0.17,0.14-0.28,0.31-0.33,0.52
				c0.37,0.2,0.74,0.37,1.13,0.54"/>
			<path class="st25" d="M220.6,309.33c6.58-0.72,13.2-1.37,19.8-1.93c5.07-0.43,10.07-1.23,15.16-1.52
				c5.22-0.3,10.45-0.69,15.68-0.69c3.13,0,6.3-0.08,9.4,0.41c2.66,0.42,5.17,1.17,7.88,1.25c5.08,0.16,10.15,1.12,15.23,1.1
				c4.44-0.02,8.76-0.2,13.2-0.5c2.95-0.2,5.9-0.27,8.83-0.6c2.3-0.26,5.41-1.56,7.7-0.56"/>
			<path class="st25" d="M340.91,305.74c3.16-1.07,6.3-2.01,9.44-2.96c0.42-0.13,0.76-0.22,1.14-0.41c1.04-0.52,1.98-1.07,3.09-1.53
				c2.62-1.09,5.3-1.96,8.03-2.67c2.65-0.7,5.08-2.07,7.71-2.85c1.25-0.37,2.32-1.02,3.53-1.41c1.55-0.49,3.42,0.11,5.06-0.31"/>
			<path class="st25" d="M219.75,315.68c5.58-1.08,11.56-2.77,17.35-2.76c4.57,0.01,9.11-0.57,13.65,0.14
				c3.31,0.52,6.61,0.63,9.96,0.68c3.72,0.06,7.39,0.81,11.13,0.86c6.24,0.07,12.48-0.01,18.72-0.01c8.29,0,16.4-0.71,24.63-1.59
				c3.04-0.32,6.02-0.14,9.05-0.34c2.43-0.16,4.79-0.56,7.25-0.56"/>
			<path class="st25" d="M341.19,311.82c4.6-2.12,9.1-4.17,14.01-5.45c3.1-0.81,6.34-1.08,9.45-1.98c3.81-1.1,8.23-1.36,11.97-2.78"
				/>
			<path class="st25" d="M220.89,323.13c4.04-0.74,8.81-2.09,13.09-1.98c1.05,0.03,2.09,0.05,3.14,0.05c2.12,0,4.23,0,6.35,0
				c4.34,0,8.65,0.04,12.97-0.25c4.24-0.28,8.83-0.26,13.05,0.19c5.59,0.59,11.51,0.09,17.13,0.06c9.6-0.06,19.07,1.88,28.65,0.57
				c2.9-0.4,5.7-1.99,8.54-2.71c2.04-0.52,5.62-0.56,7.39-1.72"/>
			<path class="st25" d="M340.91,318.72c6.78-2.16,13.45-4.55,20.24-6.64c2.14-0.66,4.48-0.8,6.58-1.57
				c1.93-0.71,3.88-1.64,6.04-1.46"/>
			<path class="st25" d="M223.46,331.96c4.68-0.99,8.73-1.92,13.38-2.2c2.08-0.12,4.18-0.38,6.26-0.56
				c2.86-0.25,5.73-0.26,8.59-0.48c1.98-0.16,3.98-0.36,5.97-0.34c6.22,0.07,12.73-0.47,18.9-1.18c4.87-0.56,9.76,0.1,14.65,0.07
				c4.38-0.03,8.71,1.07,13.1,1.12c4.07,0.04,8.14-0.01,12.21-0.01c2.78,0,5.14-0.22,7.83-0.9c2.25-0.57,4.54-0.73,6.73-1.48
				c-0.15,0.06-0.3,0.11-0.45,0.17"/>
			<path class="st25" d="M342.05,325.62c7.81-2.23,15.37-4.76,23.14-7.03c3.69-1.08,7.23-3.69,11.15-3.73"/>
			<path class="st25" d="M222.6,340.25c1.58-0.74,3.54-1.88,5.3-2.25c0.93-0.19,1.99-0.17,2.95-0.31c1.72-0.25,3.48-0.4,5.22-0.48
				c4.95-0.22,9.8-0.83,14.77-0.83c4.86,0,9.78,0.19,14.64-0.02c5.64-0.24,11.19-0.62,16.79-1.07c4.98-0.39,10.5-0.34,15.46,0.05
				c5.12,0.4,10.08-0.33,15.19-0.33c3.3,0,6.5-0.83,9.74-1.12c3.02-0.27,6.05-0.53,9.1-0.55"/>
			<path class="st25" d="M340.34,333.07c4.02-1.6,8.05-3.05,12.02-4.63c1.62-0.65,3.45-0.83,5.13-1.33c3.73-1.1,7.41-2,11.08-3.1
				c2.1-0.63,4.33-0.35,6.38-1.21c1.16-0.49,2.36-0.76,3.46-1.32c0.96-0.49,1.71-0.91,2.79-1.11"/>
			<path class="st25" d="M224.32,346.32c7.04-0.93,13.7-1.52,20.74-0.68c5.24,0.62,10.62,0.69,15.9,0.68
				c5.61-0.01,11.25,1.18,16.88,0.45c5.31-0.69,10.74-1.26,16.01-2.23c7.4-1.36,14.83-2.12,22.32-2.37c3.2-0.1,6.29,0.08,9.44-0.6
				c2.04-0.44,4.65-1.7,6.74-1.59"/>
			<path class="st25" d="M340.34,341.63c3.67-2.24,6.89-4.33,10.73-6.05c1.54-0.69,3.21-1.03,4.76-1.67c0.74-0.3,1.47-0.8,2.22-1.07
				c1.36-0.49,3.01-0.35,4.43-0.66c1.71-0.37,3.31-1.2,5.02-1.47c1.06-0.17,2.05-0.26,3.1-0.45c1.29-0.23,2.16-0.96,3.24-1.39
				c2.49-1,5.21-1.57,7.66-2.7"/>
			<path class="st25" d="M225.75,354.32c-0.19-0.53-0.39-1.06-0.58-1.59c0.53-1.25,5.38-0.71,6.66-0.83
				c1.82-0.17,3.57-0.35,5.41-0.35c3.6,0.01,7.21-0.01,10.81,0c11.02,0.03,22.1,0.99,33.14,0.84c2.55-0.03,5.04-0.53,7.59-0.58
				c2.63-0.05,5.21,0.08,7.83-0.26c5.12-0.66,10.17-0.65,15.25-1.67c1.57-0.32,3.2-0.89,4.76-1.08c1.41-0.17,2.85-0.01,4.25-0.34
				c1.47-0.34,2.96-0.9,4.38-1.33c1.81-0.55,3.9-0.67,5.66-1.38"/>
			<path class="st25" d="M336.91,347.97c2.71-0.84,5.43-1.64,8.16-2.41c0.21-0.81,2.42-0.97,3.12-1.17
				c1.28-0.37,2.52-0.95,3.81-1.38c1.44-0.48,2.65-1.28,4.14-1.65c2.24-0.56,4.39-1.33,6.62-1.82c2.26-0.5,4.35-1.53,6.6-2.06
				c1.52-0.36,3.09-0.5,4.61-0.81c1.01-0.21,1.93-0.25,3.03-0.27c1.64-0.03,3.22-0.84,4.79-0.83"/>
			<path class="st25" d="M226.6,362.05c3.72-1.17,6.68-2.11,10.48-2.21c2.38-0.06,4.73-0.28,7.11-0.48
				c6.82-0.59,13.87-0.62,20.71-0.29c5.75,0.28,11.51,0.46,17.24,0.83c5.22,0.34,10.19-0.32,15.35-1.03
				c4.44-0.61,8.87-1.15,13.28-1.9c1.73-0.3,3.49-0.45,5.23-0.73c1.18-0.19,2.29-0.59,3.48-0.83c1.88-0.38,3.73-0.09,5.62-0.25
				c1.6-0.13,3.09-0.29,4.74-0.29c0.92,0,1.85,0.21,2.73,0.21c0.64,0.01,1.13-0.2,6.05,0.34c10.31-3.47,19.53-8.87,30.42-10.62
				c1.34-0.21,2.71-0.5,4.04-0.77c1.42-0.29,2.73-0.34,4.14-0.55c1.27-0.18,2.79-0.51,3.93-1.04c1.32-0.6,3.27-0.83,4.33-1.66"/>
			<path class="st25" d="M224.03,369.78c7.71-0.52,15.49-1.21,23.1-2.5c5.62-0.95,11.47-0.58,17.04-1.92
				c4.93-1.18,10.2-0.83,15.25-0.83c6.05,0,11.99,0.09,18.02,0.52c4.04,0.29,7.69-0.1,11.72-0.52c3.75-0.39,7.64-0.24,11.32-0.69
				c4.02-0.49,7.73-2.07,16.71-1.79c4.49-1.15,8.5-2.07,12.53-4.09c2.03-1.02,4.18-1.77,6.23-2.76c1.4-0.68,2.87-1.08,4.4-1.44
				c2.05-0.48,4.02-1.17,6.07-1.66c5.94-1.43,12.13-2.99,18.22-3.02"/>
			<path class="st25" d="M225.46,376.4c2.78-0.8,5.52-1.87,8.37-1.97c1.1-0.04,2.22,0.04,3.32,0.04c2.44,0,4.89,0,7.33,0
				c6.44,0,13.04,0.37,19.46-0.06c6.72-0.45,13.5-0.75,20.19-1.57c4.92-0.6,9.5-1.87,14.51-1.96c6.11-0.1,12.12-0.56,18.24-0.55
				c2.3,0.01,4.24-0.87,6.54-1.07c2.35-0.21,4.86-0.81,7.2-0.86"/>
			<path class="st25" d="M337.48,368.68c5.89-2.22,11.79-4.66,17.72-6.68c2.88-0.98,5.53-2.86,8.56-3.38
				c3.68-0.64,7.54-1.36,11.1-2.31c1.65-0.44,3.33-0.52,4.97-1.1c0.46-0.16,1.76-0.84,1.66-0.33"/>
			<path class="st25" d="M226.32,381.1c4.42-0.75,9.28-2.14,13.77-2.02c1.13,0.03,2.22,0.09,3.36,0.09c2.33,0,4.67,0,7,0
				c4.9,0,9.76-0.28,14.65-0.28c8.88,0,17.76,0.48,26.64,0.29c3.85-0.08,7.9-0.88,11.65-1.67c3.6-0.75,6.98-0.91,10.61-1.13
				c2.68-0.16,5.71-0.24,8.35-0.87c2.69-0.64,5.69-0.7,13.98,0.06c4.14-1.8,7.7-3.35,11.87-4.68c1.91-0.61,3.64-1.61,5.52-2.25
				c3.24-1.1,6.62-2.19,9.96-3.01c3.33-0.81,6.51-2.24,9.94-2.48c1.29-0.09,2.37-0.31,3.52-0.82c1.13-0.5,2.16-0.91,3.4-1.16
				c0.23-0.05,2.23-0.3,1.51-0.24"/>
			<path class="st25" d="M225.17,387.17c4.48-1.01,8.3-1.76,12.64-2.31c2.84-0.36,5.71-0.3,8.55-0.61c4.33-0.48,8.7-0.49,13.03-0.88
				c5.05-0.46,10.5-0.32,15.56-0.05c2.97,0.16,5.98,0.74,8.95,0.99c4.54,0.39,9.1,0.33,13.65,0.72c9.5,0.81,18.63,2.14,28.04,0.07
				c1.24-0.27,8.09-2.88,13.6-2.34c5.72-2.32,11.38-4.52,17.15-6.64c3.09-1.13,6.05-2.27,9.3-2.97c2.06-0.45,4.09-0.86,6.11-1.43
				c1.67-0.47,4.1-0.29,5.59-1.17c0.81-0.48,0.79-0.86,1.86-1.04"/>
			<path class="st25" d="M225.75,394.62c2.85-0.67,5.7-1.38,8.53-2.13c1.63-0.86,4.23-0.58,6.2-0.63c1.78-0.04,3.52-0.49,5.3-0.57
				c1.76-0.08,3.46-0.01,5.22-0.19c6.38-0.63,12.77,0.05,19.14-0.41c5.5-0.4,10.99-0.77,16.51-0.77c10.48,0,20.92,0.28,31.4,0.28
				c5.79,0,11.37-0.83,22.01,0c2.98-2.03,6.15-4.88,9.41-6.64c1.53-0.83,3.27-0.99,4.88-1.64c3.7-1.48,7.18-2.35,11.05-3.3
				c1.32-0.32,2.66-0.54,3.97-0.86c1.56-0.38,2.79-1.34,4.4-1.59c2.02-0.32,3.91-0.6,5.72-1.7"/>
			<path class="st25" d="M330.69,215.63c0.4-0.61,0.85-1.18,1.35-1.71c0.96,0.41,2.28,0.02,2.58-0.96c0.1-0.33,0.04-0.56,0.2-0.86
				c0.15-0.26,0.43-0.52,0.62-0.75c0.19-0.23,0.3-0.62,0.51-0.8c0.28-0.24,1.21-0.4,1.59-0.47c0.31-0.06,1-0.01,1.24-0.24
				c0.23-0.22,0.18-0.55,0.51-0.8c0.35-0.26,0.75-0.27,1.17-0.34c0.91-0.15,2.24-0.29,3.04-0.81c0.42-0.27,0.38-0.64,0.89-0.74
				c0.69-0.14,1.46-0.2,2.17-0.28c0.5-0.06,0.96-0.1,1.38-0.39c0.32-0.22,0.47-0.6,0.78-0.8c0.99-0.65,2.42-0.17,3.48-0.55
				c0.53-0.19,1.04-0.59,1.51-0.89c0.43-0.28,0.68-0.25,1.2-0.25c0.44,0,0.77,0.04,1.16-0.15c0.46-0.22,0.79-0.72,1.36-0.66"/>
			<path class="st25" d="M316.33,215.63c0.97-0.2,1.91-0.49,2.83-0.85c-0.34-0.56,3.45-0.97,3.58-1.06
				c-0.03-0.32-0.39-0.49-0.45-0.82c-0.09-0.55,0.62-0.91,1-1.2c0.71-0.54,1.5-0.8,2.35-1.08c0.59-0.19,1.4-0.32,1.87-0.74
				c0.52-0.46,0.61-0.99,1.3-1.34c0.61-0.31,1.38-0.47,2.05-0.56c0.36-0.05,0.81,0.04,1.09-0.22c0.2-0.18,0.11-0.51,0.27-0.66
				c0.22-0.2,1-0.17,1.29-0.23c1.09-0.22,2.36-0.54,3.29-1.18c0.33-0.22,0.4-0.47,0.72-0.63c0.34-0.17,0.9-0.15,1.3-0.28
				c0.85-0.28,1.65-0.67,2.56-0.71"/>
			<path class="st25" d="M302.6,215.73c0.86-0.64,1.64-1.57,2.77-1.61c0.61-0.02,0.98,0.02,1.48-0.36c0.31-0.24,0.58-0.49,0.69-0.85
				c0.1-0.32-0.08-0.59,0.25-0.85c0.43-0.35,1.22-0.22,1.74-0.39c0.33-0.11,1.21-0.26,1.44-0.49c0.42-0.42,0.1-1.34,0.74-1.73
				c0.5-0.31,0.41,0.23,0.88,0.41c0.83,0.31,2.37-0.62,3.01-1.03c0.68-0.43,1.08-1.13,1.79-1.5c0.68-0.36,1.08-0.21,1.82-0.19
				c0.63,0.02,1.24-0.07,1.86-0.14c0.51-0.06,0.91-0.07,1.35-0.32c0.37-0.21,0.69-0.35,1.11-0.43c0.74-0.14,2.54-0.11,2.87-0.84"/>
			<path class="st25" d="M286.87,220.09c0.68-0.65,1.45-1.2,2.29-1.64c0.11-0.04,0.21-0.08,0.32-0.12c0.21-0.13,0.44-0.26,0.57-0.47
				c0.26-0.44-0.02-1.13,0.1-1.61c1.07-0.07,1.96-0.58,2.75-1.27c0.43-0.38,0.65-0.78,0.83-1.31c0.12-0.33,0.2-0.58,0.5-0.79
				c0.99-0.68,2.35,0.09,3.38-0.42c0.88-0.44,0.85-1.8,1.85-2.21c0.51-0.21,1.12,0.01,1.64-0.17c0.37-0.12,0.3-0.2,0.43-0.42
				c0.22-0.38,0.31-0.91,0.78-1.14c0.27-0.14,0.62-0.05,0.93-0.07c0.63-0.03,1.54-0.1,1.97-0.61c0.14-0.16,0.17-0.36,0.33-0.52
				c0.47-0.5,1.26-0.95,1.98-0.89"/>
			<path class="st25" d="M277.43,219.18c-0.42-0.26-0.76-0.58-1.02-0.98c1.05,0.28,2.2-0.15,3.14-0.59
				c0.45-0.21,0.57-0.48,0.72-0.96c0.11-0.37,0.05-1.03,0.24-1.34c0.23-0.39,0.85-0.45,1.24-0.53c0.73-0.14,1.44-0.26,2.11-0.6
				c0.67-0.34,1.08-0.75,1.32-1.44c0.08-0.24,0.07-0.75,0.22-0.96c0.27-0.37,1.15-0.67,1.56-0.89c0.52-0.28,1.04-0.54,1.49-0.93
				c0.32-0.28,0.66-0.61,0.93-0.93c0.25-0.29,0.37-0.61,0.69-0.78c0.24-0.03,0.48-0.06,0.72-0.11c0.31-0.08,0.61-0.18,0.91-0.29
				c0.48-0.16,0.85-0.31,1.27-0.57c0.7-0.45,1.34-0.8,2.08-1.17"/>
			<path class="st25" d="M260.03,220.49c0.44-0.98,1.03-1.86,1.78-2.62c0.82,0.71,2.89,0.3,3.82-0.03c0.99-0.35,0.87-1.27,1.61-1.82
				c1.16-0.86,2.89-0.72,4.12-1.54c0.41-0.28,0.76-0.65,1.07-1.03c0.23-0.29,0.38-0.75,0.65-0.98c0.33-0.29,0.95-0.23,1.35-0.32
				c0.46-0.11,1.36-0.29,1.7-0.68c0.35-0.4,0.44-1,0.75-1.44c0.26-0.36,0.79-1.05,1.29-1.18c0.37-0.09,0.83,0.01,1.21-0.04
				c0.68-0.1,1.36-0.4,1.91-0.8c0.83-0.6,1.65-1.89,2.85-1.8"/>
			<path class="st25" d="M239.48,221.91c1.38-0.84,1.86-1.38,3.24-1.4c0.58-0.01,1.11,0.02,1.71-0.09c1.01-0.19,1.8-0.34,2.5-1.1
				c0.58-0.62,1.02-1.49,1.75-1.96c0.59-0.38,1.11-0.17,1.79-0.21c1.14-0.06,2.12-0.37,2.97-1.12c0.46-0.41,1.08-1.35,1.67-1.62
				c0.42-0.19,0.94,0.2,1.47,0.21c0.97,0.01,1.58-0.35,2.18-1.03c0.54-0.6,1.17-1.52,2.03-1.72c0.53-0.12,1.16,0.13,1.68,0.2
				c0.83,0.11,1.39-0.21,2-0.74c0.53-0.47,0.98-1.37,1.73-1.56c0.61-0.15,1.07,0.32,1.74,0.14c0.69-0.19,1.14-0.59,1.62-1.06
				c0.51-0.5,1.12-0.77,1.78-1.07c0.64-0.29,1.38-0.72,2.11-0.75"/>
			<path class="st25" d="M235.11,224.56c-1.22-0.16-2.32-0.29-3.44-0.65c-0.42-0.13-0.83-0.31-1.25-0.43
				c-0.98-0.28-1.89-0.76-2.81-1.2c-0.71-0.34-1.47-0.59-2.16-0.98c-0.6-0.34-1.18-0.71-1.77-1.05c-0.33-0.19-0.67-0.4-0.94-0.66
				c-0.24-0.23-0.61-0.6-0.9-0.76c0.02,0.06,0.03,0.14,0.06,0.2"/>
			<path class="st25" d="M218.13,223.67c0.51-0.24,1-0.5,1.47-0.81c0.36-0.63,0.88-1.35,1.26-2.07c0.19-0.35,0.4-0.69,0.57-1.04
				c0.13-0.28,0.42-0.61,0.27-0.92"/>
			<path class="st25" d="M234.82,224.56c0.13,0.04,0.25,0.07,0.38,0.09c0.02-0.01,0.13,0.02,0.17,0.02
				c0.07,0.01,0.14,0.03,0.21,0.04c0.07,0.01,0.14,0.01,0.2,0.01c0.05,0,0.11-0.01,0.16,0c0.07,0.01,0.12,0.05,0.18,0.01"/>
			<path class="st25" d="M218.35,223.57c-0.23,0.17-0.45,0.32-0.67,0.48c-0.13,0.1-0.27,0.16-0.41,0.26
				c-0.13,0.09-0.28,0.15-0.4,0.25c-0.1,0.09-0.22,0.17-0.34,0.2"/>
			<path class="st25" d="M352.12,407.85c-1.36-0.03-2.68,1.66-3.71,2.36c-0.94,0.63-1.91,1.38-2.9,1.89
				c-2.89,1.49-4.6,3.75-7.29,5.51c-2.63,1.72-5.65,2.58-8.33,4.18c-3.97,2.37-7.9,4.44-12.31,5.86c-3.98,1.28-7.72,3.26-11.82,4.23
				c-5.33,1.27-10.57,3.09-15.94,4.25c-5.1,1.1-10.35,2.79-15.31,4.43c-2.36,0.78-4.79,1.31-7.12,2.17
				c-1.35,0.49-3.91,2.03-5.26,1.76c-3.77,2.03-7.48,4.15-10.75,9.75c4.35,0.22,9.43-0.18,13.69,1.22c1.56,0.51,3.04,1.01,4.65,1.43
				c2.67,0.7,5.12,1.7,7.63,2.65c1.5,0.56,3.29,0.7,4.85,1.08c1.33,0.32,2.48,0.96,3.84,1.28c3.59,0.86,7.2,1.47,10.84,2.15
				c2.12,0.39,3.82,1.51,5.83,2.25c2.32,0.85,4.85,1.12,7.23,1.91c4.38,1.46,8.65,1.97,13.16,2.55c7.01,0.9,13.66,0,20.55-0.75
				c2.26-0.24,4.3-1.15,6.53-1.63c1.25-0.27,5.53-1.81,8.58-2.06c4.96-4.73,10.5-10.41,16.38-14.34c2.13-1.43,4.3-3.16,6.63-4.22
				c3.52-1.6,6.89-3.36,10.48-4.82c2.87-1.17,5.84-2.15,8.65-3.39c4.58-2.02,9.66-2.57,14.23-4.52c1.8-0.77,3.29-1.97,5.11-2.65
				c1.87-0.69,4.05-1.08,5.68-2.27"/>
			<path class="st25" d="M351.73,407.85c6.15,1.07,12.35,1.81,18.37,3.4c2.09,0.55,4.06,1.46,6.19,1.81
				c4.71,0.76,9.04,1.3,13.54,2.9c3.95,1.41,8.05,2.45,11.97,3.93c2.56,0.96,5.03,2.25,7.59,3.15c6.74,2.37,13.79,3.51,20.78,3.73
				c-0.57,3.02-8.13,4.1-10.12,5.98"/>
			<path class="st25" d="M351.73,415.39c5.12,0.58,9.61,0.55,14.1,2.64c1.53,0.71,2.63,2.02,4.1,2.6c2.39,0.94,6.03,1.11,8.64,1.15
				c2.32,0.04,4.75,0.67,7.04,1.05c3.76,0.62,6.74,2.73,10.61,3.13c1.07,0.11,2.31-0.27,3.35,0c1.05,0.26,1.82,1.08,2.86,1.42
				c1.96,0.62,4.69-0.17,6.3,1.21"/>
			<path class="st25" d="M339.62,421.43c5.3,0.06,10.43-0.31,15.24,1.97c2.09,0.99,3.68,1.44,6.05,1.42
				c2.08-0.01,3.38-0.1,5.09,1.11c2.29,1.63,3.65,3.48,6.81,3.82c2.2,0.24,4.48-0.35,6.64,0.18c1.47,0.36,2.83,0.92,4.35,1.12
				c0.68,0.09,1.66,0,2.29,0.24c0.91,0.35,1.33,1.14,2.45,1.38c0.95,0.2,2.06,0.08,3.03,0.08c2.03,0,3.86-0.33,5.46,1.13"/>
			<path class="st25" d="M328.3,428.97c4.84,0.49,10.64,0.29,15.25,2.18c1.78,0.73,4.33,0.43,5.86,1.3
				c0.49,0.28,0.75,0.97,1.21,1.33c0.82,0.63,1.75,0.65,2.58,1.19c0.72,0.47,1.14,1.21,1.89,1.67c1.11,0.68,2.55,0.75,3.8,1.02
				c2.34,0.51,5.88-0.37,7.78,0.71c0.46,0.26,0.54,0.94,1.14,1.22c0.76,0.34,2.2-0.2,3.07,0.01c1.04,0.25,1.68,1.1,2.68,1.39
				c1.12,0.33,2.29-0.27,3,0.81c-0.21,0.13-0.41,0.26-0.62,0.38"/>
			<path class="st25" d="M304.87,435c3.89-0.19,7.76-0.08,11.61,0.36c0.38,0.28,0.78,0.51,1.22,0.7c0.88,0.26,1.45,0.61,2.42,0.75
				c3.06,0.45,4.04-0.32,6.18,1.68c2,1.87,4.49,0.9,6.91,1.76c2.67,0.95,1.8,3.59,4.03,4.71c1.95,0.98,4.77-0.58,6.69,0.19
				c0.82,0.33,0.92,1.03,1.61,1.56c0.87,0.68,2.03,1,3.1,1.14c1.74,0.23,3.71-0.05,5.47-0.03c0.77-0.06,1.54-0.05,2.3,0.04
				c0.36,0.25,0.6,0.59,0.72,1.01c1.83,1.06,6.65-0.1,5.92,3.1"/>
			<path class="st25" d="M289.65,441.04c3.87,0.75,7.61,1.88,11.22,3.39c0.73,0.41,1.52,0.55,2.37,0.42
				c1.45,0.09,2.86-0.2,4.29,0.21c2.28,0.65,3.47,1.96,5.98,2.02c1.6,0.04,3.98-0.36,5.32,0.81c0.59,0.52,0.64,1.45,1.3,1.88
				c1.3,0.86,3.23,0.07,4.65,0.31c1.42,0.24,0.7,0.06,1.56,0.78c0.91,0.77,0.36,1.29,1.94,1.52c1.03,0.15,2.07-0.13,3.06,0.11
				c0.02,0.39,0.22,0.64,0.6,0.73c0.48,0.32,1.02,0.42,1.64,0.29c0.96,0.08,2-0.19,2.96-0.06c1.51,0.21,4.04,0.63,5.44,1.17
				c1.82,0.7,2.86,2.49,4.76,3.07c1.39,0.43,3.09-0.1,4.23,0.68"/>
			<path class="st25" d="M274.03,446.32c6.04,1.15,11.75,1.78,17.59,2.92c1.25,0.24,3.13,0.05,4.29,0.45
				c1.3,0.45,0.91,0.91,1.95,1.66c1.5,1.08,3.35,0.12,4.87,0.88c0.67,0.33,0.73,0.8,1.28,1.16c1.92,1.25,5.02,1.68,7.31,2.14
				c1.32,0.26,3.28-0.24,4.47,0.26c1.13,0.48,1.07,1.33,2.03,1.89c1.75,1.01,4.57,0.05,6.32,0.69c1.91,0.69,4.39,0.45,6.2,1.49
				c2.31,1.32,4.23,3.52,6.93,4.19"/>
			<g>
				<g>
					<path d="M224.66,224.24c0.21,0,0.43,0,0.64,0c0-0.21,0-0.42,0-0.62c-0.7,0-1.4,0-2.11,0c-0.4,0-0.41,0.61,0,0.62
						c0.73,0.02,1.44,0.01,2.16-0.11c0.37-0.06,0.25-0.59-0.08-0.61c-0.65-0.05-1.3-0.04-1.96,0c-0.33,0.02-0.45,0.54-0.09,0.61
						c0.9,0.18,1.79,0.12,2.7,0.11c0.4,0,0.41-0.61,0-0.62c-0.9-0.02-1.79,0-2.68,0.14c-0.38,0.06-0.24,0.57,0.08,0.61
						c1.05,0.13,2.09,0.01,3.14-0.01c0.4-0.01,0.41-0.62,0-0.62c-0.99-0.02-1.98-0.04-2.93,0.27c-0.28,0.09-0.31,0.52,0,0.6
						c1.22,0.33,2.48,0.14,3.71-0.03c0.34-0.05,0.26-0.51,0-0.6c-0.95-0.36-2-0.29-2.99-0.21c-0.32,0.03-0.46,0.55-0.09,0.61
						c1.48,0.26,3,0.26,4.47,0c0.37-0.07,0.25-0.59-0.08-0.61c-1.05-0.09-2.11-0.12-3.15,0.08c-0.36,0.07-0.26,0.6,0.08,0.61
						c1.46,0.07,2.93,0.21,4.39,0.13c0.41-0.02,0.39-0.57,0-0.62c-0.37-0.05-0.72-0.09-1.09-0.08c-0.34,0.01-0.44,0.52-0.09,0.61
						c0.78,0.2,1.57,0.25,2.38,0.25c0.34,0,0.44-0.55,0.09-0.61c-0.4-0.07-0.81-0.13-1.21-0.16c-0.35-0.03-0.43,0.54-0.09,0.61
						c0.64,0.15,1.28,0.26,1.94,0.28c0.4,0.01,0.4-0.6,0-0.62c-0.22-0.01-0.44-0.03-0.66-0.04c-0.4-0.03-0.4,0.59,0,0.62
						c0.35,0.03,0.71,0.04,1.06,0.04c0.34,0,0.44-0.54,0.09-0.61c-0.12-0.03-0.25-0.05-0.37-0.08c-0.06,0.2-0.11,0.4-0.17,0.6
						c0.48,0.07,0.97,0.14,1.45,0.21c0.39,0.06,0.57-0.51,0.17-0.6c-0.14-0.04-0.29-0.06-0.44-0.08c-0.03,0.2-0.06,0.41-0.09,0.61
						c0.24,0.03,0.47,0.06,0.71,0.08c0.35,0.03,0.43-0.54,0.09-0.61c-0.15-0.03-0.3-0.06-0.45-0.11c-0.03,0.2-0.06,0.41-0.09,0.61
						c0.21,0.01,0.42,0.01,0.64,0.01c0.34-0.01,0.44-0.53,0.09-0.61c-0.6-0.14-1.19-0.2-1.8-0.18c-0.34,0.01-0.44,0.53-0.09,0.61
						c0.42,0.1,0.84,0.16,1.28,0.18c0.41,0.02,0.39-0.58,0-0.62c-0.33-0.04-0.67-0.06-1-0.08c-0.35-0.01-0.43,0.52-0.09,0.61
						c0.49,0.13,0.97,0.18,1.48,0.16c0.35-0.02,0.43-0.51,0.09-0.61c-1.51-0.47-3.11-0.42-4.67-0.48c-0.35-0.01-0.44,0.54-0.09,0.61
						c0.43,0.09,0.86,0.15,1.3,0.19c0.35,0.03,0.44-0.56,0.09-0.61c-1.68-0.25-3.36-0.22-5.05-0.22c-0.34,0-0.44,0.54-0.09,0.61
						c0.56,0.12,1.1,0.17,1.66,0.04c0.36-0.08,0.26-0.59-0.08-0.61c-1.57-0.11-3.14-0.03-4.72-0.04c-0.34,0-0.44,0.55-0.09,0.61
						c0.83,0.15,1.66,0.2,2.5,0.12c0.34-0.03,0.44-0.51,0.09-0.61c-1.04-0.31-2.13-0.34-3.21-0.35c-0.35,0-0.43,0.53-0.09,0.61
						c0.94,0.23,1.9,0.17,2.85,0.09c0.32-0.03,0.46-0.55,0.09-0.61c-0.95-0.17-1.88-0.24-2.83-0.11c-0.3,0.04-0.3,0.55,0,0.6
						c0.66,0.12,1.29,0.16,1.95,0.04c0.38-0.07,0.24-0.57-0.08-0.61c-0.78-0.11-1.57-0.16-2.36-0.24c-0.35-0.03-0.43,0.54-0.09,0.61
						c0.58,0.11,1.15,0.18,1.74,0.19c0.35,0.01,0.44-0.53,0.09-0.61c-0.71-0.16-1.44-0.17-2.17-0.22c-0.35-0.03-0.43,0.55-0.09,0.61
						c0.44,0.08,0.87,0.11,1.32,0.09c0.34-0.02,0.44-0.53,0.09-0.61c-0.41-0.1-0.8-0.14-1.22-0.15c-0.34-0.01-0.44,0.54-0.09,0.61
						c0.22,0.05,0.42,0.07,0.64,0.08c0-0.21,0-0.42,0-0.62c-0.16-0.01-0.33-0.02-0.49-0.03c0,0.21,0,0.42,0,0.62
						c0.2,0,0.41,0,0.61,0c0-0.21,0-0.42,0-0.62c-0.34,0-0.69,0-1.03,0c0,0.21,0,0.42,0,0.62c0.21-0.01,0.41,0,0.62,0
						c0.35,0.01,0.44-0.54,0.09-0.61c-0.13-0.03-0.26-0.06-0.39-0.07c-0.03,0.2-0.06,0.41-0.09,0.61c0.3,0.02,0.6,0.03,0.9,0.04
						c0.4,0.01,0.4-0.6,0-0.62c-0.37-0.02-0.73,0-1.1,0.04c-0.39,0.05-0.42,0.64,0,0.62c0.18,0,0.36-0.01,0.54-0.01
						c0-0.21,0-0.42,0-0.62c-0.25,0-0.5,0.01-0.75,0c0,0.21,0,0.42,0,0.62c0.29-0.03,0.58-0.07,0.86-0.11
						c0.37-0.06,0.25-0.59-0.08-0.61c-0.24-0.02-0.48-0.02-0.72-0.03c-0.41-0.01-0.4,0.58,0,0.62c0.08,0.01,0.15,0.02,0.23,0.02
						c0.24-0.01,0.45-0.35,0.22-0.53c-0.19-0.15-0.41-0.11-0.64-0.07c-0.36,0.07-0.26,0.59,0.08,0.61c0.18,0.01,0.36,0.02,0.54,0.03
						c0-0.21,0-0.42,0-0.62c-0.32,0.04-0.64,0.08-0.96,0.11c-0.39,0.03-0.41,0.64,0,0.62c0.35-0.01,0.7-0.02,1.06-0.05
						c0.4-0.03,0.41-0.65,0-0.62c-0.69,0.04-1.33,0.14-1.96,0.43c-0.35,0.16-0.08,0.62,0.24,0.57c0.42-0.06,0.82-0.13,1.21-0.26
						c0.31-0.11,0.29-0.66-0.08-0.61c-0.54,0.06-1.03,0.2-1.51,0.46c-0.22,0.12-0.2,0.53,0.07,0.57c0.67,0.11,1.24-0.01,1.85-0.3
						c0.27-0.13,0.15-0.61-0.15-0.58c-0.89,0.08-1.72,0.31-2.53,0.67c-0.28,0.12-0.15,0.61,0.15,0.58c0.57-0.05,1.11-0.16,1.66-0.36
						c0.38-0.14,0.23-0.67-0.16-0.6c-0.83,0.15-1.61,0.42-2.38,0.76c-0.31,0.14-0.12,0.56,0.15,0.58c0.51,0.04,0.98-0.02,1.46-0.21
						c0.3-0.12,0.3-0.65-0.08-0.61c-0.68,0.06-1.31,0.19-1.93,0.49c-0.28,0.14-0.14,0.59,0.15,0.58c0.42-0.01,0.81-0.04,1.22-0.13
						c0.34-0.08,0.28-0.63-0.08-0.61c-0.46,0.02-0.9,0.06-1.34,0.15c-0.35,0.07-0.27,0.61,0.08,0.61c0.17,0,0.33,0.01,0.49,0.02
						c-0.03-0.2-0.05-0.41-0.08-0.61c-0.41,0.08-0.79,0.2-1.18,0.34c-0.37,0.14-0.23,0.7,0.16,0.6c0.4-0.1,0.81-0.16,1.21-0.25
						c-0.05-0.2-0.11-0.4-0.16-0.6c-0.35,0.08-0.7,0.16-1.06,0.23c0.05,0.2,0.11,0.4,0.16,0.6c1.79-0.52,3.68-0.25,5.49-0.7
						c0.33-0.08,0.28-0.65-0.08-0.61c-0.67,0.06-1.33,0.11-2,0.19c0.03,0.2,0.05,0.41,0.08,0.61c1.1-0.17,2.22-0.26,3.32-0.44
						c0.36-0.06,0.26-0.6-0.08-0.61c-0.98-0.05-1.95,0.08-2.93,0.19c-0.39,0.04-0.4,0.67,0,0.62c1.12-0.12,2.29-0.02,3.34-0.51
						c0.24-0.11,0.18-0.51-0.07-0.57c-0.75-0.17-1.49-0.18-2.25-0.1c-0.32,0.03-0.46,0.54-0.09,0.61c0.6,0.12,1.18,0.11,1.77-0.04
						c0.34-0.08,0.27-0.62-0.08-0.61c-0.59,0.01-1.18,0.01-1.77,0.01c0,0.21,0,0.42,0,0.62c0.36-0.01,0.72-0.07,1.08-0.12
						c0.35-0.05,0.27-0.63-0.08-0.61c-0.81,0.03-1.59,0.17-2.38,0.36c-0.34,0.08-0.27,0.62,0.08,0.61c0.92,0,1.84-0.07,2.76-0.15
						c0.32-0.03,0.46-0.55,0.09-0.61c-0.99-0.18-2.01-0.03-2.95,0.3c-0.27,0.09-0.33,0.53,0,0.6c1.32,0.28,2.67,0.2,4.01,0.1
						c0.32-0.03,0.46-0.55,0.09-0.61c-1.27-0.22-2.55-0.07-3.82,0.13c-0.3,0.05-0.3,0.55,0,0.6c1.68,0.32,3.36,0.01,5.05,0.04
						c0-0.21,0-0.42,0-0.62c-0.86-0.01-1.7-0.03-2.55,0.11c-0.35,0.06-0.26,0.61,0.08,0.61c1.52,0.03,3.03-0.04,4.53-0.28
						c0.3-0.05,0.3-0.55,0-0.6c-0.78-0.13-1.53-0.09-2.31,0.07c-0.29,0.06-0.31,0.55,0,0.6c1.41,0.22,2.86,0.15,4.25-0.14
						c0.37-0.08,0.25-0.58-0.08-0.61c-0.5-0.06-0.97-0.03-1.46,0.08c-0.29,0.06-0.31,0.54,0,0.6c1.06,0.22,2.12,0.13,3.18-0.01
						c0.37-0.05,0.24-0.58-0.08-0.61c-0.52-0.05-1.02-0.03-1.53,0.12c-0.34,0.1-0.28,0.61,0.08,0.61c0.8,0.01,1.58,0.01,2.37-0.11
						c0.38-0.06,0.24-0.57-0.08-0.61c-0.28-0.03-0.55-0.07-0.83-0.1c0,0.21,0,0.42,0,0.62c0.61-0.01,1.21,0.04,1.81,0.1
						c0.36,0.04,0.41-0.52,0.09-0.61c-0.19-0.06-0.27-0.05-0.46-0.01c-0.36,0.09-0.25,0.58,0.08,0.61c0.79,0.07,1.57,0.08,2.36,0.03
						c0.4-0.02,0.41-0.63,0-0.62c-5.18,0.05-10.35,0.28-15.53,0.25c-0.4,0-0.41,0.61,0,0.62c0.88,0.02,1.75,0.14,2.63-0.04
						c0.29-0.06,0.31-0.55,0-0.6c-0.61-0.11-1.21-0.13-1.83-0.08c-0.33,0.03-0.45,0.53-0.09,0.61c1.11,0.25,2.25,0.13,3.38,0.11
						c0.4-0.01,0.41-0.62,0-0.62c-0.64-0.01-1.28,0.02-1.91,0.11c-0.37,0.06-0.25,0.59,0.08,0.61c0.59,0.05,1.17,0.05,1.76,0
						c0.33-0.03,0.46-0.54,0.09-0.61c-0.69-0.15-1.38-0.15-2.09-0.08c-0.34,0.03-0.44,0.51-0.09,0.61c0.2,0.06,0.38,0.09,0.59,0.12
						c0-0.21,0-0.42,0-0.62c-0.62-0.03-1.23-0.01-1.85,0.06c-0.39,0.05-0.41,0.66,0,0.62c0.4-0.04,0.8-0.12,1.2-0.18
						c0.37-0.06,0.25-0.59-0.08-0.61c-0.9-0.07-1.82,0.03-2.71,0.14c-0.43,0.05-0.86,0.11-1.28,0.22c-0.27,0.07-0.63,0.25-0.85,0.26
						c0,0.21,0,0.42,0,0.62c5.02-0.5,10.04-1.16,15.09-0.9c0.4,0.02,0.4-0.6,0-0.62c-5.05-0.27-10.07,0.39-15.09,0.9
						c-0.39,0.04-0.41,0.64,0,0.62c0.35-0.01,0.57-0.17,0.9-0.25c0.45-0.12,0.91-0.18,1.37-0.24c0.84-0.1,1.72-0.19,2.56-0.12
						c-0.03-0.2-0.05-0.41-0.08-0.61c-0.34,0.06-0.68,0.13-1.03,0.16c0,0.21,0,0.42,0,0.62c0.62-0.07,1.23-0.09,1.85-0.06
						c0.41,0.02,0.39-0.58,0-0.62c-0.14-0.01-0.28-0.05-0.42-0.09c-0.03,0.2-0.06,0.41-0.09,0.61c0.65-0.06,1.28-0.08,1.92,0.06
						c0.03-0.2,0.06-0.41,0.09-0.61c-0.59,0.05-1.17,0.05-1.76,0c0.03,0.2,0.05,0.41,0.08,0.61c0.58-0.09,1.16-0.1,1.74-0.09
						c0-0.21,0-0.42,0-0.62c-1.07,0.02-2.16,0.15-3.22-0.09c-0.03,0.2-0.06,0.41-0.09,0.61c0.56-0.05,1.1-0.04,1.66,0.06
						c0-0.2,0-0.4,0-0.6c-0.81,0.17-1.64,0.04-2.46,0.02c0,0.21,0,0.42,0,0.62c5.18,0.03,10.35-0.21,15.53-0.25
						c0-0.21,0-0.42,0-0.62c-0.79,0.05-1.57,0.04-2.36-0.03c0.03,0.2,0.05,0.41,0.08,0.61c0.04,0,0.08,0,0.12,0.01
						c0.03-0.2,0.06-0.41,0.09-0.61c-0.6-0.06-1.2-0.12-1.81-0.1c-0.41,0.01-0.4,0.59,0,0.62c0.28,0.03,0.55,0.06,0.83,0.1
						c-0.03-0.2-0.05-0.41-0.08-0.61c-0.73,0.12-1.46,0.1-2.2,0.09c0.03,0.2,0.05,0.41,0.08,0.61c0.45-0.13,0.89-0.15,1.36-0.1
						c-0.03-0.2-0.05-0.41-0.08-0.61c-0.94,0.12-1.91,0.2-2.85,0.01c0,0.2,0,0.4,0,0.6c0.44-0.1,0.85-0.11,1.3-0.06
						c-0.03-0.2-0.05-0.41-0.08-0.61c-1.28,0.27-2.63,0.34-3.92,0.14c0,0.2,0,0.4,0,0.6c0.66-0.14,1.31-0.18,1.98-0.08
						c0-0.2,0-0.4,0-0.6c-1.44,0.24-2.91,0.29-4.37,0.26c0.03,0.2,0.05,0.41,0.08,0.61c0.79-0.14,1.59-0.1,2.38-0.09
						c0.4,0,0.41-0.62,0-0.62c-1.63-0.03-3.26,0.29-4.88-0.02c0,0.2,0,0.4,0,0.6c1.15-0.18,2.33-0.33,3.48-0.13
						c0.03-0.2,0.06-0.41,0.09-0.61c-1.27,0.1-2.58,0.19-3.84-0.07c0,0.2,0,0.4,0,0.6c0.83-0.29,1.75-0.46,2.62-0.3
						c0.03-0.2,0.06-0.41,0.09-0.61c-0.92,0.08-1.84,0.14-2.76,0.15c0.03,0.2,0.05,0.41,0.08,0.61c0.73-0.18,1.46-0.31,2.21-0.34
						c-0.03-0.2-0.05-0.41-0.08-0.61c-0.3,0.04-0.6,0.09-0.91,0.1c-0.4,0.01-0.41,0.62,0,0.62c0.59,0,1.18,0,1.77-0.01
						c-0.03-0.2-0.05-0.41-0.08-0.61c-0.49,0.12-0.94,0.14-1.44,0.04c-0.03,0.2-0.06,0.41-0.09,0.61c0.7-0.07,1.39-0.08,2.08,0.07
						c-0.02-0.19-0.05-0.38-0.07-0.57c-0.93,0.44-2.03,0.33-3.02,0.43c0,0.21,0,0.42,0,0.62c0.98-0.11,1.95-0.24,2.93-0.19
						c-0.03-0.2-0.05-0.41-0.08-0.61c-1.1,0.19-2.21,0.27-3.32,0.44c-0.34,0.05-0.27,0.65,0.08,0.61c0.67-0.08,1.33-0.12,2-0.19
						c-0.03-0.2-0.05-0.41-0.08-0.61c-1.8,0.45-3.69,0.18-5.49,0.7c-0.39,0.11-0.23,0.68,0.16,0.6c0.35-0.07,0.7-0.15,1.06-0.23
						c0.39-0.09,0.23-0.69-0.16-0.6c-0.4,0.09-0.81,0.16-1.22,0.25c0.05,0.2,0.11,0.4,0.16,0.6c0.39-0.14,0.77-0.26,1.18-0.34
						c0.36-0.07,0.26-0.59-0.08-0.61c-0.16-0.01-0.33-0.02-0.49-0.02c0.03,0.2,0.05,0.41,0.08,0.61c0.39-0.08,0.78-0.12,1.18-0.13
						c-0.03-0.2-0.05-0.41-0.08-0.61c-0.35,0.08-0.7,0.1-1.06,0.11c0.05,0.19,0.1,0.39,0.15,0.58c0.51-0.25,1.05-0.35,1.61-0.4
						c-0.03-0.2-0.05-0.41-0.08-0.61c-0.43,0.17-0.83,0.23-1.29,0.19c0.05,0.19,0.1,0.39,0.15,0.58c0.72-0.32,1.46-0.56,2.23-0.7
						c-0.05-0.2-0.11-0.4-0.16-0.6c-0.49,0.18-0.97,0.29-1.49,0.34c0.05,0.19,0.1,0.39,0.15,0.58c0.71-0.31,1.45-0.51,2.22-0.58
						c-0.05-0.19-0.1-0.39-0.15-0.58c-0.44,0.21-0.88,0.32-1.37,0.24c0.02,0.19,0.05,0.38,0.07,0.57c0.38-0.21,0.76-0.33,1.19-0.38
						c-0.03-0.2-0.05-0.41-0.08-0.61c-0.4,0.13-0.8,0.21-1.21,0.26c0.08,0.19,0.16,0.38,0.24,0.57c0.52-0.24,1.07-0.31,1.64-0.34
						c0-0.21,0-0.42,0-0.62c-0.35,0.03-0.7,0.04-1.06,0.05c0,0.21,0,0.42,0,0.62c0.32-0.03,0.64-0.07,0.96-0.11
						c0.39-0.04,0.41-0.6,0-0.62c-0.18-0.01-0.36-0.02-0.54-0.03c0.03,0.2,0.05,0.41,0.08,0.61c0.21,0.01,0.22-0.03,0.03-0.1
						c0.07-0.18,0.15-0.35,0.22-0.53c-0.08,0-0.15,0-0.23-0.02c0,0.21,0,0.42,0,0.62c0.24,0,0.48,0.01,0.72,0.03
						c-0.03-0.2-0.05-0.41-0.08-0.61c-0.23,0.04-0.46,0.07-0.7,0.09c-0.39,0.04-0.41,0.62,0,0.62c0.25,0,0.5,0,0.75,0
						c0.4-0.01,0.41-0.62,0-0.62c-0.18,0-0.36,0-0.54,0.01c0,0.21,0,0.42,0,0.62c0.37-0.04,0.73-0.06,1.1-0.04c0-0.21,0-0.42,0-0.62
						c-0.3-0.01-0.6-0.02-0.9-0.04c-0.35-0.02-0.44,0.56-0.09,0.61c0.13,0.02,0.26,0.04,0.39,0.07c0.03-0.2,0.06-0.41,0.09-0.61
						c-0.21-0.01-0.41-0.01-0.62,0c-0.4,0.02-0.41,0.62,0,0.62c0.34,0,0.69,0,1.03,0c0.4,0,0.41-0.62,0-0.62c-0.2,0-0.41,0-0.61,0
						c-0.41,0-0.39,0.58,0,0.62c0.16,0.02,0.33,0.02,0.49,0.03c0.4,0.03,0.4-0.59,0-0.62c-0.16-0.01-0.32-0.03-0.48-0.06
						c-0.03,0.2-0.06,0.41-0.09,0.61c0.36,0.01,0.71,0.04,1.06,0.13c0.03-0.2,0.06-0.41,0.09-0.61c-0.39,0.02-0.76,0-1.15-0.07
						c-0.03,0.2-0.06,0.41-0.09,0.61c0.67,0.05,1.35,0.05,2.01,0.2c0.03-0.2,0.06-0.41,0.09-0.61c-0.53-0.01-1.05-0.07-1.58-0.17
						c-0.03,0.2-0.06,0.41-0.09,0.61c0.79,0.08,1.57,0.13,2.36,0.24c-0.03-0.2-0.05-0.41-0.08-0.61c-0.55,0.1-1.07,0.06-1.61-0.04
						c0,0.2,0,0.4,0,0.6c0.84-0.11,1.67-0.04,2.5,0.1c0.03-0.2,0.06-0.41,0.09-0.61c-0.89,0.07-1.81,0.14-2.69-0.07
						c-0.03,0.2-0.06,0.41-0.09,0.61c1.03,0.01,2.05,0.03,3.04,0.33c0.03-0.2,0.06-0.41,0.09-0.61c-0.78,0.07-1.56,0.04-2.33-0.1
						c-0.03,0.2-0.06,0.41-0.09,0.61c1.57,0.01,3.15-0.08,4.72,0.04c-0.03-0.2-0.05-0.41-0.08-0.61c-0.46,0.1-0.88,0.06-1.33-0.04
						c-0.03,0.2-0.06,0.41-0.09,0.61c1.63,0,3.27-0.05,4.88,0.2c0.03-0.2,0.06-0.41,0.09-0.61c-0.38-0.03-0.76-0.09-1.13-0.17
						c-0.03,0.2-0.06,0.41-0.09,0.61c1.51,0.06,3.05,0,4.5,0.45c0.03-0.2,0.06-0.41,0.09-0.61c-0.45,0.02-0.88-0.02-1.32-0.13
						c-0.03,0.2-0.06,0.41-0.09,0.61c0.34,0.01,0.67,0.03,1,0.08c0-0.21,0-0.42,0-0.62c-0.38-0.02-0.74-0.07-1.11-0.16
						c-0.03,0.2-0.06,0.41-0.09,0.61c0.56-0.02,1.09,0.03,1.64,0.16c0.03-0.2,0.06-0.41,0.09-0.61c-0.21,0-0.42,0-0.64-0.01
						c-0.36-0.02-0.42,0.51-0.09,0.61c0.15,0.05,0.29,0.08,0.45,0.11c0.03-0.2,0.06-0.41,0.09-0.61c-0.24-0.02-0.48-0.05-0.71-0.08
						c-0.35-0.04-0.43,0.56-0.09,0.61c0.15,0.02,0.3,0.04,0.44,0.08c0.06-0.2,0.11-0.4,0.17-0.6c-0.48-0.07-0.97-0.14-1.45-0.21
						c-0.39-0.06-0.57,0.52-0.17,0.6c0.12,0.03,0.25,0.05,0.37,0.08c0.03-0.2,0.06-0.41,0.09-0.61c-0.36,0-0.71-0.01-1.06-0.04
						c0,0.21,0,0.42,0,0.62c0.22,0.01,0.44,0.03,0.66,0.04c0-0.21,0-0.42,0-0.62c-0.61-0.02-1.19-0.13-1.78-0.26
						c-0.03,0.2-0.06,0.41-0.09,0.61c0.35,0.03,0.7,0.08,1.05,0.14c0.03-0.2,0.06-0.41,0.09-0.61c-0.75,0-1.48-0.04-2.21-0.23
						c-0.03,0.2-0.06,0.41-0.09,0.61c0.37-0.01,0.73,0.03,1.09,0.08c0-0.21,0-0.42,0-0.62c-1.47,0.08-2.93-0.06-4.39-0.13
						c0.03,0.2,0.05,0.41,0.08,0.61c0.98-0.19,1.99-0.14,2.98-0.06c-0.03-0.2-0.05-0.41-0.08-0.61c-1.36,0.24-2.78,0.24-4.14,0
						c-0.03,0.2-0.06,0.41-0.09,0.61c0.94-0.08,1.93-0.16,2.83,0.19c0-0.2,0-0.4,0-0.6c-1.11,0.16-2.28,0.34-3.38,0.04
						c0,0.2,0,0.4,0,0.6c0.9-0.3,1.83-0.27,2.77-0.25c0-0.21,0-0.42,0-0.62c-1.05,0.02-2.09,0.14-3.14,0.01
						c0.03,0.2,0.05,0.41,0.08,0.61c0.83-0.13,1.67-0.14,2.52-0.12c0-0.21,0-0.42,0-0.62c-0.85,0.01-1.7,0.08-2.54-0.09
						c-0.03,0.2-0.06,0.41-0.09,0.61c0.65-0.04,1.3-0.05,1.96,0c-0.03-0.2-0.05-0.41-0.08-0.61c-0.66,0.11-1.32,0.11-1.99,0.09
						c0,0.21,0,0.42,0,0.62c0.7,0,1.4,0,2.11,0c0.4,0,0.41-0.62,0-0.62c-0.21,0-0.43,0-0.64,0
						C224.26,223.61,224.25,224.24,224.66,224.24L224.66,224.24z"/>
				</g>
			</g>
			<path class="st24" d="M214.22,225.12c0.65-0.3,1.29-0.61,1.93-0.91c0.25-0.12,0.49-0.2,0.72-0.34c0.42-0.27,0.91-0.43,1.34-0.7
				c0.57-0.37,1.11-0.72,1.79-0.88"/>
			<path class="st26" d="M266.73,206.25c-0.43,0.16-0.91,0.3-1.32,0.48c-0.2,0.09-0.37,0.15-0.59,0.19
				c-0.48,0.1-0.91,0.27-1.37,0.42c-0.66,0.21-1.34,0.37-2,0.6c-0.79,0.28-1.54,0.64-2.3,0.99c-0.94,0.44-1.9,0.74-2.87,1.09
				c-0.91,0.32-1.81,0.65-2.73,0.95c-0.82,0.27-1.63,0.52-2.44,0.82c-0.58,0.22-1.18,0.39-1.76,0.61c-0.78,0.29-1.56,0.6-2.37,0.8
				c-0.55,0.14-1.07,0.32-1.61,0.48c-0.41,0.12-0.83,0.21-1.21,0.39c-0.73,0.34-1.44,0.75-2.19,1.04c-0.29,0.11-0.6,0.16-0.9,0.25
				c-0.37,0.12-0.72,0.27-1.09,0.39c-0.94,0.3-1.87,0.62-2.78,1c-0.39,0.16-0.78,0.31-1.17,0.46c-0.41,0.15-0.82,0.35-1.24,0.49
				c-0.22,0.08-0.47,0.1-0.69,0.16c-0.12,0.03-0.25,0.08-0.37,0.11c-0.21,0.06-0.42,0.03-0.63,0.1c-0.35,0.12-0.64,0.36-1.01,0.46
				c-0.25,0.07-0.53,0.12-0.79,0.13c-0.62,0.04-1.25,0.06-1.86,0.14c-0.54,0.07-1.1,0.34-1.62,0.48c-0.23,0.06-0.48,0.08-0.71,0.15
				c-0.25,0.07-0.44,0.21-0.71,0.23c-0.44,0.04-1.04,0.08-1.36,0.42c0.06-0.03,0.12-0.06,0.18-0.1"/>
			<g>
				<g>
					<path d="M219.2,232.32c0.69,0.06,1.39,0.12,2.08,0.17c0-0.21,0-0.42,0-0.62c-0.73-0.01-1.45-0.02-2.18-0.03
						c-0.41-0.01-0.4,0.59,0,0.62c0.94,0.07,1.88,0.14,2.82,0.21c0.35,0.03,0.44-0.56,0.09-0.61c-1.12-0.17-2.22-0.2-3.34-0.07
						c-0.39,0.04-0.41,0.66,0,0.62c1.01-0.1,2.02-0.2,3.03-0.3c0.4-0.04,0.41-0.6,0-0.62c-0.69-0.05-1.36,0.03-2.02,0.24
						c-0.33,0.1-0.29,0.62,0.08,0.61c1.53-0.03,3.07-0.05,4.6-0.08c0.4-0.01,0.41-0.63,0-0.62c-0.9,0-1.81,0-2.71,0
						c0,0.21,0,0.42,0,0.62c1.78-0.07,3.56-0.14,5.35-0.21c0-0.21,0-0.42,0-0.62c-0.76,0.08-1.52,0.15-2.27,0.23
						c-0.39,0.04-0.41,0.64,0,0.62c1.87-0.07,3.73-0.15,5.6-0.22c0.4-0.02,0.41-0.64,0-0.62c-0.85,0.02-1.71,0.05-2.56,0.07
						c0,0.21,0,0.42,0,0.62c1.48-0.05,2.96-0.11,4.44-0.16c0.4-0.01,0.41-0.61,0-0.62c-0.69-0.03-1.39-0.06-2.08-0.09
						c0,0.21,0,0.42,0,0.62c1.28-0.07,2.56-0.14,3.85-0.21c0.4-0.02,0.41-0.63,0-0.62c-1.26,0-2.52,0-3.79,0c0,0.21,0,0.42,0,0.62
						c3.74-0.05,7.49,0.12,11.23-0.21c0-0.21,0-0.42,0-0.62c-0.52,0.07-1.05,0.13-1.57,0.2c-0.39,0.05-0.42,0.64,0,0.62
						c4.73-0.23,9.47-0.09,14.17,0.42c0.3,0.03,0.44-0.46,0.16-0.58c-0.37-0.17-0.75-0.33-1.12-0.5c-0.05,0.19-0.11,0.39-0.16,0.58
						c10.42-0.07,20.81-0.68,31.18-1.63c10.37-0.95,20.72-2.1,31.08-3.18c5.85-0.61,11.7-1.22,17.55-1.83c0.4-0.04,0.4-0.67,0-0.62
						c-10.38,1.08-20.76,2.16-31.14,3.24c-10.33,1.08-20.67,2.19-31.04,2.81c-5.87,0.35-11.74,0.54-17.62,0.58
						c-0.29,0-0.46,0.45-0.16,0.58c0.37,0.17,0.75,0.33,1.12,0.5c0.05-0.19,0.11-0.39,0.16-0.58c-4.71-0.51-9.44-0.65-14.17-0.42
						c0,0.21,0,0.42,0,0.62c0.52-0.07,1.05-0.13,1.57-0.2c0.39-0.05,0.41-0.66,0-0.62c-3.73,0.33-7.48,0.16-11.23,0.21
						c-0.4,0.01-0.41,0.63,0,0.62c1.26,0,2.52,0,3.79,0c0-0.21,0-0.42,0-0.62c-1.28,0.07-2.56,0.14-3.85,0.21
						c-0.4,0.02-0.41,0.61,0,0.62c0.69,0.03,1.39,0.06,2.08,0.09c0-0.21,0-0.42,0-0.62c-1.48,0.05-2.96,0.11-4.44,0.16
						c-0.4,0.01-0.41,0.64,0,0.62c0.85-0.02,1.71-0.05,2.56-0.07c0-0.21,0-0.42,0-0.62c-1.87,0.07-3.73,0.15-5.6,0.22
						c0,0.21,0,0.42,0,0.62c0.76-0.08,1.52-0.15,2.27-0.23c0.39-0.04,0.41-0.64,0-0.62c-1.78,0.07-3.56,0.14-5.35,0.21
						c-0.4,0.02-0.41,0.63,0,0.62c0.9,0,1.81,0,2.71,0c0-0.21,0-0.42,0-0.62c-1.53,0.03-3.07,0.05-4.6,0.08
						c0.03,0.2,0.05,0.41,0.08,0.61c0.61-0.2,1.22-0.27,1.86-0.22c0-0.21,0-0.42,0-0.62c-1.01,0.1-2.02,0.2-3.03,0.3
						c0,0.21,0,0.42,0,0.62c1.06-0.12,2.12-0.11,3.18,0.05c0.03-0.2,0.06-0.41,0.09-0.61c-0.94-0.07-1.88-0.14-2.82-0.21
						c0,0.21,0,0.42,0,0.62c0.73,0.01,1.45,0.02,2.18,0.03c0.41,0.01,0.4-0.59,0-0.62c-0.69-0.06-1.39-0.12-2.08-0.17
						C218.8,231.66,218.8,232.29,219.2,232.32L219.2,232.32z"/>
				</g>
			</g>
			<g>
				<g>
					<path d="M219.04,240.79c1.58-0.47,3.21-0.76,4.85-0.84c0.4-0.02,0.41-0.6,0-0.62c-0.72-0.04-1.44,0.04-2.14,0.22
						c-0.21,0.05-0.33,0.37-0.14,0.52c0.33,0.27,0.72,0.37,1.14,0.26c0.39-0.1,0.23-0.71-0.16-0.6c-0.18,0.05-0.38,0.03-0.53-0.1
						c-0.05,0.17-0.09,0.35-0.14,0.52c0.65-0.17,1.31-0.23,1.98-0.2c0-0.21,0-0.42,0-0.62c-1.7,0.09-3.39,0.38-5.02,0.87
						C218.49,240.3,218.65,240.9,219.04,240.79L219.04,240.79z"/>
				</g>
			</g>
			<g>
				<g>
					<path d="M224.51,240.15c0.4,0,0.41-0.62,0-0.62C224.11,239.53,224.1,240.15,224.51,240.15L224.51,240.15z"/>
				</g>
			</g>
			<g>
				<g>
					<path d="M221.04,240.54c0.4,0,0.41-0.62,0-0.62C220.64,239.92,220.64,240.54,221.04,240.54L221.04,240.54z"/>
				</g>
			</g>
			<g>
				<g>
					<path d="M224.3,240.15c0.96-0.07,1.93-0.14,2.89-0.21c-0.03-0.2-0.05-0.41-0.08-0.61c-0.44,0.11-0.88,0.22-1.31,0.32
						c-0.34,0.08-0.28,0.62,0.08,0.61c1.23-0.03,2.46-0.07,3.7-0.1c0.28-0.01,0.46-0.44,0.16-0.58c-0.68-0.31-1.36-0.3-2.02,0.07
						c-0.33,0.18-0.1,0.63,0.24,0.57c6.89-1.16,13.88-1.54,20.86-1.66c6.77-0.12,13.55-0.03,20.32,0.07
						c13.57,0.2,27.17,0.48,40.72-0.54c7.52-0.57,15.01-1.54,22.38-3.13c0.39-0.08,0.23-0.69-0.16-0.6
						c-13.29,2.86-26.9,3.69-40.47,3.82c-13.61,0.13-27.21-0.42-40.82-0.27c-7.69,0.08-15.39,0.44-22.98,1.71
						c0.08,0.19,0.16,0.38,0.24,0.57c0.44-0.25,0.92-0.29,1.39-0.07c0.05-0.19,0.11-0.39,0.16-0.58c-1.23,0.03-2.46,0.07-3.7,0.1
						c0.03,0.2,0.05,0.41,0.08,0.61c0.44-0.11,0.88-0.22,1.31-0.32c0.33-0.08,0.28-0.64-0.08-0.61c-0.96,0.07-1.93,0.14-2.89,0.21
						C223.91,239.56,223.9,240.18,224.3,240.15L224.3,240.15z"/>
				</g>
			</g>
			<g>
				<g>
					<path d="M343.76,223.09c3.17-1.67,6.35-3.35,9.52-5.02c-0.1-0.18-0.21-0.36-0.31-0.54c-3.32,1.81-6.8,3.29-10.4,4.44
						c-0.38,0.12-0.23,0.69,0.16,0.6c6.09-1.31,12.03-3.21,17.76-5.66c0.34-0.14,0.09-0.65-0.24-0.57c-1.3,0.3-2.6,0.61-3.9,0.91
						c0.05,0.2,0.11,0.4,0.16,0.6c2.36-0.79,4.73-1.58,7.09-2.37c2.33-0.78,4.71-1.47,7.01-2.35c0.56-0.21,1.33-0.63,1.26-1.35
						c-0.05-0.48-0.51-0.68-0.95-0.58c-0.37,0.08-0.76,0.43-0.5,0.83c0.19,0.3,0.51,0.2,0.82,0.18c0.64-0.05,1.28-0.11,1.92-0.16
						c-0.03-0.2-0.05-0.41-0.08-0.61c-8.57,3.1-17.15,6.19-25.72,9.29c-0.38,0.14-0.23,0.68,0.16,0.6
						c5.63-1.1,11.09-2.92,16.26-5.42c0.32-0.15,0.1-0.69-0.24-0.57c-8.78,3.11-17.56,6.22-26.34,9.33
						c-0.38,0.13-0.22,0.74,0.16,0.6c8.78-3.11,17.56-6.22,26.34-9.33c-0.08-0.19-0.16-0.38-0.24-0.57
						c-5.11,2.48-10.53,4.27-16.11,5.36c0.05,0.2,0.11,0.4,0.16,0.6c8.57-3.1,17.15-6.19,25.72-9.29c0.31-0.11,0.3-0.64-0.08-0.61
						c-0.4,0.03-0.8,0.07-1.2,0.1c-0.22,0.02-0.98-0.02-0.96,0.19c0.03,0.27,0.15-0.03,0.19,0.08c0.08,0.22-0.09,0.36-0.25,0.47
						c-0.26,0.19-0.58,0.29-0.88,0.39c-1.53,0.52-3.07,1.03-4.61,1.54c-3.03,1.01-6.06,2.03-9.1,3.04c-0.38,0.13-0.23,0.7,0.16,0.6
						c1.3-0.3,2.6-0.61,3.9-0.91c-0.08-0.19-0.16-0.38-0.24-0.57c-5.67,2.43-11.58,4.3-17.61,5.6c0.05,0.2,0.11,0.4,0.16,0.6
						c3.65-1.17,7.18-2.67,10.54-4.51c0.35-0.19,0.04-0.73-0.31-0.54c-3.17,1.67-6.35,3.35-9.52,5.02
						C343.1,222.74,343.41,223.28,343.76,223.09L343.76,223.09z"/>
				</g>
			</g>
			<g>
				<g>
					<path d="M347.63,229.82c8.2-3.82,16.68-7.01,25.37-9.53c0.39-0.11,0.23-0.71-0.16-0.6c-8.67,2.27-17.22,4.97-25.61,8.11
						c-2.39,0.9-4.77,1.83-7.14,2.79c-0.36,0.15-0.24,0.71,0.16,0.6c9.07-2.51,18.06-5.32,26.94-8.44c2.52-0.89,5.04-1.8,7.54-2.73
						c0.37-0.14,0.23-0.7-0.16-0.6c-10.41,2.59-20.62,5.94-30.53,10.06c-2.77,1.15-5.51,2.36-8.22,3.62
						c-0.35,0.16-0.08,0.62,0.24,0.57c6.5-0.98,12.79-3.07,18.58-6.18c0.35-0.19,0.04-0.73-0.31-0.54
						c-5.74,3.09-11.99,5.15-18.43,6.12c0.08,0.19,0.16,0.38,0.24,0.57c9.66-4.49,19.65-8.25,29.87-11.25
						c2.9-0.85,5.81-1.64,8.74-2.36c-0.05-0.2-0.11-0.4-0.16-0.6c-8.81,3.29-17.74,6.28-26.76,8.96c-2.57,0.76-5.14,1.5-7.72,2.21
						c0.05,0.2,0.11,0.4,0.16,0.6c8.29-3.38,16.75-6.34,25.35-8.86c2.46-0.72,4.93-1.4,7.41-2.05c-0.05-0.2-0.11-0.4-0.16-0.6
						c-8.74,2.54-17.27,5.74-25.52,9.59C346.95,229.45,347.27,229.99,347.63,229.82L347.63,229.82z"/>
				</g>
			</g>
			<g>
				<g>
					<path d="M368.49,231.81c-8.77,1.3-17.31,4.05-25.19,8.12c-2.21,1.15-4.37,2.4-6.46,3.75c-0.34,0.22-0.04,0.74,0.31,0.54
						c8.56-4.76,17.31-9.59,26.9-11.91c2.7-0.65,5.45-1.09,8.22-1.27c-0.03-0.2-0.05-0.41-0.08-0.61
						c-9.8,2.54-19.38,5.95-28.57,10.18c-2.58,1.19-5.13,2.45-7.65,3.77c-0.36,0.19-0.04,0.73,0.31,0.54
						c8.91-4.67,18.24-8.53,27.84-11.54c2.73-0.85,5.47-1.64,8.24-2.35c0.33-0.09,0.28-0.64-0.08-0.61
						c-9.97,0.64-19.26,4.62-28,9.21c-2.5,1.31-4.97,2.68-7.44,4.05c0.1,0.18,0.21,0.36,0.31,0.54c7.4-4.76,15.57-8.27,24.12-10.36
						c2.44-0.6,4.9-1.08,7.38-1.45C369.05,232.35,368.89,231.75,368.49,231.81L368.49,231.81z"/>
				</g>
			</g>
			<g>
				<g>
					<path d="M363.73,241.19c-6.95,2.38-13.68,5.38-20.1,8.97c0.1,0.18,0.21,0.36,0.31,0.54c7.4-4.61,15.58-7.77,23.81-10.56
						c2.34-0.79,4.68-1.55,7.03-2.32c-0.05-0.2-0.11-0.4-0.16-0.6c-9.9,3.62-19.64,7.67-29.17,12.15c-2.73,1.29-5.45,2.61-8.15,3.96
						c-0.34,0.17-0.09,0.63,0.24,0.57c1.65-0.29,3.14-1.07,4.32-2.26c0.21-0.21,0.04-0.5-0.22-0.53c-1.56-0.2-3.12,0.8-3.54,2.33
						c-0.11,0.39,0.49,0.56,0.6,0.17c0.35-1.28,1.64-2.03,2.94-1.87c-0.07-0.18-0.15-0.36-0.22-0.53c-1.1,1.12-2.49,1.83-4.04,2.1
						c0.08,0.19,0.16,0.38,0.24,0.57c9.44-4.73,19.08-9.05,28.91-12.92c2.74-1.08,5.5-2.13,8.27-3.14c0.37-0.14,0.22-0.73-0.16-0.6
						c-8.3,2.7-16.65,5.41-24.49,9.31c-2.22,1.11-4.4,2.31-6.51,3.62c-0.34,0.21-0.04,0.74,0.31,0.54
						c6.37-3.56,13.05-6.54,19.95-8.9C364.27,241.67,364.11,241.06,363.73,241.19L363.73,241.19z"/>
				</g>
			</g>
			<g>
				<g>
					<path d="M325.41,245.88c0.4,0,0.41-0.62,0-0.62C325.01,245.26,325.01,245.88,325.41,245.88L325.41,245.88z"/>
				</g>
			</g>
			<g>
				<g>
					<path d="M323.3,246.9c1.2,0.13,2.41,0.25,3.61,0.38c0-0.21,0-0.42,0-0.62c-2.73-0.12-5.46-0.25-8.19-0.37c0,0.21,0,0.42,0,0.62
						c1.89,0,3.78,0,5.66-0.01c0.4,0,0.41-0.62,0-0.62c-3.24,0-6.48,0-9.71,0c-0.4,0-0.41,0.62,0,0.62
						c1.37,0.01,2.75,0.01,4.12,0.02c0.4,0,0.41-0.62,0-0.62c-3.58-0.03-7.17-0.06-10.75-0.1c-0.4,0-0.41,0.61,0,0.62
						c1.68,0.05,3.36,0.09,5.04,0.14c0-0.21,0-0.42,0-0.62c-4.21,0.26-8.43,0.3-12.65,0.11c0,0.21,0,0.42,0,0.62
						c1.31-0.04,2.59,0.07,3.87,0.35c0.03-0.2,0.06-0.41,0.09-0.61c-4.03,0-8.06,0-12.09-0.01c0,0.21,0,0.42,0,0.62
						c1.43-0.1,2.86-0.19,4.29-0.29c0.4-0.03,0.41-0.64,0-0.62c-3.44,0.09-6.87,0.18-10.31,0.27c-0.4,0.01-0.41,0.62,0,0.62
						c1.21,0.03,2.41,0.06,3.62,0.08c0-0.21,0-0.42,0-0.62c-3.75,0.11-7.5,0.21-11.25,0.32c-0.4,0.01-0.41,0.63,0,0.62
						c1.03,0,2.06,0,3.09,0c0.4,0,0.4-0.6,0-0.62c-3.11-0.18-6.23-0.23-9.34-0.14c-0.4,0.01-0.41,0.63,0,0.62
						c1.31-0.03,2.62-0.05,3.92-0.08c0.4-0.01,0.41-0.62,0-0.62c-3.97-0.04-7.93,0.08-11.89,0.36c-0.4,0.03-0.41,0.64,0,0.62
						c1.37-0.06,2.74-0.13,4.11-0.19c0-0.21,0-0.42,0-0.62c-4.19,0.19-8.38,0.24-12.58,0.15c0,0.21,0,0.42,0,0.62
						c1.1-0.07,2.2-0.13,3.3-0.2c0.4-0.02,0.41-0.62,0-0.62c-3.81-0.06-7.61,0.06-11.41,0.36c-0.4,0.03-0.41,0.65,0,0.62
						c1.72-0.12,3.43-0.23,5.15-0.35c0.4-0.03,0.41-0.62,0-0.62c-4.51-0.09-9.01-0.02-13.51,0.21c0,0.21,0,0.42,0,0.62
						c1.09-0.11,2.17-0.22,3.26-0.32c0.39-0.04,0.41-0.62,0-0.62c-3.59,0-7.18,0-10.76,0c0.03,0.2,0.05,0.41,0.08,0.61
						c1.28-0.38,2.59-0.48,3.91-0.28c0.03-0.2,0.06-0.41,0.09-0.61c-3,0.18-5.99,0.36-8.99,0.54c0,0.21,0,0.42,0,0.62
						c0.92-0.1,1.84-0.2,2.75-0.29c0.39-0.04,0.41-0.63,0-0.62c-2.59,0.05-5.19,0.11-7.78,0.16c0,0.21,0,0.42,0,0.62
						c1.08-0.08,2.17-0.17,3.25-0.25c-0.03-0.2-0.05-0.41-0.08-0.61c-1.82,0.38-3.64,0.76-5.46,1.14c-0.39,0.08-0.23,0.69,0.16,0.6
						c1.82-0.38,3.64-0.76,5.46-1.14c0.34-0.07,0.27-0.64-0.08-0.61c-1.08,0.08-2.17,0.17-3.25,0.25c-0.39,0.03-0.41,0.63,0,0.62
						c2.59-0.05,5.19-0.11,7.78-0.16c0-0.21,0-0.42,0-0.62c-0.92,0.1-1.84,0.2-2.75,0.29c-0.39,0.04-0.41,0.65,0,0.62
						c3-0.18,5.99-0.36,8.99-0.54c0.33-0.02,0.46-0.56,0.09-0.61c-1.43-0.22-2.85-0.13-4.24,0.28c-0.33,0.1-0.28,0.61,0.08,0.61
						c3.59,0,7.18,0,10.76,0c0-0.21,0-0.42,0-0.62c-1.09,0.11-2.17,0.22-3.26,0.32c-0.39,0.04-0.41,0.65,0,0.62
						c4.5-0.23,9.01-0.3,13.51-0.21c0-0.21,0-0.42,0-0.62c-1.72,0.12-3.43,0.23-5.15,0.35c0,0.21,0,0.42,0,0.62
						c3.8-0.3,7.6-0.42,11.41-0.36c0-0.21,0-0.42,0-0.62c-1.1,0.07-2.2,0.13-3.3,0.2c-0.4,0.02-0.41,0.62,0,0.62
						c4.19,0.09,8.39,0.04,12.58-0.15c0.4-0.02,0.41-0.64,0-0.62c-1.37,0.06-2.74,0.13-4.11,0.19c0,0.21,0,0.42,0,0.62
						c3.96-0.27,7.92-0.39,11.89-0.36c0-0.21,0-0.42,0-0.62c-1.31,0.03-2.62,0.05-3.92,0.08c0,0.21,0,0.42,0,0.62
						c3.12-0.09,6.23-0.04,9.34,0.14c0-0.21,0-0.42,0-0.62c-1.03,0-2.06,0-3.09,0c0,0.21,0,0.42,0,0.62
						c3.75-0.11,7.5-0.21,11.25-0.32c0.4-0.01,0.41-0.62,0-0.62c-1.21-0.03-2.41-0.06-3.62-0.08c0,0.21,0,0.42,0,0.62
						c3.44-0.09,6.87-0.18,10.31-0.27c0-0.21,0-0.42,0-0.62c-1.43,0.1-2.86,0.19-4.29,0.29c-0.4,0.03-0.41,0.62,0,0.62
						c4.03,0,8.06,0,12.09,0.01c0.34,0,0.44-0.54,0.09-0.61c-1.33-0.29-2.68-0.42-4.04-0.37c-0.4,0.01-0.41,0.61,0,0.62
						c4.22,0.19,8.44,0.15,12.65-0.11c0.4-0.02,0.41-0.61,0-0.62c-1.68-0.05-3.36-0.09-5.04-0.14c0,0.21,0,0.42,0,0.62
						c3.58,0.03,7.17,0.06,10.75,0.1c0-0.21,0-0.42,0-0.62c-1.37-0.01-2.75-0.01-4.12-0.02c0,0.21,0,0.42,0,0.62
						c3.24,0,6.48,0,9.71,0c0-0.21,0-0.42,0-0.62c-1.89,0-3.78,0-5.66,0.01c-0.4,0-0.4,0.61,0,0.62c2.73,0.12,5.46,0.25,8.19,0.37
						c0.41,0.02,0.4-0.58,0-0.62c-1.2-0.13-2.41-0.25-3.61-0.38C322.91,246.23,322.91,246.86,323.3,246.9L323.3,246.9z"/>
				</g>
			</g>
			<g>
				<g>
					<path d="M220.18,257.41c3.23-0.51,6.46-1.02,9.69-1.53c0.4-0.06,0.23-0.66-0.16-0.6c-1.99,0.29-3.97,0.58-5.96,0.87
						c-0.34,0.05-0.27,0.66,0.08,0.61c3.45-0.41,6.91-0.81,10.36-1.22c0.39-0.05,0.42-0.63,0-0.62c-0.75,0-1.49,0.01-2.24,0.01
						c0,0.21,0,0.42,0,0.62c4.12-0.33,8.24-0.66,12.36-0.99c0.32-0.03,0.46-0.54,0.09-0.61c-0.92-0.18-1.79-0.05-2.62,0.38
						c-0.27,0.14-0.15,0.59,0.15,0.58c3.27-0.08,6.53-0.17,9.8-0.25c0-0.21,0-0.42,0-0.62c-1.21,0.06-2.43,0.13-3.64,0.19
						c-0.4,0.02-0.41,0.63,0,0.62c10.35-0.25,20.69,0.41,31,1.15c10.35,0.74,20.7,1.56,31.08,1.59c5.8,0.01,11.6-0.23,17.37-0.86
						c0.39-0.04,0.4-0.67,0-0.62c-10.26,1.13-20.6,1-30.89,0.45c-10.38-0.55-20.73-1.52-31.12-2.04
						c-5.81-0.29-11.63-0.43-17.45-0.29c0,0.21,0,0.42,0,0.62c1.21-0.06,2.43-0.13,3.64-0.19c0.4-0.02,0.41-0.63,0-0.62
						c-3.27,0.08-6.53,0.17-9.8,0.25c0.05,0.19,0.1,0.39,0.15,0.58c0.67-0.35,1.39-0.46,2.13-0.32c0.03-0.2,0.06-0.41,0.09-0.61
						c-4.12,0.33-8.24,0.66-12.36,0.99c-0.39,0.03-0.41,0.63,0,0.62c0.75,0,1.49-0.01,2.24-0.01c0-0.21,0-0.42,0-0.62
						c-3.45,0.41-6.91,0.81-10.36,1.22c0.03,0.2,0.05,0.41,0.08,0.61c1.99-0.29,3.97-0.58,5.96-0.87c-0.05-0.2-0.11-0.4-0.16-0.6
						c-3.23,0.51-6.46,1.02-9.69,1.53C219.62,256.87,219.78,257.47,220.18,257.41L220.18,257.41z"/>
				</g>
			</g>
			<g>
				<g>
					<path d="M221.43,263.99c5.09-3.35,11.23-4.17,17.21-4.11c6.54,0.06,13.06,0.98,19.58,1.5c14.4,1.16,28.84,1.68,43.28,1.57
						c8.17-0.06,16.34-0.32,24.5-0.79c0.4-0.02,0.41-0.65,0-0.62c-14.58,0.83-29.2,1.02-43.8,0.55c-7.34-0.23-14.68-0.63-22-1.19
						c-6.62-0.51-13.24-1.4-19.89-1.62c-6.61-0.22-13.53,0.44-19.19,4.16C220.78,263.67,221.09,264.21,221.43,263.99L221.43,263.99z
						"/>
				</g>
			</g>
			<g>
				<g>
					<path d="M222.28,267.83c13.44-2.06,27.05-2.62,40.63-2.35c13.49,0.27,26.94,1.36,40.37,2.61c7.37,0.69,14.85,1.36,22.19,0.04
						c0.4-0.07,0.23-0.67-0.16-0.6c-6.64,1.2-13.42,0.73-20.1,0.12c-6.75-0.61-13.49-1.24-20.25-1.72
						c-13.44-0.97-26.93-1.48-40.4-0.87c-7.51,0.34-15.01,1.03-22.45,2.17C221.72,267.29,221.89,267.89,222.28,267.83L222.28,267.83
						z"/>
				</g>
			</g>
			<g>
				<g>
					<path d="M221.98,275.18c13.78-3.1,27.99-3.26,42.04-2.62c14.08,0.63,28.13,2.03,42.23,2.09c7.84,0.03,15.69-0.36,23.45-1.53
						c0.4-0.06,0.23-0.66-0.16-0.6c-14.04,2.1-28.29,1.64-42.41,0.79c-14.02-0.84-28.06-2.07-42.12-1.57
						c-7.79,0.28-15.57,1.12-23.18,2.83C221.42,274.67,221.58,275.27,221.98,275.18L221.98,275.18z"/>
				</g>
			</g>
			<g>
				<g>
					<path d="M221.6,283.87c13.84-4.19,28.41-4.95,42.78-4.49c14.92,0.47,29.77,2.25,44.69,2.81c8.45,0.32,16.92,0.24,25.33-0.67
						c0.4-0.04,0.4-0.67,0-0.62c-15.15,1.65-30.4,0.56-45.54-0.6c-14.54-1.12-29.15-2.31-43.73-1.23
						c-8.02,0.59-15.99,1.88-23.69,4.21C221.05,283.39,221.21,283.99,221.6,283.87L221.6,283.87z"/>
				</g>
			</g>
			<g>
				<g>
					<path d="M336.2,261.5c4.85-2.68,9.85-5.08,14.99-7.17c5-2.03,10.12-3.64,15.28-5.22c2.59-0.79,5.15-1.75,7.29-3.46
						c0.31-0.25-0.13-0.69-0.44-0.44c-1.99,1.6-4.4,2.5-6.81,3.24c-2.49,0.77-5,1.48-7.47,2.31c-5.09,1.71-10.09,3.72-14.95,6.01
						c-2.78,1.31-5.51,2.71-8.2,4.2C335.53,261.16,335.84,261.7,336.2,261.5L336.2,261.5z"/>
				</g>
			</g>
			<g>
				<g>
					<path d="M335.75,266.03c10.14-3.47,19.4-8.98,29.42-12.74c2.81-1.05,5.66-1.95,8.58-2.63c0.39-0.09,0.23-0.69-0.16-0.6
						c-10.42,2.42-19.8,7.69-29.5,11.99c-2.79,1.24-5.61,2.39-8.5,3.37C335.21,265.56,335.37,266.16,335.75,266.03L335.75,266.03z"
						/>
				</g>
			</g>
			<g>
				<g>
					<path d="M338.94,271.7c8.7-5.14,17.96-9.3,27.58-12.39c2.72-0.87,5.46-1.66,8.23-2.37c0.39-0.1,0.23-0.7-0.16-0.6
						c-9.82,2.5-19.36,6.08-28.4,10.67c-2.56,1.3-5.09,2.69-7.56,4.15C338.28,271.36,338.59,271.9,338.94,271.7L338.94,271.7z"/>
				</g>
			</g>
			<g>
				<g>
					<path d="M372.07,253.64c-9.18,3.41-18.31,6.94-27.38,10.61c-2.59,1.05-5.18,2.11-7.76,3.18c-0.37,0.15-0.21,0.76,0.16,0.6
						c9.04-3.74,18.14-7.36,27.29-10.84c2.61-0.99,5.23-1.98,7.86-2.95C372.61,254.11,372.45,253.5,372.07,253.64L372.07,253.64z"/>
				</g>
			</g>
			<g>
				<g>
					<path d="M337.14,280.95c10.3-4.92,19.54-12.09,30.55-15.48c3.06-0.94,6.21-1.56,9.41-1.73c0.4-0.02,0.41-0.65,0-0.62
						c-11.6,0.6-21.64,6.9-31.41,12.54c-2.9,1.68-5.84,3.3-8.86,4.75C336.46,280.58,336.77,281.12,337.14,280.95L337.14,280.95z"/>
				</g>
			</g>
			<g>
				<g>
					<path d="M339.54,283.51c8.29-5.22,17.18-9.46,26.46-12.61c2.64-0.9,5.3-1.7,7.99-2.43c0.39-0.1,0.23-0.71-0.16-0.6
						c-9.53,2.56-18.75,6.22-27.43,10.91c-2.43,1.32-4.82,2.71-7.16,4.19C338.89,283.18,339.2,283.72,339.54,283.51L339.54,283.51z"
						/>
				</g>
			</g>
			<g>
				<g>
					<path d="M342.09,289.98c7.89-4.35,16.3-7.74,24.99-10.08c2.45-0.66,4.93-1.24,7.42-1.74c0.39-0.08,0.23-0.68-0.16-0.6
						c-8.86,1.77-17.51,4.59-25.7,8.4c-2.33,1.08-4.61,2.24-6.86,3.48C341.43,289.63,341.74,290.18,342.09,289.98L342.09,289.98z"/>
				</g>
			</g>
			<g>
				<g>
					<path d="M343.73,295.69c9.1-4.43,18.57-8.04,28.31-10.8c0.39-0.11,0.23-0.71-0.16-0.6c-7.59,2.15-15.03,4.82-22.26,7.99
						c-2.08,0.91-4.15,1.87-6.19,2.87C343.06,295.32,343.37,295.86,343.73,295.69L343.73,295.69z"/>
				</g>
			</g>
			<g>
				<g>
					<path d="M345.89,301.63c8.45-3.85,17.33-6.74,26.42-8.64c0.39-0.08,0.23-0.69-0.16-0.6c-9.15,1.91-18.06,4.83-26.57,8.71
						C345.21,301.26,345.53,301.8,345.89,301.63L345.89,301.63z"/>
				</g>
			</g>
			<g>
				<g>
					<path d="M375.6,298.02c-9.11,1.22-17.86,4.14-26.4,7.42c-2.41,0.93-4.82,1.88-7.22,2.84c-0.37,0.15-0.21,0.75,0.16,0.6
						c8.51-3.39,17.06-6.79,26-8.86c2.52-0.58,5.06-1.06,7.62-1.4C376.16,298.57,376,297.97,375.6,298.02L375.6,298.02z"/>
				</g>
			</g>
			<g>
				<g>
					<path d="M342.4,315.5c8.33-3.94,17.27-6.35,26.23-8.39c2.56-0.58,5.12-1.14,7.69-1.69c0.39-0.08,0.23-0.69-0.16-0.6
						c-9.1,1.96-18.25,3.93-27,7.17c-2.4,0.89-4.76,1.87-7.07,2.96C341.73,315.13,342.04,315.67,342.4,315.5L342.4,315.5z"/>
				</g>
			</g>
			<g>
				<g>
					<path d="M376.88,311.24c-8.97,2.69-17.97,5.27-27,7.74c-2.59,0.71-5.18,1.41-7.77,2.1c-0.39,0.1-0.23,0.71,0.16,0.6
						c9.05-2.41,18.07-4.92,27.05-7.55c2.57-0.75,5.14-1.51,7.71-2.28C377.42,311.73,377.26,311.13,376.88,311.24L376.88,311.24z"/>
				</g>
			</g>
			<g>
				<g>
					<path d="M342.13,329.17c9.65-4.51,19.86-7.35,30.38-8.89c2.79-0.41,5.58-0.89,8.13-2.14c0.36-0.18,0.05-0.72-0.31-0.54
						c-2.33,1.14-4.89,1.61-7.44,1.99c-2.6,0.39-5.2,0.78-7.78,1.31c-5.14,1.05-10.2,2.5-15.13,4.31c-2.77,1.02-5.5,2.16-8.17,3.41
						C341.45,328.8,341.76,329.34,342.13,329.17L342.13,329.17z"/>
				</g>
			</g>
			<g>
				<g>
					<path d="M342.33,337.49c7.84-6.62,18.47-7.92,28.14-10.05c2.94-0.65,5.86-1.4,8.71-2.39c0.38-0.13,0.22-0.74-0.16-0.6
						c-9.89,3.46-20.68,3.81-30.25,8.27c-2.46,1.15-4.79,2.58-6.87,4.33C341.58,337.3,342.02,337.75,342.33,337.49L342.33,337.49z"
						/>
				</g>
			</g>
			<g>
				<g>
					<path d="M341.92,344.02c4.56-2.44,9.14-4.9,14.05-6.58c4.87-1.66,9.93-2.13,14.99-2.9c2.81-0.43,5.6-1.01,8.26-2.04
						c0.37-0.14,0.21-0.75-0.16-0.6c-4.79,1.85-9.95,2.21-14.98,2.98c-2.54,0.39-5.06,0.92-7.51,1.71
						c-2.45,0.79-4.82,1.78-7.15,2.88c-2.65,1.25-5.23,2.63-7.81,4.01C341.25,343.67,341.56,344.21,341.92,344.02L341.92,344.02z"/>
				</g>
			</g>
			<g>
				<g>
					<path d="M341.05,350.54c4.29-2.66,9.08-4.32,13.92-5.67c5.15-1.43,10.36-2.65,15.54-3.95c3.03-0.76,6.07-1.52,9.1-2.28
						c0.39-0.1,0.23-0.7-0.16-0.6c-5.43,1.36-10.86,2.72-16.29,4.08c-5.01,1.26-10.08,2.42-14.93,4.24
						c-2.61,0.98-5.14,2.16-7.5,3.63C340.4,350.21,340.71,350.75,341.05,350.54L341.05,350.54z"/>
				</g>
			</g>
			<g>
				<g>
					<path d="M342.24,357.5c10.24-3.71,20.64-6.98,31.16-9.79c2.96-0.79,5.94-1.55,8.92-2.27c0.39-0.09,0.23-0.7-0.16-0.6
						c-10.59,2.56-21.07,5.57-31.4,9.03c-2.9,0.97-5.8,1.98-8.68,3.03C341.71,357.03,341.86,357.63,342.24,357.5L342.24,357.5z"/>
				</g>
			</g>
			<g>
				<g>
					<path d="M341.01,363.82c9.93-4.01,20.14-7.3,30.54-9.83c2.96-0.72,5.94-1.38,8.92-1.98c0.39-0.08,0.23-0.68-0.16-0.6
						c-10.5,2.11-20.86,4.97-30.95,8.57c-2.86,1.02-5.7,2.1-8.52,3.24C340.48,363.36,340.64,363.97,341.01,363.82L341.01,363.82z"/>
				</g>
			</g>
			<g>
				<g>
					<path d="M340.79,370.26c10.13-4.11,20.58-7.42,31.22-9.88c2.99-0.69,6-1.32,9.02-1.88c0.39-0.07,0.23-0.68-0.16-0.6
						c-10.75,2-21.35,4.83-31.66,8.49c-2.89,1.03-5.75,2.12-8.59,3.27C340.26,369.81,340.41,370.41,340.79,370.26L340.79,370.26z"/>
				</g>
			</g>
			<g>
				<g>
					<path d="M340.9,376.04c10.77-2.93,21.43-6.29,31.93-10.08c1.44-0.52,2.89-1.05,4.32-1.59c1.46-0.55,3.03-1.17,4.6-0.69
						c0.39,0.12,0.55-0.48,0.17-0.6c-1.22-0.37-2.45-0.16-3.64,0.22c-1.32,0.42-2.6,0.95-3.9,1.43c-2.66,0.97-5.32,1.92-8,2.84
						c-5.39,1.85-10.83,3.59-16.3,5.21c-3.1,0.92-6.22,1.81-9.34,2.66C340.35,375.54,340.51,376.15,340.9,376.04L340.9,376.04z"/>
				</g>
			</g>
			<g>
				<g>
					<path d="M341.24,385.09c2.94-3.82,8.17-4.69,12.59-5.66c5.77-1.27,11.46-2.85,17.05-4.75c3.15-1.07,6.26-2.24,9.33-3.5
						c0.37-0.15,0.21-0.76-0.16-0.6c-5.64,2.31-11.41,4.31-17.27,5.96c-2.9,0.82-5.82,1.55-8.76,2.21
						c-2.41,0.53-4.84,1.01-7.16,1.85c-2.38,0.87-4.59,2.14-6.16,4.17C340.46,385.09,341,385.41,341.24,385.09L341.24,385.09z"/>
				</g>
			</g>
			<g>
				<g>
					<path d="M342.82,391.61c6.35-5.15,14.77-6.32,22.25-9.07c2.08-0.76,4.12-1.65,6.04-2.76c0.35-0.2,0.04-0.74-0.31-0.54
						c-7.09,4.09-15.43,5-22.79,8.45c-2.01,0.94-3.9,2.08-5.62,3.48C342.07,391.42,342.51,391.86,342.82,391.61L342.82,391.61z"/>
				</g>
			</g>
			<g>
				<g>
					<path d="M223.73,280.85c13.06-3.4,26.48-4.56,39.94-3.89c6.84,0.34,13.67,0.98,20.51,1.17c6.84,0.19,13.69-0.02,20.53-0.14
						c7.65-0.13,15.33-0.13,22.95,0.67c0.4,0.04,0.4-0.58,0-0.62c-13.72-1.45-27.5-0.26-41.26-0.48c-6.85-0.11-13.68-0.7-20.51-1.1
						c-6.74-0.39-13.48-0.48-20.22,0.06c-7.46,0.59-14.87,1.84-22.11,3.73C223.18,280.35,223.34,280.95,223.73,280.85L223.73,280.85
						z"/>
				</g>
			</g>
			<g>
				<g>
					<path d="M328.98,284.94c-14.19,1.97-28.55,0.95-42.76-0.31c-13.74-1.22-27.53-2.66-41.33-1.9c-7.57,0.42-15.11,1.52-22.38,3.65
						c-0.38,0.11-0.22,0.72,0.16,0.6c13.15-3.86,26.97-4.26,40.57-3.56c14.06,0.72,28.04,2.64,42.12,3.13
						c7.94,0.28,15.9,0.08,23.78-1.01C329.54,285.49,329.37,284.89,328.98,284.94L328.98,284.94z"/>
				</g>
			</g>
			<g>
				<g>
					<path d="M223.17,293.46c13.12-3.32,26.76-2.44,40.14-1.96c6.9,0.25,13.79,0.24,20.69,0.08c7.06-0.17,14.13-0.41,21.19-0.23
						c7.85,0.19,15.68,0.85,23.5,1.51c0.4,0.03,0.4-0.59,0-0.62c-7-0.59-14-1.18-21.02-1.43c-7.06-0.26-14.12-0.08-21.18,0.1
						c-6.98,0.18-13.94,0.28-20.92,0.06c-6.75-0.21-13.5-0.59-20.25-0.55c-7.5,0.04-15.03,0.61-22.32,2.45
						C222.62,292.96,222.78,293.56,223.17,293.46L223.17,293.46z"/>
				</g>
			</g>
			<g>
				<g>
					<path d="M327.36,297.09c-13.19,1.26-26.45,1.01-39.68,0.51c-13.15-0.49-26.31-1.22-39.47-0.9c-7.35,0.17-14.69,0.69-21.96,1.72
						c-0.4,0.06-0.23,0.66,0.16,0.6c13.06-1.86,26.29-1.97,39.45-1.61c13.13,0.36,26.25,1.18,39.39,1.22
						c7.38,0.02,14.76-0.22,22.1-0.92C327.75,297.67,327.76,297.05,327.36,297.09L327.36,297.09z"/>
				</g>
			</g>
			<g>
				<g>
					<path d="M224.02,306.76c13.47-2.14,27.07-3.4,40.7-3.78c6.71-0.18,13.42-0.15,20.13,0.09c6.83,0.25,13.64,0.78,20.46,1.16
						c7.63,0.43,15.29,0.64,22.92-0.01c0.4-0.03,0.4-0.66,0-0.62c-13.65,1.16-27.29-0.45-40.92-1.06
						c-13.61-0.6-27.26-0.32-40.84,0.84c-7.57,0.65-15.11,1.57-22.61,2.77C223.46,306.22,223.62,306.82,224.02,306.76L224.02,306.76
						z"/>
				</g>
			</g>
			<g>
				<g>
					<path d="M322.64,309.93c-9.3,0.76-18.62,1.26-27.96,1.47c-2.64,0.06-5.29,0.1-7.93,0.12c-0.4,0-0.41,0.63,0,0.62
						c9.33-0.06,18.66-0.39,27.98-1c2.64-0.17,5.27-0.37,7.91-0.59C323.03,310.52,323.04,309.9,322.64,309.93L322.64,309.93z"/>
				</g>
			</g>
			<g>
				<g>
					<path d="M223.53,313c11.35-2.08,22.81-3.62,34.35-4.03c5.68-0.2,11.37-0.12,17.04,0.32c2.91,0.22,5.8,0.54,8.69,0.96
						c2.75,0.4,5.48,0.92,8.25,1.13c6.4,0.48,12.73-1.22,19.13-0.72c0.4,0.03,0.4-0.59,0-0.62c-5.72-0.45-11.37,0.89-17.08,0.81
						c-2.93-0.04-5.81-0.53-8.7-0.98c-2.78-0.43-5.57-0.78-8.37-1.04c-11.46-1.05-23.02-0.6-34.44,0.7
						c-6.38,0.73-12.72,1.72-19.04,2.87C222.97,312.46,223.14,313.07,223.53,313L223.53,313z"/>
				</g>
			</g>
			<g>
				<g>
					<path d="M222.92,319.33c13.16-2.28,26.57-2.16,39.87-1.69c13.35,0.47,26.69,1.17,40.05,0.4c7.46-0.43,14.89-1.23,22.28-2.38
						c0.4-0.06,0.23-0.66-0.16-0.6c-13.31,2.08-26.75,2.92-40.21,2.7c-13.32-0.22-26.63-1.23-39.96-0.97
						c-7.38,0.14-14.75,0.69-22.03,1.95C222.36,318.8,222.52,319.4,222.92,319.33L222.92,319.33z"/>
				</g>
			</g>
			<g>
				<g>
					<path d="M327.09,322.35c-12.95,3.38-26.42,3.5-39.72,3.14c-6.66-0.18-13.33-0.48-19.99-0.55c-6.75-0.07-13.49,0.14-20.21,0.76
						c-7.66,0.71-15.27,1.88-22.83,3.32c-0.39,0.08-0.23,0.68,0.16,0.6c13.53-2.58,27.19-4.14,40.98-4.08
						c13.29,0.06,26.59,1.14,39.88,0.51c7.38-0.34,14.74-1.24,21.9-3.11C327.64,322.85,327.48,322.25,327.09,322.35L327.09,322.35z"
						/>
				</g>
			</g>
			<g>
				<g>
					<path d="M226.55,335.73c13.33-2.46,26.81-4.05,40.35-4.76c13.52-0.71,27.02-0.27,40.55,0.13c7.7,0.23,15.4,0.38,23.1,0.13
						c0.4-0.01,0.41-0.64,0-0.62c-13.75,0.44-27.49-0.41-41.24-0.64c-13.53-0.22-27.06,0.36-40.51,1.85
						c-7.51,0.83-14.98,1.94-22.41,3.31C225.99,335.2,226.16,335.8,226.55,335.73L226.55,335.73z"/>
				</g>
			</g>
			<g>
				<g>
					<path d="M327.49,337c-13.43,1.26-26.89,2.2-40.36,2.83c-13.44,0.63-26.89,0.88-40.34,0.97c-7.34,0.05-14.73,0.24-21.95,1.74
						c-0.39,0.08-0.23,0.68,0.16,0.6c6.45-1.34,13.04-1.62,19.6-1.7c6.69-0.08,13.38-0.08,20.07-0.22
						c13.44-0.28,26.88-0.88,40.3-1.78c7.51-0.51,15.02-1.11,22.51-1.81C327.88,337.59,327.89,336.96,327.49,337L327.49,337z"/>
				</g>
			</g>
			<g>
				<g>
					<path d="M226.16,349.07c13.47-1.7,27.07-1.07,40.61-0.74c6.7,0.17,13.41,0.26,20.1-0.03c6.71-0.3,13.37-1.1,20.02-2.02
						c7.55-1.04,15.11-2.16,22.72-2.58c0.4-0.02,0.41-0.65,0-0.62c-13.51,0.74-26.79,3.67-40.3,4.47
						c-13.48,0.79-26.97-0.15-40.45-0.24c-7.58-0.05-15.17,0.18-22.7,1.13C225.77,348.5,225.76,349.12,226.16,349.07L226.16,349.07z
						"/>
				</g>
			</g>
			<g>
				<g>
					<path d="M328.44,351.18c-13.63-0.7-27.2,1.08-40.69,2.79c-13.39,1.69-26.9,3.33-40.41,2.37c-7.15-0.51-14.61-1.64-21.53,0.85
						c-0.38,0.14-0.22,0.74,0.16,0.6c6.2-2.23,12.88-1.51,19.3-0.99c6.71,0.55,13.41,0.55,20.12,0.13
						c13.5-0.85,26.84-3.16,40.3-4.43c7.56-0.71,15.16-1.09,22.74-0.69C328.84,351.83,328.84,351.2,328.44,351.18L328.44,351.18z"/>
				</g>
			</g>
			<g>
				<g>
					<path d="M231.95,365.64c12.81-2.6,25.89-3.38,38.93-3.66c13.06-0.28,26.13-0.07,39.18-0.7c7.29-0.35,14.57-0.97,21.78-2.07
						c0.4-0.06,0.23-0.66-0.16-0.6c-12.95,1.97-26.07,2.36-39.15,2.51c-13.04,0.15-26.1,0.05-39.12,1.03
						c-7.26,0.55-14.49,1.45-21.62,2.89C231.39,365.11,231.56,365.72,231.95,365.64L231.95,365.64z"/>
				</g>
			</g>
			<g>
				<g>
					<path d="M326.33,366.21c-12.62,0.69-25.25,1.39-37.87,2.1c-12.62,0.71-25.25,1.42-37.87,2.14c-7.14,0.41-14.28,0.82-21.43,1.23
						c-0.4,0.02-0.41,0.65,0,0.62c12.62-0.73,25.25-1.45,37.87-2.17c12.62-0.71,25.25-1.42,37.87-2.12
						c7.14-0.4,14.29-0.79,21.43-1.18C326.73,366.81,326.73,366.18,326.33,366.21L326.33,366.21z"/>
				</g>
			</g>
			<g>
				<g>
					<path d="M231.66,378.39c12.6-2.5,25.5-2.08,38.28-1.98c6.43,0.05,12.87,0.02,19.29-0.51c6.36-0.52,12.67-1.51,18.98-2.41
						c7.2-1.03,14.44-1.95,21.73-1.95c0.4,0,0.41-0.62,0-0.62c-12.97,0-25.68,2.91-38.54,4.17c-12.83,1.25-25.73,0.41-38.59,0.67
						c-7.14,0.14-14.29,0.65-21.31,2.04C231.1,377.86,231.27,378.47,231.66,378.39L231.66,378.39z"/>
				</g>
			</g>
			<g>
				<g>
					<path d="M322.1,380.01c-11.81-0.38-23.63-0.46-35.44-0.23c-11.77,0.23-23.53,0.75-35.28,1.58c-6.63,0.47-13.26,1.03-19.87,1.69
						c-0.4,0.04-0.4,0.66,0,0.62c11.75-1.17,23.54-2.04,35.34-2.61c11.76-0.56,23.53-0.83,35.31-0.79
						c6.65,0.02,13.3,0.14,19.95,0.36C322.5,380.65,322.51,380.03,322.1,380.01L322.1,380.01z"/>
				</g>
			</g>
			<g>
				<g>
					<path d="M240.26,388.86c11.72-1.16,23.48-1.89,35.25-2.18c11.81-0.29,23.64-0.15,35.44,0.43c6.62,0.32,13.23,0.79,19.83,1.39
						c0.4,0.04,0.4-0.59,0-0.62c-11.73-1.06-23.49-1.7-35.26-1.89c-11.81-0.2-23.64,0.04-35.43,0.71
						c-6.62,0.38-13.23,0.89-19.82,1.55C239.87,388.27,239.86,388.9,240.26,388.86L240.26,388.86z"/>
				</g>
			</g>
			<g>
				<g>
					<path d="M325.42,393.77c-12.32-0.86-24.67-1.13-37.02-0.79c-6.15,0.17-12.3,0.48-18.43,0.94c-6.16,0.46-12.29,1.17-18.44,1.75
						c-6.84,0.64-13.74,1.01-20.57,0.1c-0.4-0.05-0.4,0.57,0,0.62c6.09,0.82,12.25,0.62,18.36,0.1c6.11-0.51,12.19-1.26,18.3-1.76
						c12.31-1,24.66-1.41,37-1.22c6.94,0.11,13.87,0.4,20.79,0.89C325.81,394.43,325.82,393.8,325.42,393.77L325.42,393.77z"/>
				</g>
			</g>
			<g>
				<g>
					<path d="M429.52,428.02c-5.66,3.41-11.62,6.28-17.8,8.62c-6.11,2.31-12.36,4.25-18.4,6.74c-10.85,4.47-21.28,10.27-30.04,18.16
						c-1.25,1.12-2.44,2.29-3.62,3.49c-0.62,0.62-1.25,1.23-2.05,1.61c-0.83,0.39-1.76,0.54-2.65,0.72
						c-3.85,0.77-7.7,1.55-11.54,2.32c-0.39,0.08-0.23,0.68,0.16,0.6c3.44-0.69,6.89-1.38,10.33-2.08c1.53-0.31,3.23-0.47,4.57-1.34
						c1.18-0.76,2.1-1.91,3.1-2.88c4.25-4.14,8.99-7.75,14.01-10.9c5.07-3.18,10.42-5.9,15.91-8.27c6-2.58,12.21-4.59,18.34-6.82
						c6.95-2.53,13.65-5.62,20-9.44C430.18,428.35,429.87,427.81,429.52,428.02L429.52,428.02z"/>
				</g>
			</g>
		</g>
	</g>
</g>
<g id="Blyant">
</g>
<g id="Hovedperson_ked_af_det_gravid">
</g>
<g id="Hovedperson">
</g>
<g id="Hovedperson_ked_af_det_gravid_copy_2">
</g>
<g id="Hovedperson_bagfra">
	<g id="Layer_6">
	</g>
</g>
<g id="Hovedperson_glad_gravid">
</g>
<g id="Hovedperson_glad_ikke_gravid">
</g>
</svg>
