<?xml version="1.0" encoding="utf-8"?>
<!-- Generator: Adobe Adobe Illustrator 24.2.0, SVG Export Plug-In . SVG Version: 6.00 Build 0)  -->
<svg version="1.1" xmlns="http://www.w3.org/2000/svg" xmlns:xlink="http://www.w3.org/1999/xlink" x="0px" y="0px"
	 viewBox="0 0 612 806" style="enable-background:new 0 0 612 806;" xml:space="preserve">
<style type="text/css">
	.st0{stroke:#000000;stroke-width:0.3463;stroke-miterlimit:10;}
	.st1{stroke:#000000;stroke-width:0.2517;stroke-miterlimit:10;}
	.st2{stroke:#000000;stroke-width:0.4427;stroke-miterlimit:10;}
	.st3{fill:none;stroke:#000000;stroke-width:3;stroke-miterlimit:10;}
	.st4{fill:none;stroke:#000000;stroke-width:0.5684;stroke-miterlimit:10;}
	.st5{fill:none;stroke:#000000;stroke-width:0.8309;stroke-miterlimit:10;}
	.st6{fill:none;stroke:#000000;stroke-width:0.5;stroke-miterlimit:10;}
	.st7{fill:#3384BE;}
	.st8{fill:#7FCD31;}
	.st9{fill:#F5D8A3;}
	.st10{fill:#BC1C43;}
	.st11{fill:#F7DD31;}
	.st12{fill:#E2D827;}
	.st13{fill:#F1D8A3;}
	.st14{fill:#3784B7;}
	.st15{fill:#81C934;}
	.st16{fill:#E2D82C;}
	.st17{fill:#BD2042;}
	.st18{stroke:#000000;stroke-width:0.5;stroke-miterlimit:10;}
	.st19{fill:#242424;stroke:#000000;stroke-width:0.5;stroke-miterlimit:10;}
	.st20{fill:#FFFFFF;stroke:#FFFFFF;stroke-width:0.5;stroke-miterlimit:10;}
	.st21{fill:none;stroke:#355DAD;stroke-width:0.5;stroke-miterlimit:10;}
	.st22{opacity:0.2902;fill:#C71E18;}
	.st23{fill:#FFFFFF;stroke:#000000;stroke-miterlimit:10;}
	.st24{fill:#FFFFFF;stroke:#000000;stroke-width:0.3123;stroke-miterlimit:10;}
	.st25{fill:none;stroke:#000000;stroke-width:0.3123;stroke-miterlimit:10;}
	.st26{fill:#FFFFFF;stroke:#000000;stroke-width:0.3057;stroke-miterlimit:10;}
	.st27{fill:#E35F15;}
	.st28{fill:#FFFFFF;stroke:#000000;stroke-width:1.1718;stroke-miterlimit:10;}
	.st29{fill:#FFFFFF;stroke:#000000;stroke-width:1.0319;stroke-miterlimit:10;}
	.st30{fill:none;stroke:#000000;stroke-width:1.0319;stroke-miterlimit:10;}
	.st31{fill:#E22B31;}
	.st32{fill:#367AB9;}
	.st33{fill:#FFFFFF;stroke:#000000;stroke-width:0.9847;stroke-miterlimit:10;}
	.st34{fill:#FFFFFF;stroke:#000000;stroke-width:1.1538;stroke-miterlimit:10;}
	.st35{fill:#FFFFFF;stroke:#000000;stroke-width:1.0161;stroke-miterlimit:10;}
	.st36{fill:none;stroke:#000000;stroke-width:1.0161;stroke-miterlimit:10;}
	.st37{fill:#F3DD31;}
	.st38{fill:#81CA34;}
	.st39{fill:#BD2342;}
	.st40{fill:none;stroke:#000000;stroke-width:0.5068;stroke-miterlimit:10;}
	.st41{fill:#FFFFFF;stroke:#000000;stroke-width:0.5;stroke-miterlimit:10;}
	.st42{fill:none;stroke:#000000;stroke-width:0.499;stroke-miterlimit:10;}
	.st43{fill:#BD2242;}
	.st44{fill:none;stroke:#000000;stroke-width:0.496;stroke-miterlimit:10;}
	.st45{fill:none;stroke:#F3DD31;stroke-miterlimit:10;}
</style>
<g id="Skyggepersoner">
</g>
<g id="Ur">
</g>
<g id="Sut">
</g>
<g id="Baby">
</g>
<g id="Papir">
</g>
<g id="Blyant">
	<g>
		<path class="st27" d="M370.09,407.45c-1.39-0.33-2.87,0.3-4.26,0.45c-0.77,0.18-1.54,0.38-2.31,0.58
			c-2.85,0.27-8.24,1.88-13.26,3.6c-0.13-0.09-0.28-0.14-0.43-0.14c-2.79,0.26-5.53,0.84-8.23,1.55c-0.37-0.26-0.96-0.24-1.39-0.08
			c-1.22,0.25-2.42,0.57-3.61,0.94c-4.46,1.38-8.83,3.04-13.21,4.65c-1.34,0.51-2.68,1.02-4.02,1.53c-2.86,0.74-5.7,1.59-8.53,2.44
			c-2.85,0.91-5.67,1.9-8.48,2.94c-0.64,0.32-2.32,0.78-3.33,1.44c-2.07,0.51-4.04,1.36-6.09,1.97c-0.49,0.19-1.02,0.29-1.51,0.46
			c-0.06,0.01-0.12,0.03-0.19,0.05c0,0.01,0.01,0.02,0.01,0.03c-0.09,0.03-0.18,0.07-0.26,0.11c-0.15,0.1-0.24,0.26-0.27,0.43
			c-1.05,0.29-2.1,0.57-3.15,0.85c-0.75,0.27-1.62,0.26-2.28,0.7c-0.18,0.18-0.23,0.4-0.2,0.6c-0.53,0.19-1.07,0.38-1.6,0.58
			c-0.06,0.03-0.14,0.05-0.2,0.08c-0.03,0.01-0.07,0.02-0.1,0.03c-0.15,0.03-0.29,0.07-0.44,0.1c0.01,0.01,0.01,0.03,0.02,0.04
			c-0.09,0.03-0.18,0.06-0.27,0.09c-0.02,0.01-0.02,0.03-0.04,0.04c-0.62,0.2-1.24,0.41-1.68,0.85c-0.41,0.76,0.5,1.34,1.2,1.25
			c0.5-0.09,1-0.19,1.5-0.31c-0.31,0.15-0.62,0.3-0.91,0.46c0.27-0.12,0.54-0.25,0.82-0.35c0.33-0.12,0.67-0.23,1.01-0.35
			c1.22-0.32,2.42-0.7,3.62-1.1c0.07,0.05,0.14,0.11,0.22,0.13c0.68-0.02,1.35-0.23,2.02-0.45c0.06,0.08,0.12,0.15,0.21,0.19
			c0.37,0.2,0.76,0.04,1.14-0.08c-0.17,0.34-0.19,0.74,0.1,1.05c0.3,0.31,0.72,0.2,1.1,0.14c0.87-0.18,1.74-0.39,2.6-0.6
			c0.44-0.11,0.88-0.24,1.32-0.35c-0.48,0.21-0.95,0.44-1.41,0.7c-0.31,0.17-0.62,0.41-0.62,0.8c-0.01,0.48,0.49,0.87,0.95,0.73
			c1.04-0.33,2.06-0.7,3.08-1.06c2.08-0.66,4.15-1.33,6.23-2c0.14-0.04,0.28-0.06,0.42-0.1c0.27-0.07,0.53-0.15,0.79-0.23
			c0.01,0,0.02,0.02,0.03,0.02c0.12-0.04,0.25-0.09,0.37-0.13c5.08-1.24,10.07-3.13,15.15-4.48c1.29-0.37,2.59-0.73,3.88-1.1
			c-0.08,0.09-0.15,0.19-0.18,0.31c-0.2,1.31,1.33,0.99,2.13,0.8c1.6-0.28,3.17-0.72,4.74-1.16c4.42-1.31,8.83-2.64,13.21-4.07
			c3.26-1.07,6.53-2.13,9.7-3.45c0.51-0.28,1.03-0.62,1.42-1.05c1.47-0.44,2.93-0.87,4.4-1.31c1.16-0.35,2.31-0.74,3.44-1.15
			c0.76-0.19,1.83-0.63,1.57-1.59c-0.09-0.32-0.4-0.57-0.74-0.56c-0.13,0-0.25,0.02-0.38,0.02c0.3-0.13,0.58-0.28,0.79-0.54
			c0.14-0.17,0.26-0.4,0.32-0.63c1.69-0.71,2.85-1.55,2.12-2.48c-0.11-0.06-0.23-0.09-0.34-0.13c0.74-0.34,1.46-0.7,2.17-1.09
			C370.45,408.69,370.72,407.81,370.09,407.45z M339.99,419.33c-3.24,0.85-6.45,1.84-9.68,2.74c0.28-0.13,0.56-0.26,0.84-0.39
			c2.97-0.9,5.96-1.76,8.94-2.64c-0.04,0.06-0.08,0.11-0.1,0.18C339.99,419.26,340,419.29,339.99,419.33z M336.61,420.82
			c0.88-0.31,1.76-0.62,2.64-0.92c-0.05,0.1-0.07,0.21-0.06,0.31C338.33,420.4,337.47,420.61,336.61,420.82z M333.67,417.77
			c-2.5,0.7-4.98,1.44-7.46,2.21c0-0.07-0.02-0.14-0.04-0.22c0.3-0.1,0.59-0.18,0.87-0.22c3.16-0.88,6.3-1.83,9.42-2.85
			C335.52,417.04,334.6,417.4,333.67,417.77z M320.41,425.67c-1.24,0.3-2.48,0.63-3.71,0.95c0.32-0.25,0.32-0.65,0.13-0.95
			c0.22-0.08,0.45-0.15,0.67-0.23c0.22,0.04,0.48,0.02,0.76-0.09c2.59-0.54,5.12-1.28,7.65-2.04c-0.07,0.15-0.1,0.31-0.02,0.51
			c0.02,0.06,0.05,0.1,0.09,0.15c-1.79,0.54-3.57,1.09-5.35,1.66C320.56,425.63,320.48,425.65,320.41,425.67z M355.38,417.31
			c-0.58,0.04-1.15,0.09-1.73,0.15c0.52-0.15,1.04-0.3,1.56-0.45c1.22-0.27,2.43-0.51,3.62-0.73
			C357.68,416.63,356.53,416.97,355.38,417.31z"/>
		<path class="st27" d="M330.73,425.68c-0.72-0.01-1.44,0.04-2.16,0.14c0.57-0.22,1.14-0.42,1.55-0.98c0.65-1.79-1.32-1.38-2.4-1.15
			c-2.42,0.57-4.8,1.31-7.13,2.17c-0.88,0.22-1.73,0.64-2.58,0.94c-1.33,0.56-2.69,1.11-4.03,1.68c-1.29,0.38-2.91,0.91-4.32,1.5
			c-2,0.36-3.95,0.92-5.92,1.42c-1.07,0.25-2.15,0.5-3.23,0.75c-0.33-0.2-0.82-0.24-1.2-0.07c-0.38,0.13-0.77,0.25-1.15,0.38
			c-0.23,0.05-0.46,0.1-0.68,0.16c0.01-0.05,0.01-0.1,0.02-0.15c0.98-0.42,1.92-0.85,2.8-1.31c0.93-0.17,0.95-1.67-0.06-1.69
			c-0.64,0.07-1.27,0.18-1.91,0.3c0.19-0.26,0.21-0.65-0.01-0.9c-0.16-0.24-0.51-0.35-0.79-0.27c-0.58,0.08-1.15,0.21-1.72,0.35
			c-0.07-0.68-0.65-0.72-1.27-0.58c-0.6-0.32-1.6,0.32-2.26,0.41c-0.79,0.22-1.56,0.47-2.33,0.74c-1.87,0.41-3.68,1.02-5.51,1.59
			c-1.57,0.43-3.13,0.87-4.68,1.35c-0.72,0.23-1.78,0.26-2.12,1.03c-0.03,0.15-0.02,0.28,0.01,0.39c-0.23,0.11-0.4,0.33-0.46,0.58
			c-0.56,0.13-1.17,0.2-1.51,0.68c-0.32,0.55,0.21,1.27,0.83,1.08c0.05-0.01,0.1-0.03,0.14-0.04c0.14,0.63,1.28,0.73,1.93,0.58
			c0.63-0.14,1.26-0.3,1.88-0.47c0.02,0.01,0.04,0.02,0.06,0.02c-0.1,0.05-0.2,0.1-0.28,0.14c-0.04,0.02-0.1,0.04-0.12,0.05
			c-0.21,0.08-0.45,0.14-0.58,0.35c-0.17,0.19-0.19,0.45-0.11,0.68c-0.01,0.01-0.02,0.02-0.03,0.04c-0.08,0.25-0.06,0.44,0.02,0.6
			c-0.05,0.37,0.18,0.74,0.54,0.84c-0.53,0.31-1.23,0.49-1.53,1.03c-0.23,0.67,0.22,0.98,0.76,1.03c-0.51,0.12-1.02,0.57-0.76,1.13
			c0.35,1.02,1.93-0.04,2.16-0.08c0.3-0.11,0.62-0.24,0.95-0.37c0.34-0.02,0.68-0.13,1.02-0.26c1.47-0.44,2.92-0.97,4.34-1.58
			c0.13,0.06,0.27,0.09,0.4,0.1c0.86-0.22,1.71-0.49,2.56-0.79c0.52,0.2,1.3-0.26,1.83-0.39c1.46-0.52,2.91-1.06,4.36-1.59
			c0.23,0.01,0.47-0.02,0.72-0.11c1-0.3,2.04-0.47,3.02-0.83c0.76-0.28,1.54-0.53,2.31-0.81c0.17,0.24,0.48,0.4,0.8,0.3
			c0.61-0.17,1.22-0.38,1.82-0.59c0.15-0.05,0.3-0.09,0.45-0.15c1.44-0.51,2.89-0.96,4.36-1.4c2-0.5,4.28-1.12,5.81-1.79
			c0.1,0.11,0.25,0.19,0.44,0.22c1.07-0.12,2.11-0.58,3.15-0.86c3.7-1.25,7.44-2.4,11.09-3.78c0.39-0.19,0.9-0.31,1.08-0.74
			C331.31,426.31,331.11,425.81,330.73,425.68z"/>
		<path class="st27" d="M378.52,412.29c-0.29-0.28-0.7-0.34-1.08-0.44c0.01-0.21-0.06-0.44-0.22-0.59
			c-0.11-0.09-0.23-0.18-0.36-0.26c-0.05-0.12-0.1-0.23-0.2-0.33c-0.65-0.7-1.27-1.53-2.11-1.99c-0.58-0.17-1.1,0.39-0.93,0.96
			c0,0,0,0,0,0c-0.13-0.05-0.28-0.09-0.44-0.1c-0.31,0.02-0.52,0.12-0.65,0.27c-0.17-0.1-0.38-0.13-0.57-0.08
			c-0.55,0.08-1.08,0.26-1.6,0.45c-0.3,0.09-0.61,0.18-0.86,0.27c-0.78,0.27-1.58,0.5-2.31,0.87c-0.08,0.05-0.16,0.1-0.23,0.16
			c-0.49,0.19-0.91,0.36-1.09,0.44c-0.42,0.23-1.12,0.35-1.45,0.72c-1.12,0.29-2.23,0.59-3.33,0.93c-1.93,0.61-3.89,1.14-5.75,1.95
			c-0.13,0.07-0.27,0.13-0.42,0.19c-2.02,0.65-4.05,1.3-6.07,1.97c-0.41,0.22-0.33,0.9,0.13,1.01c0.13-0.01,0.26-0.04,0.39-0.05
			c0.01,0,0.02,0.01,0.03,0.01c0.01,0,0.03-0.01,0.04-0.02c0.35-0.05,0.7-0.11,1.04-0.19c-0.02,0.17,0.03,0.35,0.18,0.56
			c0.38,0.4,0.91,0.21,1.39,0.15c1.46-0.25,2.87-0.68,4.28-1.13c0.06,0.08,0.13,0.16,0.23,0.21c0.19,0.07,0.39,0.08,0.59,0.07
			c0,0,0,0,0,0.01c0.01,0,0.01,0,0.02-0.01c0.62-0.04,1.26-0.37,1.86-0.45c0.82-0.2,1.64-0.44,2.44-0.69
			c0.53,0.19,1.36-0.09,1.89-0.14c0.37-0.09,0.74-0.2,1.11-0.29c1.58-0.32,3.66-0.81,5.3-1.4c0.32-0.08,0.64-0.17,0.96-0.25
			c0.42-0.15,0.97-0.26,1.45-0.45c0.43-0.08,0.86-0.26,1.25-0.39c0.24-0.13,0.52-0.23,0.78-0.36c0.18-0.04,0.35-0.11,0.52-0.19
			c0.01-0.01,0.03-0.01,0.05-0.02c0.32-0.12,0.17-0.05,0.64-0.12c0.36-0.11,0.8-0.06,1.11-0.3c0.16-0.11,0.23-0.28,0.26-0.46
			c0.44-0.17,0.87,0.13,1.32,0.09C378.41,412.91,378.81,412.59,378.52,412.29z"/>
		<path class="st27" d="M371.09,407.13c1.23-0.42,2.83-1.01,1.6-1.97c-0.79-0.14-1.75,0.41-2.61,0.77c-0.01,0-0.01,0-0.02,0
			c-0.27-0.11-0.61-0.1-0.89-0.04c-0.18,0.02-0.37,0.05-0.55,0.08c-0.19,0-0.39,0.02-0.62,0.09c-1.52,0.17-3.7,0.58-5.65,1.26
			c-0.6,0.25-2.23,0.58-2.94,1.2c-0.11-0.01-0.22,0-0.34,0.02c-0.08-0.02-0.16-0.02-0.25,0c-0.28,0.06-0.56,0.14-0.84,0.22
			c-1.98,0.41-3.92,0.97-5.88,1.49c-0.42,0.12-0.96,0.07-1.21,0.5c-0.12,0.2-0.12,0.44-0.04,0.64c-0.01,0-0.03,0.01-0.04,0.01
			c-0.06,0.02-0.12,0.03-0.18,0.05c-1.23,0.29-2.44,0.63-3.67,0.89c-0.24,0.04-0.46,0.2-0.58,0.41c-0.09,0.29-0.09,0.51-0.03,0.68
			c-0.02,0.09-0.02,0.19,0.01,0.29c-1.44,0.48-2.89,0.93-4.35,1.37c-0.05-0.02-0.09-0.05-0.15-0.07c-1.09,0.19-2.14,0.54-3.18,0.93
			c-0.32-0.05-0.68-0.01-0.95,0.1c-0.94,0.33-1.88,0.63-2.83,0.92c-0.02-0.01-0.03-0.03-0.04-0.03c-0.98-0.35-2.05,0.34-3.02,0.52
			c-2.25,0.82-4.54,1.54-6.84,2.19c-0.95,0.3-1.88,0.69-2.83,0.98c0.01,0.01,0.01,0.03,0.02,0.05c-0.09,0.03-0.19,0.06-0.28,0.09
			c-0.27,0.18-0.34,0.51-0.27,0.8c-0.22,0.08-0.45,0.16-0.67,0.24c-0.53,0.13-0.7,0.79-0.45,1.22c-2.72,0.92-5.44,1.83-8.14,2.81
			c-0.48,0.2-1.05,0.15-1.48,0.44c-0.43,0.29-0.38,1.02,0.08,1.27c0.19,0.05,0.39,0.06,0.59,0.05c0,0.01,0,0.02,0,0.02
			c0.04-0.01,0.08-0.02,0.11-0.03c0.23-0.01,0.46-0.05,0.69-0.1c0.02,0.09,0.04,0.18,0.09,0.26c0.17,0.3,0.54,0.45,0.87,0.35
			c0.82-0.09,1.63-0.24,2.44-0.43c0.11-0.03,0.22-0.06,0.33-0.08c0.12,0.12,0.27,0.21,0.44,0.24c1.11,0.18,2.21-0.46,3.28-0.68
			c3.59-1.13,7.18-2.28,10.76-3.42c0.99-0.29,1.98-0.57,2.97-0.88c0.54-0.13,0.8-0.8,0.5-1.25c4.81-1.47,9.67-2.82,14.53-4.11
			c-0.35,0.31-0.45,0.82-0.07,1.18c0.06,0.4,0.45,0.74,0.88,0.66c0.03,0,0.06-0.01,0.08-0.02c0,0,0,0,0,0c0.01,0,0.01,0,0.02-0.01
			c1.08-0.19,2.15-0.45,3.21-0.74c0,0.03-0.02,0.06-0.02,0.1c0.01,0.14,0.08,0.27,0.16,0.38c-0.2,0.34-0.15,0.81,0.23,1.01
			c1.16,0.25,2.4-0.47,3.56-0.65c1-0.29,2.06-0.57,3.04-0.98c1.03-0.3,2.12-0.52,2.92-1.25c0.36-0.37,0.46-1.11,0.01-1.44
			c-0.41-0.37-1.31-0.11-1.46-0.12c-0.29,0.04-0.57,0.1-0.86,0.16c0.32-0.43,0.24-1.08-0.34-1.24c0.55-0.5,0.63-0.97-0.05-1.36
			c-0.96-0.18-1.95,0.37-2.91,0.5c-4.06,0.89-8.04,2.11-12.04,3.24c-3.33,0.93-6.67,1.84-10,2.8c0.58-0.28,1.38-0.46,1.7-1
			c1.58-0.53,3.16-1.09,4.7-1.74c0.18-0.06,0.36-0.17,0.53-0.29c1.2-0.37,2.4-0.73,3.6-1.08c1.54-0.45,3.06-1,4.56-1.59
			c0.43-0.22,0.93-0.3,1.24-0.7c1.35-0.37,2.7-0.73,4.05-1.1c0.4-0.13,0.92-0.29,0.96-0.77c0-0.01,0-0.01,0-0.02
			c0.3-0.09,0.6-0.19,0.89-0.28c0.18,0.05,0.39,0.04,0.57,0c0.74-0.09,1.47-0.24,2.19-0.4c0.11,0.07,0.23,0.12,0.39,0.12
			c0.58-0.08,1.16-0.2,1.74-0.33c0.03,0,0.07,0,0.1-0.01c0,0.01,0,0.02,0,0.03c0.03-0.01,0.06-0.02,0.08-0.04
			c0.25-0.03,0.5-0.11,0.76-0.21c0.04,0.01,0.06,0.03,0.1,0.05c1.91-0.42,3.75-1.21,5.57-1.93c0.68-0.25,1.36-0.58,2.07-0.73
			c-0.01,0.03-0.03,0.06-0.06,0.09c-0.51,0.56-1.02,1.13-1.37,1.81c-0.03,0.06-0.06,0.18,0.02,0.21c0.03-0.64,1.02-1.36,1.46-1.84
			c0.31-0.36,0.25-0.49,0.01-0.51C370.91,407.34,371.01,407.25,371.09,407.13z"/>
		<path class="st27" d="M376.14,405.29c0.22-0.34,0.35-0.84,0.05-1.17c-0.21-0.28-0.5-0.36-0.78-0.3c-0.24-0.54-1.12-0.71-1.45-0.1
			c-0.13,0.16-0.28,0.34-0.43,0.55c-0.02,0.01-0.04,0.02-0.05,0.03c-0.17-0.02-0.36-0.01-0.56,0.02c-0.43-0.17-0.99,0.1-1.39,0.32
			c-0.13,0.07-0.29,0.16-0.45,0.25c-0.11,0.06-0.24,0.1-0.36,0.14c-0.15,0.04-0.3,0.08-0.45,0.12c-0.03,0.02-0.07,0.03-0.11,0.05
			c-0.06,0.02-0.12,0.05-0.18,0.07c-0.52,0.17-1.3,0.32-1.09,0.88c0.05,0.06,0.11,0.11,0.17,0.15c-0.18,0.11-0.36,0.24-0.5,0.4
			c-0.13,0.13,0.33-0.26,0.42-0.28c0.06-0.03,0.12-0.05,0.19-0.07c0.02,0.01,0.04,0.01,0.06,0.02c0.1,0.25,0.32,0.44,0.61,0.46
			c-1.32,1.62-3.04,3.16-3.73,5.16c-0.01,0.64,0.76,1.07,1.3,0.7c0.32-0.23,0.6-0.5,0.86-0.78c0.09,0.03,0.19,0.06,0.31,0.09
			c0.11,0,0.21-0.03,0.31-0.06c0.16,0.01,0.33-0.01,0.47-0.09c0.08-0.06,0.15-0.12,0.22-0.18c0.4,0.06,0.89-0.15,1.23-0.61
			c0.01-0.01,0.02-0.02,0.03-0.04c0,0,0,0,0,0c0.43,0.01,0.71-0.36,1.02-0.6c0.08-0.09,0.15-0.18,0.22-0.26
			c0.18,0.2,0.45,0.31,0.72,0.26c0.35,0.08,0.75-0.07,0.92-0.39c0.23-0.36,0.35-0.77,0.46-1.18c0.11-0.21,0.23-0.43,0.36-0.67
			c0.13-0.24,0.27-0.47,0.42-0.68c0.2-0.38,0.56-0.75,0.44-1.2c0.01-0.03,0.03-0.05,0.05-0.08
			C375.69,405.91,375.94,405.62,376.14,405.29z"/>
		<path class="st27" d="M300.41,426.68c-0.48-0.64-1.76-0.07-2.47,0.08c-0.29,0.09-0.59,0.18-0.89,0.26
			c-0.72,0.07-1.46,0.34-2.15,0.58c-2.9,0.74-5.72,1.85-8.57,2.76c-2.81,1.05-6.2,2.27-8.98,2.46c-0.08,0.02-0.13,0.04-0.19,0.06
			c-0.49,0.09-0.99,0.28-1.42,0.41c-0.18,0.05-0.38,0.12-0.56,0.2c-0.17,0.05-0.34,0.11-0.5,0.2c-0.29,0.03-0.5,0.14-0.64,0.32
			c-0.22,0.13-0.39,0.32-0.45,0.58c-0.03,0.55,0.04,0.78,0.13,0.99c0,0.06,0,0.12,0.01,0.18c-0.03,0.57,0.1,1.32,0.54,1.66
			c0.09,0.76,0.25,1.57,0.68,2.05c0.05,0.19,0.12,0.37,0.2,0.55c-0.05,0.72,0.04,2.01,0.51,2.63c0,0.03,0.01,0.05,0.02,0.08
			c-0.26,0.64,0.21,1.5,0.98,1.47c0.05-0.01,0.1-0.02,0.15-0.03c0.33,0.01,0.67-0.09,0.99-0.17c0.58-0.22,1.26-0.26,1.74-0.67
			c0.03-0.04,0.05-0.07,0.07-0.11c0.09-0.11,0.16-0.24,0.2-0.38c0.47-0.49,0.36-1.34-0.23-1.68c0.04-0.16,0.09-0.31,0.13-0.47
			c0.18-0.1,0.35-0.2,0.52-0.31c0.08,0.45,0.42,0.86,0.91,0.97c0.47,0.1,0.92-0.03,1.36-0.19c0.06,0.65,0.77,1.23,1.63,0.83
			c0.46-0.17,0.9-0.34,1.34-0.5c0.24,0.06,0.5,0.04,0.72-0.07c-0.06,0.03-0.09,0.04,0.06-0.02c0.39-0.15,0.79-0.26,1.18-0.41
			c0.47-0.15,1.06-0.21,1.39-0.57c0.23-0.13,0.4-0.29,0.5-0.48c1.39-0.58,2.78-1.14,4.31-1.7c0.36,0.08,0.75-0.1,1.13-0.24
			c0.41,0.05,0.8-0.14,1.18-0.3c0.03-0.01,0.07-0.02,0.1-0.03c0.3-0.06,0.59-0.14,0.74-0.29c0.01-0.02,0.02-0.04,0.03-0.06
			c0.45-0.13,0.89-0.28,1.29-0.52c0.81-0.57,0.12-1.59-0.77-1.32c-1.34,0.14-2.29,0.55-3.22,0.85c-1.98,0.46-3.64,1.05-5.25,1.67
			c-0.14-0.19-0.33-0.34-0.56-0.4c-0.48-0.08-1.17,0.08-2.04,0.28c0.55-0.74,0.56-1.95-0.47-2.23c-1.35-0.23-2.52,0.22-3.63,0.88
			c0.34-0.4,0.65-0.82,0.86-1.32c0.2-0.63-0.37-1.21-0.96-1.2c3.13-0.92,6.29-2.34,9.92-3.47c0.51-0.19,1.36-0.45,2.16-0.7
			c0.17,0.02,0.35,0.01,0.53-0.04c0.69-0.04,1.35-0.39,2.01-0.58c0.48-0.23,1.04-0.3,1.5-0.57c0.58-0.19,1.15-0.42,1.72-0.64
			c0.17-0.04,0.33-0.14,0.46-0.26c0.12-0.05,0.22-0.13,0.28-0.24C300.82,427.21,300.68,426.84,300.41,426.68z M280.23,435.39
			c-0.12-0.33-0.29-0.62-0.53-0.8c0.64-0.12,1.27-0.28,1.9-0.45C281.1,434.5,280.65,434.93,280.23,435.39z"/>
	</g>
	<g>
		<line class="st23" x1="272.76" y1="434.51" x2="377.19" y2="403"/>
		<line class="st23" x1="273.89" y1="434.37" x2="276.07" y2="443.78"/>
		<line class="st23" x1="276.61" y1="443.79" x2="379.9" y2="412.29"/>
		<line class="st28" x1="376.25" y1="403.35" x2="373.68" y2="409.41"/>
		<line class="st23" x1="373.78" y1="409.22" x2="380.12" y2="412.57"/>
		<path class="st23" d="M376.32,403.66c1.17-0.49,2.36-0.94,3.56-1.37c0.18,0.12,0.99,0.22,1.33,0.26c0.67,0.07,1.38,0.17,2.05,0.19
			c0.71,0.02,1.32,0.11,2.02,0.19c0.69,0.07,1.29,0.39,1.98,0.52c1.32,0.25,2.78,0.2,4.11,0.19c1.23-0.01,2.66-0.23,3.79,0
			c-0.82,0.79-2.23,0.83-3.19,1.33c-0.66,0.34-1.34,0.78-1.98,1.13c-0.85,0.46-1.53,1.09-2.29,1.65c-1.19,0.87-2.5,1.58-3.79,2.41
			c-0.75,0.48-1.55,0.83-2.39,1.16c-0.57,0.22-1.14,0.68-1.75,0.76"/>
		<path class="st23" d="M388.67,403.26c-0.38,0.96-0.62,1.95-0.71,2.97c0.33-0.09,1,0.31,1.18,0.59c0.19-0.17,0.44-0.28,0.68-0.27"
			/>
		<line class="st29" x1="274.98" y1="439.07" x2="373.78" y2="409.22"/>
		<path class="st30" d="M274.06,433.89c-1.2,0.35-2.38,0.74-3.55,1.17c-0.1,0.15-1.56,0.57-2.03,0.74
			c-0.61,0.21-1.08,0.36-1.51,0.93c-0.26,0.35-0.46,0.81-0.65,1.2c-0.27,0.54-0.12,0.88-0.17,1.38c-0.09,1.02-0.25,1.75,0.42,2.67
			c0.38,0.53,0.94,0.76,1.41,1.23c0.32,0.32,0.7,0.66,1.11,0.89c0.81,0.46,1.88,0.56,2.78,0.59c1.63,0.05,3.4-0.83,5.01-1.16
			c-0.13-0.06-0.12-0.11,0.06-0.16"/>
		<path class="st30" d="M271.74,434.86c0.59,2.21,0.95,4.12,1.35,6.23c0.11,0.57,0.4,2.56,1.01,2.7"/>
		<g>
			<g>
				<path d="M390.09,405.11c0-0.19,0-0.38-0.01-0.57c0-0.13-0.05-0.26-0.14-0.35c-0.05-0.05-0.1-0.08-0.16-0.1
					c-0.06-0.03-0.12-0.05-0.19-0.04c-0.13,0.01-0.26,0.05-0.35,0.14c-0.03,0.03-0.05,0.07-0.08,0.1c-0.05,0.08-0.07,0.16-0.07,0.25
					c-0.02,0.2-0.04,0.39-0.06,0.59c0,0.07,0.01,0.13,0.04,0.19c0.02,0.06,0.05,0.12,0.1,0.16c0.05,0.05,0.1,0.08,0.16,0.1
					c0.06,0.03,0.12,0.05,0.19,0.04c0.13-0.01,0.26-0.05,0.35-0.14c0.03-0.03,0.05-0.07,0.08-0.1c0.05-0.08,0.07-0.16,0.07-0.25
					c0.02-0.2,0.04-0.39,0.06-0.59c-0.33,0-0.67,0-1-0.01c0,0.19,0,0.38,0.01,0.57c0,0.13,0.05,0.26,0.14,0.35
					c0.05,0.05,0.1,0.08,0.16,0.1c0.06,0.03,0.12,0.05,0.19,0.04c0.13-0.01,0.26-0.05,0.35-0.14
					C390.03,405.37,390.09,405.24,390.09,405.11L390.09,405.11z"/>
			</g>
		</g>
		<g>
			<g>
				<path d="M389.25,404.41c-0.06,0.01-0.13,0.03-0.19,0.04c-0.16,0.04-0.31,0.18-0.35,0.35c-0.06,0.25-0.04,0.51,0.15,0.7
					c0.2,0.21,0.5,0.3,0.77,0.17c0.48-0.23,0.56-0.74,0.36-1.19c-0.14-0.31-0.57-0.3-0.78-0.11c-0.37,0.34-0.54,1.21-0.02,1.51
					c0.39,0.23,0.88,0.05,1.03-0.37c0.25-0.72-0.39-1.5-1.14-1.29c-0.28,0.08-0.4,0.34-0.35,0.61c0.08,0.44,0.57,0.64,0.95,0.43
					c0.32-0.18,0.54-0.58,0.45-0.95c-0.1-0.41-0.51-0.66-0.92-0.55c-0.47,0.13-0.63,0.68-0.39,1.08c0.14,0.22,0.45,0.33,0.68,0.18
					c0.25-0.16,0.42-0.4,0.39-0.71c-0.03-0.37-0.4-0.63-0.75-0.44c-0.45,0.25-0.89,0.75-0.78,1.3c0.13,0.62,0.84,1,1.34,0.52
					c0.25-0.24,0.17-0.78-0.22-0.84c-0.49-0.08-0.96,0.2-0.97,0.73c-0.01,0.46,0.39,0.86,0.86,0.82c0.24-0.02,0.4-0.14,0.48-0.36
					c0.14-0.35,0.08-0.69-0.17-0.97c-0.28-0.31-0.88-0.08-0.86,0.35c0.04,0.88,1.06,0.93,1.59,0.44c0.26-0.24,0.41-0.66,0.26-1
					c-0.12-0.27-0.48-0.41-0.76-0.34c-0.28,0.07-0.43,0.29-0.51,0.55c-0.05,0.16,0,0.37,0.13,0.49c0.48,0.46,1.1,0.01,1.49-0.34
					c0.23-0.21,0.42-0.43,0.33-0.77c-0.07-0.28-0.3-0.5-0.57-0.59c-0.6-0.18-1.21,0.33-1.02,0.96c0.13,0.41,0.65,0.53,1.02,0.47
					c0.3-0.05,0.61-0.25,0.74-0.54c0.13-0.31,0.04-0.61-0.29-0.74c-0.44-0.17-0.97-0.04-1.37,0.18c-0.31,0.17-0.34,0.7,0,0.86
					c0.86,0.42,1.96-0.08,2.72-0.52c-0.17-0.29-0.33-0.58-0.5-0.87c-0.25,0.16-0.54,0.26-0.79,0.43c-0.35,0.22-0.32,0.8,0.11,0.91
					c0.59,0.15,1.24,0.06,1.79-0.19c0.39-0.17,0.29-0.83-0.11-0.91c-0.36-0.07-0.66,0.02-1.01,0.07c-0.24,0.03-0.39,0.33-0.36,0.55
					c0.03,0.24,0.24,0.44,0.49,0.44c0.29-0.01,0.55-0.07,0.81-0.19c0.18-0.08,0.35-0.19,0.53-0.26c0.25-0.09,0.43-0.34,0.35-0.61
					c-0.07-0.24-0.36-0.45-0.61-0.35c-0.37,0.13-0.69,0.4-1.07,0.41c0.04,0.33,0.09,0.66,0.13,0.98c0.15-0.02,0.33-0.11,0.48-0.07
					c-0.04-0.3-0.08-0.61-0.11-0.91c0.05-0.02-0.05,0.02-0.06,0.02c-0.05,0.02-0.1,0.03-0.15,0.04c-0.09,0.02-0.17,0.04-0.26,0.05
					c-0.19,0.02-0.4,0.02-0.54-0.02c0.04,0.3,0.08,0.61,0.11,0.91c0.25-0.16,0.54-0.26,0.79-0.43c0.54-0.34,0.06-1.19-0.5-0.87
					c-0.3,0.17-0.59,0.31-0.91,0.42c-0.09,0.03-0.18,0.06-0.27,0.08c-0.05,0.01-0.1,0.02-0.15,0.03c-0.01,0-0.09,0.01-0.04,0.01
					c-0.09,0.01-0.18,0.01-0.27,0.01c0.09,0.01-0.17-0.06-0.07-0.02c0,0.29,0,0.58,0,0.86c0.19-0.1,0.41-0.16,0.6-0.08
					c-0.1-0.25-0.2-0.49-0.29-0.74c0,0.01-0.07,0.13-0.03,0.06c0.02-0.03-0.01,0-0.03,0c-0.01,0-0.03,0-0.04,0
					c0.07,0.05-0.05-0.04-0.06-0.05c0.08,0.1,0.15,0.2,0.23,0.3c-0.02-0.07,0.01-0.02,0,0.01c-0.03,0.08-0.05,0.15-0.12,0.22
					c-0.04,0.05,0.03,0-0.03,0.02c-0.02,0.01-0.15,0.02-0.06,0.02c-0.03,0-0.1-0.02-0.03,0c0.07,0.02,0,0.01-0.02-0.01
					c-0.02-0.01-0.09-0.11-0.07-0.07c0.02,0.04-0.02-0.06-0.02-0.08c0.05-0.12,0.1-0.24,0.15-0.35c-0.11,0.12-0.23,0.23-0.36,0.33
					c0.06-0.05-0.06,0.04-0.06,0.04c-0.04,0.03-0.08,0.05-0.12,0.07c-0.06,0.04,0.01,0.01-0.01,0.01c-0.04,0.01-0.02,0.01,0.05,0
					c0.08,0.01,0.16,0.04,0.22,0.1c0.04,0.16,0.08,0.32,0.13,0.49c-0.11,0.09-0.25,0.14-0.4,0.14c-0.08-0.1-0.15-0.2-0.23-0.3
					c0-0.06,0-0.07,0-0.01c0.01-0.07,0.01-0.07,0-0.02c0.01-0.02,0.01-0.03,0.02-0.05c-0.03,0.05-0.03,0.04,0.01-0.01
					c-0.01,0-0.12,0.1-0.02,0.03c-0.01,0.01-0.14,0.08-0.08,0.05c0.06-0.03-0.07,0.02-0.09,0.02c0.12-0.03-0.01,0-0.01-0.01
					c0-0.01,0.08,0.01,0.1,0.03c0.07,0.06,0.13,0.11,0.14,0.22c-0.29,0.12-0.57,0.23-0.86,0.35c-0.03-0.04-0.04-0.09-0.03-0.14
					c-0.01,0.05-0.03,0.09-0.05,0.14c0.16-0.12,0.32-0.24,0.48-0.36c-0.09,0.01,0.04,0.04,0.09,0.08c-0.04-0.04-0.03-0.03,0.02,0.02
					c0.02,0.04,0.03,0.08,0.03,0.12c0-0.05,0,0.04-0.03,0.06c-0.08,0.09-0.16,0.15-0.28,0.13c-0.07-0.28-0.14-0.56-0.22-0.84
					c0.04-0.04,0.31,0,0.35-0.01c0.01,0-0.01-0.03-0.01-0.02c0,0.08-0.01,0.08,0.03,0.04c0.1-0.1,0.15-0.18,0.28-0.25
					c-0.25-0.15-0.5-0.29-0.75-0.44c0,0.14,0.04,0.08,0.11-0.15c0.23,0.06,0.46,0.12,0.68,0.18c0.2,0.33-0.58,0.6-0.53,0.08
					c0.03-0.05,0.03-0.05,0,0c0.04-0.04,0.04-0.05,0,0c0.03-0.03,0.06-0.04,0.1-0.05c0.35,0.35,0.5,0.42,0.45,0.21
					c-0.12,0.2-0.24,0.41-0.35,0.61c0.06-0.02,0,0-0.04-0.02c0.05,0.02-0.03-0.01-0.05-0.04c0.04,0.06-0.02-0.1,0.02,0.03
					c0.03,0.08-0.01-0.1,0.01,0.03c0.01,0.08,0.02-0.11,0,0.02c-0.01,0.09,0.05-0.12,0,0.01c0.05-0.11,0.11-0.19,0.23-0.22
					c0.06-0.01,0.11-0.01,0.16,0c-0.05-0.01-0.04-0.01,0.03,0.01c0.08,0.1,0.15,0.2,0.23,0.3c-0.03-0.07-0.05-0.12-0.04-0.16
					c0.01-0.05,0-0.03,0.05-0.08c-0.26-0.04-0.52-0.07-0.78-0.11c-0.02-0.04-0.01-0.04,0-0.09c0.01-0.07,0.12-0.14,0.01-0.09
					c0.13-0.02,0.26-0.03,0.39-0.05c0.11,0.06,0.16,0.16,0.16,0.31c-0.12,0.12-0.23,0.23-0.35,0.35c0.06-0.01,0.13-0.03,0.19-0.04
					C390.14,405.23,389.88,404.27,389.25,404.41L389.25,404.41z"/>
			</g>
		</g>
		<g>
			<g>
				<path d="M387.43,406.92c0.01,0.04,0.03,0.09,0.04,0.13c0.02,0.08,0.07,0.16,0.13,0.22c0.05,0.05,0.1,0.08,0.16,0.1
					c0.06,0.03,0.12,0.05,0.19,0.04c0.09,0,0.17-0.02,0.25-0.07c0.11-0.05,0.21-0.12,0.29-0.21c0.05-0.06,0.1-0.12,0.14-0.18
					c0.04-0.07,0.07-0.14,0.1-0.22c0.02-0.09,0.02-0.18,0-0.27c-0.02-0.07-0.04-0.12-0.09-0.17c-0.03-0.05-0.08-0.1-0.14-0.13
					c-0.08-0.05-0.16-0.07-0.25-0.07c-0.09-0.01-0.19,0-0.28,0.04c-0.14,0.05-0.23,0.1-0.34,0.2c0.26,0.2,0.52,0.41,0.78,0.61
					c0.05-0.1,0.11-0.19,0.18-0.27c0.09-0.12,0.16-0.24,0.21-0.39c0.02-0.07,0.02-0.13,0.01-0.2c0-0.07-0.02-0.13-0.06-0.19
					c-0.06-0.1-0.18-0.2-0.3-0.23c-0.13-0.03-0.27-0.02-0.39,0.05c-0.11,0.07-0.19,0.17-0.23,0.3c-0.01,0.02-0.01,0.03-0.02,0.05
					c0.02-0.04,0.03-0.08,0.05-0.12c-0.08,0.18-0.24,0.32-0.32,0.5c-0.04,0.06-0.06,0.12-0.06,0.19c-0.02,0.07-0.01,0.13,0.01,0.2
					c0.02,0.04,0.03,0.08,0.05,0.12c0.03,0.06,0.07,0.11,0.13,0.14c0.03,0.03,0.07,0.05,0.11,0.06c0.06,0.03,0.12,0.05,0.19,0.04
					c0.04-0.01,0.09-0.01,0.13-0.02c0.08-0.02,0.16-0.07,0.22-0.13c0.01-0.01,0.02-0.02,0.03-0.02c-0.03,0.03-0.07,0.05-0.1,0.08
					c0.02-0.02,0.05-0.03,0.07-0.04c-0.04,0.02-0.08,0.03-0.12,0.05c0.03-0.01,0.06-0.02,0.09-0.02c-0.04,0.01-0.09,0.01-0.13,0.02
					c0.02,0,0.05,0,0.07,0c-0.16-0.21-0.32-0.42-0.48-0.64c0,0.01-0.01,0.01-0.01,0.02c0.02-0.04,0.03-0.08,0.05-0.12
					c-0.02,0.04-0.04,0.08-0.07,0.12c0.03-0.03,0.05-0.07,0.08-0.1c-0.03,0.04-0.06,0.07-0.1,0.1c0.03-0.03,0.07-0.05,0.1-0.08
					c-0.04,0.03-0.08,0.05-0.12,0.07c0.24,0.1,0.49,0.2,0.73,0.3c-0.01-0.04-0.03-0.09-0.04-0.13c-0.04-0.12-0.11-0.23-0.23-0.3
					c-0.11-0.06-0.26-0.09-0.39-0.05c-0.12,0.04-0.24,0.11-0.3,0.23C387.42,406.65,387.39,406.79,387.43,406.92L387.43,406.92z"/>
			</g>
		</g>
		<g>
			<g>
				<path d="M377.9,404.82c-0.48,1.83-0.51,4.01,1,5.39c0.47,0.43,1.19-0.27,0.71-0.7c-1.24-1.13-1.14-2.92-0.75-4.41
					C379.03,404.47,378.07,404.2,377.9,404.82L377.9,404.82z"/>
			</g>
		</g>
		<g>
			<g>
				<path d="M381.4,404.65c-0.2,1.18-0.4,2.43,0,3.59c0.09,0.26,0.34,0.43,0.61,0.35c0.25-0.07,0.44-0.36,0.35-0.61
					c-0.34-0.98-0.17-2.05,0-3.06c0.04-0.26-0.06-0.55-0.35-0.62C381.78,404.24,381.45,404.37,381.4,404.65L381.4,404.65z"/>
			</g>
		</g>
		<g>
			<g>
				<path d="M384.71,405.48c0,0.35,0,0.7,0,1.05c0,0.13,0.05,0.26,0.14,0.35c0.09,0.09,0.23,0.15,0.35,0.15
					c0.27-0.01,0.5-0.22,0.5-0.5c0-0.35,0-0.7,0-1.05c0-0.13-0.05-0.26-0.14-0.35c-0.09-0.09-0.23-0.15-0.35-0.15
					C384.94,404.99,384.71,405.2,384.71,405.48L384.71,405.48z"/>
			</g>
		</g>
	</g>
	<g>
		<path class="st31" d="M374.25,420.98c-1.41-0.17-2.81,0.62-4.18,0.93c-0.75,0.26-1.49,0.55-2.23,0.83
			c-2.8,0.59-7.98,2.8-12.77,5.07c-0.14-0.07-0.29-0.11-0.44-0.09c-2.75,0.57-5.4,1.46-8.01,2.47c-0.39-0.21-0.98-0.13-1.39,0.08
			c-1.18,0.39-2.34,0.84-3.48,1.34c-4.28,1.87-8.43,4.01-12.6,6.1c-1.27,0.66-2.55,1.31-3.82,1.98c-2.76,1.06-5.48,2.22-8.2,3.38
			c-2.73,1.22-5.42,2.53-8.1,3.87c-0.6,0.39-2.22,1.03-3.15,1.8c-2,0.74-3.87,1.8-5.83,2.64c-0.46,0.24-0.98,0.4-1.45,0.63
			c-0.06,0.02-0.12,0.05-0.18,0.07c0,0.01,0.01,0.02,0.01,0.02c-0.08,0.04-0.17,0.09-0.25,0.14c-0.14,0.12-0.2,0.28-0.22,0.45
			c-1.01,0.4-2.02,0.8-3.03,1.2c-0.71,0.35-1.59,0.44-2.19,0.95c-0.16,0.2-0.18,0.42-0.13,0.62c-0.51,0.25-1.02,0.5-1.52,0.76
			c-0.06,0.04-0.13,0.07-0.19,0.1c-0.03,0.02-0.07,0.03-0.1,0.05c-0.14,0.05-0.28,0.11-0.42,0.15c0.01,0.01,0.01,0.03,0.02,0.04
			c-0.09,0.04-0.17,0.08-0.26,0.12c-0.01,0.01-0.02,0.03-0.03,0.04c-0.59,0.27-1.18,0.55-1.58,1.03c-0.32,0.8,0.65,1.27,1.33,1.11
			c0.49-0.14,0.98-0.3,1.46-0.48c-0.29,0.19-0.58,0.37-0.85,0.56c0.26-0.15,0.51-0.31,0.78-0.44c0.32-0.16,0.64-0.3,0.96-0.46
			c1.18-0.45,2.33-0.97,3.48-1.5c0.07,0.04,0.15,0.09,0.24,0.1c0.67-0.1,1.31-0.38,1.95-0.67c0.07,0.07,0.14,0.13,0.23,0.17
			c0.39,0.16,0.76-0.05,1.13-0.2c-0.13,0.36-0.1,0.76,0.22,1.03c0.33,0.27,0.74,0.12,1.11,0.02c0.84-0.28,1.68-0.58,2.51-0.89
			c0.43-0.16,0.85-0.33,1.27-0.5c-0.45,0.26-0.9,0.54-1.32,0.85c-0.29,0.2-0.57,0.48-0.52,0.87c0.04,0.48,0.59,0.81,1.03,0.61
			c0.99-0.44,1.96-0.93,2.94-1.4c1.99-0.89,3.98-1.79,5.97-2.69c0.13-0.05,0.27-0.09,0.4-0.15c0.26-0.1,0.51-0.21,0.76-0.32
			c0.01,0,0.02,0.01,0.03,0.01c0.12-0.06,0.23-0.11,0.35-0.17c4.91-1.81,9.66-4.24,14.55-6.15c1.24-0.51,2.49-1.02,3.73-1.53
			c-0.07,0.1-0.13,0.21-0.15,0.33c-0.05,1.33,1.43,0.83,2.21,0.56c1.56-0.46,3.07-1.07,4.58-1.69c4.24-1.8,8.48-3.61,12.67-5.53
			c3.12-1.43,6.25-2.85,9.25-4.52c0.48-0.33,0.95-0.73,1.29-1.2c1.41-0.6,2.81-1.2,4.22-1.79c1.11-0.47,2.21-0.99,3.29-1.53
			c0.73-0.27,1.75-0.83,1.38-1.76c-0.13-0.31-0.46-0.52-0.79-0.47c-0.12,0.02-0.25,0.05-0.37,0.07c0.28-0.16,0.55-0.35,0.73-0.63
			c0.12-0.19,0.21-0.43,0.24-0.66c1.6-0.9,2.65-1.86,1.83-2.7c-0.12-0.05-0.24-0.07-0.36-0.09c0.69-0.42,1.37-0.85,2.03-1.33
			C374.74,422.17,374.92,421.26,374.25,420.98z M345.68,436.16c-3.13,1.2-6.2,2.55-9.31,3.81c0.26-0.16,0.53-0.32,0.79-0.48
			c2.85-1.23,5.73-2.42,8.59-3.63c-0.03,0.06-0.07,0.12-0.08,0.19C345.66,436.09,345.67,436.12,345.68,436.16z M342.49,438.02
			c0.84-0.41,1.68-0.82,2.52-1.22c-0.03,0.11-0.05,0.22-0.03,0.32C344.14,437.42,343.31,437.71,342.49,438.02z M339.22,435.32
			c-2.4,0.98-4.79,1.99-7.16,3.03c-0.01-0.07-0.03-0.14-0.07-0.21c0.28-0.13,0.57-0.24,0.84-0.31c3.04-1.23,6.06-2.53,9.04-3.89
			C340.98,434.38,340.1,434.85,339.22,435.32z M326.93,444.66c-1.2,0.44-2.39,0.9-3.58,1.36c0.29-0.28,0.24-0.69,0.02-0.96
			c0.21-0.1,0.43-0.2,0.64-0.31c0.23,0.02,0.48-0.03,0.74-0.18c2.51-0.83,4.95-1.85,7.37-2.89c-0.06,0.16-0.06,0.32,0.04,0.5
			c0.03,0.05,0.06,0.09,0.1,0.13c-1.72,0.74-3.43,1.49-5.13,2.25C327.07,444.61,327,444.64,326.93,444.66z M360.74,432.43
			c-0.57,0.1-1.14,0.22-1.7,0.35c0.5-0.21,1-0.42,1.5-0.63c1.18-0.41,2.35-0.78,3.51-1.14
			C362.95,431.49,361.84,431.96,360.74,432.43z"/>
		<path class="st31" d="M337.19,443.51c-0.71,0.07-1.42,0.21-2.13,0.38c0.54-0.28,1.08-0.54,1.43-1.15
			c0.44-1.85-1.47-1.22-2.51-0.87c-2.34,0.84-4.62,1.84-6.84,2.96c-0.85,0.31-1.65,0.83-2.45,1.22c-1.26,0.71-2.55,1.41-3.82,2.12
			c-1.24,0.52-2.79,1.23-4.12,1.97c-1.95,0.58-3.83,1.35-5.72,2.08c-1.03,0.37-2.08,0.74-3.13,1.11c-0.35-0.16-0.85-0.15-1.2,0.06
			c-0.37,0.17-0.73,0.34-1.1,0.5c-0.22,0.07-0.44,0.15-0.66,0.24c0-0.05,0-0.1,0-0.15c0.92-0.53,1.81-1.06,2.63-1.62
			c0.9-0.27,0.75-1.77-0.25-1.67c-0.62,0.14-1.25,0.32-1.87,0.52c0.16-0.28,0.14-0.67-0.11-0.89c-0.19-0.22-0.54-0.29-0.81-0.18
			c-0.57,0.15-1.12,0.34-1.67,0.54c-0.15-0.67-0.73-0.64-1.33-0.43c-0.63-0.25-1.55,0.5-2.19,0.66c-0.76,0.3-1.5,0.64-2.23,1
			c-1.81,0.62-3.55,1.42-5.29,2.19c-1.51,0.6-3.01,1.22-4.5,1.87c-0.69,0.31-1.74,0.46-1.99,1.26c-0.01,0.16,0.01,0.28,0.05,0.39
			c-0.22,0.14-0.36,0.38-0.39,0.63c-0.54,0.2-1.14,0.33-1.43,0.84c-0.26,0.58,0.35,1.24,0.95,0.98c0.05-0.02,0.09-0.04,0.14-0.06
			c0.21,0.61,1.35,0.58,1.99,0.36c0.61-0.21,1.21-0.44,1.81-0.68c0.02,0,0.04,0.02,0.07,0.02c-0.1,0.06-0.18,0.12-0.26,0.17
			c-0.04,0.02-0.09,0.05-0.11,0.06c-0.2,0.1-0.43,0.19-0.54,0.41c-0.14,0.21-0.14,0.47-0.04,0.69c-0.01,0.02-0.02,0.02-0.03,0.04
			c-0.05,0.26-0.01,0.45,0.09,0.59c-0.01,0.37,0.26,0.72,0.63,0.78c-0.49,0.37-1.16,0.62-1.41,1.2c-0.15,0.69,0.33,0.95,0.87,0.93
			c-0.49,0.17-0.95,0.68-0.63,1.2c0.46,0.97,1.91-0.26,2.13-0.32c0.28-0.15,0.59-0.31,0.91-0.48c0.34-0.06,0.67-0.2,0.99-0.38
			c1.41-0.61,2.8-1.29,4.14-2.05c0.13,0.04,0.27,0.06,0.41,0.05c0.83-0.31,1.65-0.68,2.46-1.07c0.54,0.14,1.26-0.41,1.77-0.59
			c1.39-0.68,2.77-1.38,4.15-2.07c0.23-0.01,0.47-0.07,0.7-0.19c0.96-0.41,1.97-0.7,2.91-1.16c0.73-0.37,1.47-0.7,2.2-1.06
			c0.2,0.22,0.52,0.34,0.83,0.2c0.59-0.23,1.17-0.51,1.74-0.79c0.14-0.07,0.29-0.13,0.43-0.2c1.37-0.67,2.77-1.28,4.17-1.88
			c1.93-0.72,4.13-1.6,5.57-2.44c0.12,0.1,0.27,0.17,0.47,0.17c1.05-0.24,2.03-0.81,3.04-1.21c3.54-1.65,7.13-3.22,10.6-5.01
			c0.36-0.23,0.86-0.41,0.99-0.86C337.84,444.07,337.57,443.6,337.19,443.51z"/>
		<path class="st31" d="M383.17,424.83c-0.32-0.24-0.74-0.26-1.12-0.32c-0.01-0.21-0.11-0.43-0.28-0.56
			c-0.12-0.08-0.25-0.15-0.39-0.21c-0.06-0.11-0.13-0.22-0.24-0.31c-0.73-0.62-1.43-1.38-2.32-1.74c-0.6-0.1-1.05,0.51-0.82,1.06
			c0,0,0,0,0,0c-0.14-0.03-0.28-0.06-0.45-0.05c-0.3,0.05-0.5,0.18-0.62,0.34c-0.18-0.08-0.4-0.09-0.58-0.01
			c-0.54,0.14-1.04,0.38-1.54,0.63c-0.29,0.12-0.58,0.25-0.83,0.36c-0.74,0.36-1.51,0.67-2.2,1.12c-0.08,0.05-0.15,0.12-0.21,0.19
			c-0.46,0.24-0.86,0.46-1.04,0.56c-0.39,0.27-1.07,0.47-1.35,0.88c-1.08,0.41-2.15,0.84-3.21,1.3c-1.84,0.83-3.73,1.57-5.49,2.58
			c-0.12,0.08-0.26,0.16-0.39,0.24c-1.94,0.87-3.88,1.74-5.81,2.64c-0.38,0.27-0.23,0.93,0.24,0.99c0.13-0.03,0.26-0.06,0.38-0.1
			c0.01,0,0.02,0.01,0.04,0c0.01-0.01,0.03-0.01,0.04-0.02c0.34-0.09,0.68-0.19,1.01-0.3c0,0.17,0.07,0.34,0.24,0.53
			c0.42,0.36,0.93,0.11,1.39-0.01c1.42-0.41,2.78-1,4.12-1.61c0.07,0.08,0.15,0.14,0.25,0.19c0.2,0.04,0.39,0.04,0.59,0
			c0,0,0,0,0,0.01c0.01,0,0.01-0.01,0.02-0.01c0.61-0.11,1.21-0.51,1.8-0.66c0.8-0.29,1.58-0.62,2.35-0.96
			c0.55,0.12,1.34-0.24,1.86-0.35c0.36-0.13,0.71-0.28,1.07-0.42c1.53-0.49,3.54-1.22,5.1-1.99c0.31-0.12,0.62-0.24,0.93-0.36
			c0.4-0.19,0.93-0.37,1.39-0.61c0.42-0.13,0.82-0.36,1.2-0.53c0.22-0.15,0.49-0.28,0.73-0.44c0.17-0.06,0.34-0.15,0.49-0.25
			c0.01-0.01,0.03-0.01,0.05-0.02c0.31-0.16,0.16-0.07,0.62-0.19c0.35-0.15,0.79-0.15,1.07-0.42c0.15-0.13,0.2-0.31,0.21-0.49
			c0.42-0.22,0.88,0.03,1.33-0.06C383.13,425.46,383.49,425.1,383.17,424.83z"/>
		<path class="st31" d="M375.21,420.55c1.17-0.56,2.7-1.32,1.37-2.14c-0.8-0.05-1.69,0.6-2.51,1.06c0,0-0.01,0-0.01,0
			c-0.28-0.08-0.62-0.04-0.89,0.06c-0.18,0.04-0.36,0.1-0.54,0.15c-0.19,0.02-0.39,0.06-0.6,0.16c-1.49,0.34-3.62,0.99-5.47,1.89
			c-0.57,0.32-2.15,0.82-2.79,1.52c-0.11,0.01-0.22,0.02-0.33,0.06c-0.08-0.01-0.17,0-0.25,0.02c-0.27,0.09-0.54,0.2-0.81,0.31
			c-1.92,0.63-3.79,1.4-5.67,2.14c-0.4,0.16-0.95,0.18-1.14,0.63c-0.1,0.21-0.07,0.45,0.03,0.64c-0.01,0.01-0.03,0.01-0.04,0.02
			c-0.06,0.02-0.12,0.05-0.18,0.07c-1.18,0.43-2.35,0.9-3.55,1.3c-0.23,0.07-0.44,0.25-0.53,0.48c-0.06,0.3-0.03,0.51,0.05,0.67
			c-0.01,0.09,0,0.19,0.04,0.29c-1.38,0.64-2.77,1.25-4.17,1.85c-0.06-0.02-0.09-0.04-0.16-0.05c-1.06,0.31-2.06,0.78-3.05,1.28
			c-0.32-0.01-0.67,0.07-0.93,0.2c-0.89,0.43-1.8,0.83-2.71,1.23c-0.02-0.01-0.03-0.02-0.05-0.03c-1.01-0.24-2,0.57-2.95,0.86
			c-2.15,1.07-4.34,2.04-6.55,2.95c-0.91,0.41-1.79,0.89-2.71,1.29c0.01,0.01,0.01,0.03,0.02,0.05c-0.09,0.04-0.18,0.08-0.27,0.12
			c-0.25,0.21-0.28,0.54-0.18,0.82c-0.21,0.1-0.43,0.21-0.64,0.31c-0.52,0.19-0.61,0.87-0.31,1.26c-2.6,1.22-5.2,2.43-7.77,3.7
			c-0.45,0.25-1.03,0.27-1.42,0.6c-0.4,0.34-0.27,1.06,0.22,1.25c0.2,0.02,0.4,0.01,0.59-0.01c0,0.01,0.01,0.02,0.01,0.02
			c0.04-0.01,0.07-0.02,0.11-0.04c0.23-0.04,0.45-0.1,0.67-0.17c0.03,0.09,0.06,0.17,0.12,0.25c0.2,0.27,0.59,0.38,0.91,0.25
			c0.81-0.18,1.59-0.42,2.37-0.7c0.1-0.04,0.21-0.08,0.31-0.12c0.13,0.11,0.3,0.18,0.47,0.19c1.12,0.05,2.14-0.7,3.19-1.04
			c3.44-1.52,6.87-3.07,10.31-4.61c0.95-0.4,1.91-0.79,2.85-1.2c0.52-0.19,0.7-0.89,0.35-1.3c4.62-2,9.29-3.89,13.98-5.72
			c-0.32,0.35-0.35,0.87,0.07,1.18c0.1,0.39,0.53,0.69,0.94,0.55c0.03-0.01,0.05-0.02,0.08-0.03c0,0,0,0,0,0
			c0.01,0,0.01,0,0.02-0.01c1.05-0.31,2.08-0.68,3.1-1.1c0,0.03-0.01,0.06-0.01,0.1c0.03,0.14,0.1,0.26,0.21,0.36
			c-0.16,0.36-0.06,0.82,0.34,0.98c1.18,0.12,2.33-0.73,3.46-1.04c0.96-0.41,1.99-0.79,2.91-1.32c0.99-0.41,2.05-0.76,2.76-1.57
			c0.31-0.41,0.33-1.16-0.16-1.44c-0.44-0.32-1.31,0.03-1.47,0.04c-0.28,0.07-0.56,0.17-0.84,0.25c0.27-0.46,0.11-1.1-0.48-1.2
			c0.49-0.56,0.51-1.03-0.21-1.35c-0.97-0.07-1.9,0.58-2.83,0.82c-3.94,1.34-7.75,3-11.6,4.57c-3.2,1.3-6.42,2.58-9.62,3.91
			c0.54-0.35,1.32-0.62,1.58-1.18c1.52-0.7,3.02-1.44,4.47-2.26c0.17-0.08,0.34-0.21,0.49-0.35c1.15-0.5,2.3-1,3.46-1.47
			c1.48-0.62,2.93-1.34,4.35-2.09c0.41-0.27,0.89-0.4,1.15-0.83c1.3-0.52,2.6-1.02,3.9-1.55c0.38-0.17,0.88-0.39,0.86-0.88
			c0-0.01,0-0.01,0-0.02c0.29-0.12,0.58-0.25,0.86-0.38c0.19,0.03,0.39,0,0.56-0.07c0.72-0.17,1.43-0.4,2.13-0.64
			c0.11,0.06,0.24,0.09,0.4,0.07c0.57-0.14,1.13-0.33,1.69-0.52c0.03,0,0.07-0.01,0.1-0.02c0,0.01,0.01,0.02,0.01,0.03
			c0.03-0.02,0.05-0.03,0.08-0.04c0.24-0.06,0.49-0.16,0.73-0.29c0.04,0.01,0.06,0.03,0.1,0.04c1.85-0.63,3.59-1.63,5.32-2.54
			c0.65-0.32,1.28-0.73,1.97-0.96c-0.01,0.03-0.02,0.07-0.05,0.09c-0.44,0.61-0.89,1.24-1.16,1.95c-0.02,0.06-0.04,0.18,0.05,0.2
			c-0.04-0.64,0.86-1.47,1.24-1.99c0.27-0.39,0.19-0.52-0.05-0.51C375.05,420.78,375.14,420.67,375.21,420.55z"/>
		<path class="st31" d="M380.01,418.14c0.18-0.37,0.25-0.87-0.08-1.17c-0.24-0.26-0.54-0.3-0.81-0.21c-0.3-0.51-1.19-0.58-1.45,0.07
			c-0.11,0.17-0.24,0.37-0.37,0.6c-0.02,0.01-0.03,0.02-0.05,0.03c-0.17,0-0.36,0.03-0.56,0.08c-0.44-0.12-0.98,0.21-1.34,0.48
			c-0.12,0.08-0.27,0.19-0.42,0.3c-0.11,0.07-0.22,0.13-0.34,0.18c-0.14,0.06-0.29,0.11-0.43,0.17c-0.03,0.02-0.07,0.04-0.11,0.06
			c-0.06,0.03-0.11,0.06-0.17,0.09c-0.5,0.23-1.26,0.47-0.98,0.99c0.06,0.06,0.12,0.1,0.19,0.12c-0.17,0.13-0.33,0.28-0.46,0.45
			c-0.11,0.14,0.29-0.3,0.39-0.33c0.06-0.03,0.12-0.06,0.18-0.09c0.02,0,0.04,0.01,0.06,0.01c0.13,0.23,0.37,0.4,0.65,0.39
			c-1.13,1.75-2.67,3.48-3.12,5.54c0.06,0.64,0.88,0.98,1.37,0.55c0.29-0.26,0.54-0.56,0.77-0.87c0.09,0.02,0.2,0.04,0.32,0.05
			c0.11-0.02,0.21-0.05,0.3-0.09c0.16-0.01,0.33-0.04,0.46-0.15c0.07-0.06,0.13-0.14,0.2-0.21c0.4,0.02,0.87-0.25,1.16-0.74
			c0.01-0.01,0.01-0.03,0.02-0.04c0,0,0,0,0,0c0.42-0.04,0.66-0.44,0.95-0.71c0.07-0.1,0.13-0.19,0.19-0.29
			c0.2,0.17,0.49,0.25,0.75,0.17c0.35,0.04,0.73-0.15,0.87-0.49c0.19-0.39,0.27-0.8,0.32-1.22c0.08-0.22,0.18-0.46,0.28-0.7
			c0.1-0.25,0.21-0.5,0.34-0.73c0.16-0.4,0.47-0.81,0.3-1.24c0.01-0.03,0.02-0.06,0.04-0.09
			C379.64,418.81,379.86,418.5,380.01,418.14z"/>
		<path class="st31" d="M307.17,447.91c-0.55-0.58-1.75,0.13-2.45,0.35c-0.28,0.13-0.56,0.24-0.85,0.36
			c-0.71,0.16-1.41,0.5-2.07,0.82c-2.8,1.06-5.48,2.49-8.21,3.71c-2.67,1.36-5.9,2.95-8.65,3.45c-0.07,0.03-0.13,0.06-0.18,0.08
			c-0.48,0.14-0.95,0.39-1.37,0.56c-0.18,0.07-0.36,0.16-0.54,0.26c-0.17,0.07-0.33,0.15-0.47,0.25c-0.29,0.06-0.48,0.2-0.6,0.39
			c-0.2,0.15-0.35,0.36-0.38,0.62c0.03,0.55,0.13,0.77,0.24,0.97c0.01,0.06,0.02,0.12,0.03,0.18c0.04,0.57,0.25,1.3,0.72,1.59
			c0.17,0.75,0.42,1.53,0.9,1.96c0.07,0.18,0.16,0.36,0.26,0.52c0.03,0.72,0.27,2,0.81,2.55c0.01,0.03,0.02,0.05,0.03,0.08
			c-0.18,0.67,0.38,1.46,1.14,1.35c0.05-0.01,0.1-0.03,0.15-0.05c0.33-0.03,0.66-0.17,0.97-0.28c0.55-0.28,1.23-0.4,1.66-0.86
			c0.02-0.04,0.04-0.08,0.06-0.11c0.08-0.12,0.13-0.26,0.16-0.4c0.41-0.54,0.21-1.37-0.41-1.65c0.02-0.16,0.05-0.32,0.08-0.48
			c0.17-0.12,0.32-0.24,0.48-0.37c0.13,0.44,0.51,0.81,1.01,0.86c0.48,0.05,0.91-0.13,1.33-0.34c0.13,0.63,0.9,1.13,1.71,0.64
			c0.44-0.22,0.86-0.44,1.27-0.65c0.25,0.03,0.5-0.02,0.71-0.15c-0.06,0.03-0.09,0.05,0.06-0.03c0.37-0.19,0.76-0.35,1.13-0.54
			c0.45-0.2,1.03-0.32,1.32-0.72c0.21-0.15,0.36-0.33,0.44-0.54c1.32-0.73,2.63-1.45,4.09-2.17c0.36,0.04,0.73-0.18,1.09-0.36
			c0.41,0.01,0.78-0.23,1.14-0.43c0.03-0.01,0.07-0.03,0.1-0.04c0.29-0.1,0.57-0.2,0.71-0.37c0.01-0.02,0.01-0.04,0.02-0.06
			c0.44-0.18,0.85-0.38,1.22-0.66c0.74-0.66-0.06-1.59-0.91-1.23c-1.32,0.29-2.21,0.8-3.1,1.21c-1.92,0.68-3.5,1.45-5.03,2.25
			c-0.16-0.17-0.37-0.3-0.61-0.33c-0.48-0.03-1.16,0.21-2,0.5c0.46-0.8,0.34-2-0.72-2.17c-1.37-0.08-2.48,0.5-3.51,1.29
			c0.3-0.43,0.55-0.89,0.71-1.41c0.12-0.65-0.5-1.16-1.09-1.08c3.01-1.27,5.99-3.03,9.46-4.57c0.49-0.25,1.3-0.6,2.07-0.94
			c0.18,0,0.35-0.03,0.52-0.1c0.68-0.12,1.3-0.54,1.93-0.8c0.45-0.29,1-0.41,1.42-0.74c0.56-0.25,1.1-0.54,1.64-0.83
			c0.17-0.06,0.32-0.17,0.43-0.31c0.11-0.06,0.2-0.15,0.26-0.27C307.64,448.39,307.46,448.05,307.17,447.91z M288.09,458.84
			c-0.16-0.32-0.36-0.59-0.61-0.74c0.62-0.19,1.23-0.42,1.84-0.66C288.87,457.85,288.46,458.34,288.09,458.84z"/>
	</g>
	<g>
		<line class="st23" x1="280.58" y1="458.8" x2="380.8" y2="415.75"/>
		<line class="st23" x1="281.68" y1="458.54" x2="284.91" y2="467.64"/>
		<line class="st23" x1="285.44" y1="467.59" x2="384.54" y2="424.68"/>
		<line class="st28" x1="379.91" y1="416.21" x2="378.03" y2="422.52"/>
		<line class="st23" x1="378.11" y1="422.32" x2="384.79" y2="424.94"/>
		<path class="st23" d="M380.01,416.51c1.11-0.62,2.24-1.2,3.38-1.76c0.19,0.1,1.01,0.11,1.35,0.11c0.68-0.01,1.39,0.01,2.06-0.04
			c0.71-0.06,1.32-0.04,2.03-0.04c0.7,0,1.33,0.24,2.03,0.29c1.34,0.1,2.79-0.11,4.11-0.27c1.22-0.15,2.62-0.52,3.76-0.42
			c-0.72,0.87-2.12,1.08-3.02,1.68c-0.62,0.42-1.25,0.93-1.84,1.35c-0.79,0.56-1.39,1.26-2.09,1.9c-1.09,1-2.31,1.86-3.5,2.82
			c-0.69,0.56-1.44,1-2.24,1.42c-0.55,0.29-1.05,0.8-1.65,0.95"/>
		<path class="st23" d="M392.24,414.72c-0.27,1-0.4,2.01-0.37,3.03c0.32-0.13,1.03,0.2,1.24,0.45c0.17-0.19,0.4-0.33,0.65-0.34"/>
		<line class="st29" x1="283.29" y1="463.09" x2="378.11" y2="422.32"/>
		<path class="st30" d="M281.8,458.04c-1.15,0.48-2.28,1-3.39,1.56c-0.08,0.16-1.49,0.75-1.93,0.96c-0.58,0.28-1.03,0.48-1.4,1.1
			c-0.22,0.38-0.36,0.85-0.51,1.26c-0.2,0.57-0.02,0.89-0.01,1.39c0.02,1.03-0.05,1.76,0.71,2.6c0.44,0.48,1.02,0.65,1.54,1.07
			c0.36,0.29,0.77,0.57,1.2,0.76c0.86,0.37,1.93,0.35,2.83,0.28c1.63-0.14,3.29-1.2,4.85-1.72c-0.14-0.04-0.13-0.1,0.04-0.16"/>
		<path class="st30" d="M279.6,459.26c0.84,2.13,1.41,3.98,2.04,6.04c0.17,0.55,0.69,2.5,1.3,2.57"/>
		<g>
			<g>
				<path d="M393.86,416.46c-0.02-0.19-0.05-0.38-0.07-0.57c0-0.07-0.01-0.13-0.04-0.19c-0.02-0.06-0.05-0.12-0.1-0.16
					c-0.05-0.05-0.1-0.08-0.16-0.1c-0.06-0.03-0.12-0.05-0.19-0.04c-0.13,0.01-0.26,0.05-0.35,0.14c-0.09,0.1-0.15,0.22-0.15,0.35
					c0,0.2,0.01,0.39,0.01,0.59c0,0.13,0.05,0.26,0.14,0.35c0.05,0.05,0.1,0.08,0.16,0.1c0.06,0.03,0.12,0.05,0.19,0.04
					c0.13-0.01,0.26-0.05,0.35-0.14c0.09-0.1,0.15-0.22,0.15-0.35c0-0.2-0.01-0.39-0.01-0.59c-0.33,0-0.67,0-1-0.01
					c0.02,0.19,0.05,0.38,0.07,0.57c0,0.07,0.01,0.13,0.04,0.19c0.02,0.06,0.05,0.12,0.1,0.16c0.05,0.05,0.1,0.08,0.16,0.1
					c0.06,0.03,0.12,0.05,0.19,0.04c0.13-0.01,0.26-0.05,0.35-0.14c0.03-0.03,0.05-0.07,0.08-0.1
					C393.84,416.63,393.86,416.55,393.86,416.46L393.86,416.46z"/>
			</g>
		</g>
		<g>
			<g>
				<path d="M393,415.79c-0.06,0.02-0.12,0.04-0.18,0.07c-0.23,0.08-0.34,0.24-0.37,0.48c-0.06,0.49,0.5,0.98,0.97,0.72
					c0.45-0.24,0.55-0.78,0.3-1.21c-0.16-0.26-0.57-0.35-0.78-0.11c-0.18,0.21-0.29,0.45-0.3,0.73c0,0.3,0.11,0.67,0.4,0.81
					c0.39,0.18,0.85-0.01,0.97-0.43c0.22-0.7-0.49-1.52-1.22-1.22c-0.25,0.1-0.44,0.33-0.35,0.61c0.12,0.43,0.56,0.64,0.96,0.4
					c0.32-0.19,0.5-0.62,0.4-0.97c-0.12-0.44-0.63-0.68-1.04-0.47c-0.18,0.1-0.32,0.26-0.37,0.46c-0.07,0.26,0.04,0.49,0.2,0.69
					c0.18,0.23,0.52,0.15,0.71,0c0.24-0.19,0.3-0.48,0.24-0.78c-0.06-0.3-0.48-0.48-0.73-0.3c-0.42,0.3-0.85,0.83-0.69,1.38
					c0.16,0.56,0.92,0.98,1.36,0.44c0.27-0.33,0.11-0.83-0.35-0.86c-0.49-0.02-0.86,0.39-0.79,0.87c0.07,0.51,0.53,0.77,1.01,0.67
					c0.17-0.03,0.31-0.19,0.35-0.35c0.09-0.35,0.06-0.72-0.23-0.97c-0.39-0.34-0.92-0.02-0.84,0.48c0.06,0.36,0.4,0.6,0.76,0.6
					c0.34,0,0.67-0.19,0.88-0.45c0.23-0.29,0.34-0.81,0.05-1.11c-0.4-0.41-1.05-0.1-1.15,0.41c-0.05,0.24,0.03,0.42,0.23,0.57
					c0.47,0.36,1.06-0.18,1.36-0.51c0.2-0.23,0.39-0.45,0.29-0.78c-0.09-0.29-0.33-0.5-0.62-0.56c-0.64-0.15-1.27,0.5-0.91,1.12
					c0.19,0.33,0.7,0.39,1.03,0.29c0.34-0.1,0.6-0.35,0.7-0.69c0.08-0.25-0.09-0.55-0.35-0.62c-0.46-0.12-0.97,0.02-1.35,0.29
					c-0.36,0.25-0.3,0.76,0.11,0.91c0.45,0.16,0.96,0.02,1.39-0.16c0.41-0.17,0.79-0.39,1.14-0.65c-0.2-0.26-0.4-0.53-0.6-0.79
					c-0.23,0.19-0.51,0.32-0.74,0.51c-0.27,0.22-0.14,0.78,0.22,0.84c0.6,0.09,1.24-0.04,1.76-0.34c0.45-0.27,0.23-0.89-0.25-0.93
					c-0.31-0.03-0.57,0.1-0.86,0.17c-0.26,0.07-0.42,0.36-0.35,0.61c0.08,0.29,0.34,0.39,0.61,0.35c0.5-0.07,0.84-0.4,1.27-0.61
					c0.24-0.12,0.31-0.46,0.18-0.68c-0.14-0.25-0.44-0.3-0.68-0.18c-0.37,0.18-0.63,0.46-1.03,0.51c0.09,0.32,0.17,0.64,0.26,0.97
					c0.2-0.05,0.39-0.16,0.6-0.14c-0.08-0.31-0.16-0.62-0.25-0.93c-0.16,0.09-0.32,0.15-0.52,0.19c-0.08,0.02-0.16,0.03-0.23,0.04
					c-0.05,0.01-0.1,0.01-0.16,0.01c-0.02,0-0.17-0.01-0.09,0c0.07,0.28,0.14,0.56,0.22,0.84c0.23-0.19,0.51-0.32,0.74-0.51
					c0.44-0.35-0.15-1.13-0.6-0.79c-0.3,0.22-0.61,0.41-0.95,0.57c-0.14,0.06-0.31,0.12-0.48,0.16c-0.01,0-0.13,0.02-0.05,0.01
					c-0.04,0-0.08,0-0.12,0.01c-0.04,0-0.1-0.01-0.03,0c-0.04-0.01-0.09-0.02-0.13-0.04c0.04,0.3,0.08,0.61,0.11,0.91
					c0.17-0.12,0.41-0.24,0.58-0.19c-0.12-0.21-0.23-0.41-0.35-0.62c0.03-0.09-0.04,0.06,0.01-0.01c0.03-0.04-0.04,0.01,0,0
					c-0.08,0.02,0.01,0.03-0.08,0.01c0.03,0.01,0.08,0.04-0.01-0.01c0.08,0.1,0.15,0.2,0.23,0.3c-0.01-0.01-0.01-0.03-0.02-0.04
					c-0.01-0.05-0.01-0.05,0-0.01c-0.03,0.05-0.01,0.15-0.06,0.21c-0.02,0.02-0.11,0.1-0.05,0.05c-0.02,0.01-0.04,0.02-0.06,0.03
					c0.04-0.01,0.04-0.01,0,0c-0.1,0.02,0.07,0.01-0.03,0c-0.04-0.01-0.04,0,0,0.01c-0.02-0.01-0.04-0.01-0.06-0.02
					c-0.03-0.02-0.05-0.06-0.07-0.08c0.05,0.04-0.01-0.04,0,0.03c0.02-0.13,0.03-0.26,0.05-0.38c-0.05,0.07,0.07-0.08,0.01-0.01
					c-0.03,0.03-0.05,0.06-0.08,0.09c-0.07,0.08-0.14,0.15-0.21,0.22c-0.04,0.03-0.07,0.07-0.11,0.1c-0.03,0.02-0.02,0.02,0.01-0.01
					c-0.02,0.01-0.04,0.03-0.05,0.04c-0.02,0.01-0.03,0.02-0.05,0.03c0.06-0.02,0.07-0.02,0.04-0.01c-0.04,0.01-0.02,0.01,0.06,0
					c0.17,0.07,0.22,0.08,0.15,0.03c0.08,0.19,0.15,0.38,0.23,0.57c0.02-0.07,0.02-0.08-0.01-0.03c-0.37,0.07-0.47,0.13-0.3,0.18
					c-0.12-0.12-0.23-0.23-0.35-0.35c0.02,0.06,0,0,0.02-0.03c0,0.01-0.01,0.03-0.01,0.04c0.03-0.06,0.03-0.06,0-0.01
					c-0.03,0.04-0.03,0.04-0.01,0.01c0.02-0.03,0.02-0.03-0.01,0.01c-0.07,0.06,0.06-0.03-0.04,0.03c-0.11,0.06,0.05,0-0.04,0.02
					c-0.1,0.03,0.1,0-0.01,0c0.08,0.02,0.09,0.02,0.04,0c0.02,0.01,0.04,0.02,0.06,0.03c0.04,0.02,0.07,0.05,0.1,0.09
					c0.03,0.07,0.03,0.07,0.02,0.02c-0.28,0.16-0.56,0.32-0.84,0.48c0.09,0.08,0.03-0.04-0.01-0.05c-0.01-0.01,0.04-0.16-0.02,0.04
					c0.12-0.12,0.23-0.23,0.35-0.35c0.04-0.01,0.07,0,0.1,0.01c-0.07-0.01,0-0.01,0.02,0.01c0.04,0.03,0.06,0.05,0.09,0.08
					c0.01,0.02,0.02,0.04,0.02,0.06c-0.01-0.04-0.01-0.04-0.01,0c0.01,0.09,0.02-0.05,0,0.04c-0.01,0.05-0.02,0.08-0.05,0.12
					c-0.03,0.04-0.06,0.05-0.1,0.08c-0.03,0.02-0.14,0.02-0.04,0.02c-0.12-0.29-0.23-0.57-0.35-0.86c-0.13,0.16,0.25,0.04,0.32,0.01
					c0.01-0.01-0.03-0.02-0.02-0.02c0.02,0.02,0.01,0.01-0.02-0.03c0.01,0.01,0.01,0.02,0.02,0.03c0,0.01,0.01,0.02,0.01,0.03
					c0,0.03,0,0.03,0.01,0c0.01,0,0.06-0.1,0.07-0.12c0.02-0.03,0.05-0.06,0.08-0.09c0,0,0.13-0.11,0.06-0.05
					c-0.24-0.1-0.49-0.2-0.73-0.3c0.11-0.23,0.12-0.29,0.02-0.19c0.24,0,0.47,0,0.71,0c0.21,0.28-0.15,0.65-0.4,0.39
					c-0.05-0.06-0.07-0.14-0.06-0.21c0.02-0.05,0.03-0.05,0.01-0.02c-0.02,0.03-0.01,0.03,0.02-0.02c-0.04,0.04-0.04,0.04,0.02,0
					c0.08-0.04,0.16-0.05,0.25-0.03c0.07,0.04,0.15,0.09,0.22,0.13c-0.06-0.05-0.04-0.02,0.05,0.1c-0.12,0.2-0.24,0.41-0.35,0.61
					c0.06-0.02,0.16-0.02,0.05-0.03c-0.02,0-0.1-0.02-0.03,0c-0.02-0.01-0.09-0.04-0.03-0.01c-0.02-0.01-0.07-0.07-0.03-0.02
					c0.04,0.05,0-0.01-0.02-0.03c0,0.01,0.03,0.06,0.03,0.06c0,0.01,0.01,0.02,0.01,0.03c-0.03-0.07-0.03-0.08-0.02-0.04
					c0,0.02,0.02,0.04,0.02,0.06c0,0.07,0-0.11,0-0.04c-0.01,0.11,0,0.02,0.01,0c0.01-0.05,0.1-0.16,0.19-0.19
					c0.05-0.02,0.11-0.01,0.16-0.02c0.04-0.01,0.03,0.01-0.03-0.02c0.1,0.08,0.2,0.15,0.3,0.23c-0.05-0.1-0.01,0.01-0.03-0.1
					c0,0.04,0.04-0.07,0-0.03c-0.26-0.04-0.52-0.07-0.78-0.11c0.04,0.07,0.01,0.05,0.02-0.02c0.01-0.04,0-0.12,0.05-0.14
					c0.13-0.02,0.26-0.03,0.39-0.05c-0.09-0.03-0.08-0.01,0.05,0.05c0.06,0.22,0.09,0.27,0.1,0.14c-0.12,0.16-0.25,0.32-0.37,0.48
					c0.06-0.02,0.12-0.04,0.18-0.07c0.25-0.09,0.43-0.34,0.35-0.61C393.55,415.89,393.26,415.7,393,415.79L393,415.79z"/>
			</g>
		</g>
		<g>
			<g>
				<path d="M391.45,418.56c0.02,0.04,0.04,0.09,0.06,0.13c0.03,0.06,0.07,0.11,0.13,0.14c0.05,0.04,0.1,0.07,0.17,0.09
					c0.13,0.03,0.27,0.02,0.39-0.05c0.24-0.14,0.42-0.37,0.49-0.64c0.02-0.09,0.02-0.18,0-0.27c-0.02-0.07-0.04-0.12-0.09-0.17
					c-0.03-0.05-0.08-0.1-0.14-0.13c-0.08-0.05-0.16-0.07-0.25-0.07c-0.23,0.01-0.45,0.09-0.6,0.26c0.28,0.16,0.56,0.33,0.83,0.49
					c0.01-0.02,0.01-0.04,0.02-0.06c-0.02,0.04-0.03,0.08-0.05,0.12c0.04-0.09,0.09-0.17,0.14-0.26c0.02-0.04,0.05-0.08,0.07-0.12
					c0.04-0.08,0.08-0.16,0.09-0.25c0.03-0.13,0.02-0.27-0.05-0.39c-0.06-0.1-0.18-0.2-0.3-0.23c-0.13-0.03-0.27-0.02-0.39,0.05
					c-0.11,0.07-0.2,0.17-0.23,0.3c-0.01,0.04-0.02,0.08-0.04,0.12c0.02-0.04,0.03-0.08,0.05-0.12c-0.03,0.08-0.08,0.15-0.12,0.23
					c-0.07,0.11-0.12,0.23-0.16,0.35c-0.01,0.04-0.01,0.09-0.02,0.13c0,0.07,0.01,0.13,0.04,0.19c0.04,0.1,0.11,0.19,0.2,0.24
					c0.08,0.04,0.16,0.07,0.25,0.07c0.07,0,0.13-0.01,0.19-0.04c0.06-0.02,0.12-0.05,0.16-0.1c0.02-0.02,0.03-0.03,0.05-0.05
					c-0.03,0.03-0.07,0.05-0.1,0.08c0.02-0.02,0.04-0.03,0.07-0.04c-0.04,0.02-0.08,0.03-0.12,0.05c0.03-0.01,0.06-0.02,0.09-0.02
					c-0.04,0.01-0.09,0.01-0.13,0.02c0.01,0,0.02,0,0.04,0c-0.16-0.21-0.32-0.42-0.48-0.64c-0.01,0.03-0.02,0.05-0.03,0.08
					c0.02-0.04,0.03-0.08,0.05-0.12c-0.02,0.04-0.04,0.08-0.07,0.12c0.03-0.03,0.05-0.07,0.08-0.1c-0.03,0.04-0.06,0.07-0.1,0.1
					c0.03-0.03,0.07-0.05,0.1-0.08c-0.02,0.02-0.05,0.03-0.07,0.05c0.23,0.06,0.46,0.12,0.68,0.18c-0.02-0.04-0.04-0.09-0.06-0.13
					c-0.03-0.06-0.07-0.11-0.13-0.14c-0.05-0.04-0.1-0.07-0.17-0.09c-0.12-0.03-0.28-0.02-0.39,0.05c-0.11,0.07-0.2,0.17-0.23,0.3
					c-0.01,0.04-0.01,0.09-0.02,0.13C391.38,418.4,391.41,418.48,391.45,418.56L391.45,418.56z"/>
			</g>
		</g>
		<g>
			<g>
				<path d="M381.73,417.43c-0.28,1.95-0.07,4.09,1.65,5.34c0.22,0.16,0.56,0.04,0.69-0.18c0.15-0.25,0.04-0.53-0.18-0.69
					c-1.3-0.94-1.4-2.76-1.19-4.2c0.04-0.27-0.06-0.54-0.35-0.62C382.11,417.02,381.77,417.16,381.73,417.43L381.73,417.43z"/>
			</g>
		</g>
		<g>
			<g>
				<path d="M385.16,416.99c-0.07,1.21-0.09,2.44,0.44,3.56c0.12,0.24,0.46,0.31,0.68,0.18c0.25-0.14,0.3-0.44,0.18-0.68
					c-0.09-0.19-0.18-0.47-0.23-0.72c-0.06-0.28-0.08-0.43-0.09-0.7c-0.03-0.54-0.01-1.09,0.02-1.63c0.01-0.26-0.24-0.51-0.5-0.5
					C385.39,416.51,385.18,416.71,385.16,416.99L385.16,416.99z"/>
			</g>
		</g>
		<g>
			<g>
				<path d="M388.55,417.32c0.04,0.35,0.08,0.7,0.12,1.04c0,0.07,0.01,0.13,0.04,0.19c0.02,0.06,0.05,0.12,0.1,0.16
					c0.09,0.09,0.23,0.15,0.35,0.15c0.13-0.01,0.26-0.05,0.35-0.14c0.08-0.09,0.16-0.22,0.15-0.35c-0.04-0.35-0.08-0.7-0.12-1.04
					c0-0.07-0.01-0.13-0.04-0.19c-0.02-0.06-0.05-0.12-0.1-0.16c-0.09-0.09-0.23-0.15-0.35-0.15c-0.13,0.01-0.26,0.05-0.35,0.14
					C388.61,417.05,388.53,417.19,388.55,417.32L388.55,417.32z"/>
			</g>
		</g>
	</g>
	<g>
		<path class="st32" d="M361.04,404.43c-1.35,0.32-2.37,1.55-3.52,2.3c-0.6,0.5-1.18,1.03-1.77,1.55
			c-2.37,1.52-6.39,5.36-10.05,9.14c-0.15-0.02-0.3-0.01-0.43,0.06c-2.32,1.48-4.46,3.22-6.52,5.06c-0.43-0.07-0.93,0.22-1.25,0.55
			c-0.95,0.77-1.87,1.59-2.75,2.45c-3.31,3.22-6.42,6.66-9.56,10.06c-0.95,1.05-1.91,2.11-2.86,3.17c-2.18,1.94-4.3,3.97-6.41,5.99
			c-2.11,2.08-4.14,4.24-6.16,6.42c-0.43,0.57-1.69,1.73-2.3,2.78c-1.59,1.38-2.95,3.02-4.48,4.48c-0.35,0.38-0.77,0.71-1.12,1.09
			c-0.05,0.04-0.09,0.09-0.14,0.13c0.01,0,0.01,0.01,0.02,0.02c-0.06,0.07-0.13,0.14-0.18,0.21c-0.09,0.16-0.1,0.34-0.05,0.5
			c-0.79,0.72-1.59,1.44-2.39,2.16c-0.54,0.57-1.31,0.95-1.7,1.65c-0.08,0.24-0.03,0.46,0.08,0.63c-0.39,0.41-0.77,0.82-1.15,1.23
			c-0.04,0.06-0.1,0.11-0.14,0.16c-0.03,0.03-0.05,0.05-0.08,0.08c-0.11,0.09-0.22,0.2-0.34,0.29c0.01,0.01,0.02,0.02,0.03,0.03
			c-0.07,0.07-0.13,0.14-0.2,0.2c-0.01,0.02-0.01,0.03-0.02,0.05c-0.45,0.46-0.9,0.92-1.11,1.51c-0.04,0.86,1,0.98,1.57,0.59
			c0.4-0.3,0.79-0.62,1.18-0.95c-0.2,0.27-0.41,0.54-0.6,0.82c0.19-0.23,0.37-0.46,0.57-0.68c0.24-0.26,0.49-0.51,0.73-0.76
			c0.93-0.83,1.82-1.71,2.69-2.6c0.08,0.01,0.16,0.03,0.25,0.02c0.58-0.32,1.08-0.81,1.57-1.3c0.08,0.04,0.17,0.08,0.26,0.08
			c0.41,0.02,0.68-0.3,0.96-0.58c-0.01,0.38,0.15,0.75,0.53,0.89c0.39,0.14,0.71-0.14,1.02-0.36c0.68-0.55,1.35-1.12,2.01-1.7
			c0.34-0.3,0.67-0.6,1-0.9c-0.33,0.4-0.65,0.82-0.93,1.26c-0.2,0.29-0.37,0.65-0.2,1c0.19,0.43,0.79,0.56,1.13,0.23
			c0.77-0.75,1.5-1.54,2.24-2.32c1.53-1.52,3.06-3.05,4.59-4.57c0.11-0.09,0.22-0.18,0.32-0.27c0.2-0.18,0.4-0.37,0.6-0.56
			c0.01,0,0.02,0,0.03,0c0.09-0.09,0.18-0.19,0.27-0.28c3.9-3.38,7.47-7.29,11.32-10.76c0.97-0.91,1.95-1.81,2.92-2.72
			c-0.03,0.12-0.05,0.24-0.03,0.36c0.38,1.27,1.57,0.3,2.19-0.22c1.28-0.97,2.46-2.06,3.64-3.15c3.3-3.14,6.59-6.3,9.8-9.54
			c2.39-2.41,4.79-4.82,7-7.42c0.33-0.48,0.64-1.01,0.8-1.57c1.09-1.04,2.19-2.09,3.28-3.13c0.87-0.83,1.7-1.69,2.52-2.57
			c0.58-0.5,1.33-1.38,0.7-2.13c-0.22-0.25-0.58-0.33-0.88-0.18c-0.11,0.06-0.21,0.13-0.32,0.19c0.21-0.25,0.39-0.52,0.46-0.84
			c0.05-0.22,0.06-0.47,0.01-0.71c1.17-1.39,1.83-2.66,0.81-3.17c-0.12,0-0.24,0.02-0.36,0.03c0.5-0.63,0.98-1.28,1.43-1.94
			C361.87,405.39,361.74,404.48,361.04,404.43z M339.8,428.51c-2.47,2.2-4.85,4.52-7.29,6.76c0.19-0.24,0.38-0.48,0.57-0.73
			c2.21-2.13,4.46-4.24,6.69-6.35c-0.01,0.07-0.03,0.14-0.02,0.2C339.76,428.44,339.78,428.47,339.8,428.51z M337.48,431.35
			c0.63-0.67,1.27-1.34,1.91-2.01c0,0.11,0.03,0.22,0.08,0.31C338.8,430.21,338.13,430.78,337.48,431.35z M333.64,429.92
			c-1.88,1.74-3.74,3.51-5.57,5.3c-0.03-0.06-0.07-0.12-0.13-0.18c0.22-0.22,0.44-0.42,0.67-0.58c2.38-2.2,4.72-4.45,7.01-6.75
			C334.94,428.43,334.29,429.17,333.64,429.92z M325.39,442.92c-0.95,0.82-1.89,1.66-2.83,2.51c0.18-0.37,0-0.73-0.29-0.91
			c0.16-0.17,0.33-0.34,0.49-0.51c0.21-0.06,0.43-0.19,0.62-0.42c2.03-1.64,3.93-3.43,5.81-5.24c0,0.17,0.05,0.32,0.2,0.46
			c0.04,0.04,0.09,0.07,0.14,0.09c-1.33,1.28-2.65,2.57-3.97,3.88C325.5,442.82,325.45,442.87,325.39,442.92z M352.35,419.85
			c-0.49,0.29-0.97,0.59-1.44,0.9c0.39-0.36,0.78-0.73,1.17-1.1c0.95-0.79,1.9-1.54,2.85-2.27
			C354.08,418.21,353.21,419.03,352.35,419.85z"/>
		<path class="st32" d="M334.39,438.33c-0.63,0.31-1.23,0.68-1.82,1.09c0.4-0.45,0.82-0.88,0.94-1.57c-0.18-1.9-1.73-0.65-2.57,0.04
			c-1.87,1.59-3.63,3.31-5.3,5.12c-0.68,0.59-1.24,1.34-1.85,1.99c-0.92,1.1-1.88,2.2-2.81,3.3c-0.96,0.92-2.15,2.11-3.13,3.27
			c-1.59,1.22-3.06,2.58-4.56,3.91c-0.82,0.7-1.66,1.4-2.5,2.11c-0.37-0.03-0.82,0.15-1.08,0.47c-0.28,0.29-0.56,0.57-0.84,0.85
			c-0.18,0.15-0.36,0.3-0.53,0.45c-0.01-0.05-0.03-0.1-0.04-0.14c0.68-0.81,1.32-1.62,1.89-2.43c0.74-0.57,0.12-1.92-0.76-1.5
			c-0.53,0.34-1.04,0.73-1.54,1.12c0.05-0.32-0.09-0.67-0.38-0.8c-0.25-0.15-0.59-0.09-0.8,0.11c-0.47,0.33-0.91,0.7-1.35,1.08
			c-0.35-0.58-0.87-0.36-1.35,0.04c-0.66-0.02-1.26,1-1.79,1.37c-0.59,0.54-1.16,1.12-1.72,1.7c-1.45,1.2-2.78,2.55-4.13,3.87
			c-1.18,1.08-2.36,2.18-3.51,3.3c-0.53,0.53-1.44,1.03-1.42,1.87c0.04,0.15,0.1,0.26,0.17,0.35c-0.16,0.2-0.21,0.48-0.16,0.72
			c-0.43,0.37-0.94,0.7-1.03,1.28c-0.05,0.64,0.72,1.05,1.18,0.6c0.04-0.03,0.07-0.07,0.11-0.1c0.38,0.5,1.42,0.08,1.93-0.34
			c0.49-0.41,0.97-0.83,1.44-1.26c0.02,0,0.04,0,0.07-0.01c-0.07,0.09-0.13,0.18-0.18,0.25c-0.03,0.03-0.07,0.08-0.08,0.1
			c-0.15,0.16-0.33,0.33-0.36,0.57c-0.06,0.25,0.02,0.49,0.19,0.66c0,0.02-0.01,0.03-0.01,0.05c0.04,0.26,0.14,0.42,0.27,0.53
			c0.11,0.35,0.47,0.59,0.82,0.52c-0.33,0.52-0.86,0.99-0.9,1.61c0.08,0.7,0.6,0.79,1.09,0.59c-0.39,0.33-0.65,0.97-0.19,1.35
			c0.73,0.76,1.66-0.9,1.84-1.03c0.21-0.24,0.44-0.49,0.68-0.76c0.29-0.17,0.54-0.42,0.78-0.69c1.1-1.06,2.14-2.18,3.12-3.35
			c0.13,0,0.27-0.03,0.39-0.09c0.66-0.58,1.29-1.21,1.9-1.85c0.54-0.05,1.02-0.82,1.43-1.16c1.05-1.12,2.09-2.24,3.13-3.37
			c0.2-0.09,0.4-0.22,0.58-0.41c0.75-0.71,1.58-1.33,2.28-2.09c0.55-0.59,1.12-1.16,1.67-1.75c0.25,0.14,0.58,0.14,0.82-0.09
			c0.47-0.42,0.9-0.88,1.33-1.34c0.11-0.11,0.22-0.22,0.33-0.33c1.04-1.1,2.12-2.15,3.21-3.19c1.53-1.33,3.26-2.92,4.31-4.2
			c0.14,0.06,0.3,0.06,0.48,0c0.88-0.58,1.6-1.46,2.38-2.18c2.7-2.77,5.48-5.46,8.08-8.34c0.26-0.35,0.65-0.68,0.63-1.15
			C335.16,438.64,334.77,438.29,334.39,438.33z"/>
		<path class="st32" d="M370.41,405.03c-0.37-0.12-0.75,0-1.12,0.08c-0.08-0.2-0.24-0.37-0.43-0.43c-0.13-0.04-0.27-0.06-0.42-0.07
			c-0.09-0.08-0.19-0.16-0.32-0.21c-0.86-0.34-1.75-0.82-2.67-0.85c-0.58,0.11-0.79,0.84-0.41,1.28c0,0,0,0,0,0
			c-0.14,0.02-0.28,0.04-0.43,0.11c-0.26,0.15-0.4,0.34-0.45,0.53c-0.19-0.01-0.39,0.05-0.53,0.18c-0.45,0.32-0.83,0.71-1.21,1.12
			c-0.22,0.21-0.45,0.43-0.64,0.62c-0.56,0.59-1.16,1.15-1.65,1.81c-0.05,0.08-0.1,0.16-0.14,0.25c-0.34,0.39-0.64,0.72-0.77,0.88
			c-0.27,0.39-0.83,0.81-0.96,1.29c-0.85,0.75-1.7,1.52-2.52,2.32c-1.42,1.41-2.91,2.76-4.19,4.31c-0.08,0.12-0.18,0.24-0.28,0.36
			c-1.49,1.48-2.99,2.97-4.46,4.47c-0.26,0.38,0.09,0.96,0.54,0.85c0.11-0.07,0.21-0.15,0.32-0.22c0.01-0.01,0.02,0,0.03-0.01
			c0.01-0.01,0.02-0.02,0.03-0.03c0.28-0.2,0.56-0.41,0.83-0.63c0.05,0.16,0.17,0.3,0.39,0.42c0.5,0.19,0.88-0.22,1.27-0.48
			c1.17-0.87,2.22-1.89,3.25-2.92c0.09,0.05,0.18,0.09,0.29,0.09c0.19-0.03,0.37-0.1,0.54-0.2c0,0,0,0,0,0.01
			c0.01-0.01,0.01-0.01,0.02-0.02c0.52-0.31,0.94-0.89,1.43-1.23c0.63-0.54,1.24-1.12,1.84-1.7c0.54-0.07,1.15-0.68,1.59-0.97
			c0.28-0.25,0.56-0.51,0.85-0.76c1.24-0.99,2.85-2.36,4.03-3.61c0.24-0.22,0.49-0.44,0.73-0.66c0.31-0.32,0.74-0.66,1.07-1.05
			c0.34-0.26,0.64-0.62,0.93-0.91c0.15-0.22,0.36-0.43,0.53-0.67c0.14-0.12,0.26-0.26,0.37-0.4c0.01-0.01,0.02-0.02,0.04-0.04
			c0.23-0.25,0.13-0.12,0.51-0.39c0.27-0.26,0.67-0.41,0.85-0.76c0.09-0.17,0.09-0.36,0.04-0.53c0.31-0.35,0.82-0.27,1.19-0.51
			C370.57,405.64,370.79,405.18,370.41,405.03z"/>
		<path class="st32" d="M361.78,403.7c0.89-0.92,2.04-2.17,0.57-2.49c-0.74,0.22-1.35,1.15-1.95,1.86c0,0-0.01,0-0.01,0.01
			c-0.28,0.02-0.57,0.18-0.8,0.36c-0.15,0.1-0.3,0.21-0.44,0.32c-0.16,0.08-0.33,0.19-0.5,0.35c-1.25,0.83-2.99,2.17-4.39,3.64
			c-0.42,0.49-1.7,1.51-2.06,2.39c-0.1,0.04-0.2,0.1-0.29,0.17c-0.08,0.02-0.15,0.05-0.22,0.11c-0.22,0.18-0.43,0.38-0.64,0.57
			c-1.55,1.25-3.01,2.61-4.5,3.95c-0.31,0.29-0.81,0.49-0.84,0.98c-0.02,0.24,0.08,0.45,0.23,0.59c-0.01,0.01-0.02,0.02-0.03,0.03
			c-0.05,0.04-0.09,0.08-0.14,0.12c-0.95,0.81-1.86,1.65-2.83,2.43c-0.19,0.15-0.32,0.38-0.34,0.63c0.04,0.3,0.13,0.5,0.26,0.62
			c0.02,0.09,0.06,0.18,0.13,0.26c-1.05,1.08-2.13,2.13-3.22,3.17c-0.06,0-0.1-0.01-0.16,0c-0.87,0.65-1.64,1.44-2.38,2.25
			c-0.3,0.1-0.59,0.3-0.79,0.51c-0.68,0.71-1.38,1.4-2.08,2.09c-0.02,0-0.03-0.01-0.05-0.01c-1,0.12-1.64,1.22-2.42,1.82
			c-1.62,1.74-3.31,3.4-5.04,5.02c-0.7,0.7-1.35,1.45-2.06,2.14c0.01,0.01,0.02,0.03,0.03,0.04c-0.07,0.07-0.14,0.14-0.21,0.2
			c-0.16,0.28-0.08,0.61,0.1,0.84c-0.16,0.17-0.33,0.35-0.48,0.51c-0.41,0.36-0.28,1.02,0.11,1.3c-1.98,2.03-3.97,4.06-5.91,6.14
			c-0.33,0.39-0.85,0.6-1.1,1.05c-0.26,0.45,0.09,1.09,0.6,1.11c0.19-0.04,0.36-0.12,0.54-0.21c0,0.01,0.01,0.01,0.01,0.02
			c0.03-0.03,0.06-0.05,0.09-0.07c0.19-0.11,0.38-0.24,0.56-0.39c0.05,0.07,0.11,0.14,0.19,0.19c0.27,0.19,0.66,0.16,0.91-0.07
			c0.68-0.45,1.32-0.94,1.94-1.47c0.08-0.07,0.17-0.15,0.25-0.22c0.15,0.06,0.33,0.07,0.49,0.02c1.04-0.33,1.73-1.39,2.58-2.07
			c2.66-2.61,5.3-5.24,7.94-7.87c0.74-0.7,1.49-1.4,2.22-2.11c0.42-0.36,0.36-1.08-0.09-1.35c3.58-3.46,7.24-6.84,10.94-10.16
			c-0.18,0.44-0.05,0.94,0.44,1.09c0.22,0.33,0.7,0.47,1.04,0.2c0.02-0.02,0.04-0.04,0.07-0.05c0,0,0,0,0,0c0,0,0.01-0.01,0.01-0.01
			c0.86-0.65,1.68-1.36,2.48-2.09c0.01,0.03,0.01,0.06,0.03,0.09c0.07,0.12,0.18,0.21,0.3,0.27c-0.03,0.4,0.21,0.79,0.62,0.81
			c1.12-0.29,1.89-1.48,2.83-2.17c0.75-0.71,1.56-1.43,2.24-2.24c0.77-0.73,1.63-1.41,2.02-2.42c0.16-0.49-0.06-1.21-0.6-1.3
			c-0.51-0.16-1.18,0.48-1.32,0.54c-0.24,0.16-0.46,0.35-0.68,0.52c0.1-0.53-0.24-1.07-0.82-0.96c0.27-0.69,0.14-1.15-0.62-1.2
			c-0.91,0.26-1.55,1.2-2.32,1.74c-3.17,2.6-6.12,5.47-9.13,8.26c-2.51,2.31-5.04,4.62-7.54,6.97c0.39-0.51,1.01-1.03,1.07-1.66
			c1.16-1.18,2.29-2.38,3.36-3.66c0.13-0.14,0.24-0.31,0.34-0.5c0.89-0.87,1.78-1.73,2.69-2.57c1.15-1.09,2.24-2.26,3.3-3.46
			c0.29-0.39,0.68-0.68,0.78-1.18c1.02-0.93,2.05-1.85,3.06-2.79c0.29-0.29,0.68-0.67,0.51-1.12c0-0.01-0.01-0.01-0.01-0.01
			c0.22-0.22,0.45-0.43,0.66-0.65c0.18-0.04,0.35-0.14,0.49-0.26c0.61-0.41,1.18-0.86,1.74-1.33c0.12,0.02,0.25,0,0.38-0.07
			c0.47-0.33,0.93-0.69,1.37-1.07c0.03-0.02,0.06-0.03,0.08-0.05c0,0.01,0.01,0.02,0.02,0.02c0.02-0.03,0.04-0.05,0.06-0.07
			c0.2-0.14,0.39-0.32,0.58-0.52c0.04,0,0.06,0.01,0.11,0c1.49-1.23,2.76-2.76,4.04-4.21c0.49-0.53,0.94-1.12,1.49-1.58
			c0,0.03,0,0.07-0.01,0.1c-0.21,0.73-0.42,1.47-0.43,2.23c0,0.07,0.02,0.19,0.11,0.18c-0.24-0.59,0.32-1.68,0.5-2.3
			c0.12-0.46,0.01-0.55-0.2-0.46C361.71,403.97,361.75,403.84,361.78,403.7z"/>
		<path class="st32" d="M365.4,399.8c0.05-0.41-0.05-0.91-0.45-1.08c-0.3-0.16-0.59-0.1-0.81,0.08c-0.43-0.38-1.27-0.14-1.3,0.56
			c-0.05,0.2-0.1,0.43-0.15,0.69c-0.01,0.02-0.02,0.03-0.04,0.05c-0.16,0.06-0.32,0.15-0.48,0.27c-0.44,0.04-0.82,0.53-1.07,0.91
			c-0.08,0.12-0.18,0.27-0.29,0.43c-0.07,0.1-0.16,0.19-0.26,0.29c-0.11,0.1-0.23,0.21-0.34,0.31c-0.02,0.03-0.05,0.06-0.08,0.1
			c-0.05,0.05-0.09,0.1-0.13,0.14c-0.38,0.38-1,0.87-0.58,1.27c0.07,0.04,0.14,0.05,0.21,0.05c-0.11,0.18-0.21,0.37-0.27,0.58
			c-0.06,0.17,0.17-0.38,0.25-0.44c0.04-0.05,0.09-0.1,0.13-0.15c0.02,0,0.04-0.01,0.06-0.01c0.19,0.18,0.47,0.25,0.72,0.14
			c-0.48,2.04-1.33,4.19-1.09,6.29c0.26,0.58,1.12,0.63,1.42,0.05c0.18-0.35,0.31-0.71,0.42-1.08c0.09-0.01,0.19-0.03,0.31-0.06
			c0.1-0.05,0.17-0.12,0.24-0.19c0.15-0.06,0.28-0.15,0.37-0.29c0.04-0.09,0.08-0.18,0.12-0.26c0.37-0.12,0.71-0.54,0.82-1.09
			c0-0.01,0-0.03,0.01-0.04c0,0,0,0,0,0c0.38-0.18,0.47-0.64,0.64-0.99c0.03-0.12,0.06-0.22,0.09-0.34c0.24,0.1,0.52,0.07,0.74-0.09
			c0.34-0.09,0.62-0.39,0.64-0.76c0.05-0.43-0.01-0.85-0.1-1.26c0.01-0.23,0.02-0.49,0.03-0.76c0.02-0.27,0.03-0.54,0.08-0.8
			c0.02-0.43,0.17-0.92-0.12-1.28c0-0.03,0-0.06,0.01-0.09C365.27,400.56,365.37,400.18,365.4,399.8z"/>
		<path class="st32" d="M308.4,452.72c-0.68-0.36-1.56,0.72-2.12,1.17c-0.21,0.21-0.44,0.42-0.66,0.63
			c-0.6,0.39-1.13,0.95-1.63,1.48c-2.21,1.95-4.21,4.21-6.31,6.3c-2,2.19-4.45,4.79-6.79,6.21c-0.06,0.06-0.1,0.1-0.14,0.14
			c-0.39,0.3-0.75,0.69-1.07,1c-0.14,0.13-0.28,0.27-0.41,0.43c-0.13,0.12-0.25,0.25-0.35,0.4c-0.24,0.15-0.37,0.35-0.42,0.57
			c-0.14,0.21-0.2,0.46-0.15,0.72c0.2,0.51,0.36,0.68,0.53,0.83c0.03,0.05,0.06,0.11,0.08,0.16c0.21,0.52,0.64,1.14,1.16,1.25
			c0.4,0.65,0.87,1.3,1.45,1.54c0.13,0.15,0.26,0.28,0.4,0.41c0.26,0.67,0.88,1.79,1.55,2.14c0.01,0.02,0.04,0.04,0.05,0.06
			c0.05,0.69,0.81,1.25,1.47,0.89c0.04-0.03,0.08-0.06,0.12-0.09c0.29-0.14,0.55-0.38,0.79-0.59c0.41-0.45,0.99-0.79,1.24-1.38
			c0.01-0.04,0.01-0.08,0.02-0.13c0.03-0.14,0.04-0.29,0.02-0.43c0.2-0.65-0.25-1.37-0.9-1.41c-0.03-0.16-0.06-0.32-0.08-0.48
			c0.11-0.17,0.22-0.34,0.32-0.51c0.26,0.37,0.72,0.59,1.19,0.47c0.45-0.12,0.79-0.43,1.11-0.78c0.32,0.55,1.18,0.76,1.77,0.02
			c0.33-0.36,0.65-0.71,0.95-1.05c0.23-0.06,0.45-0.19,0.6-0.39c-0.04,0.05-0.06,0.08,0.04-0.05c0.28-0.31,0.58-0.59,0.86-0.89
			c0.35-0.34,0.84-0.66,0.97-1.13c0.14-0.22,0.23-0.44,0.23-0.66c0.97-1.14,1.94-2.26,3.04-3.44c0.35-0.08,0.61-0.42,0.88-0.71
			c0.38-0.13,0.64-0.48,0.9-0.79c0.03-0.02,0.05-0.05,0.08-0.07c0.24-0.19,0.45-0.39,0.53-0.59c0.01-0.02,0-0.04,0-0.06
			c0.34-0.32,0.65-0.65,0.91-1.04c0.46-0.87-0.56-1.48-1.22-0.85c-1.11,0.72-1.77,1.51-2.45,2.2c-1.53,1.3-2.73,2.57-3.87,3.84
			c-0.2-0.1-0.43-0.16-0.66-0.1c-0.45,0.14-0.99,0.59-1.66,1.16c0.17-0.91-0.33-2-1.35-1.8c-1.27,0.39-2.11,1.32-2.79,2.41
			c0.13-0.51,0.22-1.03,0.2-1.57c-0.09-0.65-0.83-0.92-1.34-0.65c2.34-2.22,4.5-4.9,7.18-7.54c0.37-0.4,1-1.01,1.59-1.59
			c0.16-0.06,0.31-0.15,0.44-0.28c0.58-0.34,1.02-0.95,1.51-1.41c0.32-0.42,0.78-0.73,1.06-1.18c0.43-0.43,0.83-0.89,1.24-1.34
			c0.13-0.12,0.23-0.27,0.29-0.44c0.08-0.1,0.14-0.21,0.15-0.34C308.98,453.02,308.7,452.75,308.4,452.72z M294.46,469.54
			c-0.24-0.24-0.52-0.43-0.79-0.49c0.5-0.39,0.99-0.82,1.47-1.25C294.85,468.34,294.64,468.94,294.46,469.54z"/>
	</g>
	<g>
		<line class="st33" x1="287.59" y1="472.06" x2="365.36" y2="397.27"/>
		<line class="st33" x1="288.51" y1="471.44" x2="294.36" y2="478.92"/>
		<line class="st33" x1="294.83" y1="478.7" x2="371.61" y2="404.42"/>
		<line class="st34" x1="364.69" y1="398.01" x2="364.98" y2="404.6"/>
		<line class="st33" x1="364.99" y1="404.38" x2="371.92" y2="404.58"/>
		<path class="st33" d="M364.88,398.26c0.82-0.96,1.66-1.9,2.53-2.81c0.2,0.03,0.95-0.24,1.27-0.36c0.61-0.24,1.27-0.46,1.86-0.74
			c0.62-0.3,1.2-0.48,1.84-0.73c0.64-0.24,1.29-0.23,1.95-0.42c1.25-0.36,2.51-1.06,3.66-1.66c1.07-0.56,2.23-1.39,3.3-1.68
			c-0.38,1.07-1.59,1.74-2.22,2.61c-0.43,0.6-0.84,1.3-1.25,1.9c-0.55,0.8-0.87,1.66-1.31,2.51c-0.68,1.31-1.52,2.54-2.3,3.85
			c-0.45,0.77-1,1.43-1.6,2.1c-0.41,0.46-0.71,1.11-1.21,1.47"/>
		<path class="st33" d="M375.47,392.4c0.07,1.03,0.28,2.03,0.63,2.98c0.25-0.23,1-0.16,1.27,0c0.1-0.24,0.26-0.45,0.48-0.54"/>
		<line class="st35" x1="291.43" y1="475.18" x2="364.99" y2="404.38"/>
		<path class="st36" d="M288.46,470.93c-0.89,0.85-1.76,1.72-2.6,2.63c-0.02,0.18-1.12,1.21-1.46,1.56
			c-0.44,0.46-0.79,0.81-0.93,1.51c-0.08,0.43-0.06,0.93-0.06,1.37c-0.01,0.61,0.26,0.84,0.43,1.32c0.35,0.96,0.52,1.68,1.48,2.21
			c0.55,0.3,1.14,0.27,1.75,0.48c0.42,0.15,0.89,0.28,1.34,0.3c0.9,0.05,1.87-0.33,2.67-0.7c1.44-0.68,2.62-2.26,3.88-3.28
			c-0.14,0.01-0.15-0.05-0.02-0.17"/>
		<path class="st36" d="M286.84,472.83c1.44,1.72,2.55,3.28,3.79,5c0.33,0.46,1.42,2.13,2,1.98"/>
		<g>
			<g>
				<path d="M377.47,393.41c-0.08-0.17-0.16-0.34-0.25-0.51c-0.03-0.06-0.07-0.1-0.13-0.14c-0.05-0.04-0.1-0.07-0.17-0.09
					c-0.04-0.01-0.09-0.01-0.13-0.02c-0.07,0-0.13,0.01-0.19,0.04c-0.04,0.01-0.08,0.03-0.11,0.06c-0.05,0.03-0.1,0.08-0.13,0.14
					c-0.06,0.11-0.1,0.26-0.05,0.38c0.07,0.18,0.13,0.37,0.2,0.55c0.01,0.06,0.04,0.12,0.09,0.17c0.03,0.05,0.08,0.1,0.14,0.13
					c0.06,0.04,0.12,0.06,0.18,0.06c0.07,0.01,0.13,0.01,0.2-0.01c0.12-0.04,0.23-0.11,0.3-0.22c0.06-0.11,0.1-0.26,0.05-0.38
					c-0.07-0.18-0.13-0.37-0.2-0.55c-0.3,0.12-0.6,0.25-0.9,0.37c0.08,0.17,0.16,0.34,0.25,0.51c0.03,0.06,0.07,0.1,0.13,0.14
					c0.05,0.04,0.1,0.07,0.17,0.09c0.07,0.02,0.13,0.02,0.2,0.01c0.07,0,0.13-0.02,0.18-0.06c0.11-0.07,0.2-0.17,0.23-0.29
					c0.01-0.04,0.01-0.09,0.02-0.13C377.54,393.57,377.51,393.48,377.47,393.41L377.47,393.41z"/>
			</g>
		</g>
		<g>
			<g>
				<path d="M376.43,393.21c-0.05,0.04-0.1,0.08-0.15,0.12c-0.14,0.12-0.16,0.31-0.13,0.48c0.09,0.45,0.67,0.77,1.06,0.46
					c0.4-0.32,0.37-0.95-0.01-1.27c-0.3-0.25-0.68-0.15-0.82,0.21c-0.18,0.45,0.05,1.24,0.59,1.33c0.43,0.07,0.8-0.27,0.8-0.69
					c0-0.33-0.22-0.66-0.49-0.83c-0.36-0.23-0.78-0.16-1.09,0.13c-0.15,0.14-0.2,0.42-0.08,0.6c0.13,0.19,0.3,0.33,0.54,0.34
					c0.22,0.01,0.41-0.12,0.53-0.3c0.19-0.27,0.22-0.68,0.04-0.96c-0.24-0.38-0.79-0.48-1.12-0.15c-0.35,0.35-0.24,0.88,0.16,1.13
					c0.23,0.14,0.54,0.05,0.67-0.17c0.16-0.26,0.16-0.55,0.01-0.81c-0.19-0.34-0.65-0.3-0.85,0c-0.3,0.43-0.45,1.12-0.07,1.54
					c0.41,0.45,1.15,0.42,1.36-0.21c0.11-0.35-0.25-0.72-0.6-0.61c-0.47,0.15-0.72,0.65-0.48,1.1c0.21,0.41,0.73,0.55,1.12,0.3
					c0.14-0.09,0.26-0.25,0.25-0.42c-0.03-0.42-0.2-0.74-0.6-0.89c-0.18-0.07-0.41,0.03-0.52,0.17c-0.12,0.16-0.14,0.37-0.04,0.55
					c0.18,0.35,0.58,0.48,0.94,0.33c0.31-0.13,0.53-0.4,0.64-0.71c0.12-0.34,0.05-0.83-0.28-1.03c-0.23-0.14-0.6-0.07-0.78,0.12
					c-0.19,0.2-0.21,0.45-0.17,0.71c0.03,0.17,0.19,0.29,0.34,0.35c0.58,0.2,0.93-0.47,1.11-0.9c0.1-0.24,0.23-0.5,0.09-0.75
					c-0.14-0.26-0.42-0.44-0.72-0.43c-0.66,0-1.11,0.77-0.63,1.3c0.26,0.29,0.74,0.22,1.03,0.03c0.3-0.19,0.51-0.53,0.49-0.89
					c-0.01-0.25-0.21-0.52-0.49-0.49c-0.52,0.05-0.94,0.38-1.23,0.8c-0.22,0.32,0.07,0.74,0.42,0.74c0.5,0,0.93-0.31,1.28-0.64
					c0.33-0.31,0.61-0.68,0.86-1.05c-0.28-0.17-0.57-0.33-0.85-0.5c-0.15,0.26-0.36,0.48-0.51,0.74c-0.23,0.39,0.14,0.81,0.55,0.73
					c0.51-0.11,1.05-0.47,1.38-0.87c0.14-0.17,0.2-0.39,0.08-0.6c-0.11-0.19-0.34-0.28-0.55-0.23c-0.15,0.04-0.29,0.11-0.42,0.2
					c-0.11,0.08-0.24,0.2-0.32,0.25c-0.22,0.15-0.32,0.43-0.18,0.67c0.14,0.24,0.44,0.31,0.67,0.18c0.25-0.14,0.45-0.32,0.62-0.55
					c0.14-0.18,0.23-0.33,0.35-0.45c0.18-0.19,0.2-0.5,0-0.7c-0.18-0.18-0.51-0.2-0.7,0c-0.16,0.17-0.28,0.35-0.41,0.54
					c-0.01,0.01-0.09,0.12-0.04,0.05c-0.03,0.04-0.07,0.07-0.1,0.11c-0.07,0.07-0.1,0.09-0.21,0.15c0.16,0.28,0.33,0.57,0.49,0.85
					c0.12-0.08,0.23-0.17,0.34-0.26c0.03-0.02,0.03-0.02,0,0c0.02-0.02,0.04-0.03,0.06-0.04c0.02-0.01,0.04-0.03,0.07-0.04
					c-0.04,0.02-0.03,0.02,0.03,0c-0.16-0.28-0.32-0.55-0.47-0.83c-0.14,0.17-0.27,0.29-0.43,0.39c-0.09,0.06-0.18,0.11-0.28,0.16
					c-0.1,0.05,0.03,0-0.07,0.03c-0.06,0.02-0.11,0.03-0.17,0.05c0.18,0.24,0.37,0.48,0.55,0.73c0.15-0.26,0.36-0.48,0.51-0.74
					c0.14-0.23,0.06-0.54-0.17-0.67c-0.24-0.14-0.53-0.05-0.67,0.17c-0.08,0.12-0.21,0.3-0.26,0.37c-0.07,0.09-0.25,0.29-0.37,0.42
					c-0.07,0.07-0.14,0.13-0.21,0.2c0,0-0.12,0.09-0.04,0.04c-0.04,0.03-0.07,0.05-0.11,0.08c-0.04,0.02-0.07,0.04-0.11,0.06
					c-0.04,0.02-0.11,0.04-0.03,0.02c-0.04,0.01-0.09,0.02-0.12,0.04c-0.04,0.01-0.02,0.01,0.04,0c-0.02,0-0.05,0-0.07,0
					c0.14,0.25,0.28,0.5,0.42,0.74c0.03-0.04,0.03-0.05,0.01-0.01c0.02-0.03,0.04-0.05,0.07-0.08c0.05-0.05,0.1-0.1,0.16-0.14
					c-0.03,0.02-0.02,0.02,0.03-0.02c0.03-0.02,0.06-0.04,0.09-0.05c-0.08,0.04,0.15-0.02,0.03-0.01c-0.16-0.16-0.33-0.33-0.49-0.49
					c0,0.06,0,0.06,0.01,0c-0.02,0.05-0.02,0.06,0,0.01c-0.01,0.01-0.02,0.03-0.02,0.04c0.03-0.04,0.03-0.03-0.01,0.01
					c0.03-0.02,0.03-0.02,0.01,0c-0.03,0.02-0.03,0.02,0.01,0c-0.06,0.01-0.06,0.02-0.01,0.01c-0.06,0-0.06,0-0.01,0.01
					c0.07,0.04,0.14,0.09,0.22,0.13c0.04,0.05,0.05,0.09,0.05,0.16c0-0.07,0,0.03-0.01,0.04c-0.01,0.02-0.1,0.15-0.05,0.1
					c-0.02,0.01-0.04,0.03-0.05,0.04c0.04-0.02,0.03-0.02,0,0c-0.04,0.01-0.04,0.02-0.02,0.01c0.01-0.01,0.03-0.01,0.05-0.01
					c-0.02,0-0.05,0.01-0.07,0.01c0.04,0,0.04,0,0,0c-0.03-0.01-0.13-0.06-0.07-0.01c-0.03-0.02-0.11-0.13-0.06-0.04
					c-0.02-0.13-0.03-0.25-0.05-0.38c-0.02,0.07-0.04,0.14-0.07,0.2c-0.02,0.05-0.04,0.09-0.05,0.14c0.05-0.12-0.02,0.04-0.03,0.06
					c-0.05,0.09-0.1,0.18-0.16,0.26c0.09-0.12-0.1,0.05,0.05-0.05c-0.05,0.03-0.03,0.02,0.05-0.02c0.2,0.02,0.26,0.02,0.18-0.01
					c0.11,0.12,0.23,0.23,0.34,0.35c0.02,0.11-0.03,0.12-0.12,0.21c-0.03,0.08-0.08,0.12-0.15,0.12c-0.04,0-0.04,0,0.02,0
					c-0.12-0.05-0.23-0.1-0.35-0.15c-0.02-0.02-0.06-0.06-0.02-0.01c-0.01-0.02-0.04-0.09-0.02-0.02c-0.02-0.04,0-0.1-0.01-0.02
					c-0.01,0.05,0.03-0.08,0-0.03c-0.01,0.01-0.02,0.05-0.02,0.06c0,0.04,0.04-0.05,0.01-0.02c-0.01,0.01-0.03,0.04-0.03,0.06
					c-0.02,0.04-0.06,0.05,0.01-0.01c-0.02,0.01-0.03,0.04-0.05,0.05c-0.06,0.04,0.01-0.01,0.03-0.02
					c-0.06,0.03-0.11,0.05-0.01,0.02c-0.07,0.02,0.04,0,0.06,0c-0.06,0,0.07,0.02,0.1,0.03c0.02,0.01,0.1,0.07,0.09,0.06
					c-0.03-0.03,0.07,0.11,0.02,0.01c-0.19,0.24-0.37,0.48-0.56,0.72c-0.06-0.02-0.08-0.05-0.12-0.1c-0.01-0.03-0.01-0.03,0,0.02
					c0-0.05,0-0.05,0,0.01c0.08-0.14,0.16-0.28,0.25-0.42c-0.1,0.06,0.08-0.01-0.01,0.01c0.05-0.01,0.09-0.02,0.14,0
					c0.07,0.03,0.09,0.04,0.05,0.02c-0.03-0.02-0.02-0.01,0.04,0.04c-0.06-0.06,0.05,0.07,0.02,0.02c0.02,0.03,0.03,0.07,0.02,0.11
					c-0.01,0.07-0.04,0.11-0.08,0.16c-0.02,0.01-0.04,0.03-0.05,0.04c0.04-0.02,0.04-0.02-0.02,0.01c-0.2-0.2-0.4-0.41-0.6-0.61
					c0.04-0.12,0.15-0.16,0.26-0.19c0.08,0.01,0.09,0.01,0.03,0c0.02,0.01,0.03,0.01,0.05,0.02c-0.05-0.03-0.04-0.02,0.01,0.02
					c-0.02-0.01-0.03-0.03-0.05-0.05c0.03,0.02,0.04,0.06,0.05,0.09c-0.01-0.05-0.01-0.06-0.01-0.02c-0.02,0.08,0.02-0.16,0-0.04
					c0.01-0.06,0.03-0.11,0.04-0.17c0.01-0.02,0.02-0.05,0.03-0.07c-0.02,0.04-0.02,0.04,0.01-0.01c0.03-0.05,0.05-0.1,0.08-0.14
					c-0.28,0-0.57,0-0.85,0c0.01-0.06,0-0.12-0.01-0.18c0.22-0.06,0.45-0.12,0.67-0.17c0.13,0.08,0.14,0.3,0.04,0.41
					c-0.09,0.1-0.24,0.11-0.35,0.05c-0.03-0.02-0.06-0.05-0.08-0.08c-0.02-0.07-0.03-0.08-0.02-0.04c0.01,0.04-0.01-0.11-0.01,0
					c0,0.05,0.02-0.11-0.01,0c-0.01,0.04-0.01,0.02,0.02-0.05c-0.02,0.03-0.02,0.03,0.01-0.01c0.14-0.17,0.45-0.19,0.59,0.02
					c-0.03,0.2-0.05,0.4-0.08,0.6c0.07-0.06-0.05,0.03,0,0c0.05-0.03-0.09,0.03-0.03,0.01c0.06-0.02-0.12,0-0.03,0.01
					c-0.02,0-0.11-0.02-0.05-0.01c0.09,0.03-0.08-0.04-0.03-0.01c0.04,0.02,0.05,0.06-0.02-0.02c0.01,0.01,0.03,0.03,0.04,0.04
					c0.01,0.02,0.06,0.08,0.02,0.02c-0.04-0.07,0,0,0,0.01c0.04,0.08,0-0.03-0.01-0.03c0.03,0,0.01,0.21,0.01,0
					c0,0.06,0.03-0.12,0.01-0.07c0,0,0.05-0.11,0.09-0.14c0.04-0.04,0.09-0.07,0.14-0.08c-0.09,0.03,0.13,0,0.02,0
					c0.12,0.05,0.23,0.1,0.35,0.15c0,0-0.1-0.11-0.05-0.05c-0.02-0.05-0.03-0.06-0.02-0.03c0.01,0.03,0.01,0.02-0.01-0.03
					c0-0.02-0.01-0.03-0.01-0.05c0.01,0.05,0.01,0.04,0.01-0.02c-0.04,0.07,0.02-0.03,0.03-0.06c-0.27,0.07-0.55,0.14-0.82,0.21
					c0.07,0.06,0.03,0.01,0.02-0.04c-0.01-0.05,0.03-0.11-0.03-0.03c0.1-0.07,0.2-0.15,0.3-0.22c0.1-0.02,0.12,0.01,0.2,0.07
					c0.06,0.02,0.09,0.05,0.11,0.1c0.01,0.04,0.02,0.03,0-0.02c-0.04,0.16-0.09,0.32-0.13,0.48c0.05-0.04,0.1-0.08,0.15-0.12
					c0.2-0.17,0.18-0.52,0-0.7C376.92,393.01,376.63,393.04,376.43,393.21L376.43,393.21z"/>
			</g>
		</g>
		<g>
			<g>
				<path d="M375.93,396.25c0.03,0.03,0.06,0.07,0.09,0.1c0.08,0.09,0.23,0.15,0.35,0.15c0.12,0,0.27-0.04,0.35-0.14
					c0.05-0.06,0.1-0.12,0.14-0.19c0.04-0.07,0.07-0.14,0.09-0.21c0.02-0.07,0.03-0.15,0.04-0.23c0.01-0.04,0.01-0.09,0-0.13
					c0-0.09-0.02-0.17-0.07-0.25c-0.04-0.07-0.1-0.13-0.18-0.18c-0.08-0.04-0.16-0.07-0.25-0.07c-0.09,0-0.17,0.02-0.25,0.07
					c-0.08,0.04-0.16,0.09-0.22,0.16c-0.1,0.11-0.14,0.2-0.2,0.33c0.32,0.05,0.64,0.09,0.97,0.14c0-0.05,0-0.1,0.01-0.15
					c-0.01,0.04-0.01,0.09-0.02,0.13c0.03-0.21,0.1-0.41,0.08-0.62c0-0.07-0.01-0.13-0.04-0.19c-0.02-0.06-0.05-0.11-0.1-0.16
					c-0.08-0.09-0.22-0.15-0.35-0.15c-0.13,0.01-0.26,0.05-0.35,0.14c-0.08,0.09-0.16,0.22-0.15,0.35c0.01,0.07,0.01,0.13,0,0.2
					c0.01-0.04,0.01-0.09,0.02-0.13c-0.03,0.19-0.08,0.37-0.08,0.57c0,0.12,0.05,0.26,0.14,0.35c0.03,0.03,0.07,0.05,0.1,0.08
					c0.06,0.04,0.12,0.06,0.18,0.06c0.1,0.01,0.22,0,0.31-0.06c0.03-0.03,0.07-0.05,0.1-0.08c0.06-0.06,0.1-0.13,0.13-0.22
					c0,0,0-0.01,0.01-0.01c-0.02,0.04-0.03,0.08-0.05,0.12c0.01-0.03,0.03-0.06,0.05-0.09c-0.03,0.03-0.05,0.07-0.08,0.1
					c0.02-0.02,0.04-0.04,0.06-0.06c-0.03,0.03-0.07,0.05-0.1,0.08c0.02-0.02,0.05-0.03,0.07-0.04c-0.25-0.14-0.49-0.29-0.74-0.43
					c0,0.05,0,0.09,0,0.14c0.01-0.04,0.01-0.09,0.02-0.13c-0.01,0.05-0.02,0.09-0.04,0.14c0.02-0.04,0.03-0.08,0.05-0.12
					c-0.02,0.05-0.05,0.09-0.08,0.13c0.03-0.03,0.05-0.07,0.08-0.1c0,0-0.01,0.01-0.01,0.01c0.23,0,0.46,0,0.7,0
					c-0.03-0.03-0.06-0.07-0.09-0.1c-0.08-0.09-0.22-0.15-0.35-0.15c-0.12,0-0.27,0.05-0.35,0.14c-0.09,0.09-0.15,0.22-0.15,0.35
					C375.8,396.04,375.84,396.16,375.93,396.25L375.93,396.25z"/>
			</g>
		</g>
		<g>
			<g>
				<path d="M366.74,398.63c0.34,1.83,1.23,3.79,3.16,4.36c0.61,0.18,0.87-0.77,0.27-0.95c-0.73-0.22-1.28-0.73-1.68-1.38
					c-0.42-0.7-0.64-1.47-0.8-2.29c-0.05-0.26-0.36-0.41-0.6-0.35C366.81,398.1,366.69,398.37,366.74,398.63L366.74,398.63z"/>
			</g>
		</g>
		<g>
			<g>
				<path d="M369.72,396.92c0.32,1.14,0.68,2.33,1.52,3.21c0.18,0.19,0.52,0.2,0.7,0c0.18-0.2,0.19-0.5,0-0.7
					c-0.04-0.04-0.09-0.09-0.13-0.14c-0.03-0.03-0.05-0.06-0.08-0.09c-0.01-0.01-0.06-0.08-0.03-0.04c0.03,0.04-0.03-0.04-0.03-0.04
					c-0.02-0.03-0.04-0.05-0.05-0.08c-0.04-0.06-0.08-0.12-0.11-0.18c-0.07-0.12-0.13-0.23-0.19-0.35
					c-0.03-0.06-0.06-0.11-0.08-0.17c-0.01-0.03-0.03-0.06-0.04-0.09c-0.01-0.01-0.05-0.11-0.02-0.04c-0.21-0.5-0.36-1.03-0.5-1.55
					c-0.07-0.25-0.35-0.43-0.6-0.35C369.81,396.39,369.64,396.65,369.72,396.92L369.72,396.92z"/>
			</g>
		</g>
		<g>
			<g>
				<path d="M372.95,396.19c0.15,0.31,0.29,0.63,0.44,0.94c0.05,0.11,0.18,0.2,0.29,0.23c0.12,0.03,0.27,0.02,0.38-0.05
					c0.11-0.07,0.2-0.17,0.23-0.29c0.01-0.04,0.01-0.09,0.02-0.13c0-0.09-0.02-0.17-0.07-0.25c-0.15-0.31-0.29-0.63-0.44-0.94
					c-0.05-0.11-0.18-0.2-0.29-0.23c-0.12-0.03-0.27-0.02-0.38,0.05c-0.11,0.07-0.2,0.17-0.23,0.29c-0.01,0.04-0.01,0.09-0.02,0.13
					C372.89,396.03,372.91,396.11,372.95,396.19L372.95,396.19z"/>
			</g>
		</g>
	</g>
</g>
<g id="Hovedperson_ked_af_det_gravid">
</g>
<g id="Hovedperson">
</g>
<g id="Hovedperson_ked_af_det_gravid_copy_2">
</g>
<g id="Hovedperson_bagfra">
	<g id="Layer_6">
	</g>
</g>
<g id="Hovedperson_glad_gravid">
</g>
<g id="Hovedperson_glad_ikke_gravid">
</g>
</svg>
