<?xml version="1.0" encoding="UTF-8"?><svg xmlns="http://www.w3.org/2000/svg" viewBox="0 0 425.62 604.62"><defs><style>.g,.h{fill:#fff;}.i{fill:#f5d8a3;}.i,.j,.k,.l,.m,.n,.o,.h,.p,.q,.r{stroke:#000;stroke-miterlimit:10;}.j,.l,.n{fill:none;}.l{stroke-width:3px;}.m{fill:#b7985a;}.n,.o{stroke-width:2px;}.o{fill:#f5ff5c;}.p{fill:#ff7815;}.s{fill:#c71e18;opacity:.5;}.q{fill:#bd2042;}.r{fill:#ffd51b;}</style></defs><g id="a"><path class="p" d="M245.21,220.15c-16.26-16.67,14.21-84,63.32-121.19,41.18-31.18,101.7-45.9,114.13-28.34,12.35,17.45-24.64,64.1-46.72,86.55-43.59,44.33-113.7,80.42-130.72,62.98Z"/><path class="p" d="M244.42,244.81c9.51-18.4,57.44-15.83,91.66-.21,38.1,17.4,71.82,56.78,63.07,74.5-9.52,19.29-66.6,7.45-72.77,6.13-14.96-3.22-46.46-10.46-67.4-38.3-5.8-7.71-21.54-28.62-14.55-42.13Z"/><path class="p" d="M201.23,205.31c9.23-19.73-30.54-58.21-60.51-78.89-30.85-21.29-88.68-49.53-103.4-32.94-15.19,17.12,16.48,80.85,64.34,109.53,7.99,4.79,37.14,21.69,72.08,15.3,11.11-2.03,23.42-4.29,27.5-13Z"/><path class="p" d="M123.1,314.84c-.82,4.19-7.32,37.55,5.36,45.19,13.63,8.22,47.74-14.31,64.34-43.66,18.38-32.48,17.88-77.83,3.06-84.26-15.37-6.66-45.22,29-57.45,47.49-10.86,16.42-14.04,28.69-15.32,35.23Z"/></g><g id="b"><path class="m" d="M232.63,207.78c1.35,3.9,3.36,5.86,4.66,6.85,3.01,2.29,7.17,2.66,15.51,3.11,9.64,.52,10.86,1.06,12.53,1.11h0c.78,.39,1.6-.03,1.77-.09,1.52-.6,16.4,.8,29.28-4.91,4.77-2.11,11.22-4.97,12.59-10.58,1.19-4.85-1.51-9.34-2.55-11.23-9.1-16.48,4.52-35.04,4.6-72,.02-9.79-1.01-16.91-3.06-31.15-3.67-25.39-8.44-38.29-13.2-48.02-.25-.51-.45-.93-.76-1.52-4.38-8.43-12.21-22.99-28.6-31.32-13.42-6.82-28.39-7.32-33.36-7.49-4.38-.15-7.21,.07-11.57,.34-34.73,2.13-35.87-.77-44.94,1.36-23.12,5.44-36.56,29.21-43.91,42.21-3.38,5.98-9.75,17.49-12.26,33.7-1.87,12.14,.54,26.19,5.45,53.79,6.19,34.82,9.48,40.87,4.77,51.4-3.26,7.29-8.63,12.88-6.81,20.77,1.63,7.05,8,11.64,11.23,13.96,1.53,1.1,7.63,5.3,17.19,6.64,7.56,1.05,9.04-.83,24.34-3.23,17.83-2.8,25.81-1.8,31.06-8.45,1.39-1.76,2.14-3.5,2.56-4.65"/><path class="j" d="M292.29,101.31c-4.75-16.21-16.01-25.12-23.83-31.32-9.3-7.36-23.31-15.09-27.57-11.23-2.75,2.49-.13,8.62-2.72,9.87-2.17,1.05-5.84-2.37-9.87-6.13-8.34-7.77-9.42-13.09-15.32-14.64-2.67-.7-4.92-.3-5.99-.09-12.69,2.43-14.13,20.43-24.08,21.29-4.57,.39-6.43-3.21-12.44-1.96-1.49,.31-4.33,1.15-7.87,4.24-10.28,8.98-13.84,25.97-14.3,28.26-3.23,16.13-.89,29.82,1.02,37.45,1.87,7.47,6.12,23.61,20.43,38.13,4.59,4.66,16.1,16.03,35.06,20.09,13.41,2.87,26,.27,27.57-.05,.18-.04,1.42-.3,2.73-.63,19.71-4.98,34.89-21.18,36.09-22.47,2.2-2.39,11.5-12.78,17.36-29.62,3.71-10.66,8.58-24.67,3.74-41.19Zm-104.47,19.03c-4.51,0-4.5-7,0-7s4.5,7,0,7Zm4.47-5.13c-3.22,0-3.22-5,0-5s3.22,5,0,5Zm64.09,.26c-.64,0-1.15-.2-1.53-.52,1.3,2.05,.37,5.52-2.81,5.52-4.51,0-4.5-7,0-7,.96,0,1.71,.33,2.26,.84-.83-1.48-.13-3.84,2.08-3.84,3.22,0,3.22,5,0,5Z"/><g id="c"><path class="i" d="M207.01,195.47c-.52,0-4.8-1.22-13.36-3.67-7.54-2.16-15.51-8.95-18.31-11.33-13.18-11.24-19.72-25.07-22.29-31.28-2.5-6.04-11.41-28.53-3.8-54.07,2.15-7.2,7.2-24.14,18.91-27.19,7.29-1.9,10.6,3.3,17.22,.36,8.58-3.81,7.14-14.38,17.52-19.1,1.52-.69,5.63-2.56,10.06-1.32,4.2,1.18,5.25,4.19,10.75,9.98,1.65,1.73,11.62,12.23,15.07,10.28,2.3-1.3-.54-6.92,2.09-9.36,4.19-3.88,17.74,4.48,20.49,6.18,9.12,5.63,21.02,12.98,27.89,28.54,6.17,13.98,4.71,26.54,3.77,33.84-.51,3.94-3.01,20.81-15.43,36.71-13.89,17.79-36.5,29.65-42.51,30.55-.47,.07-2.12,.27-3.23,1.53-1.86,2.11-.91,5.72,0,9.19,.97,3.69,1.78,6.81,4.51,8.64,1.83,1.23,2.96,.83,3.63,2,1.56,2.71-2.82,7.87-3.36,8.5-4.42,5.1-10.33,6.51-12.1,6.91-7.37,1.65-13.28-.63-15.04-1.34-2.93-1.18-4.95-2.77-8.99-5.95-3.57-2.82-4.08-3.82-3.9-4.57,.36-1.46,3.15-.96,6.54-3.2,2.62-1.73,3.93-4.04,4.71-5.37,.71-1.22,2.1-3.93,2.44-7.66,.2-2.15,.61-5.91-1.4-7.28-.77-.52-1.6-.51-1.89-.51Z"/></g><path class="i" d="M208.96,196.06c3.96,8.51-1.04,17.51-9.04,21.51-13,5-27,9-37,21-14,19-26,38-43,53-16,6-33,4-49-1-5-2-8-6-11-10-1.42-1.26-2.83-2.51-4.25-3.77-.46-.58-1.19-1.41-2.25-2.23-.63-.49-1.15-.8-1.5-1-3.62-2.11-5.98-3.15-5.98-3.15-4.84-2.13-7.25-3.19-9.02-2.85-1.95,.38-3.34,1.53-4.38,2.38-1.37,1.12-2.62,2.62-3.62,4.62-4,8-2,22,8,23,19,2,35,13,52,21,5,2,10,4,15,4,8-1,16-4,23-9,15-12,29-22,45-33,2,0,5-1,5,2,2,9,0,18-3,26-3,9-6,18-9,28-10,44-21,84-34,126-1,6-2,15,5,14,11.28-1.61,43.89-1.13,59.09,.29,1.46,.14,7.07,.96,18.3,2.61,13.25,1.94,16.55,3.09,23.49,3.57,4.84,.34,12.02,.48,20.94-.77,8.56-2.03,21.26-5.53,36.75-11.67,.24-.1,1.95-.77,3.4-1.37,20.43-8.45,50.79-21.01,59.04-45.66,1.43-4.29,4.67-13.98,1-24-6.59-17.98-29.25-20.11-39-38-5.43-9.97-8-21-8-21-.02-.54-.12-1.49-.55-2.55-.95-2.31-2.85-3.54-3.18-3.77-6.99-4.88-13.02-27.83-13.02-27.83-2.29-8.71-7.26-21.19-19.15-37.28-1.84-6.35-1.25-8.74-.26-9.7,.47-.45,2.65-2.16,3.16-2.87,.07-.1,.4-.66,1.07-1h0c2.71-1.55,6.99,1.4,7.93,2,6.32,4.04,28.56,8.35,45.25,7.38,5.54-.32,27.06-1.88,43.75-17.38,.8-.74,.36-.37,3-3,20.51-20.37,34.08-29.56,35-39,.13-1.34,.51-5.21-1.76-7.02-1.27-1.01-2.86-.99-3.24-.98-1.09,.05-2.74,.47-5,3-2.9,3.24-2.33,4.92-4.88,9.25-1.55,2.64-3.46,5.88-7.12,7.75-1.47,.75-2.29,.8-5,2.12-2.66,1.3-4.45,2.52-5,2.88-6.93,4.52-21.1,6.31-37,15-4.34,2.38-3.99,2.63-7,4,0,0-11.35,5.18-24,4-15.44-1.43-14.58-11.01-34-18-11.59-4.17-18.19-3.02-35-10-4.33-1.8-9.94-4.38-12.34-10.15-1.94-4.66-.92-9.33-.12-11.88"/><g id="d"><path class="r" d="M197.57,218.99c4.09,.24,4.03,5.43,9.88,8.99,6.27,3.81,12.73,3.52,14.67,3.37,1.75-.14,7.32-.68,12.37-4.57,1.32-1.01,3.39-2.69,4.75-5.57,1-2.11,.61-2.65,1.29-3.39,2.38-2.61,9.42,1.88,20.92,5.16,7.96,2.27,9.07,1.4,17.16,4.14,6.28,2.13,9.54,3.99,11.6,5.35,2.4,1.57,5.51,3.99,6.22,4.54,2.53,1.96,4.22,3.42,4.61,3.74,3.86,3.21,13.75,5.97,25.84,4.09,8.62-1.34,5.89-3.15,27.4-11.36,17-6.49,18.47-5.37,23.24-9.44,1.75-1.49,5.37-4.9,7.77-3.82,1.53,.69,1.09,2.68,3.27,5.87,2.33,3.41,4.24,3.25,4.54,4.99,.47,2.7-3.84,4.77-10.7,10.36-6.89,5.61-6.18,6.42-11.67,10.57-5.78,4.37-10.96,6.62-13.8,7.84-12.81,5.49-24.08,5.61-34.93,5.72-9.25,.1-14.06,.15-20.39-1.58-7.49-2.04-19.32-7.18-19.88-7.43-.25-.11-.38-.17-.4-.17-1.37,.19-3.06,.69-4.09,2.04-1.96,2.59-.33,6.84,2.4,13.27,3.76,8.85,5.63,13.27,6.8,15.24,10.86,18.26,20.3,40.9,21.71,44.3,6.28,15.07,5.51,17.33,11.03,26.43,3.69,6.07,8.1,13.34,16.28,20.18,11.55,9.67,19.14,8.89,23.55,17.95,2.71,5.56,2.33,10.94,2.04,14.98-.15,2.15-1.06,12.28-10.74,25.02-8.68,11.42-18.49,17.22-28.14,22.69-13.64,7.72-25.02,11.37-43.37,17.14-16.44,5.17-24.66,7.76-30.59,8.1-12.89,.73-16.69-2.45-48.8-5.72-4.74-.48-9.56-.91-15.26-1.25-4.77-.28-12.88-.75-23.27-.6-11.95,.17-17.93,.26-19.67,.45-5.47,.61-7.69,1.28-9.45-.11-3.76-2.99-1.05-11.94,1.52-20.75,4.29-14.69,7.96-29.57,12.26-44.26,4.33-14.78,6.49-22.17,8.84-33.14,2.28-10.6,3.21-17.46,6.83-30.62,1.85-6.73,3.82-12.98,4.65-15.62,5.18-16.41,7.86-24.04,7.86-24.04,3.37-9.6,5.56-14.94,3.87-21.53-.33-1.31-1.43-5.57-4.03-6.14-2-.44-3.93,1.54-5.55,3.05-4.05,3.78-9.29,6.09-13.52,9.65-2.79,2.35-24.46,20.47-39.98,26.85-2.86,1.18-8.42,3.15-14.91,2.57-2.18-.19-4.09-.64-4.6-.77-3.36-.81-5.76-2.02-10.43-4.41-8.32-4.25-7.34-3.79-8.63-4.43-8.63-4.27-12.51-5.32-12.45-7.27,.04-1.27,1.67-.89,3.2-3.52,1.08-1.86,1.74-4.56,3.39-6.66h0c1.35-1.73-.49-4.21,.05-5.05,.87-1.35,7.52,2.28,13.87,4.13,8.21,2.39,15.21,1.6,22.79,.74,5.99-.68,9.06-1.06,12.53-3.13,1.91-1.14,3.46-2.48,9.04-8.79,4.05-4.58,6.08-6.86,8.25-9.64,12.71-16.22,14.82-23.18,25.71-34.58,8.63-9.03,14.2-11.87,16.14-12.79,2.2-1.04,3.44-1.38,6.02-2.39,2.71-1.06,3.27-1.42,5.27-2.24,4.57-1.87,6.85-2.8,7.8-2.74Z"/></g><path class="h" d="M202.08,111.87c-2.22-3.82-7.08-4.19-10.21-4.43-7.04-.53-12.08,3.05-13.96,4.43-1.97,1.44-6.5,4.77-5.79,7.83,.42,1.81,2.46,2.67,5.79,4.09,2.38,1.01,6.81,2.83,12.94,2.38,4.08-.29,6.88-.5,9.19-2.72,2.87-2.77,4.18-7.9,2.04-11.57Z"/><path class="h" d="M262.01,111.87c-1.88-1.38-6.91-4.96-13.96-4.43-3.13,.24-7.99,.6-10.21,4.43-2.14,3.68-.83,8.81,2.04,11.57,2.31,2.23,5.12,2.43,9.19,2.72,6.13,.44,10.56-1.37,12.94-2.38,3.33-1.41,5.37-2.28,5.79-4.09,.71-3.06-3.82-6.39-5.79-7.83Z"/><path class="k" d="M196.87,111.78c-1.58-2.51-4.36-2.96-6.98-3.41-1.48-.26-3.05-.51-4.94,.19-.62,.23-3.03,1.12-4.43,3.79-1.58,3.02-1.19,7.01,.68,9.66,2.07,2.94,5.26,3.28,6.47,3.41,1.15,.12,5.92,.63,8.68-3.41,1.85-2.71,2.52-7.04,.51-10.23Zm-7.82,8.56c-4.51,0-4.5-7,0-7s4.5,7,0,7Zm4.47-5.13c-3.22,0-3.22-5,0-5s3.22,5,0,5Z"/><path class="k" d="M259.99,111.78c-1.58-2.51-4.36-2.96-6.98-3.41-1.48-.26-3.05-.51-4.94,.19-.62,.23-3.03,1.12-4.43,3.79-1.58,3.02-1.19,7.01,.68,9.66,2.07,2.94,5.26,3.28,6.47,3.41,1.15,.12,5.92,.63,8.68-3.41,1.85-2.71,2.52-7.04,.51-10.23Zm-3.62,3.55c-.64,0-1.15-.2-1.53-.52,1.3,2.05,.37,5.52-2.81,5.52-4.51,0-4.5-7,0-7,.96,0,1.71,.33,2.26,.84-.83-1.48-.13-3.84,2.08-3.84,3.22,0,3.22,5,0,5Z"/><path class="j" d="M172.4,107.74c-.06,.36-.44,2.77,1.19,4.6,.71,.79,1.53,1.17,2.04,1.36"/><path class="j" d="M167.08,112.52c.15,.33,1.18,2.54,3.56,3.15,1.03,.26,1.92,.12,2.45-.01"/><path class="j" d="M266.83,106.99c.06,.36,.44,2.77-1.19,4.6-.71,.79-1.53,1.17-2.04,1.36"/><path class="j" d="M272.14,111.77c-.15,.33-1.18,2.54-3.56,3.15-1.03,.26-1.92,.12-2.45-.01"/><path class="j" d="M218.42,130.59c-.01,.94-.11,2.37-.6,4-1.04,3.52-2.87,4.65-2.55,6.13,.23,1.07,1.61,2.36,6.89,3.15"/><path class="k" d="M197.67,157.87c-.49-.73,0-1.72,.88-1.75,3.99-.17,12.17-.52,14.06-.6,2.59-.11,7.98,.52,14.3-.11,2.49-.25,4.99-.37,7.49-.57,5.05-.41,5.75-.52,6.13,0,1.6,2.22-3.87,9.63-10.21,13.96-2.59,1.76-6.24,4.15-11.23,4.09-5.7-.07-9.73-3.32-13.62-6.47-2.08-1.68-5.02-4.42-7.79-8.54Z"/><ellipse class="s" cx="170.35" cy="136.21" rx="9.19" ry="6.21"/><path class="n" d="M140.8,100.63c2.67-7.27,14.65-5.17,40.17-11.91,13.2-3.49,16.6-5.8,21.45-3.4,8.57,4.23,9.92,17.35,10.55,23.49,.57,5.52,1.72,16.68-5.11,22.81-3.36,3.02-7.3,3.61-10.89,4.09-21.66,2.87-32.3,5.53-37.45,2.72-8.58-4.69-11.93-14.02-16.68-27.23-1.95-5.43-2.91-8.2-2.04-10.55Z"/><path class="n" d="M297.36,102.08c-2.67-7.27-14.65-5.17-40.17-11.91-13.2-3.49-16.6-5.8-21.45-3.4-8.57,4.23-9.92,17.35-10.55,23.49-.57,5.52-1.72,16.68,5.11,22.81,3.36,3.02,7.3,3.61,10.89,4.09,21.66,2.87,32.3,5.53,37.45,2.72,8.58-4.69,11.93-14.02,16.68-27.23,1.95-5.43,2.91-8.2,2.04-10.55Z"/><path class="n" d="M213.28,112.25c1.15-.5,3.19-1.21,5.84-1.22,2.67,0,4.73,.72,5.88,1.22"/><path class="l" d="M199.44,96.97c-2.28-.79-8.62-2.62-15.57,0-2.65,1-4.68,2.38-6.13,3.57"/><path class="l" d="M241.47,96.97c2.28-.79,8.62-2.62,15.57,0,2.65,1,4.68,2.38,6.13,3.57"/><path class="i" d="M226.51,543.76c.1-15.48,1.3-30.48,2.04-39.83,.83-10.39,1.53-16.64,1.51-20.93h0s-7.76-1.43-8.59-1.58c-4.17-.76-11.06-1.88-22.98-3.41,.41,4.62,.85,11.3,1.98,19.27,4.32,30.5,6.48,45.76,7.66,50.04,4.18,15.14,11.74,36.03,7.66,44.43-.35,.71-2.01,3.87-1.02,7.15,.68,2.25,2.61,4.59,5.11,5.11,3.83,.79,7.56-3,9.19-5.62,3.89-6.23,.56-13.29-1.53-22.98-1.19-5.5-1.13-14.22-1.02-31.66Z"/><path class="i" d="M312.04,591.7c-1.09-14.74-5.62-27.06-5.62-27.06-3.83-10.43-.36-7.42-5.93-38.12-3.98-21.96-5.01-19.39-5.82-29.29-1.07-13.25,.49-21.02-.78-26.05-.03,0-.06,.02-.09,.03-11.3,3.12-21.81,8.63-33.43,10.67,1.92,5.83,7.41,12.93,12.34,24.03,4.93,11.11,1.3,8.26,8.68,32.17,2.47,7.99,9.92,31.12,13.28,43.91,1.81,6.88,2.1,9.51,2.04,12.26-.11,5.14-1.39,7.2,0,8.68,2.42,2.58,10.55,.86,13.79-4.09,1.81-2.77,1.63-5.85,1.53-7.15Z"/><path class="q" d="M208.38,167.95c.02-1.03,1.4-1.74,2.24-2.25,6.7-4.04,12.57-4.81,12.57-4.81,10.69-.69,13.63,.12,13.87,1.19,.17,.74-.92,1.77-3.1,3.83-.33,.31-1.58,1.48-3.64,2.89-1.3,.89-2.47,1.7-4.01,2.4-1.35,.62-4.4,1.97-8.39,1.62-2.74-.24-4.61-1.17-5.91-1.81-1.62-.8-3.64-1.79-3.62-3.06Z"/><path class="g" d="M202.16,158.83c.53,.86,1.06,1.73,1.59,2.59,.19,.32,.55,.51,.94,.49l8.15-.31,21.13-.16c.41,0,.78-.24,.94-.6l1.28-2.8c.31-.67-.21-1.42-.98-1.41l-32.17,.68c-.8,.02-1.28,.85-.87,1.52Z"/><ellipse class="s" cx="266.91" cy="137.23" rx="9.19" ry="6.21"/><g id="e"><path class="k" d="M214.58,595.31c1.25-1.44,3.9,.8,9.63,.38,3.83-.28,5.68-1.51,6.28-.67,.81,1.13-1.84,4.38-3.5,5.98-1.59,1.54-2.9,2.8-5.02,3.01-3.25,.31-5.52-2.14-5.75-2.39-1.61-1.8-2.8-4.98-1.64-6.31Z"/><path class="k" d="M296.65,595.69c2.37-2.14,6.12,1.32,10.79-.76,2.88-1.28,3.82-3.65,4.6-3.23,.93,.5,.33,4.31-1.53,7.15-.81,1.23-2.91,3.89-6.59,4.68-.72,.16-5.84,1.26-7.77-1.75-1.14-1.77-1.02-4.71,.51-6.09Z"/></g></g><g id="f"><polygon class="o" points="38.3 230.08 41.21 291.86 46 359.05 51.6 358.65 42.41 229.79 38.3 230.08"/><path class="o" d="M29.19,201.48c2.29-10.59,4.59-21.18,6.88-31.78,3.87,9.66,7.74,19.32,11.61,28.98,8.46,.68,16.91,1.36,25.37,2.03-7.16,4.57-14.31,9.14-21.47,13.71,5.34,7.23,10.68,14.47,16.02,21.7-9.34-2.57-18.67-5.13-28.01-7.7-6.78,3.82-13.55,7.63-20.33,11.45,2.38-7.6,4.77-15.21,7.15-22.81-7.72-3.18-15.43-6.35-23.15-9.53,8.64-2.01,17.28-4.03,25.92-6.04Z"/></g></svg>