<?xml version="1.0" encoding="UTF-8"?><svg xmlns="http://www.w3.org/2000/svg" viewBox="0 0 431.59 632.71"><defs><style>.i{stroke-width:3px;}.i,.j,.k,.l,.m,.n,.o,.p{stroke:#000;}.i,.p{fill:none;}.q,.o{fill:#fff;}.j{fill:#f5d8a3;}.k{fill:#ff1bc6;}.l{fill:#4f4122;}.r{fill:#c71e18;opacity:.5;}.n{fill:#bd2042;stroke-miterlimit:10;}</style></defs><g id="a"><path class="j" d="M200.67,64.37c-14.51,1.82-21.76,2.73-28.09,4.6-10.39,3.07-20.51,6.05-28.6,13.79-15.55,14.88-14.6,38.76-13.79,59.23,.39,9.83,.88,19.69,6.13,31.15,4.49,9.8,10.18,15.81,18.89,25.02,11.51,12.16,17.27,18.24,25.53,20.43,11.75,3.11,20.3-2.01,24.51,3.06,2.86,3.45,2.49,9.92,0,14.3-.3,.53-1.81,3.09-5.11,5.11-7.06,4.32-12.8,.28-19.91,3.06-4.57,1.79-6.68,5.19-10.21,10.21-6.55,9.3-14.79,17.32-21.45,26.55-13.38,18.55-27.61,31.69-47.49,50.04-15.79,14.58-11.23,8.49-26.55,22.47-11.97,10.93-17.05,16.74-26.04,17.36-6.01,.41-12.49-1.59-13.79,1.02-.85,1.71,1.07,4.31,2.04,5.62,3.39,4.57,8.56,6.2,10.72,6.64,7.79,1.59,14.94-4.36,26.04-13.28,27.64-22.19,21.53-15.97,34.21-27.06,10.29-9,17.12-14.98,26.04-24,17.67-17.85,22.04-26.93,26.04-25.53,6.79,2.37,2.46,31.14,1.53,37.28-3.26,21.65-8.73,36.16-19.4,64-13.93,36.31-20.18,52.38-25.53,76.43,0,0-8.67,39.93-.51,43.91,3.02,1.47,6.07-1.35,12.77-3.06,8.99-2.3,12.55,1.03,30.64,4.09,17.77,3,19.6,1.22,23.1,4.61,2.66,2.58,4.16,10.26,7.03,25.52,1.41,7.51,2.13,11.36,2.55,16.34,.54,6.35,.32,10.09,0,19.4-.87,25.73-.32,31.41,2.04,37.79,.61,1.64,4.63,12.2,8.17,11.74,2.86-.37,4.66-7.83,4.6-13.79-.08-7.18-2.85-10.3-4.6-16.34-1.71-5.94-.3-7.31,1.53-25.53,2.15-21.44,3.23-32.16,3.06-35.74-.26-5.73-.69-14.14,3.06-15.83,1.85-.83,3.24,.64,7.66,0,4.29-.62,5.7-2.41,7.15-1.53,1.45,.88,1.28,3.44,1.02,8.68-.19,3.91,0,7.86-.51,11.74-1.61,12.14-.19,21.12-2.04,37.28-3.01,26.34-10.49,34.98-4.09,43.91,2.42,3.37,6.73,6.67,9.19,5.62,3-1.29,2.05-8.56,2.04-16.34,0-8.89,1.87-16.99,5.62-33.19,5.75-24.85,9.96-21.62,11.74-37.79,1.24-11.23-.01-19.8,6.13-24.51,2.98-2.28,5.48-1.96,10.72-3.06,4.32-.91,8.96-2.46,24.51-11.74,21.96-13.12,32.93-19.67,34.72-26.04,1.01-3.58,.54-6.04-5.62-24.51-9.47-28.42-13.28-38.3-13.28-38.3-11.26-29.2-12.99-32.25-14.49-36.32-.72-1.96-.75-2.6-1.34-4.02-1.48-3.59-3.48-5.91-4.09-6.64-4.3-5.21-8.5-15.65-9.87-19.06-3.84-9.54-4.69-17.57-5.45-25.19-.93-9.4-2.05-31.65,3.06-32.85,1.49-.35,2.82,1.33,6.64,5.62,9.71,10.92,14.74,18.32,19.4,24,6.76,8.23,10.8,13.14,17.87,16.85,9.2,4.82,10.43,.73,29.11,6.13,11.95,3.45,17.92,5.18,22.98,7.66,4.13,2.03,6.67,3.69,10.72,3.57,5.82-.16,13.9-3.96,14.3-10.21,.31-4.76-3.94-9.19-8.17-10.72-4.61-1.68-7.93,.55-13.28,1.53-6.83,1.25-12.72-.87-24.51-5.11-10.65-3.83-20-7.19-29.11-15.32-4.07-3.63-8.16-9.74-16.34-21.96-11.3-16.87-11.74-19.65-18.89-28.09-8.05-9.49-12.07-14.24-19.4-16.85-4.54-1.62-12.95-3.36-21.45-4.09-6.32-.54-9.39-.24-11.74-2.55-3.92-3.86-4.52-11.91-1.02-16.34,2.15-2.73,4.72-2.66,11.74-5.11,0,0,5.58-1.94,14.81-6.64,9.05-4.61,13.83-12.23,21.96-25.53,8.47-13.87,12.71-20.81,15.32-30.64,7.81-29.4-4.57-54.19-6.13-57.19-2.73-5.26-9.29-17.56-23.49-27.06-2.28-1.53-14.28-9.35-31.66-11.23-6.07-.66-14.6,.41-31.66,2.55Z"/></g><g id="b"><path class="k" d="M200.16,241.05c4.74,1.15,4.67,6.35,9.7,8.68,3.7,1.71,7.6,.69,10.21,0,6.72-1.77,7.49-5.59,13.42-6.6,1.19-.2,1.59-.12,9.05,.99,14.36,2.13,14.98,2.14,17.17,2.82,6.48,2,10.94,5.02,12.74,6.25,4.88,3.35,8.25,7.09,15.89,18.26,8.88,12.97,10.07,16.32,18.12,27.92,5.94,8.55,8.91,12.83,12.16,15.73,11.79,10.5,25.86,14.15,25.86,14.15,8.06,2.09,12.36,1.32,15.02,5.16,2.93,4.25,2.01,11.44-1.08,13.05-2.27,1.18-3.99-1.51-10.24-3.04-6.79-1.66-7.91,.74-15.26-.72-4.9-.97-4.72-2.1-12.17-4.34-8.09-2.43-8.64-1.29-12.34-2.81-7.27-2.98-11.05-10.04-17.7-22.47-1.67-3.12-4.58-8.9-10.38-14.3-2.42-2.25-4.23-3.96-5.82-3.45-1.09,.35-2.28,1.76-2.86,7.88-.82,8.61,.61,15.48,1.02,17.36,2.49,11.49,3.95,18.22,7.49,27.91,2.26,6.2,6.12,15.65,6.12,15.65h0s.1,.46,.37,1.36c3.33,11.28,6.9,16.1,12.58,27.76,6.74,13.84,4.39,12.58,13.79,35.23,11.48,27.68,16.16,32.44,13.79,42.38-2.43,10.15-10.17,17.13-12.26,18.89-5.24,4.44-7.64,3.9-20.2,10.09-12.62,6.21-11.6,7.44-22.23,12.4-12.47,5.82-22.83,8.09-25.49,8.66-8.32,1.79-8.36,.79-23.74,3.06-15.52,2.29-15.11,3.25-22.21,3.57-7.47,.34-14.01-.72-27.06-3.06-4.83-.87-14.37-2.61-26.55-6.13-9.3-2.69-10.57-4.53-15.83-4.6-9.04-.11-13.83,4.2-17.92,1.24-2.94-2.13-3.28-6.4-3.53-9.41-.63-7.84,3.09-13.91,3.34-15.35,2.97-17.39,.48-28.33,7.9-55.12,3.05-11.02,3.48-5.91,12.77-29.79,5.08-13.07,8.34-23.3,14.64-43.23,2.6-8.21,6.01-19.22,9.87-32.34,.6-10.64,1.34-19.25,1.91-25.28,.6-6.31,1.12-10.72-.38-11.31-1.93-.76-5.99,5.33-8.68,9.36,0,0-9.6,13.22-28.6,31.49-13.1,12.6-12.65,7.93-29.28,22.98-12.76,11.55-18.27,19.04-24.34,17.36-4.36-1.2-7.77-6.78-7.66-11.74,.15-6.82,6.62-10.9,23.49-23.49,12.04-8.98,18.06-13.48,21.96-16.85,8.23-7.13,15.02-15.14,28.6-31.15,12.02-14.17,18.03-21.26,19.91-24,1.99-2.89,6.38-9.44,13.79-16.34,6.45-6,9.75-7.2,11.23-7.66,3.75-1.16,4.99-.37,13.28-2.04,4.77-.96,5.15-1.38,6.64-1.02Z"/></g><g id="c"><path class="m" d="M194.03,620.45c.78-.54,2.14,1.75,4.6,2.04,4,.47,6.8-4.87,8.17-4.09,.27,.15,.41,.5-.9,7.91-.29,1.64-.56,3.06-1.71,4.33-.39,.43-1.29,1.43-2.61,1.52-1.36,.09-2.36-.83-3.46-1.84-.47-.44-2.2-2.09-3.4-5.28-.41-1.09-1.52-4.02-.68-4.6Z"/><path class="m" d="M216.58,615.84c1.09-.74,2.82,2.44,6.56,2.74,3.73,.3,5.78-2.56,7.18-1.54,.58,.42,.54,1.13,.11,6.65-.29,3.77-.46,5.68-1.31,6.31-1.56,1.17-4.05,.23-4.72-.02-1.85-.7-2.93-1.99-4.29-3.6-.6-.72-1.51-1.81-2.3-3.43-1.13-2.3-2.38-6.33-1.23-7.11Z"/></g><g id="d"><path class="l" d="M198.8,65.22c-1.26,0-2.43,.09-14.64,3.4-8.05,2.18-12.11,3.29-13.62,3.91-2.04,.85-8.81,3.85-15.83,10.21-2.43,2.2-6.11,5.57-9.42,10.98-.96,1.57-3.67,6.22-5.87,15.32-1.37,5.67-3.4,16.62-1.94,30.6,1.1,10.51,3.69,18.16,5.77,24.29,2.18,6.44,4.34,12.81,8.94,20.43,3.51,5.82,8.74,14.48,18.64,21.19,8.57,5.81,18.78,9.11,18.78,9.11,7.79,2.51,12.53,2.59,15.66,6.98,2.05,2.87,3.32,7.44,1.44,10.76-2.84,5.01-11.31,4.4-12.64,4.3-7.1-.52-7.21-4.39-14.04-4.6-5.41-.16-8.1,2.18-13.05,1.09-.69-.15-2.75-.66-5.62-.83-6.66-.39-7.77,1.19-19.91,2.55-11.6,1.3-17.44,1.89-19.4-1.02-3.13-4.64,6.43-13.18,3.57-17.36-3.79-5.55-23.33,5.58-29.62-1.53-1.96-2.22-.31-3.59-2.04-12.77-1.16-6.14-2.37-12.59-6.64-17.87-5.16-6.39-9.11-4.05-11.74-8.68-4.84-8.51,7.95-17.37,5.11-31.66-1.76-8.85-7.41-9.15-7.66-17.36-.07-2.43,.32-5.56,9.7-20.94,8.83-14.47,11.21-16.17,12.26-22.47,1.38-8.35-2.65-10.04-.51-15.83,3.11-8.4,11.74-6.41,19.4-15.83,7.85-9.65,2.82-16.69,10.21-22.47,7-5.46,12.95,.1,22.98-6.13,8.61-5.34,7.13-10.22,13.28-12.26,10.78-3.57,18.16,10.47,30.64,7.66,6.48-1.46,5.82-5.54,16.34-11.23,3.5-1.9,11.63-6.19,21.96-6.64,17.98-.78,31.4,10.61,35.74,14.3,7.25,6.15,5.33,8.12,13.28,14.81,9.49,7.98,13.81,6.98,21.99,13.79,5.14,4.28,4.12,5.25,15.29,20.94,13.47,18.92,16.66,19.88,18.41,28.09,.9,4.2,3.1,14.51-2.07,22.47-1.6,2.45-3.18,3.57-4.09,6.64-1.7,5.75,1.1,10.89,3.06,15.32,.49,1.11,7.12,16.37,6.64,30.13-.13,3.81-.49,13.86-7.15,21.96-7.93,9.63-17.61,7.77-20.94,16.34-2.88,7.42,2.55,12.05-.51,16.34-3.69,5.18-12.7-.65-25.53,4.6-7.16,2.93-8.03,6.24-11.23,7.83,0,0-1.33,.59-3.07,.85-8.23,1.22-17.96-9.31-24.26-6.38-2.22,1.03-1.41,2.53-4.57,4.6-4.15,2.71-10.69,3.48-12.73,.91-2.53-3.18,1.6-11.84,7.34-16.99,4.71-4.22,7.35-3.85,18.04-8.85,6.49-3.03,10.96-6.42,12.34-7.49,10.65-8.29,15.61-18.32,17.36-21.96,1.99-4.14,3.09-7.59,4.09-10.72,.79-2.48,2.64-8.63,3.83-16.85,.82-5.69,2.44-17.46,0-32.43-1.35-8.28-2.42-14.88-6.89-22.47-4.08-6.92-8.92-11.19-13.16-14.93-4.71-4.15-9.64-8.5-17.57-11.71-3.38-1.37-11.21-4.67-21.11-3.74-8.1,.76-9.83,3.62-17.36,3.02-7.58-.6-8.34-3.71-15.66-3.71Z"/><ellipse class="r" cx="161.58" cy="149.5" rx="9.19" ry="6.21"/><ellipse class="r" cx="267.04" cy="149.32" rx="9.19" ry="6.21"/></g><g id="e"><path class="i" d="M137.56,124.59c1.2-1.45,4.46-2.35,10.94-4.09,3.36-.9,6.85-1.83,11.93-2.66,3.65-.6,8.6-1.23,17.25-1.5,16.71-.53,25.36-.72,27.18,3.37,.25,.57,.05,2.3-.34,5.78-.49,4.41-.8,7.2-1.73,10.91-1.42,5.71-3.39,9.94-4.31,11.81-1.59,3.21-3.31,6.69-6.56,10.31-2.44,2.72-7.28,8.11-15.18,9.75-6.02,1.25-10.86-.3-14.62-1.5-9.38-2.99-14.8-8.85-15.93-10.12-4.44-4.96-6.22-9.86-7.31-12.93-2.07-5.87-5.2-14.44-1.31-19.12Z"/><path class="i" d="M288.33,124.59c-1.2-1.45-4.46-2.35-10.94-4.09-3.36-.9-6.85-1.83-11.93-2.66-3.65-.6-8.6-1.23-17.25-1.5-16.71-.53-25.36-.72-27.18,3.37-.25,.57-.05,2.3,.34,5.78,.49,4.41,.8,7.2,1.73,10.91,1.42,5.71,3.39,9.94,4.31,11.81,1.59,3.21,3.31,6.69,6.56,10.31,2.44,2.72,7.28,8.11,15.18,9.75,6.02,1.25,10.86-.3,14.62-1.5,9.38-2.99,14.8-8.85,15.93-10.12,4.44-4.96,6.22-9.86,7.31-12.93,2.07-5.87,5.2-14.44,1.31-19.12Z"/></g><g id="f"><path class="i" d="M205.56,122.27c2.25-.39,4.22-.62,5.81-.75,1.88-.16,8.59,.42,10.12,.94"/></g><g id="g"><path class="o" d="M196.84,134.58c1-3.77-1.22-6.96-1.53-7.4-1.77-2.46-4.23-3.22-7.91-4.34-3.33-1.02-6.29-1.92-10.21-1.28-5.81,.96-9.26,4.58-10.21,5.62-1.58,1.71-3.25,3.53-3.06,5.87,.2,2.43,2.28,4.03,4.34,5.62,.9,.69,3.56,2.61,7.66,3.57,4.71,1.11,8.49,.3,10.98-.26,2.79-.63,5.24-1.21,7.4-3.32,.69-.67,1.99-1.97,2.55-4.09Z"/><path class="o" d="M234.08,134.58c-1-3.77,1.22-6.96,1.53-7.4,1.77-2.46,4.23-3.22,7.91-4.34,3.33-1.02,6.29-1.92,10.21-1.28,5.81,.96,9.26,4.58,10.21,5.62,1.58,1.71,3.25,3.53,3.06,5.87-.2,2.43-2.28,4.03-4.34,5.62-.9,.69-3.56,2.61-7.66,3.57-4.71,1.11-8.49,.3-10.98-.26-2.79-.63-5.24-1.21-7.4-3.32-.69-.67-1.99-1.97-2.55-4.09Z"/></g><g id="h"><path d="M192.76,129.09c-.76-3.11-3.16-4.92-4.09-5.62-2.25-1.7-4.53-2.15-5.62-2.3-1.16-.15-4.15-.51-7.15,1.28-.39,.23-2.43,1.49-3.83,4.09-.47,.88-1.56,3.18-1.28,6.13,.52,5.49,5.34,8.37,5.87,8.68,2.81,1.62,7.46,2.74,10.72,.51,1.06-.72,1.57-1.52,2.55-3.06,1.6-2.5,3.75-5.86,2.81-9.7Zm-11.36,7.21c-4.51,0-4.5-7,0-7s4.5,7,0,7Zm5.23-6.49c-3.22,0-3.22-5,0-5s3.22,5,0,5Z"/><path d="M261.32,129.09c-.76-3.11-3.16-4.92-4.09-5.62-2.25-1.7-4.53-2.15-5.62-2.3-1.16-.15-4.15-.51-7.15,1.28-.39,.23-2.43,1.49-3.83,4.09-.47,.88-1.56,3.18-1.28,6.13,.52,5.49,5.34,8.37,5.87,8.68,2.81,1.62,7.46,2.74,10.72,.51,1.06-.72,1.57-1.52,2.55-3.06,1.6-2.5,3.75-5.86,2.81-9.7Zm-11.63,6.7c-4.51,0-4.5-7,0-7s4.5,7,0,7Zm4.98-7c-3.22,0-3.22-5,0-5s3.22,5,0,5Z"/><path class="p" d="M164.9,126.31c-.15,.03-2.84,.47-4.6-1.53-1.28-1.46-1.18-3.22-1.15-3.57"/><path class="p" d="M162.5,128.71c-.87-.04-2.24-.21-3.76-.88-1.37-.6-2.34-1.37-2.95-1.94"/><path class="p" d="M265.34,125.13c.15,.03,2.84,.47,4.6-1.53,1.28-1.46,1.18-3.22,1.15-3.57"/><path class="p" d="M267.74,127.54c.87-.04,2.24-.21,3.76-.88,1.37-.6,2.34-1.37,2.95-1.94"/><path class="p" d="M214.75,147.35c-2.56,3.84-3.47,6.99-3.81,9.07-.29,1.71-.24,2.93,.76,4.2,1.49,1.9,4.29,2.89,5.72,3.32"/><path class="m" d="M237.85,177.78c-.95-1.69-4.03-1.1-10.96-.72-10.4,.56-15.6,.85-21.7,.26-4.59-.44-7.28-1.14-8.17,.26-1.15,1.79,1.59,5.54,3.32,7.91,1.4,1.92,3.3,4.53,6.89,6.64,4.87,2.86,9.52,2.84,11.23,2.81,1.98-.03,5.87-.15,9.96-2.55,3.8-2.24,5.58-5.29,7.15-7.91,1.79-3,3.11-5.22,2.28-6.68Z"/><path class="i" d="M193.22,113.2c-2.11-.84-5.07-1.74-8.69-2.02-5.75-.45-10.36,.9-12.98,1.89"/><path class="i" d="M238.1,113.2c2.11-.84,5.07-1.74,8.69-2.02,5.75-.45,10.36,.9,12.98,1.89"/><path class="n" d="M206.46,191.01c-.03-.4,.16-1.35,4.43-3.4,4.67-2.25,8.43-3.06,8.43-3.06,6.21-1.34,15-3.25,16.05-.9,.58,1.3-1.36,3.56-2.34,4.7-.99,1.16-1.94,1.81-3.58,2.93-2.12,1.44-3.19,2.17-4.76,2.77-3.04,1.17-5.71,1-8.16,.84-2.93-.19-4.89-.8-5.91-1.18-1.88-.69-4.07-1.49-4.15-2.69Z"/><path class="q" d="M200.41,179.82c.52,.87,1.04,1.74,1.57,2.6,.19,.32,.55,.51,.93,.5l8.15-.24,21.13,.03c.41,0,.78-.23,.95-.59l1.3-2.78c.31-.67-.2-1.43-.96-1.42l-32.18,.39c-.8,0-1.29,.84-.89,1.51Z"/></g></svg>