<?xml version="1.0" encoding="UTF-8"?><svg id="a" xmlns="http://www.w3.org/2000/svg" viewBox="0 0 76.1 193.81"><defs><style>.b{fill:#f5ff5c;stroke:#000;stroke-miterlimit:10;stroke-width:2px;}</style></defs><polygon class="b" points="38.3 63.77 41.21 125.55 46 192.74 51.6 192.34 42.41 63.48 38.3 63.77"/><path class="b" d="M29.19,35.18c2.29-10.59,4.59-21.18,6.88-31.78,3.87,9.66,7.74,19.32,11.61,28.98,8.46,.68,16.91,1.36,25.37,2.03-7.16,4.57-14.31,9.14-21.47,13.71,5.34,7.23,10.68,14.47,16.02,21.7-9.34-2.57-18.67-5.13-28.01-7.7-6.78,3.82-13.55,7.63-20.33,11.45,2.38-7.6,4.77-15.21,7.15-22.81-7.72-3.18-15.43-6.35-23.15-9.53,8.64-2.01,17.28-4.03,25.92-6.04Z"/></svg>