<?xml version="1.0" encoding="UTF-8"?><svg id="a" xmlns="http://www.w3.org/2000/svg" viewBox="0 0 75.74 191.95"><defs><style>.b{fill:#ffb4fb;stroke:#000;stroke-miterlimit:10;stroke-width:2px;}</style></defs><polygon class="b" points="32 62.63 20.57 123.42 9.73 189.9 15.28 190.8 36.07 63.29 32 62.63"/><path class="b" d="M29.74,32.71c4.68-9.78,9.35-19.55,14.03-29.33,1.54,10.29,3.08,20.58,4.61,30.87,8.07,2.61,16.14,5.22,24.21,7.83-8.02,2.79-16.04,5.59-24.05,8.38,3.53,8.27,7.06,16.54,10.58,24.81-8.49-4.65-16.99-9.3-25.48-13.96-7.47,2.15-14.95,4.3-22.42,6.45,4.07-6.85,8.15-13.7,12.22-20.54-6.77-4.87-13.55-9.74-20.32-14.62,8.87,.03,17.75,.07,26.62,.1Z"/></svg>