<?xml version="1.0" encoding="UTF-8"?><svg id="a" xmlns="http://www.w3.org/2000/svg" viewBox="0 0 392.64 299.64"><defs><style>.b{fill:#ff7815;stroke:#000;stroke-miterlimit:10;}</style></defs><path class="b" d="M212.23,157.55c-16.26-16.67,14.21-84,63.32-121.19,41.18-31.18,101.7-45.9,114.13-28.34,12.35,17.45-24.64,64.1-46.72,86.55-43.59,44.33-113.7,80.42-130.72,62.98Z"/><path class="b" d="M211.44,182.21c9.51-18.4,57.44-15.83,91.66-.21,38.1,17.4,71.82,56.78,63.07,74.5-9.52,19.29-66.6,7.45-72.77,6.13-14.96-3.22-46.46-10.46-67.4-38.3-5.8-7.71-21.54-28.62-14.55-42.13Z"/><path class="b" d="M168.25,142.71c9.23-19.73-30.54-58.21-60.51-78.89C76.89,42.53,19.06,14.29,4.33,30.88c-15.19,17.12,16.48,80.85,64.34,109.53,7.99,4.79,37.14,21.69,72.08,15.3,11.11-2.03,23.42-4.29,27.5-13Z"/><path class="b" d="M90.12,252.24c-.82,4.19-7.32,37.55,5.36,45.19,13.63,8.22,47.74-14.31,64.34-43.66,18.38-32.48,17.88-77.83,3.06-84.26-15.37-6.66-45.22,29-57.45,47.49-10.86,16.42-14.04,28.69-15.32,35.23Z"/></svg>