<?xml version="1.0" encoding="UTF-8"?><svg id="a" xmlns="http://www.w3.org/2000/svg" viewBox="0 0 396.26 285.46"><defs><style>.b{fill:#8a0094;stroke:#000;stroke-miterlimit:10;}</style></defs><path class="b" d="M209.05,132.87c13.46-19.48-29.73-80.16-86.34-107.63C75.24,2.22,11.14-.94,1.73,18.71c-9.35,19.52,36.69,58.58,63.19,76.58,52.31,35.53,130.04,57.97,144.13,37.58Z"/><path class="b" d="M193.06,159.43c-12.95-18.7-59.66-7.55-90.31,15.67-34.14,25.85-59.67,75.24-47.61,93.33,13.13,19.68,67.04-3.3,72.86-5.84,14.11-6.15,43.72-19.63,58.93-54.04,4.21-9.53,15.64-35.38,6.13-49.11Z"/><path class="b" d="M223.64,130.83c-11.4-19.19,28.23-61.3,58.74-84.64,31.4-24.03,91.17-57.26,108.21-41.7,17.58,16.06-11.43,83.03-60.49,115.91-8.19,5.49-38.1,24.94-76.01,21.32-12.05-1.15-25.41-2.42-30.44-10.9Z"/><path class="b" d="M330.19,230.67c1.62,4.49,14.52,40.26,3.52,50.91-11.83,11.45-49.8-7.55-71.87-37.13-24.43-32.74-32.76-82.98-19.42-92.65,13.84-10.03,50.18,24.23,65.82,42.56,13.9,16.28,19.42,29.29,21.95,36.31Z"/></svg>