<?xml version="1.0" encoding="UTF-8"?><svg id="a" xmlns="http://www.w3.org/2000/svg" viewBox="0 0 598.8 370.01"><defs><style>.b{stroke-width:8px;}.b,.c{stroke:#000;}.b,.c,.d{stroke-miterlimit:10;}.c{fill:#fff;stroke-width:4px;}.d{fill:#ff1d25;stroke:#bebebe;}</style></defs><path class="c" d="M219.67,29.26c54.16,9.69,119.38,17.25,186.78,14.82,87.87-3.16,149.19-22.19,190.13-40.88l-19.96,305.7c-49.37,32.78-102.96,46.48-142.88,52.77-105.43,16.6-212.82-3.19-279.65-15.98-60.27-11.53-112.91-25.88-150.73-37.21L219.67,29.26Z"/><path class="d" d="M368.87,135.87c12.21,44.09-38.44,109.99-95.49,108.56-45.52-1.14-92.21-45.06-87.7-88.53,4.28-41.22,52.39-60.83,56.78-62.54,47.57-18.59,114.84,.71,126.41,42.51Z"/><path class="b" d="M255.12,172.53c-4.05,2.62-10.34,3.86-13.99,1.21-6.63-4.82-3.85-21.93,3.8-32.91,6.52-9.36,19.43-18.33,27.37-14.54,7.23,3.45,5.65,15.22,13.26,17.64,2.83,.9,4.23-.35,13.94-3.46,10.56-3.38,15.84-5.07,18.36-4.12,10.48,3.95,16.28,35.67,2.66,45.97-4.45,3.37-12,5.23-15.45,2.18-6.4-5.67,4.18-25.86,.47-27.82-2.42-1.28-6.78,7.44-17.21,8.42-1.79,.17-4.49,.42-7.43-.76-9.67-3.86-10.52-18.6-13.75-18.54-3.71,.06-.93,19.56-12.02,26.73Z"/><g><path d="M377.58,267.43c.09-2.31,.59-4.99,1.79-7.8,2.18-5.09,6.66-8.13,13.13-9.72,6.49-1.59,14.81-1.98,25.84-1.24,11.13,.75,19.91,2.17,25.64,4.6,5.83,2.48,8.49,6.54,7.22,11.99-.6,2.58-1.44,4.77-2.43,6.63-24.13,.79-47.35-.67-71.19-4.46Zm64.9,1.12c.66-.93,1.11-2.26,1.46-3.68-1.51-12.35-17.05-11.8-26.46-12.42-9.34-.62-25.16-2.36-30.87,8.23-.75,1.84-.9,3.3-.76,4.32,18.95,2.55,37.52,3.71,56.63,3.55Z"/><path d="M427.44,229.84c-1.15,4.31-1.74,6.47-2.97,10.8,9.62,.52,14.46,.58,24.13,.29,1.05-4.83,1.55-7.23,2.5-12.04,2.81-.08,4.22-.14,7.03-.3-1.12,6.23-1.71,9.36-2.98,15.63-22.8,.76-44.73-.58-67.25-4.11,2.33-5.94,3.46-8.91,5.64-14.85,2.75,.49,4.13,.72,6.89,1.15-1.57,4.53-2.37,6.8-4.03,11.33,8.33,1.28,12.52,1.76,20.94,2.43,1.31-4.32,1.95-6.47,3.18-10.78,2.76,.22,4.14,.31,6.91,.46Z"/><path d="M460.01,204.79c1.24,1.24,2.55,4.11,1.82,7.11-3.09,12.73-23.15,13.55-34.7,13.62-9.41,.06-30.72-4.75-28.25-18.38,1.17-3.42,3.46-5.29,4.81-6.04,2.38,.78,3.57,1.16,5.97,1.88-1.82,1.13-3.49,2.88-4.22,5.16,.17,10.94,13.62,13.12,22.39,13.57,8.34,.43,24.12,.04,27.41-10.25,.37-2.17-.27-4.34-1.56-5.73,2.53-.35,3.8-.54,6.32-.94Z"/><path d="M437.65,185.94c-.85,4.26-1.29,6.4-2.21,10.68,8.46,.5,12.71,.57,21.24,.35,.71-4.75,1.05-7.12,1.67-11.84,2.47-.06,3.7-.1,6.18-.22-.69,6.12-1.07,9.18-1.91,15.34-19.7,1.03-39.76-.14-59.16-3.85,1.89-5.93,2.8-8.89,4.55-14.81,2.4,.45,3.6,.67,6.01,1.06-1.24,4.51-1.88,6.76-3.21,11.28,7.3,1.16,10.98,1.61,18.37,2.23,1-4.28,1.49-6.42,2.42-10.68,2.41,.21,3.62,.3,6.05,.45Z"/><path d="M444.24,157.26c-7.22-.29-15.84-1.12-22.14-2.25l-.03,.12c5.72,1.96,11.89,3.94,18.86,5.88,9.81,2.72,14.85,3.79,25.12,5.28-.09,1.05-.14,1.58-.23,2.64-10.48,2.17-15.79,2.97-26.46,4.01-7.89,.76-15.15,.99-21.76,.72l-.02,.08c6.71,1.17,15.82,2.45,24.03,3.16,9.4,.82,14.15,1,23.69,.85-.14,1.33-.21,2-.35,3.34-18.8-.24-36.65-2.13-55.09-5.86,.51-1.8,.77-2.7,1.27-4.5,10.84,.14,16.25-.09,26.97-1.12,6.82-.6,12.84-1.33,18.51-2.01v-.12c-5.33-.69-11.06-1.85-17.49-3.62-9.85-2.79-14.66-4.48-23.94-8.42,.45-1.8,.68-2.69,1.12-4.49,17.04,2.8,33.81,3.32,51.02,2.63-.09,1.35-.13,2.02-.23,3.37-9.17,.6-13.75,.66-22.85,.31Z"/><path d="M418.65,143.97c-.22-1.65-.08-4.17,.47-6.62,.79-3.51,2.39-5.49,4.97-6.72,2.04-.97,4.92-1.33,8.55-.72,4.45,.74,8.16,2.94,9.62,5.98h.14c1.47-2.42,5.47-4.93,12.46-4.57,4.05,.21,7.14,1.15,9.37,2.5,2.95,1.79,4.32,4.77,4.12,9.11-.11,2.36-.51,4.19-.87,5.35-16.35,.62-32.83-1.07-48.84-4.3Zm20.62-.32c.19-1.27,.29-1.9,.48-3.17,.54-3.69-2.54-6.22-7.06-6.95-5.49-.88-8.08,1.04-8.81,4.58-.33,1.61-.32,2.58-.22,3.18,6.19,1.18,9.32,1.65,15.62,2.35Zm23.67,1.26c.27-.67,.41-1.66,.48-2.89,.22-3.56-1.98-6.72-8.93-7.06-6.52-.32-9.55,2.49-10.05,6.29-.15,1.15-.23,1.73-.38,2.88,7.49,.66,11.28,.81,18.87,.78Z"/><path d="M448.03,112.2c-.34,4.13-.53,6.21-.94,10.36,6.53,.69,9.83,.89,16.46,1,.16-4.57,.22-6.85,.3-11.38,1.91,.06,2.86,.07,4.78,.08,0,5.85-.02,8.8-.16,14.71-15.68-.31-30.37-1.89-45.75-4.96,1.16-5.84,1.71-8.76,2.73-14.58,1.81,.46,2.72,.67,4.54,1.08-.69,4.42-1.06,6.63-1.83,11.07,5.58,1.17,8.4,1.66,14.09,2.4,.49-4.17,.72-6.25,1.14-10.4,1.84,.27,2.77,.39,4.63,.6Z"/><path d="M426.88,102.47c-.26-1.89-.14-4.49,.24-6.87,.58-3.7,1.94-5.79,4.3-6.89,1.88-.87,4.58-.97,7.57-.32,5.12,1.12,8.44,3.83,9.72,6.82l.18,.03c1.19-1.88,4.09-2.65,8.27-2.86,5.62-.28,9.52-.78,11.06-1.25,.05,1.37,.07,2.05,.12,3.42-1.15,.39-4.69,.89-9.78,1.17-5.63,.31-7.82,1.34-8.18,4.41-.07,1.28-.11,1.93-.19,3.21,7.26,.88,10.95,1.13,18.37,1.23,.02,1.34,.03,2,.04,3.34-14.33-.59-27.73-2.33-41.73-5.44Zm19.23,.32c.11-1.4,.16-2.1,.27-3.5,.27-3.65-2.63-6.41-7.13-7.35-5.09-1.06-7.6,.83-8.14,4.44-.25,1.65-.17,2.92,0,3.53,5.92,1.41,8.93,1.99,15.01,2.87Z"/></g></svg>