<?xml version="1.0" encoding="UTF-8"?><svg id="a" xmlns="http://www.w3.org/2000/svg" viewBox="0 0 360.75 537.25"><defs><style>.b{fill:#fff;}.b,.c,.d{stroke-miterlimit:10;}.b,.d{stroke:#000;stroke-width:4px;}.c{fill:#ff1d25;stroke:#bebebe;}</style></defs><path class="b" d="M25.05,155.86c10.03,51.93,18.07,113.77,16.34,175.92-2.25,81.02-20.34,134.67-38.28,169.47l299.8,33.89c31.69-40.21,44.62-87.6,50.41-123.58,15.28-95.02-5.18-198.09-18.37-262.32-11.9-57.92-26.48-109.25-37.97-146.29L25.05,155.86Z"/><path class="c" d="M193.25,155.46c37.55,15.44,52.84,80.95,25,122-23.39,34.49-77.17,51.63-108.74,27.96-25.08-18.8-26.53-56.13-20.33-79.71,12.12-46.16,65.68-86.03,104.07-70.25Z"/><path class="d" d="M128.03,207.89c4.41-10.66,41.68-12.4,49.98-1.98,6.25,7.84-9.63,15.39-7.77,37.05,1.16,13.55,8.35,21.78,2.63,26.96-3.73,3.38-11.53,4.2-15.85,1.58-5.99-3.63-4.63-13.47-2.42-28.07,2.15-14.21,5.64-22.73,2.5-24.25-3.34-1.62-8.9,7.28-16.7,6.02-7.43-1.2-14.85-11.3-12.37-17.3Z"/><g><path d="M87.94,377.54c-1.14-10.19-1.71-15.28-2.85-25.47,1.47,.34,2.21,.51,3.67,.82,3.94,5.98,5.94,9.06,9.99,15.38,2.34,3.66,4.24,6.96,5.86,10.15l.07-.02c-.78-3.81-1.27-7.21-1.81-11.55-.57-4.66-.86-6.99-1.43-11.65,1.26,.19,1.89,.28,3.15,.44,1.18,9.43,2.37,18.87,3.55,28.3-1.4-.37-2.11-.57-3.51-.97-4.11-6.61-6.13-9.84-10.13-16.11-2.19-3.44-4.29-6.87-5.93-10h-.11c.57,3.32,1,6.46,1.49,10.77,.51,4.43,.76,6.65,1.26,11.08-1.31-.46-1.96-.69-3.27-1.18Z"/><path d="M134.66,373.08c1.65,11.1-3.06,16.33-9.91,15.06-7.08-1.31-12.84-8.53-13.96-17.28-1.18-9.18,3.14-14.58,9.98-14.27,6.99,.32,12.47,6.92,13.89,16.48Zm-20.25-1.68c.83,6.29,4.67,12.63,10.09,13.56,5.47,.93,7.67-4.71,6.63-11.91-.92-6.31-4.53-12.89-10.07-13.23-5.5-.34-7.5,5.12-6.65,11.58Z"/><path d="M147.43,390.52c-4.53-11.08-9.05-22.16-13.57-33.25,1.42-.03,2.12-.05,3.54-.11,2.57,6.43,3.88,9.69,6.53,16.3,1.83,4.53,3.45,8.66,4.79,12.66h.08c.12-3.89,.51-8.16,.93-12.67,.64-6.82,.94-10.3,1.48-17.39,1.38-.16,2.07-.25,3.45-.44-.92,11.72-2.06,23.43-3.44,35.11-1.51-.07-2.27-.12-3.79-.22Z"/><path d="M173.87,372.72c-3.95,.59-5.93,.83-9.91,1.21,.92,5.21,1.38,7.82,2.31,13.04,4.53-.21,6.79-.38,11.29-.86,.31,1.63,.46,2.44,.77,4.07-5.88,.54-8.84,.7-14.77,.78-2.06-11.91-4.13-23.81-6.2-35.72,5.37-.82,8.04-1.33,13.33-2.54,.31,1.63,.46,2.44,.76,4.07-4.06,.87-6.1,1.24-10.2,1.88,.81,4.57,1.21,6.86,2.02,11.43,3.96-.43,5.93-.7,9.85-1.35,.3,1.6,.45,2.4,.75,4Z"/><path d="M200.57,367.98c-1.42-5.64-3.12-12.41-4.18-17.51l-.11,.04c.22,5.08,.3,10.48,.24,16.41-.08,8.34-.16,12.44-.37,20.52-1.01,.19-1.51,.28-2.53,.46-3.21-7.24-4.79-10.82-7.91-17.89-2.29-5.24-4.27-10-5.87-14.41l-.07,.02c.88,4.83,1.97,11.35,2.88,17.17,1.03,6.67,1.54,9.99,2.55,16.63-1.28,.17-1.92,.24-3.21,.39-1.85-12.84-3.72-25.68-5.62-38.52,1.6-.42,2.4-.64,4-1.1,3.15,7.04,4.75,10.6,8,17.81,2.02,4.6,3.78,8.76,5.27,12.75l.11-.02c-.19-4.14-.19-8.72-.15-14.07,.14-8.23,.18-12.41,.18-20.9,1.57-.59,2.35-.89,3.91-1.51,3.53,13.58,7.07,27.15,10.62,40.73-1.29,.33-1.93,.49-3.22,.8-1.82-7.13-2.73-10.69-4.54-17.79Z"/><path d="M203.98,342.22c1.21-1.08,3.2-2.4,5.3-3.4,2.99-1.44,5.14-1.39,7.1-.03,1.54,1.07,2.96,3.28,3.81,6.72,1.03,4.21,.44,8.64-1.69,11.4l.03,.13c2.52,.04,6.03,2.27,7.63,8.76,.93,3.77,.82,7.02,.07,9.59-1,3.41-3.57,5.74-7.69,7.05-2.25,.71-4.03,.97-5.18,1.03-3.13-13.75-6.25-27.5-9.38-41.24Zm7.03,15.97c1.13-.44,1.7-.67,2.82-1.14,3.28-1.35,4.44-5.31,3.43-9.48-1.23-5.08-3.77-6.02-6.82-4.6-1.39,.65-2.15,1.19-2.59,1.6,1.26,5.45,1.89,8.17,3.15,13.62Zm4.69,20.28c.68-.02,1.62-.25,2.77-.64,3.34-1.12,5.88-4.4,4.35-10.71-1.44-5.92-4.84-7.13-8.26-5.78-1.04,.41-1.55,.61-2.59,1,1.49,6.45,2.24,9.68,3.73,16.14Z"/><path d="M240.51,349.37c-3.62,2.07-5.45,3.05-9.13,4.91,1.65,6.44,2.47,9.66,4.12,16.1,4.23-1.9,6.34-2.91,10.51-5.08l1.34,4.97c-5.47,2.74-8.23,4-13.8,6.29-3.72-14.76-7.44-29.53-11.16-44.29,4.9-2.81,7.31-4.32,12.09-7.52,.53,1.98,.8,2.97,1.34,4.96-3.67,2.39-5.53,3.53-9.27,5.69,1.45,5.64,2.17,8.47,3.61,14.11,3.64-1.91,5.45-2.91,9.04-5.03,.52,1.95,.79,2.93,1.31,4.88Z"/><path d="M238.82,322.5c1.26-1.62,3.2-3.44,5.12-4.89,2.98-2.25,5.22-2.56,7.35-.96,1.68,1.27,3.28,4.05,4.38,7.74,1.87,6.32,1.27,11.88-.63,15.21l.06,.21c2.11,.07,4.14,2.74,6.16,7.32,2.7,6.15,4.64,10.42,5.68,11.96-1.26,.81-1.89,1.2-3.15,1.99-.78-1.1-2.53-4.89-4.88-10.37-2.6-6.08-4.51-7.72-7.25-6.19-1.12,.72-1.67,1.08-2.8,1.78,2.26,8.08,3.39,12.12,5.65,20.2-1.24,.68-1.86,1.02-3.11,1.68-4.2-15.23-8.39-30.45-12.59-45.68Zm8.77,19.23c1.21-.77,1.81-1.17,3.01-1.96,3.13-2.08,4.04-7.09,2.45-12.52-1.79-6.14-4.63-7.24-7.58-5.11-1.36,.98-2.26,1.97-2.64,2.57,1.91,6.81,2.86,10.21,4.76,17.02Z"/></g></svg>