<?xml version="1.0" encoding="UTF-8"?><svg xmlns="http://www.w3.org/2000/svg" viewBox="0 0 718.48 680.47"><defs><style>.c,.d{fill:none;}.c,.d,.e,.f,.g{stroke-miterlimit:10;}.c,.d,.e,.g{stroke:#000;}.c,.e,.g{stroke-width:4px;}.d{stroke-width:8px;}.e{fill:#fff;}.f{fill:#ff1d25;stroke:#bebebe;}</style></defs><g id="a"/><g id="b"><polygon class="c" points="36.23 71.36 31.01 135.92 65.37 163.42 466.08 95.41 472.97 10.19 442.89 2.05 36.23 71.36"/><path class="e" d="M65.76,163.15c10.23,42.83,25.91,101.19,48.82,163.66,25.4,69.27,66.96,179.91,144.22,256.55,29.25,29.02,73.84,63.3,135.3,77l320.56-254.02c-42.38-18.89-96.78-55.15-150.37-128.5-41.1-56.26-70.87-119.49-92.13-175.04"/><path class="c" d="M46.57,178.19c-.23,14.91-.02,36.07,2.15,61.11,12.58,145.74,75.5,242.85,98.96,275.5,54.01,75.19,113.25,107.23,146.95,121.22"/><path class="c" d="M34.63,184.05c-14.59,62.75-14.47,114.68-12.04,149.21,5.88,83.55,29.53,125.42,38.32,220.02,5.16,55.55,2.47,99.91-.24,127"/><line class="c" x1="61.07" y1="678" x2="263.98" y2="621.57"/><path class="f" d="M244.34,201.75c-15.74,47.27,30.63,138.46,90.93,158.64,53.04,17.74,124.65-16.85,134.94-65.77,8.72-41.44-28.75-82.82-37.27-92.23-61.87-68.33-170.26-55.71-188.6-.64Z"/><path class="g" d="M327,241.76c-8.24-4.03-15.42-16.86-13.7-25.82,1.6-8.36,10.54-11,19.13-13.82,10.34-3.4,25.69-8.44,36.63,6.14,1.68,2.24,7.68,10.83,8.88,25.42,1.75,21.17-12.83,36.9-10.65,40.97,3.06,5.69,27.52-29.07,40.4-18.26,5.16,4.33,7.99,15.59,6.26,23.48-1.73,7.92-7.34,9.2-29.25,20.47-21.13,10.86-24.22,13.94-29.47,10.76-7.97-4.83-13.48-19.57-13.22-33.27,.42-21.96,15.58-36.62,13.25-41.63-2.26-4.88-15.29,11.92-28.28,5.57Z"/><path class="g" d="M199.35,78.06c-4.65,4.39-4.36,16.4,.39,22.74,3.69,4.93,10.26,6.68,13.99,1.73,3.35-4.46,2.82-12.24,.65-17.31-3.11-7.29-10.61-11.34-15.04-7.16Z"/><path class="g" d="M379.95,49.64c-4.65,4.39-4.36,16.4,.39,22.74,3.69,4.93,10.26,6.68,13.99,1.73,3.35-4.46,2.82-12.24,.65-17.31-3.11-7.29-10.61-11.34-15.04-7.16Z"/><path class="c" d="M29.73,161.43C11.78,222.26,7.17,273.67,6.33,309.66c-1.78,76.35,12.59,117.01,9.05,203.44-1.95,47.44-8.34,85.34-13.42,109.91"/><line class="c" x1=".85" y1="622.46" x2="61.8" y2="630.83"/><path class="d" d="M229.54,90.18c18.45-9.93,43.72-20.27,74.74-24.1,22.52-2.78,42.63-1.46,59.11,1.22"/><line class="c" x1="293.07" y1="636" x2="312.07" y2="625"/><g><path d="M349.47,450.53c.7,5.05,1.06,7.57,1.78,12.62-2.4,.4-3.61,.59-6.02,.94-1.68-13.4-3.29-26.81-4.81-40.24,2.69-.39,4.04-.6,6.72-1.05,11.37,11.67,23.16,22.98,35.49,33.64-2.44,.64-3.67,.95-6.12,1.54-4.6-4.1-6.87-6.19-11.37-10.42-6.25,1.33-9.39,1.93-15.69,2.96Zm12.43-6.44c-4.09-3.91-6.11-5.89-10.12-9.91-2.27-2.28-4.09-4.41-5.86-6.49l-.13,.02c.52,2.35,1,4.76,1.36,7.2,.58,4.65,.87,6.98,1.47,11.63,5.33-.87,7.98-1.36,13.28-2.44Z"/><path d="M371.81,417.71c4.82,8.62,7.29,12.89,12.34,21.36,4.78,8.01,11.24,10.11,17.05,8.24,6.45-2.08,8.31-6.9,3.45-14.55-5.2-8.19-7.75-12.33-12.73-20.67,2.19-.68,3.28-1.04,5.46-1.76,4.95,8.15,7.47,12.18,12.63,20.18,6.79,10.53,2.67,17.38-6.67,20.53-9.95,3.35-20.02-1.45-24.93-10.57-4.98-8.5-7.41-12.79-12.17-21.44,2.23-.51,3.34-.77,5.56-1.32Z"/><path d="M459.77,424.64c-1.88,1.89-5.78,5.4-11.42,8.09-6.32,3.02-12.52,4.11-18.79,2.73-5.54-1.22-10.83-4.86-14.29-10.15-7.36-10.74,0-22.38,10.97-26.39,4.7-2.02,8.89-2.89,11.09-3.02,.44,1.61,.67,2.41,1.11,4.01-2.69,.24-5.81,.86-9.92,2.65-9.9,4.32-13.19,11.91-7.64,20.32,5.62,8.51,16.39,10.67,25.34,6.24,3.52-1.67,5.63-3.24,6.51-4.32-2.8-3.78-4.19-5.68-6.95-9.51-3.33,1.61-5,2.39-8.36,3.91-.95-1.35-1.42-2.03-2.37-3.39,5.43-2.43,8.13-3.7,13.47-6.36,4.44,6.13,6.69,9.17,11.25,15.17Z"/><path d="M450.7,387.73c5.38,7.5,8.12,11.2,13.7,18.51,5.28,6.92,11.6,7.51,16.9,4.29,5.89-3.58,7.18-8.84,1.88-15.38-5.67-7.01-8.47-10.57-13.96-17.78,2-1.2,3-1.8,4.99-3.03,5.43,7.02,8.2,10.48,13.81,17.31,7.39,8.99,4.28,16.84-4.34,22.12-8.15,4.99-17.32,4.9-24.58-4.78-5.52-7.36-8.23-11.08-13.56-18.62,2.07-1.04,3.1-1.57,5.16-2.64Z"/><path d="M502.25,393.8c3.08-.54,7.03-2.02,10.38-4.51,4.97-3.7,6.07-7.84,3.58-10.59-2.31-2.55-5.66-2.51-11.87-.26-7.45,2.69-13.39,2.89-16.74-1.23-3.71-4.55-1.53-11.09,5.61-16.12,3.76-2.65,7.02-3.96,9.23-4.45,.49,1.57,.74,2.35,1.23,3.92-1.62,.39-4.76,1.35-8.09,3.71-5.03,3.57-5.06,7.22-3.43,9.19,2.23,2.7,5.64,2.49,12.05,.25,7.85-2.75,12.96-3.05,16.59,.91,3.82,4.15,3.04,11.19-5.85,17.86-3.64,2.73-8.36,4.83-11.29,5.26-.57-1.57-.85-2.36-1.41-3.94Z"/><path d="M518.82,347.35c-4.28,3.53-6.44,5.26-10.82,8.62-1.06-1.22-1.58-1.83-2.63-3.05,8.86-6.96,17.37-14.04,25.83-21.48,1.07,1.14,1.6,1.7,2.68,2.83-4.14,3.78-6.24,5.63-10.49,9.25,7.14,7.84,14.53,15.52,22.08,22.97-1.84,1.68-2.76,2.51-4.62,4.15-7.55-7.57-14.8-15.41-22.03-23.29Z"/></g></g></svg>