<?xml version="1.0" encoding="UTF-8"?><svg id="a" xmlns="http://www.w3.org/2000/svg" viewBox="0 0 601.91 498.28"><defs><style>.b{fill:#fff;}.b,.c,.d{stroke-miterlimit:10;}.b,.d{stroke:#000;stroke-width:4px;}.c{fill:#ff1d25;stroke:#bebebe;}</style></defs><path class="b" d="M313.06,2.56c33.58,40.18,76.3,84.23,126.12,118.99,64.94,45.31,119.58,59.23,159.38,62.21l-183.69,310.69c-53.67,7.17-99.79-8.07-131.99-23.55-85.02-40.88-151.29-121.16-192.26-171.61C53.66,253.81,23.74,209.57,2.82,176.71L313.06,2.56Z"/><path class="c" d="M376.71,137.62c20,45.81-4.09,98.7-41.06,120.1-58.01,33.57-148.79-9.72-157.02-70.01-5.62-41.2,27.92-85.83,72.09-100.13,45.46-14.71,104.94,1.83,125.99,50.04Z"/><path class="d" d="M220.9,175.01c-1.56,23.84,26.07,50.18,53.24,51.32,7.35,.31,20.12-1,21.78-6.64,1.94-6.57-13.24-12.22-35.32-33.51-18.29-17.64-24.56-29.85-31.62-27.74-5.59,1.67-7.73,11.15-8.09,16.58Z"/><path class="d" d="M267.71,162.56c-8.07,.01-17.01-6.38-17.36-13.12-.32-6.29,6.98-11.13,13.93-15.97,8.37-5.84,20.8-14.49,33.42-8.16,1.94,.97,8.98,4.85,13.05,14.47,5.92,13.96-3.63,29.71-.87,31.77,3.86,2.88,18.14-29.3,31.68-26.22,5.42,1.23,10.23,8.02,10.35,14.03,.12,6.03-4.54,8.81-21.44,23.96-16.29,14.61-18.37,17.78-23.64,17.36-7.99-.63-15.87-8.9-18.47-18.41-4.17-15.24,6.1-30.45,3.02-33.11-2.99-2.59-10.95,13.37-23.67,13.39Z"/><g><path d="M314.38,339.75c6.35-4.91,9.46-7.4,15.54-12.43,1.48,1.2,2.23,1.8,3.72,2.98-4.62,3.86-6.97,5.77-11.75,9.56,4.6,3.74,6.93,5.58,11.67,9.18,4.41-3.6,6.57-5.42,10.85-9.07,1.52,1.12,2.28,1.68,3.82,2.79-4.27,3.69-6.44,5.52-10.84,9.15,6.51,4.83,9.83,7.18,16.58,11.74-1.5,1.29-2.25,1.93-3.76,3.21-12.31-8.63-24.18-17.6-35.82-27.11Z"/><path d="M367.67,324.27c-4.12,3.88-6.21,5.81-10.47,9.64,5.16,3.66,7.77,5.44,13.08,8.92,4.73-4.39,7.05-6.6,11.61-11.05,1.59,1.01,2.39,1.51,3.99,2.5-5.9,5.82-8.93,8.71-15.13,14.43-12.26-8.15-24.07-16.65-35.68-25.7,6-5.08,8.94-7.65,14.67-12.83,1.48,1.14,2.22,1.71,3.71,2.84-4.36,3.98-6.58,5.95-11.1,9.87,4.36,3.38,6.57,5.04,11.05,8.3,4.26-3.8,6.36-5.71,10.48-9.56,1.51,1.07,2.27,1.6,3.79,2.65Z"/><path d="M355.19,305.96c1.07-1.67,3.07-4.05,5.39-6.25,3.3-3.14,6.19-4.55,9.4-4.88,2.57-.27,5.41,.37,8.13,2.27,3.34,2.33,4.75,5.92,3.48,9.5l.11,.07c3.21-1.84,8.7-2.82,14.04,.5,3.09,1.93,4.69,4.28,5.18,6.64,.66,3.15-1.07,6.84-5.21,11.1-2.26,2.33-4.24,3.97-5.57,4.96-11.99-7.56-23.56-15.47-34.95-23.9Zm17.55,7.13c1.21-1.17,1.81-1.76,3-2.94,3.47-3.43,2.95-7.13-.4-9.48-4.07-2.85-7.84-1.82-11.17,1.38-1.52,1.45-2.24,2.4-2.63,3.02,4.42,3.28,6.66,4.88,11.2,8.02Zm17.23,11.27c.81-.55,1.81-1.48,2.97-2.68,3.38-3.47,4.61-7.73-.62-11.03-4.91-3.1-9.8-1.46-13.38,2.11-1.09,1.08-1.63,1.62-2.73,2.69,5.42,3.66,8.18,5.45,13.76,8.91Z"/><path d="M375.44,286.3c1.13-1.94,3.13-4.44,5.24-6.65,3.27-3.43,6.19-5.02,9.52-5.29,2.66-.21,5.64,.63,8.3,2.38,4.55,2.99,5.75,7.03,4.57,10.54l.16,.1c2.73-1.41,6.29-1.03,10.54,.52,5.71,2.09,9.78,3.36,11.65,3.58-1.2,1.43-1.81,2.15-3.02,3.57-1.4-.13-5.08-1.25-10.17-3.16-5.62-2.1-8.68-1.92-11.59,1.01-1.15,1.26-1.72,1.89-2.88,3.14,6.15,3.88,9.27,5.76,15.62,9.37-1.22,1.37-1.84,2.06-3.08,3.42-12-6.9-23.63-14.42-34.85-22.53Zm18.85,7.52c1.26-1.35,1.88-2.03,3.13-3.39,3.25-3.54,2.59-7.47-1.36-10.07-4.46-2.94-8.51-1.93-11.79,1.45-1.47,1.56-2.34,2.81-2.63,3.47,4.99,3.5,7.52,5.21,12.66,8.53Z"/><path d="M396.5,262.82c7.98,5.44,12.06,8.05,20.42,13,7.9,4.69,13.57,3.83,16.42,.24,3.17-3.98,1.56-8.33-6.21-12.77-8.32-4.76-12.39-7.27-20.34-12.53,1.1-1.33,1.65-1.99,2.73-3.32,7.82,5.13,11.83,7.58,20,12.22,10.77,6.12,12.14,12.68,7.52,18.54-4.36,5.53-12.18,7.53-23.13,.97-8.32-4.98-12.39-7.6-20.34-13.07,1.17-1.31,1.75-1.97,2.91-3.29Z"/><path d="M439.91,252.76c3.61,3.5,5.43,5.22,9.14,8.62-1.07,1.45-1.6,2.18-2.68,3.63-9.74-9.16-19.06-18.75-27.95-28.73,1.23-1.59,1.85-2.39,3.06-3.99,13.6,3.94,27.15,7.21,41.05,9.94-1.01,1.51-1.53,2.26-2.56,3.76-5.3-.98-7.93-1.52-13.16-2.7-2.7,3.79-4.08,5.69-6.89,9.47Zm2.86-10.64c-4.76-1.13-7.13-1.73-11.82-3.01-2.66-.73-4.96-1.56-7.2-2.38l-.06,.08c1.71,1.62,3.45,3.28,5.15,5.02,3.18,3.36,4.8,5.02,8.07,8.29,2.39-3.19,3.56-4.79,5.86-7.99Z"/><path d="M431.16,220.02c.76-1.95,2.21-4.51,3.8-6.8,2.47-3.55,4.86-5.33,7.79-5.88,2.34-.44,5.1,.1,7.71,1.52,4.45,2.43,6.06,6.15,5.46,9.58l.15,.08c2.25-1.58,5.49-1.54,9.5-.45,5.39,1.47,9.22,2.31,10.93,2.34-.89,1.46-1.34,2.19-2.24,3.65-1.28,0-4.73-.73-9.55-2.08-5.32-1.49-8.02-1.04-10.24,2-.86,1.3-1.29,1.94-2.17,3.24,6,3.12,9.04,4.62,15.21,7.46-.92,1.41-1.38,2.12-2.31,3.52-11.67-5.43-23.04-11.51-34.03-18.2Zm17.76,5.43c.95-1.4,1.42-2.1,2.36-3.5,2.44-3.65,1.33-7.31-2.53-9.43-4.36-2.39-7.83-1.07-10.31,2.43-1.11,1.61-1.72,2.88-1.9,3.54,4.89,2.88,7.36,4.27,12.38,6.95Z"/></g><text/></svg>