<?xml version="1.0" encoding="UTF-8"?><svg xmlns="http://www.w3.org/2000/svg" viewBox="0 0 1367.2 714.11"><defs><style>.c{fill:none;}.c,.d,.e,.f,.g{stroke:#000;stroke-miterlimit:10;}.c,.e,.f,.g{stroke-width:4px;}.d{stroke-width:6px;}.d,.e{fill:#fff;}.f{fill:#a5abd6;}</style></defs><g id="a"><polygon class="d" points="122.15 500.87 265.13 404.87 265.13 66.82 122.15 66.82 122.15 500.87"/><polygon class="f" points="697.13 56.9 697.13 364.55 871.08 364.55 871.08 62.91 697.13 56.9"/><polygon class="f" points="966.69 56.9 966.69 364.55 1140.64 364.55 1140.64 62.91 966.69 56.9"/><polyline class="c" points="390.75 0 390.75 421.45 1367.2 421.45"/><line class="c" x1="1.2" y1="712.51" x2="390.75" y2="421.45"/></g><g id="b"><path class="g" d="M1306.2,380.32c.39-.91,1.19-3.55-3.59-11.26-9.57-15.47-19.36-15.45-26.13-26.81-.4-.67-8.38-14.47-3.59-26.28,4.86-11.98,19.99-14.82,35.35-17.7,13.48-2.53,35.43-6.64,44.57,5.9,4.18,5.74,4.12,12.81,4.1,15.55-.07,7.69-3,13.5-12.81,28.42-12.24,18.63-19.58,27.72-17.42,30.57,2.06,2.7,10.43-3.23,14.86,1.07,3,2.91,2.14,8.54,2.05,9.12-.76,4.59-3.89,7.45-5.12,8.58-8.3,7.59-37.48,18.42-68.64,5.36-2.3-.96-14.99-6.28-14.34-10.19,.54-3.26,10.2-4.53,25.61-6.43,16.2-2.01,23.28-1.61,25.1-5.9Z"/><polygon class="g" points="1312.86 410.89 1312.86 463.44 1351.79 476.31 1265.22 476.31 1300.05 463.44 1300.57 410.89 1312.86 410.89"/><polygon class="e" points="1003.78 556.47 1008.62 390.34 1038.46 394.37 1025.38 556.47 1003.78 556.47"/><polygon class="e" points="947.08 489.46 938.65 321.43 963.06 323.73 964.53 488.18 947.08 489.46"/><polygon class="e" points="1149.07 483.48 1140.64 315.45 1165.05 317.74 1166.52 482.19 1149.07 483.48"/><polygon class="e" points="1238.42 556.47 1243.22 401.8 1272.81 405.55 1259.83 556.47 1238.42 556.47"/><polygon class="e" points="926.44 320.27 1034.33 413.01 1287.73 404.14 1166.76 313.82 926.44 320.27"/><path class="g" d="M943.38,437.43c-.41-.91-1.24-3.56,3.76-11.29,10.05-15.51,20.32-15.49,27.42-26.88,.42-.67,8.79-14.51,3.76-26.34-5.1-12.01-20.98-14.86-37.1-17.74-14.15-2.53-37.18-6.66-46.77,5.91-4.39,5.75-4.33,12.84-4.3,15.59,.07,7.71,3.15,13.54,13.44,28.49,12.85,18.68,20.55,27.79,18.28,30.65-2.16,2.71-10.95-3.24-15.59,1.08-3.15,2.92-2.25,8.56-2.15,9.14,.79,4.6,4.08,7.47,5.38,8.6,8.72,7.61,39.34,18.46,72.04,5.38,2.42-.97,15.73-6.3,15.05-10.22-.57-3.27-10.71-4.54-26.88-6.45-17.01-2.01-24.43-1.61-26.34-5.91Z"/><polygon class="g" points="936.39 468.07 936.39 520.76 895.53 533.66 986.39 533.66 949.83 520.76 949.29 468.07 936.39 468.07"/><path class="g" d="M844.74,406.14c-.39-.94-1.18-3.68,3.58-11.68,9.57-16.04,19.35-16.02,26.12-27.81,.4-.7,8.37-15.01,3.58-27.25-4.86-12.43-19.99-15.37-35.33-18.35-13.48-2.62-35.41-6.89-44.55,6.12-4.18,5.95-4.12,13.29-4.1,16.13,.07,7.98,3,14,12.8,29.48,12.24,19.32,19.58,28.75,17.41,31.7-2.06,2.81-10.43-3.35-14.85,1.11-3,3.02-2.14,8.86-2.05,9.45,.76,4.76,3.89,7.73,5.12,8.9,8.3,7.87,37.47,19.1,68.62,5.56,2.3-1,14.99-6.51,14.34-10.57-.54-3.38-10.2-4.69-25.6-6.67-16.2-2.08-23.27-1.67-25.09-6.12Z"/><polygon class="g" points="838.08 437.84 838.08 492.34 799.16 505.69 885.71 505.69 850.88 492.34 850.37 437.84 838.08 437.84"/><path class="g" d="M1174.32,460.32c-2.89-3.57,3.7-13.17,8.24-19.69,10.37-14.87,15-15.13,19.22-23.27,5.37-10.34,5.29-24.16,0-34.9-9.12-18.53-31.95-24.28-47.6-23.27-14.39,.93-33.93,8.29-38.45,22.37-1.28,4-.8,7.73,0,15.21,.83,7.73,2.97,17.32,9.15,30.43,9.86,20.91,19.12,27.67,16.48,31.32-4.15,5.75-28.71-8.68-36.51,.01-2.26,2.52-2.99,6.8-2.42,10.04,.89,5.06,4.59,8.21,6.04,9.45,9.38,8,49.34,25.24,80.97,5.91,8.87-5.42,17.81-14.16,15.99-18.26-1.83-4.14-15.06-4.38-20.14-4.47-7.02-.13-9.59,.83-10.99-.89Z"/><polygon class="g" points="1148.76 492.8 1148.76 550.69 1102.84 564.87 1204.96 564.87 1163.87 550.69 1163.26 492.8 1148.76 492.8"/></g></svg>