<?xml version="1.0" encoding="UTF-8"?><svg xmlns="http://www.w3.org/2000/svg" viewBox="0 0 172.66 524.53"><defs><style>.j{fill:#111500;}.j,.k,.l,.m,.n,.o,.p,.q{stroke:#000;stroke-miterlimit:10;}.k,.m{fill:none;}.r{fill:#e1845f;}.m{stroke-width:3px;}.n{fill:#846534;}.o{fill:#a8bacc;}.p{fill:#fff;}.q{fill:#e8ce9c;}</style></defs><g id="a"><path class="l" d="M70.7,521c.94-1.36,.51-2.81,0-6.6-1.19-8.77-.08-9.64-1.54-11.56-2.81-3.68-9.52-3.87-10.79-1.65-.81,1.41,1.23,2.7,1.54,6.6,.39,4.92-2.56,6.54-1.54,9.9,.87,2.87,3.87,4.52,6.17,4.95,.41,.08,4.49,.78,6.17-1.65Z"/><path class="l" d="M106.24,522.13c-.99-1.4,.08-2.29,0-6.95-.05-3.11-.55-4.3-.25-6.91,0,0,.3-2.56,1.32-4.28,.05-.08,.27-.45,.38-.64,.14-.24,.16-.28,.21-.35,.16-.21,10.76-4.08,11.62-1.74,.41,1.11-2.12,1.63-3.04,4.38-1.6,4.79,4.4,8.29,3.04,13-.85,2.94-4.1,4.75-6.64,5.21-.45,.08-4.83,.82-6.64-1.74Z"/></g><g id="b"><path class="o" d="M47.02,353.64c3.06,50.67,6.12,101.34,9.17,152,5.49,.87,10.98,1.75,16.46,2.62l13.53-111.74,16.58,111.74c5.88-.87,11.76-1.75,17.63-2.62,2.18-48.05,4.37-96.09,6.55-144.14-26.64-2.62-53.29-5.24-79.93-7.86Z"/></g><g id="c"><path class="q" d="M74.54,188.54c.6,3.12,1.26,7.63,1.31,13.1,.06,6.41,.09,9.61-1.31,11.79-2.82,4.38-9.46,5.27-22.64,6.85-7.33,.88-8.38,.5-9.39,.74,0,0-.37,.11-.73,.27-.38,.17-12.9,7.42-10.48,65.52,.43,10.31,1.14,17.75,.87,31.49-.19,9.49-.73,11.14-.87,19.61-.28,16.53,.37,40.5,2.62,40.62,2.76,.15,6.99-35.81,7.86-43.24,1.4-11.91,2.16-21.8,2.62-28.83,1.79-27.51,1.26-48.48,1.31-48.48,.05,0,2.51,17.1,0,40.62-2,18.76-7.93,48.86-.57,61.54,.41,.71,1.39,2.36,3.19,3.97,6.2,5.54,15.26,3.21,20.97,3.93,30.29,3.82,34.97,4.09,41.93,2.62,7.27-1.53,17.52-3.7,22.28-11.79,3.23-5.5,1.39-9.42,0-23.59-1.8-18.34-1.87-32.59-1.31-53.73,.33-12.58,1.21-22.28,1.31-22.28,.14,0-1.34,19.44-1.31,39.31,.02,14.95,.91,36.97,5.24,64.21,2.67,11.02,4.27,13.19,5.24,13.1,3.03-.26,3.71-22.75,3.93-30.14,.07-2.24,.21-8,0-15.72-.28-10.07-.95-15.91-1.31-20.97-1.53-21.17,2.64-23.88,1.31-47.17-.69-12.06-2.17-17.68-3.93-22.28-2.7-7.05-5.31-14-11.79-18.35-11.61-7.78-25.43-1.12-28.83-7.86-.65-1.3-.2-1.66,0-10.48,.11-4.99,.06-9.08,0-11.79"/></g><g id="d"><path class="j" d="M63.34,218.68c5.27,1.52,4.58,4.33,10.71,7.9,7.21,4.19,16.44,5.11,24.1,2.63,1.98-.64,5.88-1.9,9.37-5.26,3.44-3.3,2.78-5.15,5.36-6.58,2.9-1.61,7.33-.22,16.07,2.63,5.37,1.75,8.08,2.66,9.37,3.95,3.31,3.31,2.58,7.04,4.02,15.79,.79,4.82,.96,2.53,4.02,15.79,3.97,17.25,4.15,19.27,2.68,21.05-4.08,4.97-13.83,.29-17.41,5.26-2.2,3.06-.94,6.86,0,11.84,2.13,11.3-.32,13.69,0,27.63,.65,28.81,11.5,36.66,5.36,44.74-5.01,6.59-16.2,6.59-32.13,6.58-8.11,0-12.03-.94-26.78-2.63-12.91-1.48-18.7,.65-28.12-2.63-5.16-1.8-11.15-3.98-13.39-9.21-2.12-4.95,.64-9.03,2.68-17.11,.49-1.95,.49-2.33,1.34-25,.44-11.81-2.18-36.08,2.09-37.76,.07-.03,.62-.24,.59-.4-.12-.73-11.46,2.7-14.73-1.32-.57-.71-.79-1.51,0-9.21,.81-7.92,1.13-7.58,1.24-10.84,.18-5.35-.44-8.56,0-12.8,0-.03,.03-.2,.07-.54,.31-2.46,1.01-7.96,1.36-10.04,.77-4.5,1.39-8.12,4.02-10.53,1.85-1.69,3.42-1.44,12.05-2.63,12.4-1.72,13.6-2.03,16.07-1.32Z"/></g><g id="e"><path class="q" d="M23.81,58.73c-4.01,4.73-14.47,17.39-18.25,37.72-5.78,31.15,8.55,56.47,11.52,61.72,22.5,39.75,64.56,41.08,70.1,41.15,7.73,.1,50.37-.57,71.07-40.01,14.29-27.23,9.72-56.97,8.64-64.01-1.36-8.83-3.92-25.56-15.37-40.01-11.57-14.61-25.52-18.44-37.45-21.72-4.8-1.32-24.88-6.39-49.94,1.14-11.66,3.51-26.81,8.06-40.33,24Z"/><g id="f"><g id="g"><path class="n" d="M7.88,133.13c3.8,.09-.93-36.24,17.28-54.67,10.88-11.01,25.44-11.07,44.16-11.16,25.58-.11,29.51,8.62,55.68,6.69,14.38-1.06,18.07-4.05,24,0,13.12,8.95,15.39,37.44,16.32,49.09,.78,9.73,.23,15.54,.96,15.62,1.49,.15,5.26-24.13,5.76-49.09,.21-10.37,.29-15.8-.96-23.43-.78-4.79-3.33-19.47-12.48-33.47-11.34-17.35-26.38-23.8-33.6-26.78-30.07-12.38-57.53-.62-72,5.58C33.79,19.75,9.18,30.3,2.12,55.03c-2.57,9.01-1.71,20.88,0,44.63,.38,5.24,2.41,33.39,5.76,33.47Z"/></g></g><g id="h"><path class="p" d="M69.64,120.54c-1.26-4.7-8.14-5.81-9.95-6.11-6.49-1.05-11.47,2.09-12.94,3.05-1.17,.77-7.9,5.17-6.97,9.16,.76,3.25,6.13,4.32,9.95,5.09,4.27,.86,11.03,2.21,15.93-2.04,.24-.21,5.2-4.62,3.98-9.16Z"/><path class="p" d="M107.55,120.58c1.26-4.68,8.14-5.8,9.95-6.09,6.49-1.05,11.47,2.08,12.94,3.04,1.17,.76,7.9,5.15,6.97,9.13-.76,3.24-6.13,4.31-9.95,5.07-4.27,.85-11.03,2.2-15.93-2.03-.24-.21-5.2-4.61-3.98-9.13Z"/><path class="k" d="M83.56,168.96c1.27,.03,5.6,.14,9.91,0,11.93-.38,16.3-2.36,16.84-1.05,.75,1.85-6.69,8.88-15.85,10.47-6.73,1.17-12.18-.99-14.86-2.09-4.99-2.05-10.41-5.81-9.91-7.33,.38-1.12,3.75-.25,13.87,0Z"/><path class="k" d="M89.46,135.55c-.72,2.14-1.63,5-2.63,8.4-2.09,7.14-2.12,8.47-1.58,9.52,1.59,3.11,7.28,2.09,8.06,1.94"/><ellipse class="r" cx="38.78" cy="142.65" rx="9.26" ry="4.55"/><ellipse class="r" cx="140.23" cy="142.55" rx="9.26" ry="4.55"/></g><g id="i"><path class="l" d="M65.7,122.59c-.8-5.12-5.86-6.96-6.08-7.04-.43-.15-4.41-1.44-8.11,1.01-2.74,1.81-4.25,4.97-4.06,8.04,.05,.74,.29,3,2.03,5.03,2.57,2.99,6.33,3.01,7.1,3.02,.96,0,3.69-.02,6.08-2.01,2.26-1.88,3.53-4.95,3.04-8.04Zm-8.25,3.66c-2.18,0-3.31-1.6-3.41-3.28-.31,.14-.67,.22-1.08,.22-3.27,0-3.26-5.03,0-5.03,1.3,0,2.07,.8,2.34,1.76,.54-.43,1.26-.71,2.15-.71,4.57,0,4.57,7.04,0,7.04Z"/><path class="l" d="M131.02,122.53c-.8-5.15-5.86-7.01-6.08-7.08-.43-.15-4.41-1.45-8.11,1.01-2.74,1.83-4.25,5-4.06,8.1,.05,.74,.29,3.02,2.03,5.06,2.57,3.01,6.33,3.03,7.1,3.04,.96,0,3.69-.02,6.08-2.02,2.26-1.89,3.53-4.98,3.04-8.1Zm-8.25,3.68c-2.18,0-3.31-1.61-3.41-3.3-.31,.14-.67,.22-1.08,.22-3.27,0-3.26-5.06,0-5.06,1.3,0,2.07,.8,2.34,1.77,.54-.44,1.26-.71,2.15-.71,4.57,0,4.57,7.08,0,7.08Z"/><path class="m" d="M69.64,107.4c-2.17-1.31-6.38-3.42-11.95-3.54-2.86-.06-7.92-.23-12.94,3.54-3.08,2.31-4.95,5.19-5.97,7.07"/><path class="m" d="M106.72,107.14c2.17-1.31,6.38-3.42,11.95-3.54,2.86-.06,7.92-.23,12.94,3.54,3.08,2.31,4.95,5.19,5.97,7.07"/></g></g></svg>