<?xml version="1.0" encoding="UTF-8"?><svg id="a" xmlns="http://www.w3.org/2000/svg" viewBox="0 0 712.99 404.09"><defs><style>.b{fill:none;}.b,.c,.d,.e{stroke:#000;stroke-miterlimit:10;stroke-width:4px;}.c{fill:#f3f3f3;}.f{fill:#ff5747;}.d{fill:#fff;}</style></defs><path class="c" d="M530,44.69c-8.27-3.75-5.87-12.75-14.3-17.36-7.76-4.24-18.24-1.23-24.51,3.06-5.91,4.05-8.44,9.49-10.21,13.28-2.59,5.55-5.38,11.53-3.06,16.34,3.62,7.53,16.68,5.82,17.36,10.21,.53,3.42-6.84,7.87-13.28,10.21-12.19,4.45-20.01,1-37.79,1.02-1.56,0-14.37,.06-23.49,2.04-19.78,4.3-32.9,20.01-42.89,33.7-22.4,30.69-38.72,53.06-51.06,93.96-18.84,62.41-6.05,93.94-37.79,128.68-7.64,8.37-14.74,13.49-17.36,15.32-26.89,18.73-50.52,15.87-116.43,17.36-57.66,1.31-83.04,4.49-100.09,7.15-25.86,4.04-53.4,10.16-53.11,12.26,.27,1.96,24.65-1.23,72.51-3.06,41.01-1.58,44.34-.05,77.62-2.04,25.97-1.55,43.56-3.65,64.34-6.13,39.04-4.66,58.85-7.13,72.51-14.3,9.78-5.13,14.55-9.52,24.51-10.21,13.44-.94,21.22,5.89,41.87,17.36,16.26,9.03,31.26,17.36,49.02,22.47,10.08,2.9,24.22,3.67,52.09,5.11,49.87,2.56,56.72-.24,59.46-5.16,3.5-6.3,.7-16.89-5.33-22.42-3.65-3.35-9.09-5.39-14.3-5.11-6.79,.37-8.2,4.39-14.3,4.09-5.55-.28-11.77-3.99-12.26-8.17-.49-4.23,5.3-5.57,10.21-12.26,8.15-11.1,1.16-19.6,8.17-29.62,7.35-10.5,22.05-11.19,23.49-11.23,14.11-.46,23.68,8.55,27.57,12.26,7.25,6.9,8.7,12.55,15.32,26.55,11.84,25.05,17.76,37.58,26.55,40.85,16.09,5.99,41.63-9.96,41.87-23.49,.17-9.46-12.15-10.78-23.49-26.55-8.76-12.2-10.27-27.88-13.28-59.23-2.84-29.63-4.19-44.77,2.04-59.23,6.54-15.17,16.65-24.4,23.49-30.64,13.31-12.14,16.01-8.74,42.89-27.57,11.45-8.02,22.95-17.04,31.66-31.66,4.28-7.19,5.01-10.9,5.21-12.04,2.62-14.85-7.6-30.31-18.49-39.03-15.91-12.73-25.82-5.11-37.79-18.38-8.16-9.06-6.91-16.33-16.34-21.45-9.46-5.13-19.6-2.62-20.43-6.13-.65-2.76,5.64-4.19,9.19-11.23,2.81-5.57,3.93-14.71-1.02-19.4-5.86-5.56-16.51-1.37-17.36-1.02-10.07,4.11-14.15,15.21-15.32,18.38-2.63,7.15-.78,8.87-3.66,12.68-1.06,1.4-3.71,4.33-19.83,7.75-11.32,2.4-16.98,3.6-20.43,2.04Z"/><path class="d" d="M603.38,55.23c8.42,1.28,13.13,8.24,14.55,13.46,.35,1.3,2.74,10.09-4.04,15.59-6.08,4.92-14.58,3.19-16.17,2.83-.72-.16-9.48-2.29-12.93-9.92-2.98-6.59-.88-14.79,5.66-19.13,.72-.48,6.02-3.89,12.93-2.83Z"/><path class="d" d="M648.31,40.63c6.42-.12,11.1,5.24,13.06,9.58,.48,1.08,3.78,8.39-.26,14.17-3.62,5.18-10.17,4.93-11.4,4.85-.56-.04-7.38-.6-11.25-6.73-3.34-5.3-3.22-12.75,.83-17.5,.45-.53,3.75-4.27,9.03-4.37Z"/><path class="e" d="M670.43,110.05c-1.05-.32-.39-2.18-2.04-6.13-2.46-5.89-5.96-6.59-5.62-9.19,.49-3.68,8.15-7.14,13.79-5.11,1,.36,1.96,.71,2.69,1.65,3.98,5.15-5.77,19.7-8.82,18.78Z"/><path class="b" d="M641.32,123.33c.31-2.63,18.22,2.3,34.21-7.66,6.42-3.99,10.53-9.14,11.74-8.17,1.42,1.13-3.04,8.97-5.11,12.26-3.35,5.34-5.03,8.02-8.17,9.7-4.87,2.61-9.97,1.43-18.38-.51-1.45-.33-14.57-3.37-14.3-5.62Z"/><path class="b" d="M646.94,102.39c-2.29-.96-6.89-2.52-12.77-2.04-6.92,.56-11.75,3.63-13.79,5.11"/><path class="b" d="M644.39,109.54c-2.42-.54-7.43-1.29-13.28,.51-8.1,2.5-12.46,8.29-13.79,10.21"/><path class="b" d="M688.76,89.02c.89-2.02,3.05-6.23,7.66-9.7,4.28-3.23,8.56-4.24,10.72-4.6"/><path class="b" d="M691.88,95.24c1.31-1.09,4.93-3.82,10.21-4.09,2.85-.14,5.17,.48,6.64,1.02"/><path class="e" d="M597.09,63.19c5.76,.88,8.99,5.64,9.96,9.21,.24,.89,1.88,6.91-2.77,10.67-4.16,3.37-9.98,2.19-11.06,1.94-.49-.11-6.49-1.57-8.85-6.79-2.04-4.51-.6-10.12,3.87-13.09,.5-.33,4.12-2.66,8.85-1.94Z"/><path class="e" d="M643.59,47.82c3.83-.07,6.62,3.13,7.79,5.71,.29,.64,2.25,5-.15,8.45-2.16,3.09-6.07,2.94-6.8,2.89-.33-.02-4.4-.36-6.71-4.02-1.99-3.16-1.92-7.6,.5-10.43,.27-.31,2.24-2.55,5.38-2.61Z"/><path class="f" d="M581.28,123.01c8.89,0,17.41-7.82,17-17s-7.47-17-17-17c-8.89,0-17.41,7.82-17,17s7.47,17,17,17h0Z"/><path class="d" d="M538.43,55.23c-8.37-1.92-15.68-18.58-10.89-28.26,6.83-13.81,37.19-11.16,55.83-9.53,15,1.31,33.5,4.95,33.36,8.17-.19,4.62-38.58,6.24-38.47,8.51,.1,1.94,28.03,.03,28.86,4.68,.61,3.44-13.35,11.6-28.52,12.68-12.03,.85-17.78-3.26-29.62,.68-5.69,1.89-7.28,3.81-10.55,3.06Z"/></svg>