<?xml version="1.0" encoding="UTF-8"?><svg id="a" xmlns="http://www.w3.org/2000/svg" viewBox="0 0 181.43 101.71"><defs><style>.b{fill:#f3f3f3;stroke:#000;stroke-miterlimit:10;stroke-width:4px;}</style></defs><path class="b" d="M47.77,0c0,4.61,.47,28.07,18.67,43.69,10.98,9.42,30.83,18.04,41.35,10.72,10.47-7.28,6.61-26.8,15.78-28.94,2.94-.69,6.67,.55,8.32,2.89,3.27,4.67-3.09,11.85-.99,14.25,3.95,4.5,28.06-18.95,40.52-12.39,8.42,4.44,10.88,22.23,4.08,31.6-2.35,3.24-4.78,4.05-14.84,8.12-25.26,10.23-37.61,15.88-43.74,18.81-9.13,4.37-12.86,6.57-17.38,8.14,0,0-4.89,1.56-10.29,2.48-10.76,1.84-44.62-3.77-88.66-17.55"/></svg>