<?xml version="1.0" encoding="UTF-8"?><svg xmlns="http://www.w3.org/2000/svg" viewBox="0 0 1159.29 448.71"><defs><style>.d{fill:none;}.d,.e,.f{stroke-miterlimit:10;}.d,.f{stroke:#000;stroke-width:4px;}.g{fill:#304b00;}.e{fill:#b49c44;stroke:#b49c44;}.f{fill:#455b68;}</style></defs><g id="a"><polyline class="e" points="113.63 255.33 113.63 388.72 113.63 430.42 1030.74 415.7 1040.95 239.49 651.85 12.72"/><path class="g" d="M6.91,376.52c1.01-2.84,7.51-20.25,26.04-27.57,2.84-1.12,17.38-6.87,32.01,.05,18.04,8.54,21.96,29.6,22.42,32.28,2.23,13.09-2.5,21.8,1,23.75,5.14,2.85,13.99-16.68,28.83-17.01,14.8-.33,30.87,18.54,32.88,37.38,.61,5.71,1.04,9.74-1.3,13.78-7.08,12.23-27.18,3.09-73.71,7.83-13.23,1.35-24.9,3.44-40.6-.77-6.23-1.67-13.8-3.78-20.68-9.96C0,423.87-.09,404.98,.02,400.26"/><path class="g" d="M1008.66,441.82c-.99-1.87-6.67-13.06-2.44-25.4,2.85-8.32,8.66-12.64,11.49-14.74,2.21-1.64,12.67-9.42,23.23-6.13,6.8,2.12,8.61,7.24,11.23,6.13,4.7-1.98-2.23-17.96,4.6-31.94,7.35-15.05,25.75-17.7,26.64-17.81,1.72-.22,16.48-1.85,28.69,9.48,2.19,2.04,9.16,8.68,11.43,19.5,3.14,14.99-5.23,26.11-1.66,28.96,3.67,2.92,12.24-9.8,22.98-7.37,6.33,1.43,12.41,7.9,12.41,13.9,0,4.55-2.63,8.29-8.43,15.81-3.62,4.69-7,8.16-9.35,10.42"/></g><g id="b"><path class="d" d="M651.85,3.53l-5.11,426.89,356.94-12.02c.07-.33,.15-.66,.26-.98,.73-2.24,1.47-4.49,2.26-6.68,.26-1.3,.73-2.54,1.42-3.66,3.21-7.71,7.71-14.38,16.59-17.42,1.73-.59,3.52-.58,5.22-.13,2.75-.32,5.7,0,8.87,1.15,.95,.34,1.84,.79,2.66,1.32V239.44L651.85,3.53Z"/><path class="d" d="M108.58,395.76c.35-47.47,.35-95.47,.35-142.47,4-4,9-6,14-8,138-60,270-123,407-186,23-11,46-23,70-32,18-8,35-16,51.91-23.77"/><path class="d" d="M646.74,430.42c-162.81-.13-326.81-.13-489.79,0"/><polygon class="f" points="578.06 275.19 602.57 267.53 602.57 179.44 582.65 186.33 578.06 275.19"/><polygon class="f" points="506.82 287.44 546.65 275.19 546.65 197.06 506.82 207.78 506.82 287.44"/><polygon class="f" points="418.65 227.31 418.65 305.48 393.46 310.25 397.55 232.29 418.65 227.31"/><polygon class="f" points="357.72 248.97 357.72 312.29 325.72 321.48 325.72 255.78 357.72 248.97"/><polygon class="f" points="266.48 276.89 266.48 329.99 249.8 333.06 251.51 281.99 266.48 276.89"/><polygon class="f" points="239.59 337.48 241.29 287.44 228.02 291.19 224.27 340.89 239.59 337.48"/><polyline class="d" points="108.53 310.25 648.08 145.76 1040.95 304.97"/><polyline class="d" points="108.53 369.4 650.14 276.89 1040.95 363.27"/><polygon class="f" points="703.56 272.34 682.5 264.25 686.01 181.69 703.1 188.89 703.56 272.34"/><polygon class="f" points="765.2 286.47 730.95 273.51 734.07 200.28 768.38 211.81 765.2 286.47"/><polygon class="f" points="844.49 233.39 841.37 306.66 863.14 312.06 862.69 238.84 844.49 233.39"/><polygon class="f" points="896.49 262.34 894.2 316.11 921.77 325.11 924.15 269.31 896.49 262.34"/><polygon class="f" points="975.21 285.51 973.09 335.29 987.51 338.78 988.07 290.85 975.21 285.51"/><polygon class="f" points="996.24 343.31 996.76 296.34 1008.19 300.34 1009.47 347.07 996.24 343.31"/><polygon class="f" points="498.65 176.12 526.74 169.48 526.74 80.12 503.25 86.76 498.65 176.12"/><polygon class="f" points="554.31 159.78 580.87 153.65 580.87 61.23 558.4 66.85 554.31 159.78"/><polygon class="f" points="443.51 197.06 418.65 203.19 421.04 124.04 439.42 114.33 443.51 197.06"/><polygon class="f" points="403.16 128.12 386.82 134.76 383.25 213.4 406.06 203.19 403.16 128.12"/><polygon class="f" points="347.51 227.01 347.51 159.78 329.12 165.4 325.72 231.27 347.51 227.01"/><polygon class="f" points="314.31 235.87 314.31 170.76 298.99 176.12 295.42 242.25 314.31 235.87"/><polygon class="f" points="266.48 250.67 266.48 195.53 249.8 203.19 249.8 255.27 266.48 250.67"/><polygon class="f" points="239.25 206.5 241.29 260.89 224.27 264.46 224.27 209.31 239.25 206.5"/><polygon class="f" points="164.7 276.89 164.7 239.44 145.8 255.27 145.8 287.44 164.7 276.89"/><polygon class="f" points="760.87 171.13 735.82 162.46 743.87 79.18 764.73 87.45 760.87 171.13"/><polygon class="f" points="711.5 150.98 687.8 142.93 696.13 56.79 716.15 64.01 711.5 150.98"/><polygon class="f" points="809.37 195.51 831.51 203.42 836.47 129.45 820.55 118.78 809.37 195.51"/><polygon class="f" points="852.43 141.07 866.76 148.7 862.94 222.3 843.02 210.77 852.43 141.07"/><polygon class="f" points="894.36 231.91 900.42 169.26 916.71 176.12 913.88 237.8 894.36 231.91"/><polygon class="f" points="959.76 363.53 957.72 403.87 980.58 403.87 980.58 367.1 959.76 363.53"/><polygon class="f" points="866.76 342.59 870.91 410.5 852.26 408.46 848.95 338.78 866.76 342.59"/><polygon class="f" points="781.21 324.31 786.32 410.1 759.76 404.99 761.81 317.63 781.21 324.31"/><polygon class="f" points="713.12 321.7 716.15 406.42 690.65 400.8 693.03 317.06 713.12 321.7"/><polygon class="f" points="607.93 302.76 605.89 400.8 578.06 406.42 580.87 310.25 607.93 302.76"/><polygon class="f" points="529.29 314.16 529.29 410.5 501.21 413.06 506.82 319.1 529.29 314.16"/><polygon class="f" points="375.08 340.89 371.51 406.42 336.61 413.06 341.72 349.23 375.08 340.89"/><polygon class="f" points="184.1 374.64 184.1 415.61 204.53 410.5 204.53 374.64 184.1 374.64"/><polygon class="f" points="214.74 363.95 214.74 413.4 232.78 406.76 237.21 363.87 214.74 363.95"/></g><g id="c"><path class="d" d="M15.81,367.56c1.33-1.9,14.9-20.55,36-19.91,20.25,.61,34.28,18.59,39.06,32.17,5.67,16.1,.49,32.18,3.83,32.94,2.71,.62,4.55-10.36,14.55-16.85,7.4-4.8,16.74-5.51,22.98-3.83,14.7,3.95,26.23,24.93,22.21,50.55"/><path class="d" d="M1010.06,437.57c-.79-1.13-9.58-14.22-3.83-29.11,4.06-10.52,14.35-19.26,24.51-19.15,11.16,.12,16.62,10.86,21.45,8.43,5.63-2.84-2.01-17.35,4.6-29.87,6.25-11.84,24.62-20.77,42.13-15.32,17.81,5.54,26.47,23.39,26.04,36-.28,8.3-4.55,16.11-3.06,16.85,1.62,.81,5.17-9.24,13.38-11.37,6.8-1.76,17.74,1.67,21.09,11.37,2.96,8.58-1.3,18.39-9.96,22.21"/></g></svg>