<?xml version="1.0" encoding="UTF-8"?><svg id="a" xmlns="http://www.w3.org/2000/svg" viewBox="0 0 1025.85 435.11"><defs><style>.b{fill:#45525a;stroke:#000;stroke-miterlimit:10;stroke-width:4px;}</style></defs><path class="b" d="M594.24,189.05c11.15-2.44,14.97-6.16,32.29-15.38,10.47-5.57,25.59-13.61,40.79-18.79,23.85-8.12,27.86-2.37,61.19-10.25,36.36-8.6,41.22-17.72,42.49-20.5,4.3-9.43,2.82-23.56-5.1-30.75-10.26-9.32-22.74,.83-54.39-3.42-13.65-1.83-26.74-3.77-35.69-13.67-9.41-10.41-5.34-19.79-10.2-30.75-9.23-20.83-39.36-21.81-124.08-34.17C482.2,2.72,479.03,.58,463.37,2.84c-29.91,4.31-35.99,14.65-79.88,23.92-34.91,7.37-37.06,2.1-57.79,10.25-3.18,1.25-57.3,23.2-57.79,56.38-.03,2.03-.02,15.01,8.5,22.21,8.43,7.12,17.11,1.78,32.29,6.83,13.66,4.55,13.42,11.13,27.19,18.79,13.66,7.6,26.16,7.95,47.59,8.54,29.75,.83,39.81-5.17,54.39,3.42,1.62,.95,14.6,8.78,13.6,17.08-1,8.31-15.2,10.41-15.3,17.08-.11,7.06,15.64,12.59,18.7,13.67,27.77,9.76,56.25,2.68,73.09-1.71,16.3-4.25,18.82-6.96,32.29-8.54,16.55-1.95,20.75,1.19,33.99-1.71Z"/><path class="b" d="M477.67,354.38c-3.96-14.64,8.98-29.12,22.01-43.71,12.11-13.55,25.07-28.06,44.02-29.8,18.3-1.68,20.6,10.53,40.01,11.92,19.99,1.43,26.83-10.87,74.03-35.76,26.15-13.79,39.44-20.67,50.02-19.87,31.27,2.38,45.73,35.89,62.02,29.8,8.9-3.32,6.94-14.2,16.01-29.8,13.05-22.45,43.05-44.59,74.03-41.72,33.36,3.09,58.48,34.33,66.02,61.59,10.19,36.8-10.8,69.39,0,75.49,7.86,4.44,18.28-13.21,46.02-17.88,7.25-1.22,33.86-5.7,46.02,9.93,8.49,10.92,7.44,28.45,0,39.73-9.87,14.96-29.81,17.16-58.02,19.87-33.81,3.24-36.43-2.88-58.02,0-36.09,4.82-36.24,22.92-80.03,37.75-12.51,4.24-44.8,14.8-84.03,9.93-29.72-3.69-36.34-12.87-66.02-11.92-27.28,.88-32.46,8.98-48.02,3.97-25.56-8.23-21.13-33.18-46.02-43.71-24.18-10.23-37.68,9.39-70.03-1.99-7.33-2.58-26.04-9.16-30.01-23.84Z"/><path class="b" d="M388.23,332.2c-8.51,18.1-70.39,11.72-85.91,10.11-25.19-2.6-38.46-7.18-56.38,0-14.37,5.76-14.98,12.37-26.85,17.7-24.76,11.12-42.58-8.46-77.85-12.64-57.81-6.85-100.99,34.93-118.12,17.7-5.65-5.68-13.42-22.76-13.42-22.76h0s29.64-9.46,29.53-17.7c-.11-7.83-26.98-5.81-34.9-20.23-8.32-15.14,6.6-44.16,29.53-55.63,22.16-11.07,33,3.63,56.38-5.06,33.02-12.28,26.29-47.17,61.75-63.21,16.92-7.66,41.72-10.23,59.06,0,20.03,11.82,44.42,78.54,34.9,58.15h0s-6.48,23.49,0,27.81c6.68,4.46,19.74-16.39,42.95-17.7,17.03-.96,36.8,8.75,42.95,22.76,5.94,13.53-4.18,23.43,2.68,30.34,8.79,8.85,28.06-4.68,42.95,5.06,8.35,5.46,14.35,17.59,10.74,25.28Z"/></svg>