<?xml version="1.0" encoding="UTF-8"?><svg id="a" xmlns="http://www.w3.org/2000/svg" viewBox="0 0 926.1 370.5"><defs><style>.b{fill:#617480;stroke:#000;stroke-miterlimit:10;stroke-width:4px;}</style></defs><path class="b" d="M227.12,203.6c17.82-22.13,25-24.61,25-24.61,12.91-4.45,24.86,5.09,27.27,7.13,1.68,1.42,14.65,12.4,13.2,25.71-.88,8.05-6.39,11.21-5.03,15.1,2.01,5.71,14.33,7.55,24.3,5.83,15.97-2.76,16.74-13.14,32.74-19.71,19.63-8.06,39.72-1.16,46,1,14.76,5.07,24.02,13.5,31,20,19.27,17.93,15.75,27.42,34,42,13.35,10.67,22.19,11.14,23,18,1.14,9.71-15.17,20.54-28,26-45.07,19.19-87.46-10.62-107.3,11.03-5.1,5.57-4.8,7.67-10.53,15.33-10.72,14.32-31.09,12.94-43.76,12.07-13.82-.94-27.31-5.99-54.31-16.08-16.01-5.99-24.33-9.89-36.62-7.38-8,1.63-14.15,5.27-22.4,10.14-20.12,11.88-19.78,18.32-30.16,22.11-10.79,3.94-13.94-1.99-47.83-11.57-18.5-5.23-27.75-7.84-38.05-8.49-19.13-1.19-25.28,3.14-36.43-2.73-7.67-4.04-20.33-14.3-19.24-27.4,.9-10.82,10.83-19.24,17.67-22.58,7.63-3.72,14.5-2.63,14.6-3.89,.15-1.86-15,.14-24.61-9.57-8.95-9.05-12.4-27.56-7.17-42.53,7.65-21.89,30.57-26.78,33.16-27.28,16.96-3.31,25.54,7.17,34.46-.29,6.36-5.32,3.99-12.33,9.48-25.64,7.78-18.87,24.84-34.58,42.35-38.16,10.31-2.1,18.57,.99,35.08,7.19,18.4,6.9,28.5,10.69,36.33,22.15,7.07,10.34,7.02,19.05,16.5,24.28,5.48,3.02,11.25,3.19,15.29,2.85Z"/><path class="b" d="M879.6,133.05c13.58-20.09,42.26-13.75,44.39-27.6,2.17-14.19-25.89-33.4-49.6-35.71-4.26-.42-7.75-.12-10.8,.62-18.12,4.42-30.89,11.42-34.28,13.66-21.71,14.31-83.15,24.2-110.7,.03-22.03-19.32-4.86-45.02-29.06-66.7-25.76-23.07-67.22-13.68-72.94-12.3-6.65,1.6-34.01,8.6-52,33-26.41,35.81-8.52,76.41-23,82-16.65,6.43-60.36-39.53-97.79-78.89-5.15-5.42-17.13-18.2-34.21-19.11-12.65-.68-22.48,5.46-28,9-24.73,15.88-47.02,51.67-41.48,91.06,.66,4.72,6.14,39.92,34.48,58.94,13.87,9.31,29.49,12.24,30.89,12.49,12.08,2.16,23.76,1.18,27.14,1.03,14.89-.67,21.51-3.4,38.24-1.03,40.67,5.77,40.83,27.46,90.17,45.24,14.09,5.08,50.48,17.74,94.68,11.9,33.49-4.42,40.95-15.43,74.39-14.29,24.67,.84,33.3,7.27,44.81,6.67,2.75-.14,4.92-.86,9.29-1.91,18.28-4.36,30.41-10.8,35.38-13.11,28.91-13.43,48.17,4.7,60-7,17.2-17.01-19.09-59.75,0-88Z"/></svg>