<?xml version="1.0" encoding="UTF-8"?><svg id="a" xmlns="http://www.w3.org/2000/svg" viewBox="0 0 844.41 370.38"><defs><style>.b{fill:#2d2f3c;stroke:#000;stroke-miterlimit:10;stroke-width:4px;}</style></defs><path class="b" d="M363.42,76.83h0c-32.85-40.36-47.86-45.96-47.86-45.96-26.98-10.06-55.71,3.25-61.54,6.13-4.07,2.01-35.41,17.48-35.9,39.83-.29,13.51,10.89,19.89,6.84,26.04-5.64,8.56-27.64-3.33-54.7,4.6-23.39,6.85-44.62,26.75-42.73,42.89,.96,8.16,7.45,12.15,5.13,15.32-4.34,5.93-26.32-8.89-52.99-6.13-28.2,2.92-46.81,23.97-58.12,36.77-10.56,11.95-22.71,25.69-18.8,41.36,1.78,7.13,6.97,15.02,15.38,19.91,19.37,11.26,38.1-3.66,56.41,6.13,11.85,6.34,9.92,15.76,18.8,27.57,19.5,25.95,64.37,27.89,92.3,29.11,30.45,1.32,61.33-4.23,123.07-15.32,36.62-6.58,55.89-11.31,82.05-4.6,17.03,4.37,29.48,11.67,46.15,21.45,40.69,23.86,38.17,34.45,59.83,42.89,22.48,8.77,31.01-.39,107.69-9.19,41.86-4.81,62.79-7.21,85.47-6.13,42.12,2.01,54.38,10.47,80.34,3.06,17.86-5.09,48.36-19.45,49.57-41.36,1-18.1-18.38-34.11-32.41-41.07-15.64-7.75-30.96-7.37-30.84-9.49,.18-3.11,32.75,3.36,56.41-10.72,22.04-13.11,34.67-43.05,27.35-68.94-10.7-37.84-59.43-50.71-64.95-52.09-36.15-9.01-57.78,6.55-75.21-7.66-12.44-10.14-5.34-21.25-13.67-44.43-11.82-32.86-44.78-62.44-82.05-72-21.95-5.63-40.84-2.22-78.63,4.6-42.1,7.6-65.21,11.77-85.47,29.11-19.03,16.29-22.06,32.66-42.73,36.77-11.94,2.37-34.19,1.53-34.19,1.53Z"/></svg>