<?xml version="1.0" encoding="UTF-8"?><svg id="a" xmlns="http://www.w3.org/2000/svg" viewBox="0 0 186.61 311.65"><defs><style>.b{stroke:#000;stroke-miterlimit:10;stroke-width:4px;}</style></defs><path class="b" d="M94.21,146.27c-.69-1.55-2.11-6.04,6.39-19.17,17.06-26.33,34.49-26.29,46.55-45.63,.71-1.14,14.92-24.63,6.39-44.72-8.66-20.39-35.62-25.22-62.98-30.12C66.54,2.33,27.44-4.67,11.15,16.67,3.7,26.43,3.81,38.47,3.85,43.14c.12,13.09,5.35,22.98,22.82,48.37,21.81,31.71,34.89,47.18,31.03,52.02-3.67,4.6-18.58-5.49-26.47,1.83-5.34,4.96-3.82,14.54-3.65,15.52,1.35,7.81,6.93,12.69,9.13,14.6,14.8,12.92,66.78,31.34,122.3,9.13,4.1-1.64,26.71-10.69,25.56-17.34-.96-5.55-18.18-7.7-45.63-10.95-28.87-3.42-41.47-2.74-44.72-10.04Z"/><polygon class="b" points="82.34 198.3 82.34 287.74 12.97 309.65 167.22 309.65 105.16 287.74 104.24 198.3 82.34 198.3"/></svg>