<?xml version="1.0" encoding="UTF-8"?><svg id="a" xmlns="http://www.w3.org/2000/svg" viewBox="0 0 177.04 310"><defs><style>.b{stroke:#000;stroke-miterlimit:10;stroke-width:4px;}</style></defs><path class="b" d="M119.55,152.53c-4.3-5.3,5.5-19.59,12.25-29.28,15.42-22.11,22.3-22.5,28.59-34.6,7.98-15.37,7.86-35.93,0-51.9C146.83,9.21,112.88,.66,89.61,2.16c-21.4,1.38-50.45,12.33-57.17,33.27-1.91,5.95-1.19,11.5,0,22.62,1.23,11.49,4.42,25.76,13.61,45.24,14.67,31.09,28.43,41.14,24.5,46.57-6.17,8.54-42.69-12.9-54.29,.02-3.37,3.75-4.44,10.11-3.59,14.93,1.33,7.52,6.82,12.21,8.99,14.05,13.95,11.9,73.37,37.54,120.4,8.78,13.19-8.06,26.48-21.06,23.78-27.15-2.73-6.16-22.39-6.52-29.95-6.65-10.43-.19-14.26,1.23-16.33-1.33Z"/><polygon class="b" points="81.55 200.84 81.55 286.92 13.26 308 165.11 308 104.01 286.92 103.11 200.84 81.55 200.84"/></svg>