<?xml version="1.0" encoding="UTF-8"?><svg id="a" xmlns="http://www.w3.org/2000/svg" viewBox="0 0 456.5 290.28"><defs><style>.b{fill:#fff;}.b,.c{stroke:#000;stroke-miterlimit:10;stroke-width:4px;}</style></defs><path class="b" d="M208.42,2.69c-25.12,.79-62.53,5.06-102.17,21.94-20.4,8.69-53.55,22.81-78.19,54.42C19.23,90.38,2.13,112.96,2,144.87c-.13,31.35,16.2,53.72,23.98,64.07,25.7,34.2,62.49,48.8,85.49,57.93,16.13,6.4,68.55,26.54,135.53,20.19,23.25-.63,59.66-4.26,99.04-20.19,20.36-8.24,36.62-17.77,49-26.33,0,0,45.39,33.43,50.04,29.84,3.2-2.47-28.55-24.13-25.02-50.03,2.24-16.45,16.4-17.63,27.11-40.37,10.86-23.06,6.97-44.54,5.21-53.54-5.81-29.75-24.68-48.99-35.45-59.68-17.85-17.74-36.14-27.18-50.04-34.23-35.99-18.24-68.5-23.75-84.44-26.33-17.87-2.89-43.33-5.47-74.02-3.51Z"/><circle class="c" cx="147" cy="147.78" r="10.5"/><circle class="c" cx="231" cy="147.78" r="10.5"/><circle class="c" cx="315" cy="147.78" r="10.5"/></svg>