<?xml version="1.0" encoding="UTF-8"?><svg xmlns="http://www.w3.org/2000/svg" viewBox="0 0 382.42 611.93"><defs><style>.c{fill:none;}.c,.d{stroke:#000;stroke-miterlimit:10;stroke-width:4px;}.e{fill:#516900;}.d{fill:#754c24;}</style></defs><g id="a"><path class="e" d="M220.34,398.88c-7.42,.36-10.03,.67-10.03,.67-22.12,2.6-40.05,6.97-61.2,4.97-7.17-.68-12.4-1.87-14.93-2.5-3.28-.81-13.98-3.47-22.72-8.76-19.33-11.7-16.45-28.62-34.74-36.03-3.37-1.36-2.46-.38-13.06-2.74-10.34-2.29-28.84-6.4-38.56-12.13C.11,327.64-8.15,277.86,9.17,249.79c6.14-9.96,10.36-8.82,14.62-18.53,10.49-23.88-11.16-39.63-5.91-63.23,6.24-28.03,44.86-42.11,61.97-48.36,25.28-9.22,35.42,2.15,59.66-9.15,6.37-2.97,22.38-10.67,34.27-27.36,10.27-14.43,7.12-27.57,20.48-44.35,5.09-6.39,10.3-10.73,13.74-13.32,4.23-3.49,10.14-7.46,17.79-10.36,3-1.14,8.63-3.22,16.4-3.75,8.06-.55,14.23,1.17,16.96,1.56,3.9,.57,7.2,1.9,14.79,6.49,20.47,12.4,30.71,18.59,36.12,27.21,10.07,16.05,7.52,34.21,6.67,40.24-2.57,18.27-10.52,19.82-15.45,43.51-1.6,7.69-3.02,18.37-2.03,30.95,1.25,15.8,2.23,28.17,10.87,34.38,8.86,6.37,18.26,.83,26.76,9.46,3.09,3.14,1.96,5.36,6.51,11.23,5.58,7.19,11.06,9.42,17.31,20.47,9.22,16.29,15.81,53.05,5.76,84.32-15.5,48.2-59.14,65.04-74.43,70.94-27.11,10.46-54.35,8.1-56.74,7.87-1.38-.13-2.28-.25-3.01-.36-1.45-.22-2.5-.43-2.75-.48-2.99-.59-7.3-.4-9.19-.31Z"/></g><g id="b"><path class="c" d="M260.85,386.99c48.03-14.7,72.04-22.05,86.14-35.37,27.7-26.18,42.05-74.57,27.92-111.57-15.59-40.82-53.36-35.11-67.01-73.56-16.35-46.08,30.23-75.9,13.66-115.3C304.09,9.67,229.47-11.54,199.21,11.43c-22.82,17.32-7.8,50.18-38.86,80.05-5.16,4.97-8.92,7.27-51.48,26.05-74.91,33.05-84.95,34.84-90.05,47.84-9.66,24.65,13.98,37.02,4.54,75.92-6.91,28.48-21.54,35.94-18.82,58.39,3.11,25.68,25.44,42.23,29.93,45.4,19.75,13.95,33.23,2.85,54.35,16.9,16.59,11.03,11.77,19.18,26.62,30.47,23.53,17.88,56.22,13.12,90.18,8.17,19.95-2.91,33.75-7.06,55.22-13.63Z"/><path class="d" d="M300.34,232.81l-26.42,30.35c-.1,.11-.18,.24-.23,.38l-20.07,52.41c-.12,.31-.35,.56-.64,.68l-43.36,18.07c-.89,.37-1.77-.58-1.44-1.57l39.24-119.71c.04-.12,.06-.25,.07-.38l3.05-97.58c0-.12,0-.25-.04-.37l-8.01-32.35c-.34-1.37-2.16-1.12-2.2,.31l-.72,32.99-2.77,84.52c0,.2-.06,.39-.15,.57l-25.99,50.58c-.31,.61-1.02,.81-1.56,.44l-112.82-77.33c-.27-.19-.61-.24-.92-.13l-44.39,15.28c-1.14,.39-1.01,2.23,.17,2.41,11.57-.87,23.13-1.75,34.69-2.64,2.8-.22,7.22-.56,10.02-.78,29.33,23.67,58.66,47.35,87.98,71.02,.32,.23,.51,.63,.5,1.06l-1.44,65.69c-.02,.99-1.03,1.55-1.76,.99l-64.8-50.05c-.47-.36-.61-1.06-.33-1.62l11.45-22.5c.62-1.22-.77-2.46-1.72-1.52l-23.63,23.42c-.18,.17-.4,.28-.63,.31l-58.26,6.86c-1.37,.16-1.33,2.38,.05,2.46l61.56,3.82c.24,.02,.48,.12,.66,.29l48.29,45.89c.13,.36,.26,.76,.37,1.18,.43,1.69,.4,3.22,.25,4.39,.03,1.33,.05,2.67,.08,4-.24,1.41-1.67,10.33,2.1,12.39,.22,.12,.45,.21,.71,.29l16.87,15.61c.26,.24,.41,.6,.4,.97l-1.31,59.75c-.01,.62-.45,1.1-.98,1.18-.01,6.28-.29,12.56-.77,18.84,0,.04,0,.08-.01,.12,0,.08,0,.15-.01,.23,.69,.06,1.17,.79,.99,1.54l-17.73,75.7c-.04,.19-.05,.38-.01,.57l14.5,75.89c.11,.56,.55,.96,1.07,.98l56.26,1.24c.67,.01,1.21-.63,1.14-1.37-.23-2.3-.46-4.59-.68-6.89l-37.92-92.27c-.09-.22-.12-.47-.08-.72l13.81-91.15c.01-.09,.02-.18,.01-.27l-2.43-52.59c-.02-.53,.26-1.02,.71-1.22,0,0,45.37-20.16,65.9-29.52,6.01-2.74,11.02-55.98,11.02-55.98,.07-.23,.14-.46,.21-.69,4.46-14.56,11.51-29.52,22.11-44.44Z"/></g></svg>