<?xml version="1.0" encoding="UTF-8"?><svg xmlns="http://www.w3.org/2000/svg" viewBox="0 0 469.91 563.54"><defs><style>.c{fill:none;}.c,.d{stroke:#000;stroke-miterlimit:10;stroke-width:4px;}.e{fill:#307500;}.d{fill:#754c24;}</style></defs><g id="a"><path class="e" d="M205.23,320.98c-42.76,4.53-70.59,7.47-97.6,1.16-14.32-3.35-59.48-13.5-85.77-57.9-31.62-53.4-27.73-136.12,3.94-160.98,7.31-5.73,14.47-7.11,25.63-9.26,38.75-7.47,51.02,14.83,77.89,11.58,28.76-3.48,27.31-30.45,82.81-70.64,20.32-14.71,35.6-25.78,58.17-31.27,35.05-8.52,87.26-3.46,101.55,28.95,10.56,23.94-9.26,40.89,1.97,74.12,6.9,20.41,16.48,20.28,39.44,50.96,21.88,29.24,35.35,47.24,37.46,71.8,4.46,51.82-45.07,92.73-49.29,96.12-8.31,6.67-31.96,25.67-63.1,24.32-37.64-1.63-48.83-31.38-94.65-33.58-11.49-.55-8.28,1.44-38.45,4.63Z"/></g><g id="b"><path class="c" d="M153,316.08c-20.65,1.34-71.26,4.64-105-24.49C-2.69,247.84-4.18,140.55,33,112.72c29.3-21.94,62.77,20.34,121-1.06,34.69-12.75,32.1-31.17,77-58.56,16.07-9.8,93.2-56.85,135-27.68,30.08,20.99,8.7,58.29,47,121.38,26.91,44.33,48.93,44.79,54,76.66,6.35,39.96-21.72,80.45-48,101.15-44.48,35.04-96.95,23.77-103,22.36-42.88-9.97-46.59-37.43-89-42.59-29.85-3.63-34.73,9.16-74,11.71Z"/><path class="d" d="M385,203.22c-7.67,7.81-15.33,15.62-23,23.42-4.02,3.16-8.68,6.44-14,9.58-3.47,2.05-6.83,3.81-10,5.32-14.74,4.28-29.48,8.56-44.22,12.84-.15,.02-.3,0-.45-.05l-33.98-13.5c-.46-.18-.7-.72-.56-1.22l6.95-23.22c.05-.16,.13-.3,.25-.42l24.41-24.31c.75-.75-.04-2.05-.99-1.62l-19.65,8.85c-.61,.27-1.28-.2-1.28-.9l.04-40.55c0-.35,.18-.68,.47-.85l67.38-40.33c1.01-.6,.27-2.23-.8-1.76l-76.12,33.55c-.26,.12-.46,.35-.54,.65l-23.54,91.55c-.13,.52-.63,.83-1.12,.69l-98.02-27.28c-.21-.06-.39-.19-.51-.37l-38.5-56.55c-.68-1-2.11-.03-1.55,1.05l32.19,62.03c.11,.21,.28,.37,.49,.45l94.44,36.29c.35,.13,.59,.48,.61,.87l4.68,101.62c0,.08,0,.15-.01,.23l-8.85,50.71s-.01,.07-.02,.1l-42.02,150.19c-.18,.65,.29,1.29,.93,1.26l70.94-3.75c.65-.03,1.06-.76,.79-1.39l-16.1-37.61c-.11-.25-.11-.53-.01-.78l34.35-89.43c.04-.1,.06-.2,.07-.3l9.07-137.82c.24-.31,.49-.61,.75-.9,9.57-10.85,28.27-9.99,42.03-7.57,13.07-4.41,23.06-9.23,30-13,1.71-.93,6.25-3.43,6-4-.48-1.09-17.21,8.53-36,9-13.35,.34-24.45-4.03-32-8,26-8.15,52-16.3,78-24.45,15.12-28.1,22.46-42.3,22-42.59-.15-.1-1.15,1.32-3,4.26Z"/></g></svg>