<?xml version="1.0" encoding="UTF-8"?><svg xmlns="http://www.w3.org/2000/svg" viewBox="0 0 399.84 586.23"><defs><style>.c{fill:none;}.c,.d{stroke:#000;stroke-miterlimit:10;stroke-width:4px;}.e{fill:#306100;}.d{fill:#754c24;}</style></defs><g id="a"><path class="e" d="M130.61,367.16c-12.8,1.63-10.97,2.9-20.6,3.76-21.63,1.94-39.12-5.54-47.5-9.24-.1-.04-2.11-.91-3.61-1.63-28.5-13.57-66.99-63.62-53.4-89.49,.85-1.62,2.37-3.43,2.37-3.43,1.51-2.01,6.09-7.82,14.63-13.57,4.8-3.23,4.75-2.33,7.57-4.68,2.51-2.1,5.46-7.15,8.48-10.08,2.43-2.35,2.94-1.44,6.95-4.24,4-2.79,6.35-5.69,9-9,7.69-9.62,11.15-19.18,12.96-24.32,0,0,1.36-3.33,1.95-6.2,4.25-20.56-23.28-50.38-27.8-85.31-.22-1.73-3.84-33.26,15.02-59.75,3.54-4.97,9.21-11.64,19.39-18.91C102.05,12.5,165.16-15.47,202,10.58c35.77,25.3,18.86,81.82,48.9,91.74,20.81,6.87,35.55-18.06,70.68-11.49,4.69,.88,22.83,4.76,37.35,19.24,27.71,27.63,31.02,82.61,8.12,109.41-27.53,32.21-83.88,13.12-91.58,36.76-5.38,16.51,19.44,26.84,18.82,54.5-.8,35.73-44.07,72.76-77.68,69.88-10.92-.94-9.37-5.1-31.73-10.12-10.04-2.25-29.61-6.47-54.27-3.33Z"/></g><g id="b"><path class="c" d="M98,358.85c-32.77-2.28-95.48-33.92-96-72.59-.48-35.65,52.77-38.43,67-88.19,13.9-48.6-29.37-72.3-17-115C69.37,23.15,179.4-15.77,221,16.07c29.94,22.91,13.73,74.26,46,89,23.06,10.53,38.8-12.29,69-4.47,38.81,10.05,69.82,62.24,60,92.83-12.37,38.53-97.93,15.13-112,58.31-9.42,28.93,24.19,54.07,13,85.69-9.85,27.83-46.79,39.04-72,38.08-27.98-1.07-32.05-16.76-67-21.42-30.11-4.01-36.3,6.41-60,4.76Z"/><path class="d" d="M123.82,584.05l1.04-23.84s0-.08,.01-.12l26.76-136.53c.01-.06,.02-.13,.01-.2l-5.31-115.21c-.01-.3-.19-.57-.46-.7l-91.97-44.06c-.95-.46-.33-1.89,.66-1.5l93.65,37.06c.4,.16,.85-.02,1.04-.4l34.52-70.81c.16-.32,.09-.71-.18-.96l-68.57-64.56c-.76-.72,.25-1.89,1.07-1.24l72.46,57.25c.2,.16,.47,.22,.72,.15,39.08-16.6,78.15-33.21,117.22-49.81,3.67,1,7.33,2,11,3h0c-39.44,18.96-78.87,37.93-118.31,56.89-.22,.08-.4,.25-.48,.46l-28.61,70.38c-.32,.79,.63,1.48,1.28,.94l56.79-47.21c.78-.64,1.8,.41,1.14,1.17l-49.48,56.89c-.14,.16-.21,.37-.2,.59l6.41,107.23c0,.07,0,.14-.01,.21l-14.19,70.15c-.01,.06-.02,.12-.02,.19l2.7,89.56c.01,.43-.31,.8-.74,.84-16.65,1.39-33.31,2.79-49.96,4.18Z"/></g></svg>