<?xml version="1.0" encoding="utf-8"?>
<!-- Generator: Adobe Adobe Illustrator 24.2.0, SVG Export Plug-In . SVG Version: 6.00 Build 0)  -->
<svg version="1.1" xmlns="http://www.w3.org/2000/svg" xmlns:xlink="http://www.w3.org/1999/xlink" x="0px" y="0px"
	 viewBox="0 0 612 806" style="enable-background:new 0 0 612 806;" xml:space="preserve">
<style type="text/css">
	.st0{stroke:#000000;stroke-width:0.3463;stroke-miterlimit:10;}
	.st1{stroke:#000000;stroke-width:0.2517;stroke-miterlimit:10;}
	.st2{stroke:#000000;stroke-width:0.4427;stroke-miterlimit:10;}
	.st3{fill:none;stroke:#000000;stroke-width:3;stroke-miterlimit:10;}
	.st4{stroke:#000000;stroke-width:3;stroke-miterlimit:10;}
	.st5{stroke:#000000;stroke-miterlimit:10;}
	.st6{fill:none;stroke:#000000;stroke-width:0.5684;stroke-miterlimit:10;}
	.st7{fill:none;stroke:#000000;stroke-width:0.8309;stroke-miterlimit:10;}
	.st8{fill:none;stroke:#000000;stroke-width:0.5;stroke-miterlimit:10;}
	.st9{fill:#3384BE;}
	.st10{fill:#7FCD31;}
	.st11{fill:#F5D8A3;}
	.st12{fill:#BC1C43;}
	.st13{fill:#F7DD31;}
	.st14{fill:#E2D827;}
	.st15{fill:#F1D8A3;}
	.st16{fill:#3784B7;}
	.st17{fill:#81C934;}
	.st18{fill:#E2D82C;}
	.st19{fill:#BD2042;}
	.st20{stroke:#000000;stroke-width:0.5;stroke-miterlimit:10;}
	.st21{fill:#242424;stroke:#000000;stroke-width:0.5;stroke-miterlimit:10;}
	.st22{fill:#FFFFFF;stroke:#FFFFFF;stroke-width:0.5;stroke-miterlimit:10;}
	.st23{fill:none;stroke:#355DAD;stroke-width:0.5;stroke-miterlimit:10;}
	.st24{opacity:0.2902;fill:#C71E18;}
	.st25{fill:#FFFFFF;stroke:#000000;stroke-miterlimit:10;}
	.st26{fill:#FFFFFF;stroke:#000000;stroke-width:0.3123;stroke-miterlimit:10;}
	.st27{fill:none;stroke:#000000;stroke-width:0.3123;stroke-miterlimit:10;}
	.st28{fill:#FFFFFF;stroke:#000000;stroke-width:0.3057;stroke-miterlimit:10;}
	.st29{fill:#E35F15;}
	.st30{fill:#FFFFFF;stroke:#000000;stroke-width:1.1718;stroke-miterlimit:10;}
	.st31{fill:#FFFFFF;stroke:#000000;stroke-width:1.0319;stroke-miterlimit:10;}
	.st32{fill:none;stroke:#000000;stroke-width:1.0319;stroke-miterlimit:10;}
	.st33{fill:#E22B31;}
	.st34{fill:#367AB9;}
	.st35{fill:#FFFFFF;stroke:#000000;stroke-width:0.9847;stroke-miterlimit:10;}
	.st36{fill:#FFFFFF;stroke:#000000;stroke-width:1.1538;stroke-miterlimit:10;}
	.st37{fill:#FFFFFF;stroke:#000000;stroke-width:1.0161;stroke-miterlimit:10;}
	.st38{fill:none;stroke:#000000;stroke-width:1.0161;stroke-miterlimit:10;}
	.st39{fill:#F3DD31;}
	.st40{fill:#81CA34;}
	.st41{fill:#BD2342;}
	.st42{fill:none;stroke:#000000;stroke-width:0.5068;stroke-miterlimit:10;}
	.st43{fill:#FFFFFF;stroke:#000000;stroke-width:0.5;stroke-miterlimit:10;}
	.st44{fill:none;stroke:#000000;stroke-width:0.499;stroke-miterlimit:10;}
	.st45{fill:#BD2242;}
	.st46{fill:none;stroke:#000000;stroke-width:0.496;stroke-miterlimit:10;}
	.st47{fill:none;stroke:#F3DD31;stroke-miterlimit:10;}
	.st48{fill:none;stroke:#000000;stroke-width:0;stroke-linecap:round;stroke-linejoin:round;}
	.st49{fill:#3883B4;}
	.st50{fill:#B47847;}
	.st51{fill:#EED7A2;}
	.st52{fill:#D97956;}
	.st53{fill:#D97956;stroke:#D97956;stroke-miterlimit:10;}
	.st54{fill:#E1D82E;}
	.st55{fill:#EFDC30;stroke:#000000;stroke-width:0.5;stroke-miterlimit:10;}
	.st56{fill:none;stroke:#FFFFFF;stroke-width:0.5;stroke-miterlimit:10;}
	.st57{fill:none;stroke:#000000;stroke-miterlimit:10;}
	.st58{fill:#FFFFFF;}
</style>
<g id="Skyggepersoner">
</g>
<g id="Ur">
	<g>
		<g>
			<g>
				<path d="M348.06,326.44c-0.43-0.13-0.95-0.13-1.45,0.03c-0.49,0.16-0.94,0.41-1.34,0.62c-0.8,0.4-1.61,0.74-2.42,1.06
					c-1.62,0.64-3.2,1.15-4.82,1.52c-3.29,0.74-6.53,1.04-9.62,1c1.85,1.74,4.92,3.51,8.08,3.93l-6.35,6.21
					c-6.7,6.43-12.82,13.25-19.18,19.85c-6.32,6.69-12.46,13.53-18.59,20.35l-9.21,10.2l-9.29,10.13l-9.28,10.17l-4.57,5.01
					l-3.02,3.25c-0.16,0.08-6.75,0.46-8.63-0.87c-4.48,4.68-9.1,9.37-13.68,14.24c3.08,2.24,7.82,2.45,12.25-0.22
					c-2.47,4.66-1.94,8.98,0.43,12.15c4.41-4.68,8.98-9.34,13.57-14.13c-1.37-1.73-1.41-8.13-1.27-8.56l3.06-3.29l4.55-4.98
					l9.28-10.17l9.32-10.17l9.24-10.23c6.14-6.83,12.27-13.65,18.55-20.31c6.37-6.61,12.52-13.46,19.08-19.74l6.43-6.29
					c0.37,3.17,2.03,6.04,3.75,8.22c0.22-3.18,0.6-6.46,1.36-9.72c0.37-1.66,0.82-3.36,1.37-5c0.28-0.83,0.59-1.64,0.92-2.46
					C346.87,327.46,347.14,326.73,348.06,326.44z"/>
			</g>
		</g>
		<g>
			<g>
				<path d="M290.57,435.08c1.59-5.24,4.6-9.44,8.02-12.52c-1.91-0.01-4.5,0.59-6.44,1.97c0.08-2.22,0.19-4.43,0.31-6.65
					c0.71-12.29,2.09-24.55,3.28-36.87c0.59-6.16,1.09-12.35,1.31-18.57c0.12-3.11,0.11-6.23,0.15-9.3l0.1-4.55l0.14-3.32
					c0.03-0.06,0.94-0.94,2.06-1.81c1.12-0.86,2.47-1.69,3.33-1.77c0.39-4.99,0.69-10.06,0.74-15.19c-2.84,0.35-5.55,2.66-6.72,6.36
					c-0.92-3.86-3.43-5.96-6.35-6.49c-0.05,4.71-0.32,9.48-0.7,14.31c0.81,0.15,1.98,1.2,2.97,2.22c0.99,1.02,1.81,2.01,1.87,2.17
					l-0.14,3.38l-0.1,4.59c-0.04,3.12-0.03,6.18-0.15,9.25c-0.21,6.14-0.71,12.28-1.3,18.42c-1.19,12.29-2.58,24.61-3.29,37.01
					c-0.13,2.25-0.24,4.5-0.32,6.76c-1.84-1.55-4.22-2.28-6.28-2.6C286.1,425.62,289,429.88,290.57,435.08z"/>
			</g>
		</g>
	</g>
</g>
<g id="Sut">
</g>
<g id="Baby">
</g>
<g id="Papir">
	<rect x="411.07" y="799.97" class="st25" width="8.94" height="8.94"/>
</g>
<g id="Blyant">
</g>
<g id="Hovedperson_ked_af_det_gravid">
</g>
<g id="Hovedperson">
</g>
<g id="Hovedperson_ked_af_det_gravid_copy_2">
</g>
<g id="Hovedperson_bagfra">
	<g id="Layer_6">
	</g>
</g>
<g id="Hovedperson_glad_gravid">
</g>
<g id="Hovedperson_glad_ikke_gravid">
</g>
<g id="Hovedperson_fra_siden">
</g>
</svg>
